0 
0 Name: New Model.ldr
0 Author: 
1 8 0 -64 240 1 0 0 0 1 0 0 0 1 3832.dat
1 72 0 -72 240 1 0 0 0 1 0 0 0 1 87079.dat
1 72 -70 -72 240 1 0 0 0 1 0 0 0 1 26603.dat
1 72 70 -72 240 1 0 0 0 1 0 0 0 1 26603.dat
1 8 120 -72 260 0 0 1 0 1 0 -1 0 0 3001.dat
1 8 -120 -72 260 0 0 1 0 1 0 -1 0 0 3001.dat
1 8 -120 -72 340 0 0 1 0 1 0 -1 0 0 3001.dat
1 8 120 -72 340 0 0 1 0 1 0 -1 0 0 3001.dat
1 8 120 -72 420 0 0 1 0 1 0 -1 0 0 3001.dat
1 8 -120 -72 420 0 0 1 0 1 0 -1 0 0 3001.dat
1 8 130 -48 350 1 0 0 0 1 0 0 0 1 88292.dat
1 8 130 -48 330 -1 0 0 0 1 0 0 0 -1 88292.dat
1 8 -130 -48 350 1 0 0 0 1 0 0 0 1 88292.dat
1 8 -130 -48 330 -1 0 0 0 1 0 0 0 -1 88292.dat
1 8 0 -64 280 1 0 0 0 1 0 0 0 1 3832.dat
1 72 0 -72 280 1 0 0 0 1 0 0 0 1 87079.dat
1 72 -70 -72 280 1 0 0 0 1 0 0 0 1 26603.dat
1 72 70 -72 280 1 0 0 0 1 0 0 0 1 26603.dat
1 8 0 -64 320 1 0 0 0 1 0 0 0 1 3832.dat
1 72 0 -72 320 1 0 0 0 1 0 0 0 1 87079.dat
1 72 -70 -72 320 1 0 0 0 1 0 0 0 1 26603.dat
1 72 70 -72 320 1 0 0 0 1 0 0 0 1 26603.dat
1 8 0 -64 360 1 0 0 0 1 0 0 0 1 3832.dat
1 72 0 -72 360 1 0 0 0 1 0 0 0 1 87079.dat
1 72 -70 -72 360 1 0 0 0 1 0 0 0 1 26603.dat
1 72 70 -72 360 1 0 0 0 1 0 0 0 1 26603.dat
1 8 0 -64 400 1 0 0 0 1 0 0 0 1 3832.dat
1 72 0 -72 400 1 0 0 0 1 0 0 0 1 87079.dat
1 72 -70 -72 400 1 0 0 0 1 0 0 0 1 26603.dat
1 72 70 -72 400 1 0 0 0 1 0 0 0 1 26603.dat
1 8 0 -64 440 1 0 0 0 1 0 0 0 1 3832.dat
1 72 0 -72 440 1 0 0 0 1 0 0 0 1 87079.dat
1 72 -70 -72 440 1 0 0 0 1 0 0 0 1 26603.dat
1 72 70 -72 440 1 0 0 0 1 0 0 0 1 26603.dat
1 8 -110 -80 260 0 0 1 0 1 0 -1 0 0 2431.dat
1 8 -130 -120 260 0 0 1 0 1 0 -1 0 0 32932.dat
1 148 -130 -128 260 0 0 1 0 1 0 -1 0 0 2431.dat
1 8 -110 -80 340 0 0 1 0 1 0 -1 0 0 2431.dat
1 8 -130 -120 340 0 0 1 0 1 0 -1 0 0 32932.dat
1 148 -130 -128 340 0 0 1 0 1 0 -1 0 0 2431.dat
1 8 -110 -80 420 0 0 1 0 1 0 -1 0 0 2431.dat
1 8 -130 -120 420 0 0 1 0 1 0 -1 0 0 32932.dat
1 148 -130 -128 420 0 0 1 0 1 0 -1 0 0 2431.dat
1 8 130 -120 260 0 0 1 0 1 0 -1 0 0 32932.dat
1 148 130 -128 260 0 0 1 0 1 0 -1 0 0 2431.dat
1 8 110 -80 260 0 0 1 0 1 0 -1 0 0 2431.dat
1 8 130 -120 340 0 0 1 0 1 0 -1 0 0 32932.dat
1 148 130 -128 340 0 0 1 0 1 0 -1 0 0 2431.dat
1 8 110 -80 340 0 0 1 0 1 0 -1 0 0 2431.dat
1 8 130 -120 420 0 0 1 0 1 0 -1 0 0 32932.dat
1 148 130 -128 420 0 0 1 0 1 0 -1 0 0 2431.dat
1 8 110 -80 420 0 0 1 0 1 0 -1 0 0 2431.dat
1 8 110 -48 350 1 0 0 0 1 0 0 0 1 88292.dat
1 8 110 -48 330 -1 0 0 0 1 0 0 0 -1 88292.dat
1 8 -110 -48 350 1 0 0 0 1 0 0 0 1 88292.dat
1 8 -110 -48 330 -1 0 0 0 1 0 0 0 -1 88292.dat
1 8 -120 -48 340 -1 0 0 0 1 0 0 0 -1 3003.dat
1 8 120 -48 340 -1 0 0 0 1 0 0 0 -1 3003.dat
1 8 120 0 340 -1 0 0 0 1 0 0 0 -1 30145.dat
1 8 -120 0 340 -1 0 0 0 1 0 0 0 -1 30145.dat
1 8 -120 72 340 -1 0 0 0 1 0 0 0 -1 30145.dat
1 8 -120 144 340 -1 0 0 0 1 0 0 0 -1 30145.dat
1 8 -120 216 340 -1 0 0 0 1 0 0 0 -1 30145.dat
1 8 -120 288 340 -1 0 0 0 1 0 0 0 -1 30145.dat
1 8 120 72 340 -1 0 0 0 1 0 0 0 -1 30145.dat
1 8 120 144 340 -1 0 0 0 1 0 0 0 -1 30145.dat
1 8 120 216 340 -1 0 0 0 1 0 0 0 -1 30145.dat
1 8 120 288 340 -1 0 0 0 1 0 0 0 -1 30145.dat
