0 
0 Name: New Model.ldr
0 Author: 
1 8 0 -8 -60 1 0 0 0 1 0 0 0 1 3030.dat
1 8 0 -16 -60 1 0 0 0 1 0 0 0 1 3030.dat
1 8 0 -32 -20 1 0 0 0 1 0 0 0 1 3030.dat
1 72 0 -24 -80 1 0 0 0 1 0 0 0 1 87079.dat
1 72 0 -40 -40 1 0 0 0 1 0 0 0 1 87079.dat
1 72 0 -56 0 1 0 0 0 1 0 0 0 1 87079.dat
1 72 70 -24 -80 1 0 0 0 1 0 0 0 1 26603.dat
1 72 -70 -24 -80 1 0 0 0 1 0 0 0 1 26603.dat
1 72 70 -40 -40 1 0 0 0 1 0 0 0 1 26603.dat
1 72 -70 -40 -40 1 0 0 0 1 0 0 0 1 26603.dat
1 72 -70 -56 0 1 0 0 0 1 0 0 0 1 26603.dat
1 72 70 -56 0 1 0 0 0 1 0 0 0 1 26603.dat
1 8 0 -24 -40 1 0 0 0 1 0 0 0 1 3832.dat
1 8 0 -40 0 1 0 0 0 1 0 0 0 1 3832.dat
1 8 0 -48 0 1 0 0 0 1 0 0 0 1 3832.dat
1 8 130 -48 10 1 0 0 0 1 0 0 0 1 88292.dat
1 8 -130 -48 10 1 0 0 0 1 0 0 0 1 88292.dat
1 8 120 -24 -60 1 0 0 0 1 0 0 0 1 3003.dat
1 8 130 -48 -60 0 0 -1 0 1 0 1 0 0 98283.dat
1 148 130 -80 -70 1 0 0 0 1 0 0 0 1 6091.dat
1 8 120 -48 -90 1 0 0 0 1 0 0 0 1 3245cdm0.dat
1 8 -120 -48 -90 1 0 0 0 1 0 0 0 1 3245cdm0.dat
1 148 -130 -80 -70 1 0 0 0 1 0 0 0 1 6091.dat
1 148 -110 -80 -70 1 0 0 0 1 0 0 0 1 6091.dat
1 148 110 -80 -70 1 0 0 0 1 0 0 0 1 6091.dat
1 8 -130 -24 -40 0 0 1 0 1 0 -1 0 0 15533.dat
1 8 130 -64 -70 0 0 -1 0 1 0 1 0 0 86996.dat
1 8 130 -64 -50 0 0 -1 0 1 0 1 0 0 3386.dat
1 7 150 -57.9072 -50 0 -1 0 0 0 -1 1 0 0 6141.dat
1 7 130 -24 -20 0 0 1 0 1 0 -1 0 0 30136.dat
1 72 130 -48 -10 0 0 1 0 1 0 -1 0 0 3622.dat
1 72 -130 -48 -70 0 0 1 0 1 0 -1 0 0 u9026.dat
1 8 -130 -48 -40 0 0 1 0 1 0 -1 0 0 3004.dat
1 8 -130 -48 0 0 0 1 0 1 0 -1 0 0 86876.dat
1 71 -150 -38 0 0 1 0 0 0 -1 -1 0 0 6141.dat
1 8 -130 -64 -70 0 0 1 0 1 0 -1 0 0 3024.dat
1 8 -130 -64 -50 0 0 1 0 1 0 -1 0 0 6141.dat
1 8 -130 -56 -40 0 0 1 0 1 0 -1 0 0 3710.dat
1 8 -130 -64 -20 0 0 1 0 1 0 -1 0 0 3023b.dat
1 72 -130 -72 -30 0 0 1 0 1 0 -1 0 0 3623.dat
1 8 -120 -72 30 0 0 1 0 1 0 -1 0 0 3002.dat
1 8 120 -72 30 0 0 1 0 1 0 -1 0 0 3002.dat
1 8 110 -48 10 1 0 0 0 1 0 0 0 1 88292.dat
1 8 -110 -48 10 1 0 0 0 1 0 0 0 1 88292.dat
1 8 -110 -24 -40 0 0 1 0 1 0 -1 0 0 3010.dat
1 8 -110 -48 10 0 0 1 0 1 0 -1 0 0 3005.dat
1 8 -110 -48 -40 0 0 1 0 1 0 -1 0 0 3010.dat
1 8 -110 -56 -40 0 0 1 0 1 0 -1 0 0 3710.dat
1 8 -110 -64 -40 0 0 1 0 1 0 -1 0 0 3710.dat
1 8 -110 -72 -30 0 0 1 0 1 0 -1 0 0 3623.dat
1 8 110 -48 10 1 0 0 0 1 0 0 0 1 3005.dat
1 8 110 -48 -40 0 0 1 0 1 0 -1 0 0 3010.dat
1 8 110 -56 -40 0 0 1 0 1 0 -1 0 0 3710.dat
1 8 110 -64 -40 0 0 1 0 1 0 -1 0 0 3710.dat
1 8 110 -72 -30 0 0 1 0 1 0 -1 0 0 3623.dat
1 8 110 -24 -40 0 0 1 0 1 0 -1 0 0 3010.dat
1 8 130 -72 -20 0 0 1 0 1 0 -1 0 0 3004.dat
1 8 130 -72 -50 0 0 -1 0 1 0 1 0 0 3024.dat
1 8 130 -120 60 0 0 1 0 1 0 -1 0 0 32932.dat
1 148 130 -104 -30 1 0 0 0 1 0 0 0 1 6091.dat
1 148 110 -104 -30 1 0 0 0 1 0 0 0 1 6091.dat
1 148 130 -128 10 1 0 0 0 1 0 0 0 1 6091.dat
1 148 110 -128 10 1 0 0 0 1 0 0 0 1 6091.dat
1 148 -110 -128 10 1 0 0 0 1 0 0 0 1 6091.dat
1 148 -130 -128 10 1 0 0 0 1 0 0 0 1 6091.dat
1 148 -110 -104 -30 1 0 0 0 1 0 0 0 1 6091.dat
1 148 -130 -104 -30 1 0 0 0 1 0 0 0 1 6091.dat
1 148 120 -80 -70 1 0 0 0 1 0 0 0 1 3069b.dat
1 148 120 -104 -30 1 0 0 0 1 0 0 0 1 3069b.dat
1 148 120 -128 10 1 0 0 0 1 0 0 0 1 3069b.dat
1 148 -120 -80 -70 1 0 0 0 1 0 0 0 1 3069b.dat
1 148 -120 -104 -30 1 0 0 0 1 0 0 0 1 3069b.dat
1 148 -120 -128 10 1 0 0 0 1 0 0 0 1 3069b.dat
1 72 0 -72 40 1 0 0 0 1 0 0 0 1 87079.dat
1 72 -70 -72 40 1 0 0 0 1 0 0 0 1 26603.dat
1 72 70 -72 40 1 0 0 0 1 0 0 0 1 26603.dat
1 8 0 -56 40 1 0 0 0 1 0 0 0 1 3832.dat
1 8 0 -64 40 1 0 0 0 1 0 0 0 1 3832.dat
1 148 130 -128 60 0 0 1 0 1 0 -1 0 0 2431.dat
1 8 110 -80 60 0 0 1 0 1 0 -1 0 0 2431.dat
1 8 -110 -80 60 0 0 1 0 1 0 -1 0 0 2431.dat
1 8 -130 -120 60 0 0 1 0 1 0 -1 0 0 32932.dat
1 148 -130 -128 60 0 0 1 0 1 0 -1 0 0 2431.dat
1 8 0 -64 80 1 0 0 0 1 0 0 0 1 3832.dat
1 72 0 -72 80 1 0 0 0 1 0 0 0 1 87079.dat
1 72 -70 -72 80 1 0 0 0 1 0 0 0 1 26603.dat
1 72 70 -72 80 1 0 0 0 1 0 0 0 1 26603.dat
1 8 120 -56 80 0 0 1 0 1 0 -1 0 0 11203.dat
1 8 -120 -56 80 0 0 1 0 1 0 -1 0 0 11203.dat
1 8 120 -64 80 1 0 0 0 1 0 0 0 1 3022.dat
1 8 -120 -72 80 1 0 0 0 1 0 0 0 1 3022.dat
1 72 130 -72 70 1 0 0 0 1 0 0 0 1 6141.dat
1 8 110 -72 90 0 0 1 0 1 0 -1 0 0 2420.dat
1 71 -120 -64 80 0 0 1 0 1 0 -1 0 0 3022.dat
1 71 130 -80 -30 0 0 1 0 1 0 -1 0 0 3024.dat
1 8 130 -88 -30 0 0 1 0 1 0 -1 0 0 3024.dat
1 8 130 -96 0 0 0 1 0 1 0 -1 0 0 3004.dat
1 72 -130 -96 0 0 0 1 0 1 0 -1 0 0 30136.dat
1 8 -110 -96 0 0 0 1 0 1 0 -1 0 0 3004.dat
1 8 110 -96 0 0 0 1 0 1 0 -1 0 0 3004.dat
1 8 -120 -80 -30 -1 0 0 0 1 0 0 0 -1 3023b.dat
1 8 -120 -88 -30 -1 0 0 0 1 0 0 0 -1 3023b.dat
1 8 110 -88 -30 0 0 1 0 1 0 -1 0 0 86996.dat
1 8 120 -104 10 -1 0 0 0 1 0 0 0 -1 3023b.dat
1 8 120 -112 10 -1 0 0 0 1 0 0 0 -1 3023b.dat
1 8 -120 -104 10 -1 0 0 0 1 0 0 0 -1 3023b.dat
1 8 -120 -112 10 -1 0 0 0 1 0 0 0 -1 3023b.dat
