0 
0 Name: New Model.ldr
0 Author: 
1 8 -20 0 -180 1 0 0 0 1 0 0 0 1 79759.dat
1 8 140 0 -180 1 0 0 0 1 0 0 0 1 79759.dat
1 8 140 0 -340 1 0 0 0 1 0 0 0 1 79759.dat
1 8 -20 0 -340 1 0 0 0 1 0 0 0 1 79759.dat
1 8 -180 0 -340 1 0 0 0 1 0 0 0 1 79759.dat
1 8 -180 0 -180 1 0 0 0 1 0 0 0 1 79759.dat
1 8 -340 0 -180 1 0 0 0 1 0 0 0 1 79759.dat
1 8 -340 0 -340 1 0 0 0 1 0 0 0 1 79759.dat
1 8 -180 0 -20 1 0 0 0 1 0 0 0 1 79759.dat
1 8 -20 0 -20 1 0 0 0 1 0 0 0 1 79759.dat
1 8 140 0 -20 1 0 0 0 1 0 0 0 1 79759.dat
1 8 140 0 140 1 0 0 0 1 0 0 0 1 79759.dat
1 8 -20 0 140 1 0 0 0 1 0 0 0 1 79759.dat
1 8 -180 0 140 1 0 0 0 1 0 0 0 1 79759.dat
1 8 -340 0 140 1 0 0 0 1 0 0 0 1 79759.dat
1 8 -340 0 -20 1 0 0 0 1 0 0 0 1 79759.dat
1 423 205 -128 -191.3398 -0.5 0 -0.866025 0 1 0 0.866025 0 -0.5 2400.dat
1 423 205 -128 -8.6603 0.5 0 -0.866025 0 1 0 0.866025 0 0.5 2400.dat
1 8 210 -240 -100 0 0 -1 0 1 0 1 0 0 30938.dat
1 7 210 -48 140 0 0 -1 0 1 0 1 0 0 15533.dat
1 148 210 -24 140 0 0 -1 0 1 0 1 0 0 15533.dat
1 7 210 -48 -340 0 0 -1 0 1 0 1 0 0 15533.dat
1 7 210 -24 -340 0 0 -1 0 1 0 1 0 0 15533.dat
1 7 140 -48 210 -1 0 0 0 1 0 0 0 -1 15533.dat
1 7 140 -24 210 -1 0 0 0 1 0 0 0 -1 15533.dat
1 148 60 -48 210 -1 0 0 0 1 0 0 0 -1 15533.dat
1 7 60 -24 210 -1 0 0 0 1 0 0 0 -1 15533.dat
1 7 -20 -48 210 -1 0 0 0 1 0 0 0 -1 15533.dat
1 7 -20 -24 210 -1 0 0 0 1 0 0 0 -1 15533.dat
1 7 -100 -48 210 -1 0 0 0 1 0 0 0 -1 15533.dat
1 7 -100 -24 210 -1 0 0 0 1 0 0 0 -1 15533.dat
1 7 -180 -48 210 -1 0 0 0 1 0 0 0 -1 15533.dat
1 7 -180 -24 210 -1 0 0 0 1 0 0 0 -1 15533.dat
1 7 -260 -48 210 -1 0 0 0 1 0 0 0 -1 15533.dat
1 7 -260 -24 210 -1 0 0 0 1 0 0 0 -1 15533.dat
1 148 -340 -48 210 -1 0 0 0 1 0 0 0 -1 15533.dat
1 7 -340 -24 210 -1 0 0 0 1 0 0 0 -1 15533.dat
1 7 -340 -48 -410 1 0 0 0 1 0 0 0 1 15533.dat
1 148 -340 -24 -410 1 0 0 0 1 0 0 0 1 15533.dat
1 7 -260.0001 -48 -410 1 0 0 0 1 0 0 0 1 15533.dat
1 7 -260.0001 -24 -410 1 0 0 0 1 0 0 0 1 15533.dat
1 7 -180 -48 -410 1 0 0 0 1 0 0 0 1 15533.dat
1 7 -180 -24 -410 1 0 0 0 1 0 0 0 1 15533.dat
1 7 -100 -48 -410 1 0 0 0 1 0 0 0 1 15533.dat
1 7 -100 -24 -410 1 0 0 0 1 0 0 0 1 15533.dat
1 7 -20 -48 -410 1 0 0 0 1 0 0 0 1 15533.dat
1 7 -20 -24 -410 1 0 0 0 1 0 0 0 1 15533.dat
1 7 60 -48 -410 1 0 0 0 1 0 0 0 1 15533.dat
1 7 60 -24 -410 1 0 0 0 1 0 0 0 1 15533.dat
1 148 140 -48 -410 1 0 0 0 1 0 0 0 1 15533.dat
1 7 140 -24 -410 1 0 0 0 1 0 0 0 1 15533.dat
1 7 -410 -48 140 0 0 1 0 1 0 -1 0 0 15533.dat
1 7 -410 -24 140 0 0 1 0 1 0 -1 0 0 15533.dat
1 7 -410 -48 60 0 0 1 0 1 0 -1 0 0 15533.dat
1 7 -410 -24 60 0 0 1 0 1 0 -1 0 0 15533.dat
1 7 -410 -48 -260 0 0 1 0 1 0 -1 0 0 15533.dat
1 148 -410 -24 -260 0 0 1 0 1 0 -1 0 0 15533.dat
1 148 -410 -48 -340 0 0 1 0 1 0 -1 0 0 15533.dat
1 7 -410 -24 -340 0 0 1 0 1 0 -1 0 0 15533.dat
1 8 210 -120 -220 0 0 -1 0 1 0 1 0 0 2454adm0.dat
1 8 210 -120 20 0 0 -1 0 1 0 1 0 0 2454adm0.dat
1 8 210 -144 20 0 0 -1 0 1 0 1 0 0 98283.dat
1 8 210 -168 20 0 0 -1 0 1 0 1 0 0 98283.dat
1 8 210 -168 -220 0 0 -1 0 1 0 1 0 0 98283.dat
1 8 210 -144 -220 0 0 -1 0 1 0 1 0 0 98283.dat
1 7 210 -24 -280 0 0 -1 0 1 0 1 0 0 98283.dat
1 7 210 -48 -280 0 0 -1 0 1 0 1 0 0 98283.dat
1 7 210 -48 80 0 0 -1 0 1 0 1 0 0 98283.dat
1 7 210 -24 80 0 0 -1 0 1 0 1 0 0 98283.dat
1 8 210 -120 50 1 0 0 0 1 0 0 0 1 2453b.dat
1 8 210 -120 -250 1 0 0 0 1 0 0 0 1 2453b.dat
1 7 210 -96 -340 0 0 -1 0 1 0 1 0 0 15533.dat
1 148 210 -72 -340 0 0 -1 0 1 0 1 0 0 15533.dat
1 7 210 -72 -280 0 0 -1 0 1 0 1 0 0 98283.dat
1 7 210 -96 -280 0 0 -1 0 1 0 1 0 0 98283.dat
1 7 210 -144 -340 0 0 -1 0 1 0 1 0 0 15533.dat
1 7 210 -120 -340 0 0 -1 0 1 0 1 0 0 15533.dat
1 7 210 -120 -280 0 0 -1 0 1 0 1 0 0 98283.dat
1 7 210 -144 -280 0 0 -1 0 1 0 1 0 0 98283.dat
1 7 210 -96 140 0 0 -1 0 1 0 1 0 0 15533.dat
1 7 210 -72 140 0 0 -1 0 1 0 1 0 0 15533.dat
1 7 210 -72 80 0 0 -1 0 1 0 1 0 0 98283.dat
1 148 210 -96 80 0 0 -1 0 1 0 1 0 0 98283.dat
1 7 210 -144 140 0 0 -1 0 1 0 1 0 0 15533.dat
1 7 210 -120 140 0 0 -1 0 1 0 1 0 0 15533.dat
1 7 210 -120 80 0 0 -1 0 1 0 1 0 0 98283.dat
1 7 210 -144 80 0 0 -1 0 1 0 1 0 0 98283.dat
1 308 -180 -112 -410 1 0 0 0 1 0 0 0 1 30044.dat
1 8 -180 -120 -410 1 0 0 0 1 0 0 0 1 3659.dat
1 0 -180 -88 -410 1 0 0 0 1 0 0 0 1 30046.dat
1 308 -20 -112 -410 1 0 0 0 1 0 0 0 1 30044.dat
1 0 -20 -88 -410 1 0 0 0 1 0 0 0 1 30046.dat
1 8 -20 -120 -410 1 0 0 0 1 0 0 0 1 3659.dat
1 7 -340 -96 -410 1 0 0 0 1 0 0 0 1 15533.dat
1 7 -340 -72 -410 1 0 0 0 1 0 0 0 1 15533.dat
1 7 -260.0001 -96 -410 1 0 0 0 1 0 0 0 1 15533.dat
1 7 -260.0001 -72 -410 1 0 0 0 1 0 0 0 1 15533.dat
1 7 60 -96 -410 1 0 0 0 1 0 0 0 1 15533.dat
1 7 60 -72 -410 1 0 0 0 1 0 0 0 1 15533.dat
1 7 139.9999 -96 -410 1 0 0 0 1 0 0 0 1 15533.dat
1 7 139.9999 -72 -410 1 0 0 0 1 0 0 0 1 15533.dat
1 148 60 -144 -410 1 0 0 0 1 0 0 0 1 15533.dat
1 7 60 -120 -410 1 0 0 0 1 0 0 0 1 15533.dat
1 7 139.9999 -144 -410 1 0 0 0 1 0 0 0 1 15533.dat
1 7 139.9999 -120 -410 1 0 0 0 1 0 0 0 1 15533.dat
1 7 -340 -144 -410 1 0 0 0 1 0 0 0 1 15533.dat
1 7 -340 -120 -410 1 0 0 0 1 0 0 0 1 15533.dat
1 7 -100.0001 -72 -410 1 0 0 0 1 0 0 0 1 15533.dat
1 148 -260.0001 -120 -410 1 0 0 0 1 0 0 0 1 15533.dat
1 7 -180.0001 -144 -410 1 0 0 0 1 0 0 0 1 15533.dat
1 7 -20.0001 -144 -410 1 0 0 0 1 0 0 0 1 15533.dat
1 7 -260.0001 -144 -410 1 0 0 0 1 0 0 0 1 15533.dat
1 7 -100.0001 -144 -410 1 0 0 0 1 0 0 0 1 15533.dat
1 148 -100.0001 -96 -410 1 0 0 0 1 0 0 0 1 15533.dat
1 7 -100.0001 -120 -410 1 0 0 0 1 0 0 0 1 15533.dat
1 308 -20.0001 -112 210 -1 0 0 0 1 0 0 0 -1 30044.dat
1 8 -20.0001 -120 210 -1 0 0 0 1 0 0 0 -1 3659.dat
1 0 -20.0001 -88 210 -1 0 0 0 1 0 0 0 -1 30046.dat
1 308 -180.0001 -112 210 -1 0 0 0 1 0 0 0 -1 30044.dat
1 0 -180.0001 -88 210 -1 0 0 0 1 0 0 0 -1 30046.dat
1 8 -180.0001 -120 210 -1 0 0 0 1 0 0 0 -1 3659.dat
1 148 139.9999 -96 210 -1 0 0 0 1 0 0 0 -1 15533.dat
1 7 139.9999 -72 210 -1 0 0 0 1 0 0 0 -1 15533.dat
1 7 60 -96 210 -1 0 0 0 1 0 0 0 -1 15533.dat
1 7 60 -72 210 -1 0 0 0 1 0 0 0 -1 15533.dat
1 7 -260.0001 -96 210 -1 0 0 0 1 0 0 0 -1 15533.dat
1 7 -260.0001 -72 210 -1 0 0 0 1 0 0 0 -1 15533.dat
1 7 -339.9999 -96 210 -1 0 0 0 1 0 0 0 -1 15533.dat
1 7 -339.9999 -72 210 -1 0 0 0 1 0 0 0 -1 15533.dat
1 7 -260.0001 -144 210 -1 0 0 0 1 0 0 0 -1 15533.dat
1 7 -260.0001 -120 210 -1 0 0 0 1 0 0 0 -1 15533.dat
1 7 -339.9999 -144 210 -1 0 0 0 1 0 0 0 -1 15533.dat
1 148 -339.9999 -120 210 -1 0 0 0 1 0 0 0 -1 15533.dat
1 7 139.9999 -144 210 -1 0 0 0 1 0 0 0 -1 15533.dat
1 7 139.9999 -120 210 -1 0 0 0 1 0 0 0 -1 15533.dat
1 7 -100 -72 210 -1 0 0 0 1 0 0 0 -1 15533.dat
1 7 60 -120 210 -1 0 0 0 1 0 0 0 -1 15533.dat
1 7 -20 -144 210 -1 0 0 0 1 0 0 0 -1 15533.dat
1 7 -180 -144 210 -1 0 0 0 1 0 0 0 -1 15533.dat
1 7 60 -144 210 -1 0 0 0 1 0 0 0 -1 15533.dat
1 7 -100 -144 210 -1 0 0 0 1 0 0 0 -1 15533.dat
1 7 -100 -96 210 -1 0 0 0 1 0 0 0 -1 15533.dat
1 7 -100 -120 210 -1 0 0 0 1 0 0 0 -1 15533.dat
1 308 -410 -112 60 0 0 1 0 1 0 -1 0 0 30044.dat
1 308 -410 -112 -260 0 0 1 0 1 0 -1 0 0 30044.dat
1 8 -410.0001 -120 -260 0 0 1 0 1 0 -1 0 0 3659.dat
1 8 -410.0001 -120 60 0 0 1 0 1 0 -1 0 0 3659.dat
1 7 -410 -96 140 0 0 1 0 1 0 -1 0 0 15533.dat
1 148 -410 -72 140 0 0 1 0 1 0 -1 0 0 15533.dat
1 7 -410 -144 140 0 0 1 0 1 0 -1 0 0 15533.dat
1 7 -410 -120 140 0 0 1 0 1 0 -1 0 0 15533.dat
1 7 -410 -96 -340 0 0 1 0 1 0 -1 0 0 15533.dat
1 7 -410 -72 -340 0 0 1 0 1 0 -1 0 0 15533.dat
1 7 -410 -144 -340 0 0 1 0 1 0 -1 0 0 15533.dat
1 7 -410 -120 -340 0 0 1 0 1 0 -1 0 0 15533.dat
1 7 -410 -144 -260 0 0 1 0 1 0 -1 0 0 15533.dat
1 148 -410 -144 60 0 0 1 0 1 0 -1 0 0 15533.dat
1 0 -410 -88 -260 0 0 1 0 1 0 -1 0 0 30046.dat
1 0 -410 -88 60 0 0 1 0 1 0 -1 0 0 30046.dat
1 7 200 -192 200 1 0 0 0 1 0 0 0 1 45695.dat
1 7 200 -192 -400 1 0 0 0 1 0 0 0 1 45695.dat
1 8 -400 -384 -400 1 0 0 0 1 0 0 0 1 45695.dat
1 7 -400 -192 200 1 0 0 0 1 0 0 0 1 45695.dat
1 148 210 -144 50 0 0 -1 0 1 0 1 0 0 60475b.dat
1 148 210 -144 -250 0 0 -1 0 1 0 1 0 0 60475b.dat
1 38 230 -144 50 1 0 0 0 1 0 0 0 1 64647.dat
1 308 230 -144 50 0 0 -1 0 1 0 1 0 0 67131.dat
1 308 230 -144 -250 0 0 -1 0 1 0 1 0 0 67131.dat
1 38 230 -144 -250 1 0 0 0 1 0 0 0 1 64647.dat
1 148 10 -96 -410 1 0 0 0 1 0 0 0 1 60475b.dat
1 148 -50 -96 -410 1 0 0 0 1 0 0 0 1 60475b.dat
1 148 -150 -96 -410 1 0 0 0 1 0 0 0 1 60475b.dat
1 148 -210 -96 -410 1 0 0 0 1 0 0 0 1 60475b.dat
1 148 -410 -96 -290 0 0 1 0 1 0 -1 0 0 60475b.dat
1 148 -410 -96 -230 0 0 1 0 1 0 -1 0 0 60475b.dat
1 148 -410 -96 30 0 0 1 0 1 0 -1 0 0 60475b.dat
1 148 -410 -96 90 0 0 1 0 1 0 -1 0 0 60475b.dat
1 148 -210 -96 210 -1 0 0 0 1 0 0 0 -1 60475b.dat
1 148 -150 -96 210 -1 0 0 0 1 0 0 0 -1 60475b.dat
1 148 -50 -96 210 -1 0 0 0 1 0 0 0 -1 60475b.dat
1 148 10 -96 210 -1 0 0 0 1 0 0 0 -1 60475b.dat
1 8 -210.0001 -72 210 -1 0 0 0 1 0 0 0 -1 3005.dat
1 8 -150.0001 -72 210 -1 0 0 0 1 0 0 0 -1 3005.dat
1 8 209.9999 -216 10 -1 0 0 0 1 0 0 0 -1 3005.dat
1 8 -50.0001 -72 210 -1 0 0 0 1 0 0 0 -1 3005.dat
1 8 -410 -72 90 0 0 1 0 1 0 -1 0 0 3005.dat
1 8 -410 -72 30 0 0 1 0 1 0 -1 0 0 3005.dat
1 8 -410 -72 -290 0 0 1 0 1 0 -1 0 0 3005.dat
1 8 -410 -72 -230 0 0 1 0 1 0 -1 0 0 3005.dat
1 8 -210.0001 -72 -410 1 0 0 0 1 0 0 0 1 3005.dat
1 8 -150.0001 -72 -410 1 0 0 0 1 0 0 0 1 3005.dat
1 8 -50.0001 -72 -410 1 0 0 0 1 0 0 0 1 3005.dat
1 8 9.9999 -72 -410 1 0 0 0 1 0 0 0 1 3005.dat
1 7 139.9999 -168 -410 1 0 0 0 1 0 0 0 1 15533.dat
1 7 -100.0001 -168 -410 1 0 0 0 1 0 0 0 1 15533.dat
1 7 60 -192 -410 1 0 0 0 1 0 0 0 1 15533.dat
1 7 -340 -168 -410 1 0 0 0 1 0 0 0 1 15533.dat
1 7 -180.0001 -168 -410 1 0 0 0 1 0 0 0 1 15533.dat
1 7 -20.0001 -168 -410 1 0 0 0 1 0 0 0 1 15533.dat
1 7 -260.0001 -168 -410 1 0 0 0 1 0 0 0 1 15533.dat
1 7 -410 -168 140 0 0 1 0 1 0 -1 0 0 15533.dat
1 7 -410 -168 -340 0 0 1 0 1 0 -1 0 0 15533.dat
1 7 -410 -168 -260 0 0 1 0 1 0 -1 0 0 15533.dat
1 7 -410 -168 60 0 0 1 0 1 0 -1 0 0 15533.dat
1 148 -260.0001 -168 210 -1 0 0 0 1 0 0 0 -1 15533.dat
1 7 -339.9999 -168 210 -1 0 0 0 1 0 0 0 -1 15533.dat
1 7 139.9999 -168 210 -1 0 0 0 1 0 0 0 -1 15533.dat
1 7 -20 -168 210 -1 0 0 0 1 0 0 0 -1 15533.dat
1 7 -180 -168 210 -1 0 0 0 1 0 0 0 -1 15533.dat
1 7 60 -168 210 -1 0 0 0 1 0 0 0 -1 15533.dat
1 148 -100 -168 210 -1 0 0 0 1 0 0 0 -1 15533.dat
1 7 210 -168 140 0 0 -1 0 1 0 1 0 0 15533.dat
1 7 210 -168 80 0 0 -1 0 1 0 1 0 0 98283.dat
1 7 210 -168 -340 0 0 -1 0 1 0 1 0 0 15533.dat
1 7 210 -168 -280 0 0 -1 0 1 0 1 0 0 98283.dat
1 8 200 -384 -400 1 0 0 0 1 0 0 0 1 45695.dat
1 8 200 -384 200 1 0 0 0 1 0 0 0 1 45695.dat
1 7 -400 -192 -400 1 0 0 0 1 0 0 0 1 45695.dat
1 8 -400 -384 200 1 0 0 0 1 0 0 0 1 45695.dat
1 148 210 -192 140 0 0 -1 0 1 0 1 0 0 15533.dat
1 7 210 -192 60 0 0 -1 0 1 0 1 0 0 15533.dat
1 7 210 -216 60 0 0 -1 0 1 0 1 0 0 15533.dat
1 148 210 -240 60 0 0 -1 0 1 0 1 0 0 15533.dat
1 7 210 -240 140 0 0 -1 0 1 0 1 0 0 15533.dat
1 7 210 -216 140 0 0 -1 0 1 0 1 0 0 15533.dat
1 7 210 -216 -340 0 0 -1 0 1 0 1 0 0 15533.dat
1 7 210 -192 -340 0 0 -1 0 1 0 1 0 0 15533.dat
1 148 210 -192 -260 0 0 -1 0 1 0 1 0 0 15533.dat
1 7 210 -216 -260 0 0 -1 0 1 0 1 0 0 15533.dat
1 7 210 -240 -260 0 0 -1 0 1 0 1 0 0 15533.dat
1 7 210 -240 -340 0 0 -1 0 1 0 1 0 0 15533.dat
1 7 210 -240 0 0 0 -1 0 1 0 1 0 0 98283.dat
1 7 210 -240 -200 0 0 -1 0 1 0 1 0 0 98283.dat
1 8 9.9999 -72 210 -1 0 0 0 1 0 0 0 -1 3005.dat
1 8 209.9999 -168 -250 -1 0 0 0 1 0 0 0 -1 3005.dat
1 8 209.9999 -216 -210 -1 0 0 0 1 0 0 0 -1 3005.dat
1 8 209.9999 -168 50 -1 0 0 0 1 0 0 0 -1 3005.dat
1 8 -20 -24 -50 0 0 -1 0 1 0 1 0 0 3002dm2.dat
1 8 -20 -24 -150 0 0 1 0 1 0 -1 0 0 3002dm2.dat
1 8 -40 -48 -50 0 0 -1 0 1 0 1 0 0 3002dm2.dat
1 8 -60 -72 -50 0 0 -1 0 1 0 1 0 0 3002dm2.dat
1 8 -80 -96 -50 0 0 -1 0 1 0 1 0 0 3002dm2.dat
1 8 -100 -120 -50 0 0 -1 0 1 0 1 0 0 3002dm2.dat
1 8 -120 -144 -50 0 0 -1 0 1 0 1 0 0 3002dm2.dat
1 8 -140 -168 -50 0 0 -1 0 1 0 1 0 0 3002dm2.dat
1 8 -160 -192 -50 0 0 -1 0 1 0 1 0 0 3002dm2.dat
1 8 -180 -216 -50 0 0 -1 0 1 0 1 0 0 3002dm2.dat
1 8 -210 -240 -40 1 0 0 0 1 0 0 0 1 3002dm2.dat
1 8 -210 -240 0 1 0 0 0 1 0 0 0 1 3002dm2.dat
1 8 -210 -240 40 1 0 0 0 1 0 0 0 1 3002dm2.dat
1 8 -210 -240 80 1 0 0 0 1 0 0 0 1 3002dm2.dat
1 8 -160 -240 110 0 0 1 0 1 0 -1 0 0 3002dm2.dat
1 8 -140 -264 110 0 0 1 0 1 0 -1 0 0 3002dm2.dat
1 8 -120 -288 110 0 0 1 0 1 0 -1 0 0 3002dm2.dat
1 8 -100 -312 110 0 0 1 0 1 0 -1 0 0 3002dm2.dat
1 8 -80 -336 110 0 0 1 0 1 0 -1 0 0 3002dm2.dat
1 8 -40 -48 -150 0 0 1 0 1 0 -1 0 0 3002dm2.dat
1 8 -60 -72 -150 0 0 1 0 1 0 -1 0 0 3002dm2.dat
1 8 -80 -96 -150 0 0 1 0 1 0 -1 0 0 3002dm2.dat
1 8 -100 -120 -150 0 0 1 0 1 0 -1 0 0 3002dm2.dat
1 8 -120 -144 -150 0 0 1 0 1 0 -1 0 0 3002dm2.dat
1 8 -140 -168 -150 0 0 1 0 1 0 -1 0 0 3002dm2.dat
1 8 -160 -192 -150 0 0 1 0 1 0 -1 0 0 3002dm2.dat
1 8 -180 -216 -150 0 0 1 0 1 0 -1 0 0 3002dm2.dat
1 8 -210 -240 -160 1 0 0 0 1 0 0 0 1 3002dm2.dat
1 8 -210 -240 -200 1 0 0 0 1 0 0 0 1 3002dm2.dat
1 8 -210 -240 -240 1 0 0 0 1 0 0 0 1 3002dm2.dat
1 8 -210 -240 -280 1 0 0 0 1 0 0 0 1 3002dm2.dat
1 8 -160 -240 -310 0 0 -1 0 1 0 1 0 0 3002dm2.dat
1 8 -140 -264 -310 0 0 -1 0 1 0 1 0 0 3002dm2.dat
1 8 -120 -288 -310 0 0 -1 0 1 0 1 0 0 3002dm2.dat
1 8 -100 -312 -310 0 0 -1 0 1 0 1 0 0 3002dm2.dat
1 8 -80 -336 -310 0 0 -1 0 1 0 1 0 0 3002dm2.dat
1 8 -280 -240 -100 0 0 -1 0 1 0 1 0 0 30400.dat
1 8 140 -360 -100 0 0 -1 0 1 0 1 0 0 30400.dat
1 72 300 -360 -100 0 0 -1 0 1 0 1 0 0 30181.dat
1 148 300 -416 -100 0 0 -1 0 1 0 1 0 0 6066.dat
1 148 230 -416 30 0 0 -1 0 1 0 1 0 0 6072.dat
1 148 230 -416 -230 1 0 0 0 1 0 0 0 1 6072.dat
1 24 250 -360 50 0 0 -1 0 1 0 1 0 0 6107.dat
1 24 250 -360 -250 1 0 0 0 1 0 0 0 1 6107.dat
1 72 250 -336 0 0 0 -1 0 1 0 1 0 0 3747b.dat
1 72 250 -336 -200 0 0 -1 0 1 0 1 0 0 3747b.dat
1 72 210 -312 -200 0 0 -1 0 1 0 1 0 0 3747b.dat
1 72 210 -312 0 0 0 -1 0 1 0 1 0 0 3747b.dat
1 8 250 -336 -100 0 0 -1 0 1 0 1 0 0 4228.dat
1 72 270 -336 -30 0 0 -1 0 1 0 1 0 0 4287c.dat
1 72 230 -312 -30 0 0 -1 0 1 0 1 0 0 4287c.dat
1 72 270 -336 -170 0 0 -1 0 1 0 1 0 0 4287c.dat
1 72 230 -312 -170 0 0 -1 0 1 0 1 0 0 4287c.dat
1 72 210 -288 -30 0 0 -1 0 1 0 1 0 0 3665b.dat
1 72 210 -288 -170 0 0 -1 0 1 0 1 0 0 3665b.dat
1 72 210 -288 -60 0 0 -1 0 1 0 1 0 0 3747b.dat
1 8 210 -288 -100 0 0 -1 0 1 0 1 0 0 3747b.dat
1 72 210 -288 -140 0 0 -1 0 1 0 1 0 0 3747b.dat
1 24 250 -336 30 0 0 -1 0 1 0 1 0 0 4287c.dat
1 24 230 -336 50 0 0 -1 0 1 0 1 0 0 4287c.dat
1 24 210 -336 70 0 0 -1 0 1 0 1 0 0 4287c.dat
1 24 250 -336 -230 0 0 -1 0 1 0 1 0 0 4287c.dat
1 24 230 -336 -250 0 0 -1 0 1 0 1 0 0 4287c.dat
1 24 210 -336 -270 0 0 -1 0 1 0 1 0 0 4287c.dat
1 24 210 -312 30 0 0 -1 0 1 0 1 0 0 4287c.dat
1 24 210 -312 50 0 0 -1 0 1 0 1 0 0 3665b.dat
1 24 210 -312 -250 0 0 -1 0 1 0 1 0 0 3665b.dat
1 24 210 -312 -230 0 0 -1 0 1 0 1 0 0 4287c.dat
1 8 120 -360 -320 0 0 -1 0 1 0 1 0 0 3001.dat
1 8 160 -360 -320 0 0 -1 0 1 0 1 0 0 3001.dat
1 8 140 -360 -380 -1 0 0 0 1 0 0 0 -1 3001.dat
1 8 120 -360 120 0 0 -1 0 1 0 1 0 0 3001.dat
1 8 160 -360 120 0 0 -1 0 1 0 1 0 0 3001.dat
1 8 140 -360 180 -1 0 0 0 1 0 0 0 -1 3001.dat
1 8 200 -360 -160 0 0 -1 0 1 0 1 0 0 2456.dat
1 8 200 -360 -40 0 0 -1 0 1 0 1 0 0 2456.dat
1 8 240 -360 -100 0 0 -1 0 1 0 1 0 0 2456.dat
1 24 170 -384 -320 0 0 1 0 1 0 -1 0 0 3010dm1.dat
1 24 170 -384 120 0 0 1 0 1 0 -1 0 0 3010dm1.dat
1 148 210 -264 -340 0 0 -1 0 1 0 1 0 0 15533.dat
1 7 210 -288 -340 0 0 -1 0 1 0 1 0 0 15533.dat
1 7 210 -312 -340 0 0 -1 0 1 0 1 0 0 15533.dat
1 7 210 -336 -340 0 0 -1 0 1 0 1 0 0 15533.dat
1 7 139.9999 -192 -410 1 0 0 0 1 0 0 0 1 15533.dat
1 148 139.9999 -216 -410 1 0 0 0 1 0 0 0 1 15533.dat
1 7 139.9999 -240 -410 1 0 0 0 1 0 0 0 1 15533.dat
1 7 139.9999 -264 -410 1 0 0 0 1 0 0 0 1 15533.dat
1 7 139.9999 -288 -410 1 0 0 0 1 0 0 0 1 15533.dat
1 148 139.9999 -312 -410 1 0 0 0 1 0 0 0 1 15533.dat
1 7 139.9999 -336 -410 1 0 0 0 1 0 0 0 1 15533.dat
1 7 210 -264 -260 0 0 -1 0 1 0 1 0 0 15533.dat
1 7 210 -288 -260 0 0 -1 0 1 0 1 0 0 15533.dat
1 7 210 -264 -180 0 0 -1 0 1 0 1 0 0 15533.dat
1 7 210 -264 -100 0 0 -1 0 1 0 1 0 0 15533.dat
1 7 210 -264 -20 0 0 -1 0 1 0 1 0 0 15533.dat
1 7 210 -264 60 0 0 -1 0 1 0 1 0 0 15533.dat
1 7 210 -264 140 0 0 -1 0 1 0 1 0 0 15533.dat
1 7 210 -288 140 0 0 -1 0 1 0 1 0 0 15533.dat
1 148 210 -312 140 0 0 -1 0 1 0 1 0 0 15533.dat
1 7 210 -336 140 0 0 -1 0 1 0 1 0 0 15533.dat
1 7 210 -288 60 0 0 -1 0 1 0 1 0 0 15533.dat
1 7 210 -288 -200 0 0 -1 0 1 0 1 0 0 98283.dat
1 7 210 -288 0 0 0 -1 0 1 0 1 0 0 98283.dat
1 7 210 -312 80 0 0 -1 0 1 0 1 0 0 98283.dat
1 148 210 -312 -280 0 0 -1 0 1 0 1 0 0 98283.dat
1 7 139.9999 -192 210 -1 0 0 0 1 0 0 0 -1 15533.dat
1 7 139.9999 -216 210 -1 0 0 0 1 0 0 0 -1 15533.dat
1 7 139.9999 -240 210 -1 0 0 0 1 0 0 0 -1 15533.dat
1 7 139.9999 -264 210 -1 0 0 0 1 0 0 0 -1 15533.dat
1 7 139.9999 -288 210 -1 0 0 0 1 0 0 0 -1 15533.dat
1 148 139.9999 -312 210 -1 0 0 0 1 0 0 0 -1 15533.dat
1 7 139.9999 -336 210 -1 0 0 0 1 0 0 0 -1 15533.dat
1 148 30 -416 230 0 0 -1 0 1 0 1 0 0 6072.dat
1 148 -100 -416 300 -1 0 0 0 1 0 0 0 -1 6066.dat
1 148 -230 -416 230 -1 0 0 0 1 0 0 0 -1 6072.dat
1 7 -339.9999 -192 210 -1 0 0 0 1 0 0 0 -1 15533.dat
1 7 -339.9999 -216 210 -1 0 0 0 1 0 0 0 -1 15533.dat
1 7 -339.9999 -240 210 -1 0 0 0 1 0 0 0 -1 15533.dat
1 148 -339.9999 -264 210 -1 0 0 0 1 0 0 0 -1 15533.dat
1 7 -339.9999 -288 210 -1 0 0 0 1 0 0 0 -1 15533.dat
1 7 -339.9999 -336 210 -1 0 0 0 1 0 0 0 -1 15533.dat
1 148 30 -416 -430 1 0 0 0 1 0 0 0 1 6072.dat
1 24 120 -384 -370 -1 0 0 0 1 0 0 0 -1 3010dm1.dat
1 148 -100 -416 -500 1 0 0 0 1 0 0 0 1 6066.dat
1 148 -230 -416 -430 0 0 1 0 1 0 -1 0 0 6072.dat
1 24 120 -384 170 1 0 0 0 1 0 0 0 1 3010dm1.dat
1 24 50 -360 -450 1 0 0 0 1 0 0 0 1 6107.dat
1 24 -250 -360 -450 0 0 1 0 1 0 -1 0 0 6107.dat
1 72 -100 -360 -500 1 0 0 0 1 0 0 0 1 30181.dat
1 8 60 -360 -100 0 0 -1 0 1 0 1 0 0 30400.dat
1 8 40 -360 -320 1 0 0 0 1 0 0 0 1 2356.dat
1 8 40 -360 120 1 0 0 0 1 0 0 0 1 2356.dat
1 8 -40 -360 -320 0 0 -1 0 1 0 1 0 0 3001.dat
1 8 -40 -360 120 0 0 -1 0 1 0 1 0 0 3001.dat
1 8 -40 -360 200 -1 0 0 0 1 0 0 0 -1 2456.dat
1 8 -160 -360 200 -1 0 0 0 1 0 0 0 -1 2456.dat
1 8 -100 -360 240 -1 0 0 0 1 0 0 0 -1 2456.dat
1 72 -100 -360 300 -1 0 0 0 1 0 0 0 -1 30181.dat
1 8 -40 -360 -400 -1 0 0 0 1 0 0 0 -1 2456.dat
1 8 -160 -360 -400 -1 0 0 0 1 0 0 0 -1 2456.dat
1 8 -100 -360 -440 -1 0 0 0 1 0 0 0 -1 2456.dat
1 8 -10 -360 -210 -1 0 0 0 1 0 0 0 -1 30505.dat
1 8 -20 -360 -260 -1 0 0 0 1 0 0 0 -1 3001.dat
1 8 -20 -360 60 -1 0 0 0 1 0 0 0 -1 3001.dat
1 8 -10 -360 10 0 0 1 0 1 0 -1 0 0 30505.dat
1 8 -100 -360 170 -1 0 0 0 1 0 0 0 -1 2465.dat
1 8 -100 -360 -370 -1 0 0 0 1 0 0 0 -1 2465.dat
1 8 -80 -336 -370 0 0 -1 0 1 0 1 0 0 3002.dat
1 8 -100 -312 -370 0 0 -1 0 1 0 1 0 0 3002.dat
1 8 -120 -288 -370 0 0 -1 0 1 0 1 0 0 3002.dat
1 8 -140 -264 -370 0 0 -1 0 1 0 1 0 0 3002.dat
1 8 -160 -240 -370 0 0 -1 0 1 0 1 0 0 3002.dat
1 8 -160 -240 170 0 0 -1 0 1 0 1 0 0 3002.dat
1 8 -140 -264 170 0 0 -1 0 1 0 1 0 0 3002.dat
1 8 -120 -288 170 0 0 -1 0 1 0 1 0 0 3002.dat
1 8 -100 -312 170 0 0 -1 0 1 0 1 0 0 3002.dat
1 8 -80 -336 170 0 0 -1 0 1 0 1 0 0 3002.dat
1 148 -340 -192 -410 1 0 0 0 1 0 0 0 1 15533.dat
1 7 -340 -216 -410 1 0 0 0 1 0 0 0 1 15533.dat
1 7 -340 -240 -410 1 0 0 0 1 0 0 0 1 15533.dat
1 7 -340 -264 -410 1 0 0 0 1 0 0 0 1 15533.dat
1 7 -340 -288 -410 1 0 0 0 1 0 0 0 1 15533.dat
1 148 -340 -312 -410 1 0 0 0 1 0 0 0 1 15533.dat
1 7 -340 -336 -410 1 0 0 0 1 0 0 0 1 15533.dat
1 8 -100 -336 -450 1 0 0 0 1 0 0 0 1 4228.dat
1 72 -60 -288 -410 1 0 0 0 1 0 0 0 1 3747b.dat
1 8 -100 -288 -410 1 0 0 0 1 0 0 0 1 3747b.dat
1 72 -140 -288 -410 1 0 0 0 1 0 0 0 1 3747b.dat
1 72 0 -336 -450 1 0 0 0 1 0 0 0 1 3747b.dat
1 72 -200 -336 -450 1 0 0 0 1 0 0 0 1 3747b.dat
1 72 -200 -312 -410 1 0 0 0 1 0 0 0 1 3747b.dat
1 72 0 -312 -410 1 0 0 0 1 0 0 0 1 3747b.dat
1 72 -30 -336 -470 1 0 0 0 1 0 0 0 1 4287c.dat
1 72 -30 -312 -430 1 0 0 0 1 0 0 0 1 4287c.dat
1 72 -170 -336 -470 1 0 0 0 1 0 0 0 1 4287c.dat
1 72 -170 -312 -430 1 0 0 0 1 0 0 0 1 4287c.dat
1 72 -30 -288 -410 1 0 0 0 1 0 0 0 1 3665b.dat
1 72 -170 -288 -410 1 0 0 0 1 0 0 0 1 3665b.dat
1 24 30 -336 -450 1 0 0 0 1 0 0 0 1 4287c.dat
1 24 50 -336 -430 1 0 0 0 1 0 0 0 1 4287c.dat
1 24 70 -336 -410 1 0 0 0 1 0 0 0 1 4287c.dat
1 24 30 -312 -410 1 0 0 0 1 0 0 0 1 4287c.dat
1 24 50 -312 -410 1 0 0 0 1 0 0 0 1 3665b.dat
1 24 90 -336 -410 1 0 0 0 1 0 0 0 1 3665b.dat
1 24 210 -336 -290 0 0 -1 0 1 0 1 0 0 3665b.dat
1 24 210 -336 90 0 0 -1 0 1 0 1 0 0 3665b.dat
1 24 -230 -336 -450 1 0 0 0 1 0 0 0 1 4287c.dat
1 24 -230 -312 -410 1 0 0 0 1 0 0 0 1 4287c.dat
1 24 -250 -336 -430 1 0 0 0 1 0 0 0 1 4287c.dat
1 24 -250 -312 -410 1 0 0 0 1 0 0 0 1 3665b.dat
1 24 -270 -336 -410 1 0 0 0 1 0 0 0 1 4287c.dat
1 24 -290 -336 -410 1 0 0 0 1 0 0 0 1 3665b.dat
1 7 -260.0001 -192 -410 1 0 0 0 1 0 0 0 1 15533.dat
1 7 -260.0001 -216 -410 1 0 0 0 1 0 0 0 1 15533.dat
1 7 -260.0001 -240 -410 1 0 0 0 1 0 0 0 1 15533.dat
1 7 -260.0001 -264 -410 1 0 0 0 1 0 0 0 1 15533.dat
1 7 -260.0001 -288 -410 1 0 0 0 1 0 0 0 1 15533.dat
1 7 -260.0001 -288 -410 1 0 0 0 1 0 0 0 1 15533.dat
1 7 -180.0001 -192 -410 1 0 0 0 1 0 0 0 1 15533.dat
1 7 -180.0001 -216 -410 1 0 0 0 1 0 0 0 1 15533.dat
1 7 -180.0001 -240 -410 1 0 0 0 1 0 0 0 1 15533.dat
1 148 -180.0001 -264 -410 1 0 0 0 1 0 0 0 1 15533.dat
1 148 -100.0001 -192 -410 1 0 0 0 1 0 0 0 1 15533.dat
1 7 -100.0001 -216 -410 1 0 0 0 1 0 0 0 1 15533.dat
1 7 -100.0001 -240 -410 1 0 0 0 1 0 0 0 1 15533.dat
1 7 -100.0001 -264 -410 1 0 0 0 1 0 0 0 1 15533.dat
1 7 -100.0001 -264 -410 1 0 0 0 1 0 0 0 1 15533.dat
1 7 -20.0001 -192 -410 1 0 0 0 1 0 0 0 1 15533.dat
1 7 -20.0001 -216 -410 1 0 0 0 1 0 0 0 1 15533.dat
1 7 -20.0001 -240 -410 1 0 0 0 1 0 0 0 1 15533.dat
1 148 -20.0001 -264 -410 1 0 0 0 1 0 0 0 1 15533.dat
1 7 -20.0001 -264 -410 1 0 0 0 1 0 0 0 1 15533.dat
1 7 60 -168 -410 1 0 0 0 1 0 0 0 1 15533.dat
1 7 60 -216 -410 1 0 0 0 1 0 0 0 1 15533.dat
1 7 60 -240 -410 1 0 0 0 1 0 0 0 1 15533.dat
1 7 60 -264 -410 1 0 0 0 1 0 0 0 1 15533.dat
1 7 60 -288 -410 1 0 0 0 1 0 0 0 1 15533.dat
1 7 60 -288 -410 1 0 0 0 1 0 0 0 1 15533.dat
1 7 80 -312 -410 1 0 0 0 1 0 0 0 1 98283.dat
1 148 0 -288 -410 1 0 0 0 1 0 0 0 1 98283.dat
1 7 -200 -288 -410 1 0 0 0 1 0 0 0 1 98283.dat
1 7 -280 -312 -410 1 0 0 0 1 0 0 0 1 98283.dat
1 8 -100 -336 250 -1 0 0 0 1 0 0 0 -1 4228.dat
1 72 -30 -312 230 -1 0 0 0 1 0 0 0 -1 4287c.dat
1 72 -30 -336 270 -1 0 0 0 1 0 0 0 -1 4287c.dat
1 72 -30 -288 210 -1 0 0 0 1 0 0 0 -1 3665b.dat
1 72 -60 -288 210 -1 0 0 0 1 0 0 0 -1 3747b.dat
1 8 -100 -288 210 -1 0 0 0 1 0 0 0 -1 3747b.dat
1 72 -140 -288 210 -1 0 0 0 1 0 0 0 -1 3747b.dat
1 72 -170 -336 270 -1 0 0 0 1 0 0 0 -1 4287c.dat
1 72 -170 -312 230 -1 0 0 0 1 0 0 0 -1 4287c.dat
1 72 -170 -288 210 -1 0 0 0 1 0 0 0 -1 3665b.dat
1 24 50 -360 250 0 0 -1 0 1 0 1 0 0 6107.dat
1 24 -250 -360 250 -1 0 0 0 1 0 0 0 -1 6107.dat
1 72 0 -336 250 -1 0 0 0 1 0 0 0 -1 3747b.dat
1 72 -200 -336 250 -1 0 0 0 1 0 0 0 -1 3747b.dat
1 72 -200 -312 210 -1 0 0 0 1 0 0 0 -1 3747b.dat
1 72 0 -312 210 -1 0 0 0 1 0 0 0 -1 3747b.dat
1 24 30 -336 250 -1 0 0 0 1 0 0 0 -1 4287c.dat
1 24 50 -336 230 -1 0 0 0 1 0 0 0 -1 4287c.dat
1 24 70 -336 210 -1 0 0 0 1 0 0 0 -1 4287c.dat
1 24 30 -312 210 -1 0 0 0 1 0 0 0 -1 4287c.dat
1 24 -230 -336 250 -1 0 0 0 1 0 0 0 -1 4287c.dat
1 24 -230 -312 210 -1 0 0 0 1 0 0 0 -1 4287c.dat
1 24 -250 -336 230 -1 0 0 0 1 0 0 0 -1 4287c.dat
1 24 -270 -336 210 -1 0 0 0 1 0 0 0 -1 4287c.dat
1 24 50 -312 210 -1 0 0 0 1 0 0 0 -1 3665b.dat
1 24 -250 -312 210 -1 0 0 0 1 0 0 0 -1 3665b.dat
1 24 -290 -336 210 -1 0 0 0 1 0 0 0 -1 3665b.dat
1 24 90 -336 210 -1 0 0 0 1 0 0 0 -1 3665b.dat
1 7 60 -192 210 -1 0 0 0 1 0 0 0 -1 15533.dat
1 148 60 -216 210 -1 0 0 0 1 0 0 0 -1 15533.dat
1 7 60 -240 210 -1 0 0 0 1 0 0 0 -1 15533.dat
1 7 60 -264 210 -1 0 0 0 1 0 0 0 -1 15533.dat
1 7 60 -288 210 -1 0 0 0 1 0 0 0 -1 15533.dat
1 7 60 -288 210 -1 0 0 0 1 0 0 0 -1 15533.dat
1 7 -20 -192 210 -1 0 0 0 1 0 0 0 -1 15533.dat
1 7 -20 -216 210 -1 0 0 0 1 0 0 0 -1 15533.dat
1 7 -20 -240 210 -1 0 0 0 1 0 0 0 -1 15533.dat
1 7 -20 -264 210 -1 0 0 0 1 0 0 0 -1 15533.dat
1 7 -20 -264 210 -1 0 0 0 1 0 0 0 -1 15533.dat
1 7 -100 -192 210 -1 0 0 0 1 0 0 0 -1 15533.dat
1 7 -100 -216 210 -1 0 0 0 1 0 0 0 -1 15533.dat
1 148 -100 -240 210 -1 0 0 0 1 0 0 0 -1 15533.dat
1 7 -100 -264 210 -1 0 0 0 1 0 0 0 -1 15533.dat
1 7 -100 -264 210 -1 0 0 0 1 0 0 0 -1 15533.dat
1 7 -180 -192 210 -1 0 0 0 1 0 0 0 -1 15533.dat
1 7 -180 -216 210 -1 0 0 0 1 0 0 0 -1 15533.dat
1 7 -180 -240 210 -1 0 0 0 1 0 0 0 -1 15533.dat
1 7 -180 -264 210 -1 0 0 0 1 0 0 0 -1 15533.dat
1 7 -180 -264 210 -1 0 0 0 1 0 0 0 -1 15533.dat
1 7 -260.0001 -192 210 -1 0 0 0 1 0 0 0 -1 15533.dat
1 7 -260.0001 -216 210 -1 0 0 0 1 0 0 0 -1 15533.dat
1 7 -260.0001 -240 210 -1 0 0 0 1 0 0 0 -1 15533.dat
1 7 -260.0001 -264 210 -1 0 0 0 1 0 0 0 -1 15533.dat
1 148 -260.0001 -288 210 -1 0 0 0 1 0 0 0 -1 15533.dat
1 7 80 -312 210 -1 0 0 0 1 0 0 0 -1 98283.dat
1 7 0 -288 210 -1 0 0 0 1 0 0 0 -1 98283.dat
1 7 -200 -288 210 -1 0 0 0 1 0 0 0 -1 98283.dat
1 7 -280 -312 210 -1 0 0 0 1 0 0 0 -1 98283.dat
1 148 200 -408 -400 0 0 -1 0 1 0 1 0 0 702.dat
1 24 170 -384 -370 0 0 -1 0 1 0 1 0 0 3005.dat
1 72 220 -168 -470 1 0 0 0 1 0 0 0 1 3245b.dat
1 72 220 -312 -470 1 0 0 0 1 0 0 0 1 3245b.dat
1 72 270 -312 -420 0 0 1 0 1 0 -1 0 0 3245b.dat
1 72 270 -168 -420 0 0 1 0 1 0 -1 0 0 3245b.dat
1 72 270 -24 -420 0 0 1 0 1 0 -1 0 0 3004.dat
1 72 220 -24 -470 1 0 0 0 1 0 0 0 1 3004.dat
1 72 270 -312 220 0 0 1 0 1 0 -1 0 0 3245b.dat
1 72 270 -168 220 0 0 1 0 1 0 -1 0 0 3245b.dat
1 72 270 -24 220 0 0 1 0 1 0 -1 0 0 3004.dat
1 72 220 -312 270 1 0 0 0 1 0 0 0 1 3245b.dat
1 72 220 -168 270 1 0 0 0 1 0 0 0 1 3245b.dat
1 72 220 -24 270 1 0 0 0 1 0 0 0 1 3004.dat
1 72 250 -288 -390 0 0 -1 0 1 0 1 0 0 2345.dat
1 72 250 -432 -390 0 0 -1 0 1 0 1 0 0 2345.dat
1 72 250 -144 -390 0 0 -1 0 1 0 1 0 0 2345.dat
1 72 250 -144 -450 1 0 0 0 1 0 0 0 1 2345.dat
1 72 250 -288 -450 1 0 0 0 1 0 0 0 1 2345.dat
1 72 250 -432 -450 1 0 0 0 1 0 0 0 1 2345.dat
1 72 190 -144 -450 0 0 1 0 1 0 -1 0 0 2345.dat
1 72 190 -288 -450 0 0 1 0 1 0 -1 0 0 2345.dat
1 72 190 -432 -450 0 0 1 0 1 0 -1 0 0 2345.dat
1 72 250 -144 250 0 0 -1 0 1 0 1 0 0 2345.dat
1 72 250 -288 250 0 0 -1 0 1 0 1 0 0 2345.dat
1 72 250 -432 250 0 0 -1 0 1 0 1 0 0 2345.dat
1 72 250 -432 190 1 0 0 0 1 0 0 0 1 2345.dat
1 72 250 -288 190 1 0 0 0 1 0 0 0 1 2345.dat
1 72 250 -144 190 1 0 0 0 1 0 0 0 1 2345.dat
1 72 190 -432 250 -1 0 0 0 1 0 0 0 -1 2345.dat
1 72 190 -288 250 -1 0 0 0 1 0 0 0 -1 2345.dat
1 72 190 -144 250 -1 0 0 0 1 0 0 0 -1 2345.dat
1 148 200 -408 200 -1 0 0 0 1 0 0 0 -1 702.dat
1 148 120 -408 200 -1 0 0 0 1 0 0 0 -1 3003.dat
1 148 200 -408 120 -1 0 0 0 1 0 0 0 -1 3003.dat
1 148 120 -408 -400 0 0 -1 0 1 0 1 0 0 3003.dat
1 148 200 -408 -320 0 0 -1 0 1 0 1 0 0 3003.dat
1 24 210 -360 130 0 0 -1 0 1 0 1 0 0 3622.dat
1 148 210 -384 130 0 0 -1 0 1 0 1 0 0 3622.dat
1 148 210 -384 -330 0 0 -1 0 1 0 1 0 0 3622.dat
1 24 210 -360 -330 0 0 -1 0 1 0 1 0 0 3622.dat
1 24 170 -384 170 0 0 -1 0 1 0 1 0 0 3005.dat
1 72 -390 -144 250 0 0 -1 0 1 0 1 0 0 2345.dat
1 72 -450 -144 250 -1 0 0 0 1 0 0 0 -1 2345.dat
1 72 -390 -288 250 0 0 -1 0 1 0 1 0 0 2345.dat
1 72 -450 -288 250 -1 0 0 0 1 0 0 0 -1 2345.dat
1 72 -420 -24 270 1 0 0 0 1 0 0 0 1 3004.dat
1 72 -420 -168 270 1 0 0 0 1 0 0 0 1 3245b.dat
1 72 -390 -432 250 0 0 -1 0 1 0 1 0 0 2345.dat
1 72 -450 -432 250 -1 0 0 0 1 0 0 0 -1 2345.dat
1 72 -420 -312 270 1 0 0 0 1 0 0 0 1 3245b.dat
1 72 -450 -432 190 0 0 1 0 1 0 -1 0 0 2345.dat
1 72 -450 -288 190 0 0 1 0 1 0 -1 0 0 2345.dat
1 72 -450 -144 190 0 0 1 0 1 0 -1 0 0 2345.dat
1 72 -470 -312 220 0 0 1 0 1 0 -1 0 0 3245b.dat
1 72 -470 -168 220 0 0 1 0 1 0 -1 0 0 3245b.dat
1 72 -470 -24 220 0 0 1 0 1 0 -1 0 0 3004.dat
1 72 -390 -144 -450 1 0 0 0 1 0 0 0 1 2345.dat
1 72 -450 -144 -450 0 0 1 0 1 0 -1 0 0 2345.dat
1 72 -450 -144 -390 -1 0 0 0 1 0 0 0 -1 2345.dat
1 72 -450 -288 -390 -1 0 0 0 1 0 0 0 -1 2345.dat
1 72 -450 -432 -390 -1 0 0 0 1 0 0 0 -1 2345.dat
1 72 -450 -288 -450 0 0 1 0 1 0 -1 0 0 2345.dat
1 72 -450 -432 -450 0 0 1 0 1 0 -1 0 0 2345.dat
1 72 -390 -288 -450 1 0 0 0 1 0 0 0 1 2345.dat
1 72 -390 -432 -450 1 0 0 0 1 0 0 0 1 2345.dat
1 72 -420 -312 -470 1 0 0 0 1 0 0 0 1 3245b.dat
1 72 -420 -168 -470 1 0 0 0 1 0 0 0 1 3245b.dat
1 72 -420 -24 -470 1 0 0 0 1 0 0 0 1 3004.dat
1 72 -470 -168 -420 0 0 1 0 1 0 -1 0 0 3245b.dat
1 72 -470 -24 -420 0 0 1 0 1 0 -1 0 0 3004.dat
1 72 -470 -312 -420 0 0 1 0 1 0 -1 0 0 3245b.dat
1 148 -360 -384 -100 0 0 -1 0 1 0 1 0 0 35565.dat
1 72 -400 -120 -200 1 0 0 0 1 0 0 0 1 78594.dat
1 72 -400 -240 -200 1 0 0 0 1 0 0 0 1 78594.dat
1 72 -400 -360 -200 1 0 0 0 1 0 0 0 1 78594.dat
1 72 -400 -480 -200 1 0 0 0 1 0 0 0 1 78594.dat
1 72 -400 -120 0 0 0 -1 0 1 0 1 0 0 78594.dat
1 72 -400 -240 0 0 0 -1 0 1 0 1 0 0 78594.dat
1 72 -400 -360 0 0 0 -1 0 1 0 1 0 0 78594.dat
1 72 -400 -480 0 0 0 -1 0 1 0 1 0 0 78594.dat
1 8 -340 -240 -50 0 0 -1 0 1 0 1 0 0 3002dm2.dat
1 8 -380 -240 -50 0 0 -1 0 1 0 1 0 0 3002dm2.dat
1 8 -380 -240 -150 0 0 1 0 1 0 -1 0 0 3002dm2.dat
1 8 -340 -240 -150 0 0 1 0 1 0 -1 0 0 3002dm2.dat
1 148 -390 -360 -170 0 0 1 0 1 0 -1 0 0 2453b.dat
1 148 -390 -360 -30 0 0 1 0 1 0 -1 0 0 2453b.dat
1 148 -390 -408 -100 0 0 -1 0 1 0 1 0 0 3008.dat
1 148 -390 -384 -30 0 0 -1 0 1 0 1 0 0 60475b.dat
1 148 -390 -384 -170 0 0 -1 0 1 0 1 0 0 60475b.dat
1 8 -370 -456 -70 0 0 -1 0 1 0 1 0 0 3685.dat
1 8 -370 -456 -130 1 0 0 0 1 0 0 0 1 3685.dat
1 8 -370 -456 -100 0 0 -1 0 1 0 1 0 0 3684a.dat
1 8 -520 -240 -100 0 0 -1 0 1 0 1 0 0 4201.dat
1 8 -520 -264 -50 0 0 -1 0 1 0 1 0 0 3002.dat
1 8 -570 -288 -50 0 0 -1 0 1 0 1 0 0 30505.dat
1 8 -570 -312 -100 1 0 0 0 1 0 0 0 1 3002.dat
1 8 -570 -336 -150 -1 0 0 0 1 0 0 0 -1 30505.dat
1 8 -520 -360 -150 0 0 -1 0 1 0 1 0 0 3002.dat
1 8 -470 -384 -150 0 0 1 0 1 0 -1 0 0 30505.dat
1 8 -470 -408 -100 1 0 0 0 1 0 0 0 1 3002.dat
1 8 -470 -432 -50 1 0 0 0 1 0 0 0 1 30505.dat
1 8 -520 -456 -50 0 0 -1 0 1 0 1 0 0 3002.dat
1 8 -570 -480 -50 0 0 -1 0 1 0 1 0 0 30505.dat
1 8 -570 -504 -100 1 0 0 0 1 0 0 0 1 3002.dat
1 8 -570 -536 -150 -1 0 0 0 1 0 0 0 -1 30505.dat
1 8 -520 -560 -150 0 0 -1 0 1 0 1 0 0 3002.dat
1 8 -570 -312 -140 -1 0 0 0 1 0 0 0 -1 3021.dat
1 8 -560 -264 -50 0 0 -1 0 1 0 1 0 0 3021.dat
1 8 -480 -360 -150 0 0 1 0 1 0 -1 0 0 3021.dat
1 8 -470 -408 -60 1 0 0 0 1 0 0 0 1 3021.dat
1 8 -560 -456 -50 0 0 -1 0 1 0 1 0 0 3021.dat
1 8 -570 -512 -140 -1 0 0 0 1 0 0 0 -1 3021.dat
1 8 -480 -560 -150 0 0 1 0 1 0 -1 0 0 3021.dat
1 8 -470 -584 -150 0 0 1 0 1 0 -1 0 0 30505.dat
1 72 -400 -600 0 0 0 -1 0 1 0 1 0 0 78594.dat
1 8 -470 -608 -100 1 0 0 0 1 0 0 0 1 3002.dat
1 8 -470 -608 -60 1 0 0 0 1 0 0 0 1 3021.dat
1 72 -400 -600 -200 1 0 0 0 1 0 0 0 1 78594.dat
1 148 -400 -624 0 0 0 -1 0 1 0 1 0 0 87620.dat
1 148 -400 -624 -200 1 0 0 0 1 0 0 0 1 87620.dat
1 148 -400 -648 -200 1 0 0 0 1 0 0 0 1 87620.dat
1 148 -390 -624 -140 0 0 -1 0 1 0 1 0 0 49311.dat
1 148 -390 -552 -140 0 0 -1 0 1 0 1 0 0 49311.dat
1 148 -390 -552 -60 0 0 -1 0 1 0 1 0 0 49311.dat
1 148 -390 -624 -60 0 0 -1 0 1 0 1 0 0 49311.dat
1 148 -390 -480 -60 0 0 -1 0 1 0 1 0 0 49311.dat
1 148 -390 -480 -140 0 0 -1 0 1 0 1 0 0 49311.dat
1 7 -390 -216 -140 0 0 -1 0 1 0 1 0 0 49311.dat
1 7 -390 -216 -60 0 0 -1 0 1 0 1 0 0 49311.dat
1 7 -390 -144 -140 0 0 -1 0 1 0 1 0 0 49311.dat
1 7 -390 -144 -60 0 0 -1 0 1 0 1 0 0 49311.dat
1 7 -390 -72 -140 0 0 -1 0 1 0 1 0 0 49311.dat
1 7 -390 -72 -60 0 0 -1 0 1 0 1 0 0 49311.dat
1 8 -460 -72 10 1 0 0 0 1 0 0 0 1 49311.dat
1 8 -460 -144 10 1 0 0 0 1 0 0 0 1 49311.dat
1 8 -460 -216 10 1 0 0 0 1 0 0 0 1 49311.dat
1 148 -460 -288 10 1 0 0 0 1 0 0 0 1 49311.dat
1 148 -460 -360 10 1 0 0 0 1 0 0 0 1 49311.dat
1 8 -460 -432 10 1 0 0 0 1 0 0 0 1 49311.dat
1 8 -460 -504 10 1 0 0 0 1 0 0 0 1 49311.dat
1 148 -460 -576 10 1 0 0 0 1 0 0 0 1 49311.dat
1 148 -540 -72 10 1 0 0 0 1 0 0 0 1 49311.dat
1 8 -540 -144 10 1 0 0 0 1 0 0 0 1 49311.dat
1 8 -540 -216 10 1 0 0 0 1 0 0 0 1 49311.dat
1 8 -540 -288 10 1 0 0 0 1 0 0 0 1 49311.dat
1 8 -540 -360 10 1 0 0 0 1 0 0 0 1 49311.dat
1 8 -540 -432 10 1 0 0 0 1 0 0 0 1 49311.dat
1 148 -540 -504 10 1 0 0 0 1 0 0 0 1 49311.dat
1 8 -540 -576 10 1 0 0 0 1 0 0 0 1 49311.dat
1 8 -460 -72 -210 1 0 0 0 1 0 0 0 1 49311.dat
1 8 -460 -144 -210 1 0 0 0 1 0 0 0 1 49311.dat
1 148 -460 -216 -210 1 0 0 0 1 0 0 0 1 49311.dat
1 148 -460 -288 -210 1 0 0 0 1 0 0 0 1 49311.dat
1 8 -460 -360 -210 1 0 0 0 1 0 0 0 1 49311.dat
1 8 -460 -432 -210 1 0 0 0 1 0 0 0 1 49311.dat
1 8 -460 -504 -210 1 0 0 0 1 0 0 0 1 49311.dat
1 148 -460 -576 -210 1 0 0 0 1 0 0 0 1 49311.dat
1 8 -540 -72 -210 1 0 0 0 1 0 0 0 1 49311.dat
1 148 -540 -144 -210 1 0 0 0 1 0 0 0 1 49311.dat
1 8 -540 -216 -210 1 0 0 0 1 0 0 0 1 49311.dat
1 8 -540 -288 -210 1 0 0 0 1 0 0 0 1 49311.dat
1 8 -540 -360 -210 1 0 0 0 1 0 0 0 1 49311.dat
1 8 -540 -432 -210 1 0 0 0 1 0 0 0 1 49311.dat
1 148 -540 -504 -210 1 0 0 0 1 0 0 0 1 49311.dat
1 8 -540 -576 -210 1 0 0 0 1 0 0 0 1 49311.dat
1 8 -360 -240 -100 -1 0 0 0 1 0 0 0 -1 3001.dat
1 72 -600 -120 -200 0 0 1 0 1 0 -1 0 0 78594.dat
1 72 -600 -240 0 -1 0 0 0 1 0 0 0 -1 78594.dat
1 72 -600 -360 0 -1 0 0 0 1 0 0 0 -1 78594.dat
1 72 -600 -480 0 -1 0 0 0 1 0 0 0 -1 78594.dat
1 72 -600 -600 0 -1 0 0 0 1 0 0 0 -1 78594.dat
1 72 -600 -120 0 -1 0 0 0 1 0 0 0 -1 78594.dat
1 72 -600 -240 -200 0 0 1 0 1 0 -1 0 0 78594.dat
1 72 -600 -360 -200 0 0 1 0 1 0 -1 0 0 78594.dat
1 72 -600 -480 -200 0 0 1 0 1 0 -1 0 0 78594.dat
1 72 -600 -600 -200 0 0 1 0 1 0 -1 0 0 78594.dat
1 148 -600 -624 0 -1 0 0 0 1 0 0 0 -1 87620.dat
1 148 -600 -648 0 -1 0 0 0 1 0 0 0 -1 87620.dat
1 148 -600 -624 -200 0 0 1 0 1 0 -1 0 0 87620.dat
1 148 -600 -648 -200 0 0 1 0 1 0 -1 0 0 87620.dat
1 8 -420 -240 -100 0 0 -1 0 1 0 1 0 0 3006.dat
1 8 -520 -240 -10 1 0 0 0 1 0 0 0 1 3008.dat
1 8 -520 -240 -190 1 0 0 0 1 0 0 0 1 3008.dat
1 8 -420 -608 -100 0 0 -1 0 1 0 1 0 0 3832.dat
1 8 -470 -608 -20 1 0 0 0 1 0 0 0 1 3021.dat
1 148 -500 -600 10 1 0 0 0 1 0 0 0 1 3008.dat
1 148 -500 -624 10 1 0 0 0 1 0 0 0 1 3008.dat
1 148 -500 -600 -210 1 0 0 0 1 0 0 0 1 3008.dat
1 148 -500 -624 -210 1 0 0 0 1 0 0 0 1 3008.dat
1 24 130 -360 -410 -1 0 0 0 1 0 0 0 -1 3622.dat
1 148 130 -384 -410 -1 0 0 0 1 0 0 0 -1 3622.dat
1 148 -320 -408 -400 0 0 -1 0 1 0 1 0 0 3003.dat
1 148 -400 -408 -400 1 0 0 0 1 0 0 0 1 702.dat
1 148 -400 -408 200 0 0 1 0 1 0 -1 0 0 702.dat
1 148 -320 -408 200 -1 0 0 0 1 0 0 0 -1 3003.dat
1 148 -400 -408 -320 0 0 -1 0 1 0 1 0 0 3003.dat
1 148 -400 -408 120 0 0 -1 0 1 0 1 0 0 3003.dat
1 24 -320 -384 -370 -1 0 0 0 1 0 0 0 -1 3010dm1.dat
1 24 -320 -384 170 1 0 0 0 1 0 0 0 1 3010dm1.dat
1 24 -370 -384 170 0 0 -1 0 1 0 1 0 0 3005.dat
1 24 -370 -384 -370 0 0 -1 0 1 0 1 0 0 3005.dat
1 7 -410 -192 140 0 0 1 0 1 0 -1 0 0 15533.dat
1 7 -410 -216 140 0 0 1 0 1 0 -1 0 0 15533.dat
1 7 -410 -240 140 0 0 1 0 1 0 -1 0 0 15533.dat
1 7 -410 -264 140 0 0 1 0 1 0 -1 0 0 15533.dat
1 7 -410 -288 140 0 0 1 0 1 0 -1 0 0 15533.dat
1 7 -410 -312 140 0 0 1 0 1 0 -1 0 0 15533.dat
1 148 -410 -336 140 0 0 1 0 1 0 -1 0 0 15533.dat
1 7 -410 -192 60 0 0 1 0 1 0 -1 0 0 15533.dat
1 7 -410 -216 60 0 0 1 0 1 0 -1 0 0 15533.dat
1 7 -410 -240 60 0 0 1 0 1 0 -1 0 0 15533.dat
1 7 -410 -264 60 0 0 1 0 1 0 -1 0 0 15533.dat
1 148 -410 -288 60 0 0 1 0 1 0 -1 0 0 15533.dat
1 7 -410 -312 60 0 0 1 0 1 0 -1 0 0 15533.dat
1 7 -410 -336 60 0 0 1 0 1 0 -1 0 0 15533.dat
1 7 -410 -336 60 0 0 1 0 1 0 -1 0 0 15533.dat
1 7 -410 -192 -260 0 0 1 0 1 0 -1 0 0 15533.dat
1 7 -410 -216 -260 0 0 1 0 1 0 -1 0 0 15533.dat
1 7 -410 -240 -260 0 0 1 0 1 0 -1 0 0 15533.dat
1 7 -410 -264 -260 0 0 1 0 1 0 -1 0 0 15533.dat
1 148 -410 -288 -260 0 0 1 0 1 0 -1 0 0 15533.dat
1 7 -410 -312 -260 0 0 1 0 1 0 -1 0 0 15533.dat
1 7 -410 -336 -260 0 0 1 0 1 0 -1 0 0 15533.dat
1 7 -410 -192 -340 0 0 1 0 1 0 -1 0 0 15533.dat
1 148 -410 -216 -340 0 0 1 0 1 0 -1 0 0 15533.dat
1 7 -410 -240 -340 0 0 1 0 1 0 -1 0 0 15533.dat
1 7 -410 -264 -340 0 0 1 0 1 0 -1 0 0 15533.dat
1 7 -410 -288 -340 0 0 1 0 1 0 -1 0 0 15533.dat
1 7 -410 -312 -340 0 0 1 0 1 0 -1 0 0 15533.dat
1 7 -410 -336 -340 0 0 1 0 1 0 -1 0 0 15533.dat
1 24 -340 -360 -410 1 0 0 0 1 0 0 0 1 3010.dat
1 148 -340 -384 -410 1 0 0 0 1 0 0 0 1 3010.dat
1 148 -410 -384 -340 0 0 1 0 1 0 -1 0 0 3010.dat
1 24 -410 -360 -340 0 0 1 0 1 0 -1 0 0 3010.dat
1 148 -410 -384 -260 0 0 1 0 1 0 -1 0 0 3010.dat
1 24 -410 -360 -260 0 0 1 0 1 0 -1 0 0 3010.dat
1 24 -410 -360 140 0 0 1 0 1 0 -1 0 0 3010.dat
1 148 -410 -384 140 0 0 1 0 1 0 -1 0 0 3010.dat
1 148 -410 -384 60 0 0 1 0 1 0 -1 0 0 3010.dat
1 24 -410 -360 60 0 0 1 0 1 0 -1 0 0 3010.dat
1 24 -339.9999 -360 210 -1 0 0 0 1 0 0 0 -1 3010.dat
1 148 140.0001 -384 210 -1 0 0 0 1 0 0 0 -1 3010.dat
1 24 -370 -384 120 0 0 -1 0 1 0 1 0 0 3010dm1.dat
1 24 -370 -384 -320 0 0 -1 0 1 0 1 0 0 3010dm1.dat
1 148 -400 -408 60 0 0 1 0 1 0 -1 0 0 3001.dat
1 148 -400 -408 -260 0 0 1 0 1 0 -1 0 0 3001.dat
1 24 -380 -384 -250 0 0 -1 0 1 0 1 0 0 3002dm2.dat
1 24 -380 -384 50 0 0 1 0 1 0 -1 0 0 3002dm2.dat
1 8 -390 -360 50 1 0 0 0 1 0 0 0 1 3676.dat
1 8 -390 -360 80 0 0 -1 0 1 0 1 0 0 3660b.dat
1 8 -390 -360 120 0 0 -1 0 1 0 1 0 0 3660b.dat
1 8 -390 -360 150 0 0 -1 0 1 0 1 0 0 3665a.dat
1 8 -320 -360 190 1 0 0 0 1 0 0 0 1 3660b.dat
1 8 -350 -360 190 1 0 0 0 1 0 0 0 1 3665a.dat
1 8 -390 -360 -250 0 0 -1 0 1 0 1 0 0 3676.dat
1 8 -390 -360 -280 0 0 -1 0 1 0 1 0 0 3660b.dat
1 8 -390 -360 -320 0 0 -1 0 1 0 1 0 0 3660b.dat
1 8 -390 -360 -350 0 0 -1 0 1 0 1 0 0 3665a.dat
1 8 -350 -360 -390 -1 0 0 0 1 0 0 0 -1 3665a.dat
1 8 -320 -360 -390 -1 0 0 0 1 0 0 0 -1 3660b.dat
1 8 -280 -360 -390 -1 0 0 0 1 0 0 0 -1 3660b.dat
1 8 -280 -360 190 1 0 0 0 1 0 0 0 1 3660b.dat
1 7 -100 -312 210 -1 0 0 0 1 0 0 0 -1 3008.dat
1 7 -180 -336 210 -1 0 0 0 1 0 0 0 -1 3008.dat
1 7 -20 -336 210 -1 0 0 0 1 0 0 0 -1 3008.dat
1 7 -100 -312 -410 1 0 0 0 1 0 0 0 1 3008.dat
1 7 -180 -336 -410 1 0 0 0 1 0 0 0 1 3008.dat
1 7 -20 -336 -410 1 0 0 0 1 0 0 0 1 3008.dat
1 148 -610 -72 -60 0 0 -1 0 1 0 1 0 0 49311.dat
1 8 -610 -72 -140 0 0 -1 0 1 0 1 0 0 49311.dat
1 8 -610 -144 -140 0 0 -1 0 1 0 1 0 0 49311.dat
1 8 -610 -144 -60 0 0 -1 0 1 0 1 0 0 49311.dat
1 8 -610 -216 -60 0 0 -1 0 1 0 1 0 0 49311.dat
1 8 -610 -216 -140 0 0 -1 0 1 0 1 0 0 49311.dat
1 148 -610 -288 -140 0 0 -1 0 1 0 1 0 0 49311.dat
1 8 -610 -288 -60 0 0 -1 0 1 0 1 0 0 49311.dat
1 148 -610 -360 -60 0 0 -1 0 1 0 1 0 0 49311.dat
1 8 -610 -360 -140 0 0 -1 0 1 0 1 0 0 49311.dat
1 8 -610 -432 -140 0 0 -1 0 1 0 1 0 0 49311.dat
1 148 -610 -432 -60 0 0 -1 0 1 0 1 0 0 49311.dat
1 8 -610 -504 -60 0 0 -1 0 1 0 1 0 0 49311.dat
1 8 -610 -504 -140 0 0 -1 0 1 0 1 0 0 49311.dat
1 148 -610 -576 -140 0 0 -1 0 1 0 1 0 0 49311.dat
1 8 -610 -576 -60 0 0 -1 0 1 0 1 0 0 49311.dat
1 148 -610 -600 -100 0 0 -1 0 1 0 1 0 0 3008.dat
1 148 -610 -624 -100 0 0 -1 0 1 0 1 0 0 3008.dat
1 8 -280 -240 -340 0 0 -1 0 1 0 1 0 0 2356.dat
1 8 -280 -240 140 0 0 -1 0 1 0 1 0 0 2356.dat
1 8 -210 -240 -320 -1 0 0 0 1 0 0 0 -1 3002.dat
1 8 -210 -240 -360 -1 0 0 0 1 0 0 0 -1 3002.dat
1 8 -210 -240 120 -1 0 0 0 1 0 0 0 -1 3002.dat
1 8 -210 -240 160 -1 0 0 0 1 0 0 0 -1 3002.dat
1 8 -210.0001 -240 190 -1 0 0 0 1 0 0 0 -1 3622.dat
1 8 -210.0001 -240 -390 -1 0 0 0 1 0 0 0 -1 3622.dat
1 89 -220 -240 -100 0 0 -1 0 1 0 1 0 0 3001.dat
1 89 -180 -216 -100 0 0 1 0 1 0 -1 0 0 3003.dat
1 89 -160 -192 -100 0 0 1 0 1 0 -1 0 0 3003.dat
1 89 -140 -168 -100 0 0 1 0 1 0 -1 0 0 3003.dat
1 89 -120 -144 -100 0 0 1 0 1 0 -1 0 0 3003.dat
1 89 -80 -96 -100 0 0 1 0 1 0 -1 0 0 3003.dat
1 89 -100 -120 -100 0 0 1 0 1 0 -1 0 0 3003.dat
1 89 -60 -72 -100 0 0 1 0 1 0 -1 0 0 3003.dat
1 89 -40 -48 -100 0 0 1 0 1 0 -1 0 0 3003.dat
1 89 -20 -24 -100 0 0 1 0 1 0 -1 0 0 3003.dat
1 7 230 -312 -100 0 0 -1 0 1 0 1 0 0 3008.dat
1 7 210 -312 -100 0 0 -1 0 1 0 1 0 0 3008.dat
1 7 210 -336 -180 0 0 -1 0 1 0 1 0 0 3008.dat
1 7 210 -336 -20 0 0 -1 0 1 0 1 0 0 3008.dat
1 8 190 -360 100 0 0 -1 0 1 0 1 0 0 3008.dat
1 8 190 -360 -300 0 0 -1 0 1 0 1 0 0 3008.dat
1 8 -360 -240 80 0 0 -1 0 1 0 1 0 0 2356.dat
1 8 -360 -240 -280 0 0 -1 0 1 0 1 0 0 2356.dat
1 8 -350 -240 -200 -1 0 0 0 1 0 0 0 -1 3002.dat
1 8 -350 -240 0 -1 0 0 0 1 0 0 0 -1 3002.dat
1 8 -360 -240 160 -1 0 0 0 1 0 0 0 -1 3001.dat
1 8 -360 -240 -360 -1 0 0 0 1 0 0 0 -1 3001.dat
1 8 -350 -240 -390 1 0 0 0 1 0 0 0 1 3622.dat
1 8 -350 -240 190 1 0 0 0 1 0 0 0 1 3622.dat
1 8 -370 -360 170 0 0 -1 0 1 0 1 0 0 2357.dat
1 8 -370 -360 -370 -1 0 0 0 1 0 0 0 -1 2357.dat
1 24 140.0001 -360 210 -1 0 0 0 1 0 0 0 -1 3010.dat
1 148 -339.9999 -384 210 -1 0 0 0 1 0 0 0 -1 3010.dat
1 148 -400 -648 0 0 0 -1 0 1 0 1 0 0 87620.dat
1 8 -220 -24 -90 1 0 0 0 1 0 0 0 1 2465.dat
1 8 -220 -24 -110 1 0 0 0 1 0 0 0 1 2465.dat
1 8 -220 -48 -110 1 0 0 0 1 0 0 0 1 2465.dat
1 8 -220 -48 -90 1 0 0 0 1 0 0 0 1 2465.dat
1 8 -260 -120 -110 1 0 0 0 1 0 0 0 1 6112.dat
1 8 -260 -120 -90 1 0 0 0 1 0 0 0 1 6112.dat
1 8 -260 -144 -110 1 0 0 0 1 0 0 0 1 6112.dat
1 8 -260 -144 -90 1 0 0 0 1 0 0 0 1 6112.dat
1 8 -280 -168 -110 1 0 0 0 1 0 0 0 1 6111.dat
1 8 -280 -168 -90 1 0 0 0 1 0 0 0 1 6111.dat
1 8 -280 -192 -110 1 0 0 0 1 0 0 0 1 6111.dat
1 8 -280 -192 -90 1 0 0 0 1 0 0 0 1 6111.dat
1 8 -300 -216 -110 -1 0 0 0 1 0 0 0 -1 3008.dat
1 8 -300 -216 -90 -1 0 0 0 1 0 0 0 -1 3008.dat
1 8 -210 -216 -100 0 0 1 0 1 0 -1 0 0 3004.dat
1 8 -170 -168 -100 0 0 1 0 1 0 -1 0 0 3004.dat
1 8 -130 -120 -100 0 0 1 0 1 0 -1 0 0 3004.dat
1 8 -90 -72 -100 0 0 1 0 1 0 -1 0 0 3004.dat
1 8 -50 -24 -100 0 0 1 0 1 0 -1 0 0 3004.dat
1 70 -360 -48 -60 1 0 0 0 1 0 0 0 1 2489.dat
1 423 -190 -296 40 0 0 1 0 1 0 -1 0 0 19121.dat
1 423 -190 -296 -240 0 0 1 0 1 0 -1 0 0 19121.dat
1 423 30 -416 -140 0 0 -1 0 1 0 1 0 0 19121.dat
1 423 30 -416 -60 0 0 -1 0 1 0 1 0 0 19121.dat
1 423 -20 -416 -20 0 0 -1 0 1 0 1 0 0 41823.dat
1 423 -20 -416 -180 1 0 0 0 1 0 0 0 1 41823.dat
1 72 -366.984 -110.4357 -66.984 -0.698401 -0.110616 -0.707107 0.156434 -0.987688 0 -0.698401 -0.110616 0.707107 71014a.dat
1 8 -390 -8 20 0 0 1 0 1 0 -1 0 0 5092.dat
1 8 -390 -8 80 0 0 1 0 1 0 -1 0 0 2431.dat
1 8 -390 -8 150 0 0 1 0 1 0 -1 0 0 63864.dat
1 8 -320 -8 -50 1 0 0 0 1 0 0 0 1 6934.dat
1 8 -320 -8 10 1 0 0 0 1 0 0 0 1 6934.dat
1 8 -320 -8 70 1 0 0 0 1 0 0 0 1 6934.dat
1 8 -320 -8 130 1 0 0 0 1 0 0 0 1 6934.dat
1 8 -200 -8 -50 1 0 0 0 1 0 0 0 1 6934.dat
1 8 -200 -8 10 1 0 0 0 1 0 0 0 1 6934.dat
1 8 -200 -8 70 1 0 0 0 1 0 0 0 1 6934.dat
1 8 -200 -8 130 1 0 0 0 1 0 0 0 1 6934.dat
1 8 -110 -8 -20 0 0 1 0 1 0 -1 0 0 6934.dat
1 8 -110 -8 100 0 0 1 0 1 0 -1 0 0 6934.dat
1 8 -60 -8 -20 0 0 1 0 1 0 -1 0 0 69729.dat
1 8 -60 -8 100 0 0 1 0 1 0 -1 0 0 69729.dat
1 8 -320 -8 180 1 0 0 0 1 0 0 0 1 69729.dat
1 8 -200 -8 180 1 0 0 0 1 0 0 0 1 69729.dat
1 8 -80 -8 180 1 0 0 0 1 0 0 0 1 69729.dat
1 8 40 -8 180 1 0 0 0 1 0 0 0 1 69729.dat
1 8 140 -8 180 1 0 0 0 1 0 0 0 1 87079.dat
1 8 120 -8 -100 0 0 1 0 1 0 -1 0 0 48288.dat
1 8 20 -8 130 1 0 0 0 1 0 0 0 1 6934.dat
1 8 140 -8 130 1 0 0 0 1 0 0 0 1 6934.dat
1 8 20 -8 80 1 0 0 0 1 0 0 0 1 69729.dat
1 8 140 -8 80 1 0 0 0 1 0 0 0 1 69729.dat
1 8 20 -8 -280 1 0 0 0 1 0 0 0 1 69729.dat
1 8 140 -8 -280 1 0 0 0 1 0 0 0 1 69729.dat
1 8 20 -8 -330 1 0 0 0 1 0 0 0 1 6934.dat
1 8 140 -8 -330 1 0 0 0 1 0 0 0 1 6934.dat
1 8 40 -8 -380 1 0 0 0 1 0 0 0 1 69729.dat
1 8 140 -8 -380 1 0 0 0 1 0 0 0 1 87079.dat
1 8 -320 -8 -380 1 0 0 0 1 0 0 0 1 69729.dat
1 8 -200 -8 -380 1 0 0 0 1 0 0 0 1 69729.dat
1 8 -80 -8 -380 1 0 0 0 1 0 0 0 1 69729.dat
1 8 -320 -8 -330 1 0 0 0 1 0 0 0 1 6934.dat
1 8 -320 -8 -270 1 0 0 0 1 0 0 0 1 6934.dat
1 8 -320 -8 -210 1 0 0 0 1 0 0 0 1 6934.dat
1 8 -200 -8 -330 1 0 0 0 1 0 0 0 1 6934.dat
1 8 -200 -8 -270 1 0 0 0 1 0 0 0 1 6934.dat
1 8 -200 -8 -210 1 0 0 0 1 0 0 0 1 6934.dat
1 8 -110 -8 -300 0 0 1 0 1 0 -1 0 0 6934.dat
1 8 -60 -8 -300 0 0 1 0 1 0 -1 0 0 69729.dat
1 8 -110 -8 -180 0 0 1 0 1 0 -1 0 0 6934.dat
1 8 -60 -8 -180 0 0 1 0 1 0 -1 0 0 69729.dat
1 8 -320 -8 -150 1 0 0 0 1 0 0 0 1 6934.dat
1 8 -200 -8 -150 1 0 0 0 1 0 0 0 1 6934.dat
1 8 -390 -8 -350 0 0 1 0 1 0 -1 0 0 63864.dat
1 8 -390 -8 -280 0 0 1 0 1 0 -1 0 0 2431.dat
1 89 20 -8 -100 0 0 1 0 1 0 -1 0 0 69729.dat
1 89 -10 -32 -100 0 0 1 0 1 0 -1 0 0 3069b.dat
1 89 -30 -56 -100 0 0 1 0 1 0 -1 0 0 3069b.dat
1 89 -50 -80 -100 0 0 1 0 1 0 -1 0 0 3069b.dat
1 89 -70 -104 -100 0 0 1 0 1 0 -1 0 0 3069b.dat
1 89 -90 -128 -100 0 0 1 0 1 0 -1 0 0 3069b.dat
1 89 -110 -152 -100 0 0 1 0 1 0 -1 0 0 3069b.dat
1 89 -130 -176 -100 0 0 1 0 1 0 -1 0 0 3069b.dat
1 89 -150 -200 -100 0 0 1 0 1 0 -1 0 0 3069b.dat
1 89 -180 -224 -100 0 0 1 0 1 0 -1 0 0 3068b.dat
1 89 -220 -248 -100 0 0 -1 0 1 0 1 0 0 87079.dat
1 89 -280 -248 40 0 0 -1 0 1 0 1 0 0 1751.dat
1 89 -280 -248 -240 0 0 -1 0 1 0 1 0 0 1751.dat
1 89 -280 -248 -160 0 0 -1 0 1 0 1 0 0 1751.dat
1 89 -280 -248 -40 0 0 -1 0 1 0 1 0 0 1751.dat
1 0 -30 -56 -50 0 0 -1 0 1 0 1 0 0 63864.dat
1 0 -50 -80 -50 0 0 -1 0 1 0 1 0 0 63864.dat
1 0 -70 -104 -50 0 0 -1 0 1 0 1 0 0 63864.dat
1 0 -90 -128 -50 0 0 -1 0 1 0 1 0 0 63864.dat
1 0 -110 -152 -50 0 0 -1 0 1 0 1 0 0 63864.dat
1 0 -130 -176 -50 0 0 -1 0 1 0 1 0 0 63864.dat
1 0 -150 -200 -50 0 0 -1 0 1 0 1 0 0 63864.dat
1 0 -170 -224 -50 0 0 -1 0 1 0 1 0 0 63864.dat
1 0 -30 -56 -150 0 0 1 0 1 0 -1 0 0 63864.dat
1 0 -50 -80 -150 0 0 1 0 1 0 -1 0 0 63864.dat
1 0 -70 -104 -150 0 0 1 0 1 0 -1 0 0 63864.dat
1 0 -90 -128 -150 0 0 1 0 1 0 -1 0 0 63864.dat
1 0 -110 -152 -150 0 0 1 0 1 0 -1 0 0 63864.dat
1 0 -130 -176 -150 0 0 1 0 1 0 -1 0 0 63864.dat
1 0 -150 -200 -150 0 0 1 0 1 0 -1 0 0 63864.dat
1 0 -170 -224 -150 0 0 1 0 1 0 -1 0 0 63864.dat
1 0 -190 -224 -130 0 0 1 0 1 0 -1 0 0 3070b.dat
1 0 -190 -224 -70 0 0 1 0 1 0 -1 0 0 3070b.dat
1 0 -170 -248 140 0 0 -1 0 1 0 1 0 0 6636.dat
1 0 -150 -272 140 0 0 -1 0 1 0 1 0 0 6636.dat
1 0 -130 -296 140 0 0 -1 0 1 0 1 0 0 6636.dat
1 0 -110 -320 140 0 0 -1 0 1 0 1 0 0 6636.dat
1 0 -170 -248 -340 0 0 -1 0 1 0 1 0 0 6636.dat
1 0 -150 -272 -340 0 0 -1 0 1 0 1 0 0 6636.dat
1 0 -130 -296 -340 0 0 -1 0 1 0 1 0 0 6636.dat
1 0 -110 -320 -340 0 0 -1 0 1 0 1 0 0 6636.dat
1 0 -80 -344 120 0 0 1 0 1 0 -1 0 0 87079.dat
1 0 -80 -344 -320 0 0 1 0 1 0 -1 0 0 87079.dat
1 0 -10 -32 -50 0 0 -1 0 1 0 1 0 0 63864.dat
1 0 -10 -32 -150 0 0 -1 0 1 0 1 0 0 63864.dat
1 89 -280 -248 -100 1 0 0 0 1 0 0 0 1 87079.dat
1 308 -190 -304 40 0 0 1 0 1 0 -1 0 0 2431.dat
1 308 -190 -304 -240 0 0 1 0 1 0 -1 0 0 2431.dat
1 308 30 -424 -140 0 0 -1 0 1 0 1 0 0 2431.dat
1 308 30 -424 -60 0 0 -1 0 1 0 1 0 0 2431.dat
1 308 -20 -424 -20 0 0 -1 0 1 0 1 0 0 79393.dat
1 308 -20 -424 -180 1 0 0 0 1 0 0 0 1 79393.dat
1 8 80 -368 -100 0 0 1 0 1 0 -1 0 0 48288.dat
1 8 -20 -368 -200 0 0 -1 0 1 0 1 0 0 35787.dat
1 8 -20 -368 0 -1 0 0 0 1 0 0 0 -1 35787.dat
1 8 100 -368 120 1 0 0 0 1 0 0 0 1 1751.dat
1 8 20 -368 120 1 0 0 0 1 0 0 0 1 1751.dat
1 8 100 -368 -320 1 0 0 0 1 0 0 0 1 1751.dat
1 8 20 -368 -320 1 0 0 0 1 0 0 0 1 1751.dat
1 8 190 -368 -40 0 0 -1 0 1 0 1 0 0 6934.dat
1 8 190 -368 -160 0 0 -1 0 1 0 1 0 0 6934.dat
1 8 -40 -368 -390 1 0 0 0 1 0 0 0 1 6934.dat
1 8 -160 -368 -390 1 0 0 0 1 0 0 0 1 6934.dat
1 8 -40 -368 190 1 0 0 0 1 0 0 0 1 6934.dat
1 8 -160 -368 190 1 0 0 0 1 0 0 0 1 6934.dat
1 8 260 -368 -100 1 0 0 0 1 0 0 0 1 1751.dat
1 8 -100 -368 260 1 0 0 0 1 0 0 0 1 1751.dat
1 8 -100 -368 -460 1 0 0 0 1 0 0 0 1 1751.dat
1 8 -50 -368 -440 0 0 1 0 1 0 -1 0 0 3069b.dat
1 8 -150 -368 -440 0 0 1 0 1 0 -1 0 0 3069b.dat
1 8 -150 -368 240 0 0 1 0 1 0 -1 0 0 3069b.dat
1 8 -50 -368 240 0 0 1 0 1 0 -1 0 0 3069b.dat
1 8 240 -368 -50 1 0 0 0 1 0 0 0 1 3069b.dat
1 8 240 -368 -150 1 0 0 0 1 0 0 0 1 3069b.dat
1 8 80 -368 70 1 0 0 0 1 0 0 0 1 4162.dat
1 8 80 -368 -270 1 0 0 0 1 0 0 0 1 4162.dat
1 8 -30 -368 -260 -1 0 0 0 1 0 0 0 -1 26603.dat
1 8 -30 -368 60 -1 0 0 0 1 0 0 0 -1 26603.dat
1 8 -40 -368 120 0 0 -1 0 1 0 1 0 0 87079.dat
1 8 -40 -368 -320 0 0 -1 0 1 0 1 0 0 87079.dat
1 0 -210 -248 -40 1 0 0 0 1 0 0 0 1 26603.dat
1 0 -210 -248 -160 1 0 0 0 1 0 0 0 1 26603.dat
1 8 -210 -248 40 0 0 -1 0 1 0 1 0 0 6934.dat
1 8 -210 -248 -240 0 0 -1 0 1 0 1 0 0 6934.dat
1 8 -300 -248 140 0 0 -1 0 1 0 1 0 0 10202.dat
1 8 -300 -248 -340 0 0 -1 0 1 0 1 0 0 10202.dat
1 8 -210 -248 -320 -1 0 0 0 1 0 0 0 -1 26603.dat
1 8 -210 -248 -360 -1 0 0 0 1 0 0 0 -1 26603.dat
1 8 -210 -248 160 -1 0 0 0 1 0 0 0 -1 26603.dat
1 8 -210 -248 120 -1 0 0 0 1 0 0 0 -1 26603.dat
1 8 -210.0001 -248 190 -1 0 0 0 1 0 0 0 -1 63864.dat
1 8 -210.0001 -248 -390 -1 0 0 0 1 0 0 0 -1 63864.dat
1 8 -350 -248 -220 0 0 -1 0 1 0 1 0 0 6934.dat
1 8 -350 -248 20 0 0 -1 0 1 0 1 0 0 6934.dat
1 8 -330 -248 -70 0 0 -1 0 1 0 1 0 0 14719.dat
1 8 -330 -248 -130 -1 0 0 0 1 0 0 0 -1 14719.dat
1 8 -370 -248 -370 -1 0 0 0 1 0 0 0 -1 14719.dat
1 8 -370 -248 170 0 0 -1 0 1 0 1 0 0 14719.dat
1 8 -380 -248 120 0 0 -1 0 1 0 1 0 0 87079.dat
1 8 -380 -248 -320 0 0 -1 0 1 0 1 0 0 87079.dat
1 8 -390 -248 -220 0 0 -1 0 1 0 1 0 0 5091.dat
1 8 -390 -248 20 0 0 1 0 1 0 -1 0 0 5092.dat
1 8 -390 -248 60 0 0 -1 0 1 0 1 0 0 3069b.dat
1 8 -390 -248 -260 0 0 -1 0 1 0 1 0 0 3069b.dat
1 89 -340 -248 -100 -1 0 0 0 1 0 0 0 -1 3068b.dat
1 8 -20 -8 20 0 0 1 0 1 0 -1 0 0 87079.dat
1 8 -20 -8 -220 0 0 1 0 1 0 -1 0 0 87079.dat
1 8 20 -8 -220 0 0 1 0 1 0 -1 0 0 87079.dat
1 8 20 -8 20 0 0 1 0 1 0 -1 0 0 87079.dat
1 8 20 -8 -30 -1 0 0 0 1 0 0 0 -1 3069b.dat
1 8 20 -8 -170 -1 0 0 0 1 0 0 0 -1 3069b.dat
1 7 -339.9999 -312 210 -1 0 0 0 1 0 0 0 -1 15533.dat
1 8 150 -368 -320 0 0 -1 0 1 0 1 0 0 2431.dat
1 8 150 -368 120 0 0 -1 0 1 0 1 0 0 2431.dat
1 8 170 -392 170 -1 0 0 0 1 0 0 0 -1 14719.dat
1 8 170 -392 120 0 0 1 0 1 0 -1 0 0 3069b.dat
1 8 120 -392 170 1 0 0 0 1 0 0 0 1 3069b.dat
1 8 170 -392 -320 0 0 1 0 1 0 -1 0 0 3069b.dat
1 8 170 -392 -370 0 0 -1 0 1 0 1 0 0 14719.dat
1 8 120 -392 -370 1 0 0 0 1 0 0 0 1 3069b.dat
1 8 -370 -392 170 0 0 1 0 1 0 -1 0 0 14719.dat
1 8 -370 -392 -370 1 0 0 0 1 0 0 0 1 14719.dat
1 8 -320 -392 170 1 0 0 0 1 0 0 0 1 3069b.dat
1 8 -320 -392 -370 1 0 0 0 1 0 0 0 1 3069b.dat
1 8 -370 -392 -280 0 0 -1 0 1 0 1 0 0 6636.dat
1 8 -370 -392 80 0 0 -1 0 1 0 1 0 0 6636.dat
1 8 210 -8 -160 0 0 1 0 1 0 -1 0 0 2431.dat
1 8 210 -8 -40 0 0 1 0 1 0 -1 0 0 2431.dat
1 8 210 -8 -100 0 0 1 0 1 0 -1 0 0 3069b.dat
1 8 -390 -8 -220 0 0 -1 0 1 0 1 0 0 5091.dat
1 423 -340 -40 130 1 0 0 0 1 0 0 0 1 4079.dat
1 72 -369.6858 -94.2201 -52.0249 0.968583 -0.24869 0 -0.248676 -0.96853 -0.010472 0.002604 0.010143 -0.999945 93550.dat
1 72 -340 -96 80 1 0 0 0 1 0 0 0 1 2343.dat
1 423 -340 -32 130 0 0 1 0 1 0 -1 0 0 6143.dat
1 423 -360 -48 90 1 0 0 0 1 0 0 0 1 71075a.dat
1 423 -300 -48 90 1 0 0 0 1 0 0 0 1 71075a.dat
1 423 -300 -48 30 1 0 0 0 1 0 0 0 1 71075a.dat
1 423 -360 -48 30 1 0 0 0 1 0 0 0 1 71075a.dat
1 423 -330 -56 60 1 0 0 0 1 0 0 0 1 7212.dat
1 423 -310 -16 -160 1 0 0 0 1 0 0 0 1 18674.dat
1 423 -310 -96 -160 -1 0 0 0 -1 0 0 0 1 21699.dat
1 7 -310 -96 -160 1 0 0 0 1 0 0 0 1 2587.dat
1 423 -210 -16 -160 1 0 0 0 1 0 0 0 1 18674.dat
1 423 -210 -16 -160 1 0 0 0 1 0 0 0 1 u9531a.dat
1 7 -210 -104 -160 1 0 0 0 1 0 0 0 1 89520.dat
1 14 -210 -120 -160 1 0 0 0 1 0 0 0 1 87694.dat
1 148 210 -416 110 0 0 -1 0 1 0 1 0 0 61252.dat
1 89 230 -413.6401 130.2794 1 0 0 0 0 1 0 -1 0 30292a.dat
1 14 230 -413.6401 -329.2855 1 0 0 0 0 1 0 -1 0 30292a.dat
1 148 210 -416 150 0 0 -1 0 1 0 1 0 0 61252.dat
1 148 210 -416 -350 0 0 -1 0 1 0 1 0 0 61252.dat
1 148 210 -416 -310 0 0 -1 0 1 0 1 0 0 61252.dat
1 148 220 -448 220 -1 0 0 0 1 0 0 0 -1 6039.dat
1 423 220 -456 220 -1 0 0 0 1 0 0 0 -1 4095.dat
1 89 220 -568 220 -1 0 0 0 1 0 0 0 -1 4495a.dat
1 148 -420 -448 220 -1 0 0 0 1 0 0 0 -1 6039.dat
1 423 -420 -456 220 -1 0 0 0 1 0 0 0 -1 4095.dat
1 14 -420 -568 220 -1 0 0 0 1 0 0 0 -1 4495a.dat
1 148 -420 -448 -420 -1 0 0 0 1 0 0 0 -1 6039.dat
1 423 -420 -456 -420 -1 0 0 0 1 0 0 0 -1 4095.dat
1 89 -420 -568 -420 -1 0 0 0 1 0 0 0 -1 4495a.dat
1 148 220 -448 -420 -1 0 0 0 1 0 0 0 -1 6039.dat
1 423 220 -456 -420 -1 0 0 0 1 0 0 0 -1 4095.dat
1 14 220 -568 -420 -1 0 0 0 1 0 0 0 -1 4495a.dat
1 8 -220 -72 -110 1 0 0 0 1 0 0 0 1 6112.dat
1 8 -220 -96 -110 1 0 0 0 1 0 0 0 1 6112.dat
1 8 -220 -72 -90 1 0 0 0 1 0 0 0 1 6112.dat
1 8 -220 -96 -90 1 0 0 0 1 0 0 0 1 6112.dat
1 8 -360 -72 -100 1 0 0 0 1 0 0 0 1 3003.dat
1 8 -360 -96 -100 1 0 0 0 1 0 0 0 1 3003.dat
1 8 -20 -368 30 -1 0 0 0 1 0 0 0 -1 3069b.dat
1 8 -20 -368 -230 -1 0 0 0 1 0 0 0 -1 3069b.dat
1 8 190 -8 -370 1 0 0 0 1 0 0 0 1 3070a.dat
1 8 190 -8 170 1 0 0 0 1 0 0 0 1 3070a.dat
