0 
0 Name: New Model.ldr
0 Author: 
1 84 120 0 -220 1 0 0 0 1 0 0 0 1 79759.dat
1 84 -40 0 -220 1 0 0 0 1 0 0 0 1 79759.dat
1 84 -200 0 -220 1 0 0 0 1 0 0 0 1 79759.dat
1 84 -360 0 -220 1 0 0 0 1 0 0 0 1 79759.dat
1 84 -520 0 -220 1 0 0 0 1 0 0 0 1 79759.dat
1 84 280 0 -220 1 0 0 0 1 0 0 0 1 79759.dat
1 84 120 0 -60 1 0 0 0 1 0 0 0 1 79759.dat
1 19 -40 0 -60 1 0 0 0 1 0 0 0 1 79759.dat
1 19 -200 0 -60 1 0 0 0 1 0 0 0 1 79759.dat
1 84 -360 0 -60 1 0 0 0 1 0 0 0 1 79759.dat
1 84 -520 0 -60 1 0 0 0 1 0 0 0 1 79759.dat
1 84 280 0 -60 1 0 0 0 1 0 0 0 1 79759.dat
1 19 120 0 100 1 0 0 0 1 0 0 0 1 79759.dat
1 19 -40 0 100 1 0 0 0 1 0 0 0 1 79759.dat
1 19 -200 0 100 1 0 0 0 1 0 0 0 1 79759.dat
1 84 -360 0 100 1 0 0 0 1 0 0 0 1 79759.dat
1 84 -520 0 100 1 0 0 0 1 0 0 0 1 79759.dat
1 19 280 0 100 1 0 0 0 1 0 0 0 1 79759.dat
1 19 120 0 260 1 0 0 0 1 0 0 0 1 79759.dat
1 19 -40 0 260 1 0 0 0 1 0 0 0 1 79759.dat
1 19 -200 0 260 1 0 0 0 1 0 0 0 1 79759.dat
1 19 -360 0 260 1 0 0 0 1 0 0 0 1 79759.dat
1 84 -520 0 260 1 0 0 0 1 0 0 0 1 79759.dat
1 19 280 0 260 1 0 0 0 1 0 0 0 1 79759.dat
1 19 120 0 420 1 0 0 0 1 0 0 0 1 79759.dat
1 19 -40 0 420 1 0 0 0 1 0 0 0 1 79759.dat
1 19 -200 0 420 1 0 0 0 1 0 0 0 1 79759.dat
1 84 -360 0 420 1 0 0 0 1 0 0 0 1 79759.dat
1 84 -520 0 420 1 0 0 0 1 0 0 0 1 79759.dat
1 19 280 0 420 1 0 0 0 1 0 0 0 1 79759.dat
1 84 120 0 580 1 0 0 0 1 0 0 0 1 79759.dat
1 19 -40 0 580 1 0 0 0 1 0 0 0 1 79759.dat
1 19 -200 0 580 1 0 0 0 1 0 0 0 1 79759.dat
1 84 -360 0 580 1 0 0 0 1 0 0 0 1 79759.dat
1 84 -520 0 580 1 0 0 0 1 0 0 0 1 79759.dat
1 84 280 0 580 1 0 0 0 1 0 0 0 1 79759.dat
1 8 -560 -240 260 0 0 1 0 1 0 -1 0 0 15626.dat
1 8 -120 -240 -260 1 0 0 0 1 0 0 0 1 15626.dat
1 8 -500 -144 -200 0 0 1 0 1 0 -1 0 0 6055.dat
1 19 440 0 -220 1 0 0 0 1 0 0 0 1 79759.dat
1 19 440 0 -60 1 0 0 0 1 0 0 0 1 79759.dat
1 19 440 0 100 1 0 0 0 1 0 0 0 1 79759.dat
1 19 440 0 260 1 0 0 0 1 0 0 0 1 79759.dat
1 19 440 0 420 1 0 0 0 1 0 0 0 1 79759.dat
1 19 440 0 580 1 0 0 0 1 0 0 0 1 79759.dat
1 84 120 0 740 1 0 0 0 1 0 0 0 1 79759.dat
1 84 -40 0 740 1 0 0 0 1 0 0 0 1 79759.dat
1 84 -200 0 740 1 0 0 0 1 0 0 0 1 79759.dat
1 84 -360 0 740 1 0 0 0 1 0 0 0 1 79759.dat
1 84 -520 0 740 1 0 0 0 1 0 0 0 1 79759.dat
1 84 280 0 740 1 0 0 0 1 0 0 0 1 79759.dat
1 8 -120 -240 780 -1 0 0 0 1 0 0 0 -1 15626.dat
1 19 440 0 740 1 0 0 0 1 0 0 0 1 79759.dat
1 8 -500 -144 720 -1 0 0 0 1 0 0 0 -1 6055.dat
1 8 -500 -288 -200 0 0 1 0 1 0 -1 0 0 6055.dat
1 8 -500 -432 -200 0 0 1 0 1 0 -1 0 0 6055.dat
1 8 -500 -288 720 -1 0 0 0 1 0 0 0 -1 6055.dat
1 8 -500 -432 720 -1 0 0 0 1 0 0 0 -1 6055.dat
1 7 -550 -72 60 0 0 1 0 1 0 -1 0 0 49311.dat
1 7 -550 -144 60 0 0 1 0 1 0 -1 0 0 49311.dat
1 7 -550 -216 60 0 0 1 0 1 0 -1 0 0 49311.dat
1 7 -550 -288 60 0 0 1 0 1 0 -1 0 0 49311.dat
1 7 -550 -360 60 0 0 1 0 1 0 -1 0 0 49311.dat
1 7 -550 -72 460 0 0 1 0 1 0 -1 0 0 49311.dat
1 7 -550 -144 460 0 0 1 0 1 0 -1 0 0 49311.dat
1 7 -550 -216 460 0 0 1 0 1 0 -1 0 0 49311.dat
1 7 -550 -288 460 0 0 1 0 1 0 -1 0 0 49311.dat
1 7 -550 -360 460 0 0 1 0 1 0 -1 0 0 49311.dat
1 72 -550 -264 340 0 0 1 0 1 0 -1 0 0 4445.dat
1 72 -550 -264 180 0 0 1 0 1 0 -1 0 0 4445.dat
1 7 -550 -288 340 0 0 1 0 1 0 -1 0 0 3008.dat
1 7 -550 -288 180 0 0 1 0 1 0 -1 0 0 3008.dat
1 7 -550 -360 560 0 0 1 0 1 0 -1 0 0 3754.dat
1 7 -550 -240 560 0 0 1 0 1 0 -1 0 0 3754.dat
1 7 -550 -120 560 0 0 1 0 1 0 -1 0 0 3754.dat
1 7 -550 -360 -40 0 0 1 0 1 0 -1 0 0 3754.dat
1 7 -550 -240 -40 0 0 1 0 1 0 -1 0 0 3754.dat
1 7 -550 -120 -40 0 0 1 0 1 0 -1 0 0 3754.dat
1 7 -340 -360 -250 -1 0 0 0 1 0 0 0 -1 3754.dat
1 7 -340 -240 -250 -1 0 0 0 1 0 0 0 -1 3754.dat
1 7 -340 -120 -250 -1 0 0 0 1 0 0 0 -1 3754.dat
1 7 100 -360 -250 -1 0 0 0 1 0 0 0 -1 3754.dat
1 7 100 -240 -250 -1 0 0 0 1 0 0 0 -1 3754.dat
1 7 100 -120 -250 -1 0 0 0 1 0 0 0 -1 3754.dat
1 7 100 -360 770 -1 0 0 0 1 0 0 0 -1 3754.dat
1 7 100 -240 770 -1 0 0 0 1 0 0 0 -1 3754.dat
1 7 100 -120 770 -1 0 0 0 1 0 0 0 -1 3754.dat
1 7 -340 -360 770 -1 0 0 0 1 0 0 0 -1 3754.dat
1 7 -340 -240 770 -1 0 0 0 1 0 0 0 -1 3754.dat
1 7 -340 -120 770 -1 0 0 0 1 0 0 0 -1 3754.dat
1 7 -550 -120 640 0 0 1 0 1 0 -1 0 0 2454b.dat
1 7 -550 -240 640 0 0 1 0 1 0 -1 0 0 2454b.dat
1 7 -550 -360 640 0 0 1 0 1 0 -1 0 0 2454b.dat
1 7 -550 -120 -120 0 0 1 0 1 0 -1 0 0 2454b.dat
1 7 -550 -240 -120 0 0 1 0 1 0 -1 0 0 2454b.dat
1 7 -550 -360 -120 0 0 1 0 1 0 -1 0 0 2454b.dat
1 7 -420 -120 -250 -1 0 0 0 1 0 0 0 -1 2454b.dat
1 7 -420 -240 -250 -1 0 0 0 1 0 0 0 -1 2454b.dat
1 7 -420 -360 -250 -1 0 0 0 1 0 0 0 -1 2454b.dat
1 7 -420 -120 770 -1 0 0 0 1 0 0 0 -1 2454b.dat
1 7 -420 -240 770 -1 0 0 0 1 0 0 0 -1 2454b.dat
1 7 -420 -360 770 -1 0 0 0 1 0 0 0 -1 2454b.dat
1 72 -40 -264 770 -1 0 0 0 1 0 0 0 -1 4445.dat
1 72 -200 -264 770 -1 0 0 0 1 0 0 0 -1 4445.dat
1 7 -40 -288 770 -1 0 0 0 1 0 0 0 -1 3008.dat
1 7 -200 -288 770 -1 0 0 0 1 0 0 0 -1 3008.dat
1 72 -200 -264 -250 1 0 0 0 1 0 0 0 1 4445.dat
1 72 -40 -264 -250 1 0 0 0 1 0 0 0 1 4445.dat
1 7 -200 -288 -250 1 0 0 0 1 0 0 0 1 3008.dat
1 7 -40 -288 -250 1 0 0 0 1 0 0 0 1 3008.dat
1 7 -510 -440 -10 0 0 1 0 1 0 -1 0 0 11212.dat
1 7 -510 -440 -70 0 0 1 0 1 0 -1 0 0 11212.dat
1 7 -450 -440 -10 0 0 1 0 1 0 -1 0 0 11212.dat
1 7 -450 -440 -70 0 0 1 0 1 0 -1 0 0 11212.dat
1 7 -450 -440 -130 0 0 1 0 1 0 -1 0 0 11212.dat
1 7 -390 -440 -130 0 0 1 0 1 0 -1 0 0 11212.dat
1 7 -390 -440 -190 0 0 1 0 1 0 -1 0 0 11212.dat
1 7 -390 -440 649.9999 -1 0 0 0 1 0 0 0 -1 11212.dat
1 7 -450 -440 649.9999 -1 0 0 0 1 0 0 0 -1 11212.dat
1 7 -450 -440 590 -1 0 0 0 1 0 0 0 -1 11212.dat
1 7 -510.0001 -440 589.9999 -1 0 0 0 1 0 0 0 -1 11212.dat
1 7 -450 -440 530 -1 0 0 0 1 0 0 0 -1 11212.dat
1 7 -510 -440 530 -1 0 0 0 1 0 0 0 -1 11212.dat
1 7 -390 -440 709.9999 -1 0 0 0 1 0 0 0 -1 11212.dat
1 7 100 -360 -110 -1 0 0 0 1 0 0 0 -1 3754.dat
1 7 100 -240 -110 -1 0 0 0 1 0 0 0 -1 3754.dat
1 7 100 -120 -110 -1 0 0 0 1 0 0 0 -1 3754.dat
1 7 100 -360 630 -1 0 0 0 1 0 0 0 -1 3754.dat
1 7 100 -240 630 -1 0 0 0 1 0 0 0 -1 3754.dat
1 7 100 -120 630 -1 0 0 0 1 0 0 0 -1 3754.dat
1 7 -410 -72 460 0 0 1 0 1 0 -1 0 0 49311.dat
1 7 -410 -144 460 0 0 1 0 1 0 -1 0 0 49311.dat
1 7 -410 -216 460 0 0 1 0 1 0 -1 0 0 49311.dat
1 7 -410 -288 460 0 0 1 0 1 0 -1 0 0 49311.dat
1 7 -410 -360 460 0 0 1 0 1 0 -1 0 0 49311.dat
1 7 -410 -72 60 0 0 1 0 1 0 -1 0 0 49311.dat
1 7 -410 -144 60 0 0 1 0 1 0 -1 0 0 49311.dat
1 7 -410 -216 60 0 0 1 0 1 0 -1 0 0 49311.dat
1 7 -410 -288 60 0 0 1 0 1 0 -1 0 0 49311.dat
1 7 -410 -360 60 0 0 1 0 1 0 -1 0 0 49311.dat
1 7 -340 -360 630 -1 0 0 0 1 0 0 0 -1 3754.dat
1 7 -340 -240 630 -1 0 0 0 1 0 0 0 -1 3754.dat
1 7 -340 -120 630 -1 0 0 0 1 0 0 0 -1 3754.dat
1 7 -340 -360 -110 -1 0 0 0 1 0 0 0 -1 3754.dat
1 7 -340 -240 -110 -1 0 0 0 1 0 0 0 -1 3754.dat
1 7 -340 -120 -110 -1 0 0 0 1 0 0 0 -1 3754.dat
1 7 -410 -360 -40 0 0 1 0 1 0 -1 0 0 3754.dat
1 7 -410 -240 -40 0 0 1 0 1 0 -1 0 0 3754.dat
1 7 -410 -120 -40 0 0 1 0 1 0 -1 0 0 3754.dat
1 7 -410 -360 560 0 0 1 0 1 0 -1 0 0 3754.dat
1 7 -410 -240 560 0 0 1 0 1 0 -1 0 0 3754.dat
1 7 -410 -120 560 0 0 1 0 1 0 -1 0 0 3754.dat
1 8 50 -120 -180 0 0 1 0 1 0 -1 0 0 3754.dat
1 8 50 -240 -180 0 0 1 0 1 0 -1 0 0 3754.dat
1 8 -290 -120 -180 0 0 1 0 1 0 -1 0 0 3754.dat
1 8 -290 -240 -180 0 0 1 0 1 0 -1 0 0 3754.dat
1 8 -480 -120 90 -1 0 0 0 1 0 0 0 -1 3754.dat
1 8 -480 -240 90 -1 0 0 0 1 0 0 0 -1 3754.dat
1 8 -480 -120 430 -1 0 0 0 1 0 0 0 -1 3754.dat
1 8 -480 -240 430 -1 0 0 0 1 0 0 0 -1 3754.dat
1 8 50 -120 700 0 0 1 0 1 0 -1 0 0 3754.dat
1 8 -290 -240 700 0 0 1 0 1 0 -1 0 0 3754.dat
1 8 -290 -120 700 0 0 1 0 1 0 -1 0 0 3754.dat
1 8 50 -240 700 0 0 1 0 1 0 -1 0 0 3754.dat
1 19 600 0 420 1 0 0 0 1 0 0 0 1 79759.dat
1 19 600 0 580 1 0 0 0 1 0 0 0 1 79759.dat
1 19 760 0 420 1 0 0 0 1 0 0 0 1 79759.dat
1 19 760 0 580 1 0 0 0 1 0 0 0 1 79759.dat
1 19 600 0 740 1 0 0 0 1 0 0 0 1 79759.dat
1 19 760 0 740 1 0 0 0 1 0 0 0 1 79759.dat
1 19 600 0 -220 1 0 0 0 1 0 0 0 1 79759.dat
1 19 600 0 -60 1 0 0 0 1 0 0 0 1 79759.dat
1 19 760 0 -220 1 0 0 0 1 0 0 0 1 79759.dat
1 19 760 0 -60 1 0 0 0 1 0 0 0 1 79759.dat
1 19 600 0 100 1 0 0 0 1 0 0 0 1 79759.dat
1 19 760 0 100 1 0 0 0 1 0 0 0 1 79759.dat
1 19 920 0 -220 1 0 0 0 1 0 0 0 1 79759.dat
1 19 920 0 -60 1 0 0 0 1 0 0 0 1 79759.dat
1 19 1080 0 -220 1 0 0 0 1 0 0 0 1 79759.dat
1 19 1080 0 -60 1 0 0 0 1 0 0 0 1 79759.dat
1 19 920 0 100 1 0 0 0 1 0 0 0 1 79759.dat
1 19 1080 0 100 1 0 0 0 1 0 0 0 1 79759.dat
1 19 920 0 740 1 0 0 0 1 0 0 0 1 79759.dat
1 19 1080 0 740 1 0 0 0 1 0 0 0 1 79759.dat
1 19 1080 0 420 1 0 0 0 1 0 0 0 1 79759.dat
1 19 920 0 420 1 0 0 0 1 0 0 0 1 79759.dat
1 19 920 0 580 1 0 0 0 1 0 0 0 1 79759.dat
1 19 1080 0 580 1 0 0 0 1 0 0 0 1 79759.dat
1 19 1080 0 260 1 0 0 0 1 0 0 0 1 79759.dat
1 19 920 0 260 1 0 0 0 1 0 0 0 1 79759.dat
1 19 760 0 260 1 0 0 0 1 0 0 0 1 79759.dat
1 19 600 0 260 1 0 0 0 1 0 0 0 1 79759.dat
1 84 280 0 -700 1 0 0 0 1 0 0 0 1 79759.dat
1 84 280 0 -540 1 0 0 0 1 0 0 0 1 79759.dat
1 84 280 0 -380 1 0 0 0 1 0 0 0 1 79759.dat
1 19 440 0 -700 1 0 0 0 1 0 0 0 1 79759.dat
1 19 440 0 -540 1 0 0 0 1 0 0 0 1 79759.dat
1 19 440 0 -380 1 0 0 0 1 0 0 0 1 79759.dat
1 19 600 0 -700 1 0 0 0 1 0 0 0 1 79759.dat
1 19 600 0 -540 1 0 0 0 1 0 0 0 1 79759.dat
1 19 760 0 -700 1 0 0 0 1 0 0 0 1 79759.dat
1 19 760 0 -540 1 0 0 0 1 0 0 0 1 79759.dat
1 19 600 0 -380 1 0 0 0 1 0 0 0 1 79759.dat
1 19 760 0 -380 1 0 0 0 1 0 0 0 1 79759.dat
1 19 920 0 -700 1 0 0 0 1 0 0 0 1 79759.dat
1 19 920 0 -540 1 0 0 0 1 0 0 0 1 79759.dat
1 19 1080 0 -700 1 0 0 0 1 0 0 0 1 79759.dat
1 19 1080 0 -540 1 0 0 0 1 0 0 0 1 79759.dat
1 19 920 0 -380 1 0 0 0 1 0 0 0 1 79759.dat
1 19 1080 0 -380 1 0 0 0 1 0 0 0 1 79759.dat
1 84 280 0 900 1 0 0 0 1 0 0 0 1 79759.dat
1 84 280 0 1060 1 0 0 0 1 0 0 0 1 79759.dat
1 19 440 0 900 1 0 0 0 1 0 0 0 1 79759.dat
1 19 440 0 1060 1 0 0 0 1 0 0 0 1 79759.dat
1 84 280 0 1220 1 0 0 0 1 0 0 0 1 79759.dat
1 19 440 0 1220 1 0 0 0 1 0 0 0 1 79759.dat
1 19 600 0 900 1 0 0 0 1 0 0 0 1 79759.dat
1 19 600 0 1060 1 0 0 0 1 0 0 0 1 79759.dat
1 19 760 0 900 1 0 0 0 1 0 0 0 1 79759.dat
1 19 760 0 1060 1 0 0 0 1 0 0 0 1 79759.dat
1 19 600 0 1220 1 0 0 0 1 0 0 0 1 79759.dat
1 19 760 0 1220 1 0 0 0 1 0 0 0 1 79759.dat
1 19 920 0 1220 1 0 0 0 1 0 0 0 1 79759.dat
1 19 1080 0 1220 1 0 0 0 1 0 0 0 1 79759.dat
1 19 1080 0 900 1 0 0 0 1 0 0 0 1 79759.dat
1 19 920 0 900 1 0 0 0 1 0 0 0 1 79759.dat
1 19 920 0 1060 1 0 0 0 1 0 0 0 1 79759.dat
1 8 220 -144 800 -1 0 0 0 1 0 0 0 -1 6055.dat
1 8 220 -288 800 -1 0 0 0 1 0 0 0 -1 6055.dat
1 8 220 -432 800 -1 0 0 0 1 0 0 0 -1 6055.dat
1 8 220 -144 -280 0 0 1 0 1 0 -1 0 0 6055.dat
1 8 220 -288 -280 0 0 1 0 1 0 -1 0 0 6055.dat
1 8 220 -432 -280 0 0 1 0 1 0 -1 0 0 6055.dat
1 7 250 -72 900 0 0 -1 0 1 0 1 0 0 49311.dat
1 7 250 -144 900 0 0 -1 0 1 0 1 0 0 49311.dat
1 7 250 -216 900 0 0 -1 0 1 0 1 0 0 49311.dat
1 7 250 -288 900 0 0 -1 0 1 0 1 0 0 49311.dat
1 7 250 -360 900 0 0 -1 0 1 0 1 0 0 49311.dat
1 8 250 -432 900 0 0 -1 0 1 0 1 0 0 49311.dat
1 7 250 -72 -380 0 0 -1 0 1 0 1 0 0 49311.dat
1 7 250 -144 -380 0 0 -1 0 1 0 1 0 0 49311.dat
1 7 250 -216 -380 0 0 -1 0 1 0 1 0 0 49311.dat
1 7 250 -288 -380 0 0 -1 0 1 0 1 0 0 49311.dat
1 7 250 -360 -380 0 0 -1 0 1 0 1 0 0 49311.dat
1 8 250 -432 -380 0 0 -1 0 1 0 1 0 0 49311.dat
1 7 250 -120 1000 0 0 -1 0 1 0 1 0 0 3754.dat
1 7 250 -240 1000 0 0 -1 0 1 0 1 0 0 3754.dat
1 7 250 -360 1000 0 0 -1 0 1 0 1 0 0 3754.dat
1 19 1080 0 1060 1 0 0 0 1 0 0 0 1 79759.dat
1 7 250 -120 1120 0 0 -1 0 1 0 1 0 0 3754.dat
1 7 250 -240 1120 0 0 -1 0 1 0 1 0 0 3754.dat
1 7 250 -360 1120 0 0 -1 0 1 0 1 0 0 3754.dat
1 84 280 0 1380 1 0 0 0 1 0 0 0 1 79759.dat
1 84 440 0 1380 1 0 0 0 1 0 0 0 1 79759.dat
1 84 600 0 1380 1 0 0 0 1 0 0 0 1 79759.dat
1 84 760 0 1380 1 0 0 0 1 0 0 0 1 79759.dat
1 84 920 0 1380 1 0 0 0 1 0 0 0 1 79759.dat
1 84 1080 0 1380 1 0 0 0 1 0 0 0 1 79759.dat
1 84 280 0 -860 1 0 0 0 1 0 0 0 1 79759.dat
1 84 440 0 -860 1 0 0 0 1 0 0 0 1 79759.dat
1 84 600 0 -860 1 0 0 0 1 0 0 0 1 79759.dat
1 84 760 0 -860 1 0 0 0 1 0 0 0 1 79759.dat
1 84 920 0 -860 1 0 0 0 1 0 0 0 1 79759.dat
1 84 1080 0 -860 1 0 0 0 1 0 0 0 1 79759.dat
1 7 250 -120 1240 0 0 -1 0 1 0 1 0 0 3754.dat
1 7 250 -240 1240 0 0 -1 0 1 0 1 0 0 3754.dat
1 7 250 -360 1240 0 0 -1 0 1 0 1 0 0 3754.dat
1 8 300 -144 1400 -1 0 0 0 1 0 0 0 -1 6055.dat
1 8 300 -288 1400 -1 0 0 0 1 0 0 0 -1 6055.dat
1 8 300 -432 1400 -1 0 0 0 1 0 0 0 -1 6055.dat
1 7 250 -120 -720 0 0 -1 0 1 0 1 0 0 3754.dat
1 7 250 -240 -720 0 0 -1 0 1 0 1 0 0 3754.dat
1 7 250 -360 -720 0 0 -1 0 1 0 1 0 0 3754.dat
1 7 250 -120 -600 0 0 -1 0 1 0 1 0 0 3754.dat
1 7 250 -240 -600 0 0 -1 0 1 0 1 0 0 3754.dat
1 7 250 -360 -600 0 0 -1 0 1 0 1 0 0 3754.dat
1 7 250 -120 -480 0 0 -1 0 1 0 1 0 0 3754.dat
1 7 250 -240 -480 0 0 -1 0 1 0 1 0 0 3754.dat
1 7 250 -360 -480 0 0 -1 0 1 0 1 0 0 3754.dat
1 8 300 -144 -880 0 0 1 0 1 0 -1 0 0 6055.dat
1 8 300 -288 -880 0 0 1 0 1 0 -1 0 0 6055.dat
1 8 300 -432 -880 0 0 1 0 1 0 -1 0 0 6055.dat
1 7 420 -120 -930 1 0 0 0 1 0 0 0 1 3754.dat
1 7 540 -120 -930 1 0 0 0 1 0 0 0 1 3754.dat
1 7 660 -120 -930 1 0 0 0 1 0 0 0 1 3754.dat
1 7 780 -120 -930 1 0 0 0 1 0 0 0 1 3754.dat
1 7 900 -120 -930 1 0 0 0 1 0 0 0 1 3754.dat
1 7 1020 -120 -930 1 0 0 0 1 0 0 0 1 3754.dat
1 84 1240 0 -220 1 0 0 0 1 0 0 0 1 79759.dat
1 84 1240 0 -60 1 0 0 0 1 0 0 0 1 79759.dat
1 84 1240 0 100 1 0 0 0 1 0 0 0 1 79759.dat
1 84 1240 0 740 1 0 0 0 1 0 0 0 1 79759.dat
1 84 1240 0 420 1 0 0 0 1 0 0 0 1 79759.dat
1 84 1240 0 580 1 0 0 0 1 0 0 0 1 79759.dat
1 84 1240 0 260 1 0 0 0 1 0 0 0 1 79759.dat
1 84 1240 0 -700 1 0 0 0 1 0 0 0 1 79759.dat
1 84 1240 0 -540 1 0 0 0 1 0 0 0 1 79759.dat
1 84 1240 0 -380 1 0 0 0 1 0 0 0 1 79759.dat
1 84 1240 0 1220 1 0 0 0 1 0 0 0 1 79759.dat
1 84 1240 0 900 1 0 0 0 1 0 0 0 1 79759.dat
1 84 1240 0 1060 1 0 0 0 1 0 0 0 1 79759.dat
1 84 1240 0 1380 1 0 0 0 1 0 0 0 1 79759.dat
1 84 1240 0 -860 1 0 0 0 1 0 0 0 1 79759.dat
1 8 1260 -144 -880 1 0 0 0 1 0 0 0 1 6055.dat
1 7 1140 -120 -930 1 0 0 0 1 0 0 0 1 3754.dat
1 7 420 -240 -930 1 0 0 0 1 0 0 0 1 3754.dat
1 7 540 -240 -930 1 0 0 0 1 0 0 0 1 3754.dat
1 7 660 -240 -930 1 0 0 0 1 0 0 0 1 3754.dat
1 7 780 -240 -930 1 0 0 0 1 0 0 0 1 3754.dat
1 7 900 -240 -930 1 0 0 0 1 0 0 0 1 3754.dat
1 7 1020 -240 -930 1 0 0 0 1 0 0 0 1 3754.dat
1 7 1140 -240 -930 1 0 0 0 1 0 0 0 1 3754.dat
1 7 420 -360 -930 1 0 0 0 1 0 0 0 1 3754.dat
1 7 540 -360 -930 1 0 0 0 1 0 0 0 1 3754.dat
1 7 660 -360 -930 1 0 0 0 1 0 0 0 1 3754.dat
1 7 780 -360 -930 1 0 0 0 1 0 0 0 1 3754.dat
1 7 900 -360 -930 1 0 0 0 1 0 0 0 1 3754.dat
1 7 1020 -360 -930 1 0 0 0 1 0 0 0 1 3754.dat
1 7 1140 -360 -930 1 0 0 0 1 0 0 0 1 3754.dat
1 8 1260 -288 -880 1 0 0 0 1 0 0 0 1 6055.dat
1 8 1260 -432 -880 1 0 0 0 1 0 0 0 1 6055.dat
1 7 420 -120 -870 1 0 0 0 1 0 0 0 1 3754.dat
1 7 540 -120 -870 1 0 0 0 1 0 0 0 1 3754.dat
1 7 660 -120 -870 1 0 0 0 1 0 0 0 1 3754.dat
1 7 780 -120 -870 1 0 0 0 1 0 0 0 1 3754.dat
1 7 900 -120 -870 1 0 0 0 1 0 0 0 1 3754.dat
1 7 1020 -120 -870 1 0 0 0 1 0 0 0 1 3754.dat
1 7 1140 -120 -870 1 0 0 0 1 0 0 0 1 3754.dat
1 7 420 -240 -870 1 0 0 0 1 0 0 0 1 3754.dat
1 7 540 -240 -870 1 0 0 0 1 0 0 0 1 3754.dat
1 7 660 -240 -870 1 0 0 0 1 0 0 0 1 3754.dat
1 7 780 -240 -870 1 0 0 0 1 0 0 0 1 3754.dat
1 7 900 -240 -870 1 0 0 0 1 0 0 0 1 3754.dat
1 7 1020 -240 -870 1 0 0 0 1 0 0 0 1 3754.dat
1 7 1140 -240 -870 1 0 0 0 1 0 0 0 1 3754.dat
1 7 420 -360 -870 1 0 0 0 1 0 0 0 1 3754.dat
1 7 540 -360 -870 1 0 0 0 1 0 0 0 1 3754.dat
1 7 660 -360 -870 1 0 0 0 1 0 0 0 1 3754.dat
1 7 780 -360 -870 1 0 0 0 1 0 0 0 1 3754.dat
1 7 900 -360 -870 1 0 0 0 1 0 0 0 1 3754.dat
1 7 1020 -360 -870 1 0 0 0 1 0 0 0 1 3754.dat
1 7 1140 -360 -870 1 0 0 0 1 0 0 0 1 3754.dat
1 7 420 -120 1390 1 0 0 0 1 0 0 0 1 3754.dat
1 7 540 -120 1390 1 0 0 0 1 0 0 0 1 3754.dat
1 7 660 -120 1390 1 0 0 0 1 0 0 0 1 3754.dat
1 7 780 -120 1390 1 0 0 0 1 0 0 0 1 3754.dat
1 7 900 -120 1390 1 0 0 0 1 0 0 0 1 3754.dat
1 7 1020 -120 1390 1 0 0 0 1 0 0 0 1 3754.dat
1 7 1140 -120 1390 1 0 0 0 1 0 0 0 1 3754.dat
1 7 420 -240 1390 1 0 0 0 1 0 0 0 1 3754.dat
1 7 540 -240 1390 1 0 0 0 1 0 0 0 1 3754.dat
1 7 660 -240 1390 1 0 0 0 1 0 0 0 1 3754.dat
1 7 780 -240 1390 1 0 0 0 1 0 0 0 1 3754.dat
1 7 900 -240 1390 1 0 0 0 1 0 0 0 1 3754.dat
1 7 1020 -240 1390 1 0 0 0 1 0 0 0 1 3754.dat
1 7 1140 -240 1390 1 0 0 0 1 0 0 0 1 3754.dat
1 7 420 -360 1390 1 0 0 0 1 0 0 0 1 3754.dat
1 7 540 -360 1390 1 0 0 0 1 0 0 0 1 3754.dat
1 7 660 -360 1390 1 0 0 0 1 0 0 0 1 3754.dat
1 7 780 -360 1390 1 0 0 0 1 0 0 0 1 3754.dat
1 7 900 -360 1390 1 0 0 0 1 0 0 0 1 3754.dat
1 7 1020 -360 1390 1 0 0 0 1 0 0 0 1 3754.dat
1 7 1140 -360 1390 1 0 0 0 1 0 0 0 1 3754.dat
1 7 420 -120 1450 1 0 0 0 1 0 0 0 1 3754.dat
1 7 540 -120 1450 1 0 0 0 1 0 0 0 1 3754.dat
1 7 660 -120 1450 1 0 0 0 1 0 0 0 1 3754.dat
1 7 780 -120 1450 1 0 0 0 1 0 0 0 1 3754.dat
1 7 900 -120 1450 1 0 0 0 1 0 0 0 1 3754.dat
1 7 1020 -120 1450 1 0 0 0 1 0 0 0 1 3754.dat
1 7 1140 -120 1450 1 0 0 0 1 0 0 0 1 3754.dat
1 7 420 -240 1450 1 0 0 0 1 0 0 0 1 3754.dat
1 7 540 -240 1450 1 0 0 0 1 0 0 0 1 3754.dat
1 7 660 -240 1450 1 0 0 0 1 0 0 0 1 3754.dat
1 7 780 -240 1450 1 0 0 0 1 0 0 0 1 3754.dat
1 7 900 -240 1450 1 0 0 0 1 0 0 0 1 3754.dat
1 7 1020 -240 1450 1 0 0 0 1 0 0 0 1 3754.dat
1 7 1140 -240 1450 1 0 0 0 1 0 0 0 1 3754.dat
1 7 420 -360 1450 1 0 0 0 1 0 0 0 1 3754.dat
1 7 540 -360 1450 1 0 0 0 1 0 0 0 1 3754.dat
1 7 660 -360 1450 1 0 0 0 1 0 0 0 1 3754.dat
1 7 780 -360 1450 1 0 0 0 1 0 0 0 1 3754.dat
1 7 900 -360 1450 1 0 0 0 1 0 0 0 1 3754.dat
1 7 1020 -360 1450 1 0 0 0 1 0 0 0 1 3754.dat
1 7 1140 -360 1450 1 0 0 0 1 0 0 0 1 3754.dat
1 8 1260 -144 1400 0 0 -1 0 1 0 1 0 0 6055.dat
1 8 1260 -288 1400 0 0 -1 0 1 0 1 0 0 6055.dat
1 8 1260 -432 1400 0 0 -1 0 1 0 1 0 0 6055.dat
1 7 310 -120 -720 0 0 -1 0 1 0 1 0 0 3754.dat
1 7 310 -240 -720 0 0 -1 0 1 0 1 0 0 3754.dat
1 7 310 -360 -720 0 0 -1 0 1 0 1 0 0 3754.dat
1 7 310 -120 -600 0 0 -1 0 1 0 1 0 0 3754.dat
1 7 310 -240 -600 0 0 -1 0 1 0 1 0 0 3754.dat
1 7 310 -360 -600 0 0 -1 0 1 0 1 0 0 3754.dat
1 7 310 -120 -480 0 0 -1 0 1 0 1 0 0 3754.dat
1 7 310 -240 -480 0 0 -1 0 1 0 1 0 0 3754.dat
1 7 310 -360 -480 0 0 -1 0 1 0 1 0 0 3754.dat
1 7 310 -120 1000 0 0 -1 0 1 0 1 0 0 3754.dat
1 7 310 -240 1000 0 0 -1 0 1 0 1 0 0 3754.dat
1 7 310 -360 1000 0 0 -1 0 1 0 1 0 0 3754.dat
1 7 310 -120 1120 0 0 -1 0 1 0 1 0 0 3754.dat
1 7 310 -240 1120 0 0 -1 0 1 0 1 0 0 3754.dat
1 7 310 -360 1120 0 0 -1 0 1 0 1 0 0 3754.dat
1 7 310 -120 1240 0 0 -1 0 1 0 1 0 0 3754.dat
1 7 310 -240 1240 0 0 -1 0 1 0 1 0 0 3754.dat
1 7 310 -360 1240 0 0 -1 0 1 0 1 0 0 3754.dat
1 7 1310 -120 840 0 0 -1 0 1 0 1 0 0 3754.dat
1 7 1310 -240 840 0 0 -1 0 1 0 1 0 0 3754.dat
1 7 1310 -360 840 0 0 -1 0 1 0 1 0 0 3754.dat
1 7 1310 -120 960 0 0 -1 0 1 0 1 0 0 3754.dat
1 7 1310 -240 960 0 0 -1 0 1 0 1 0 0 3754.dat
1 7 1310 -360 960 0 0 -1 0 1 0 1 0 0 3754.dat
1 7 1310 -120 1080 0 0 -1 0 1 0 1 0 0 3754.dat
1 7 1310 -240 1080 0 0 -1 0 1 0 1 0 0 3754.dat
1 7 1310 -360 1080 0 0 -1 0 1 0 1 0 0 3754.dat
1 7 1310 -120 480 0 0 -1 0 1 0 1 0 0 3754.dat
1 7 1310 -240 480 0 0 -1 0 1 0 1 0 0 3754.dat
1 7 1310 -360 480 0 0 -1 0 1 0 1 0 0 3754.dat
1 7 1310 -120 600 0 0 -1 0 1 0 1 0 0 3754.dat
1 7 1310 -240 600 0 0 -1 0 1 0 1 0 0 3754.dat
1 7 1310 -360 600 0 0 -1 0 1 0 1 0 0 3754.dat
1 7 1310 -120 720 0 0 -1 0 1 0 1 0 0 3754.dat
1 7 1310 -240 720 0 0 -1 0 1 0 1 0 0 3754.dat
1 7 1310 -360 720 0 0 -1 0 1 0 1 0 0 3754.dat
1 7 1310 -120 160 0 0 -1 0 1 0 1 0 0 3754.dat
1 7 1310 -240 160 0 0 -1 0 1 0 1 0 0 3754.dat
1 7 1310 -360 160 0 0 -1 0 1 0 1 0 0 3754.dat
1 7 1310 -120 360 0 0 -1 0 1 0 1 0 0 3754.dat
1 7 1310 -240 360 0 0 -1 0 1 0 1 0 0 3754.dat
1 7 1310 -360 360 0 0 -1 0 1 0 1 0 0 3754.dat
1 7 1310 -120 -200 0 0 -1 0 1 0 1 0 0 3754.dat
1 7 1310 -240 -200 0 0 -1 0 1 0 1 0 0 3754.dat
1 7 1310 -360 -200 0 0 -1 0 1 0 1 0 0 3754.dat
1 7 1310 -120 -80 0 0 -1 0 1 0 1 0 0 3754.dat
1 7 1310 -240 -80 0 0 -1 0 1 0 1 0 0 3754.dat
1 7 1310 -360 -80 0 0 -1 0 1 0 1 0 0 3754.dat
1 7 1310 -120 40 0 0 -1 0 1 0 1 0 0 3754.dat
1 7 1310 -240 40 0 0 -1 0 1 0 1 0 0 3754.dat
1 7 1310 -360 40 0 0 -1 0 1 0 1 0 0 3754.dat
1 7 1310 -120 -560 0 0 -1 0 1 0 1 0 0 3754.dat
1 7 1310 -240 -560 0 0 -1 0 1 0 1 0 0 3754.dat
1 7 1310 -360 -560 0 0 -1 0 1 0 1 0 0 3754.dat
1 7 1310 -120 -440 0 0 -1 0 1 0 1 0 0 3754.dat
1 7 1310 -240 -440 0 0 -1 0 1 0 1 0 0 3754.dat
1 7 1310 -360 -440 0 0 -1 0 1 0 1 0 0 3754.dat
1 7 1310 -120 -320 0 0 -1 0 1 0 1 0 0 3754.dat
1 7 1310 -240 -320 0 0 -1 0 1 0 1 0 0 3754.dat
1 7 1310 -360 -320 0 0 -1 0 1 0 1 0 0 3754.dat
1 7 1310 -120 1200 0 0 -1 0 1 0 1 0 0 3754.dat
1 7 1310 -240 1200 0 0 -1 0 1 0 1 0 0 3754.dat
1 7 1310 -360 1200 0 0 -1 0 1 0 1 0 0 3754.dat
1 7 1310 -120 -680 0 0 -1 0 1 0 1 0 0 3754.dat
1 7 1310 -240 -680 0 0 -1 0 1 0 1 0 0 3754.dat
1 7 1310 -360 -680 0 0 -1 0 1 0 1 0 0 3754.dat
1 7 1310 -72 260 0 0 -1 0 1 0 1 0 0 49311.dat
1 7 1310 -144 260 0 0 -1 0 1 0 1 0 0 49311.dat
1 7 1310 -216 260 0 0 -1 0 1 0 1 0 0 49311.dat
1 7 1310 -288 260 0 0 -1 0 1 0 1 0 0 49311.dat
1 7 1310 -360 260 0 0 -1 0 1 0 1 0 0 49311.dat
1 7 1310 -360 1300 0 0 -1 0 1 0 1 0 0 49311.dat
1 7 1310 -288 1300 0 0 -1 0 1 0 1 0 0 49311.dat
1 7 1310 -216 1300 0 0 -1 0 1 0 1 0 0 49311.dat
1 7 1310 -144 1300 0 0 -1 0 1 0 1 0 0 49311.dat
1 7 1310 -72 1300 0 0 -1 0 1 0 1 0 0 49311.dat
1 7 1310 -360 -780 0 0 -1 0 1 0 1 0 0 49311.dat
1 7 1310 -288 -780 0 0 -1 0 1 0 1 0 0 49311.dat
1 7 1310 -216 -780 0 0 -1 0 1 0 1 0 0 49311.dat
1 7 1310 -144 -780 0 0 -1 0 1 0 1 0 0 49311.dat
1 7 1310 -72 -780 0 0 -1 0 1 0 1 0 0 49311.dat
1 7 1250 -120 840 0 0 -1 0 1 0 1 0 0 3754.dat
1 7 1250 -240 840 0 0 -1 0 1 0 1 0 0 3754.dat
1 7 1250 -360 840 0 0 -1 0 1 0 1 0 0 3754.dat
1 7 1250 -120 960 0 0 -1 0 1 0 1 0 0 3754.dat
1 7 1250 -240 960 0 0 -1 0 1 0 1 0 0 3754.dat
1 7 1250 -360 960 0 0 -1 0 1 0 1 0 0 3754.dat
1 7 1250 -120 1080 0 0 -1 0 1 0 1 0 0 3754.dat
1 7 1250 -240 1080 0 0 -1 0 1 0 1 0 0 3754.dat
1 7 1250 -360 1080 0 0 -1 0 1 0 1 0 0 3754.dat
1 7 1250 -120 480 0 0 -1 0 1 0 1 0 0 3754.dat
1 7 1250 -240 480 0 0 -1 0 1 0 1 0 0 3754.dat
1 7 1250 -360 480 0 0 -1 0 1 0 1 0 0 3754.dat
1 7 1250 -120 600 0 0 -1 0 1 0 1 0 0 3754.dat
1 7 1250 -240 600 0 0 -1 0 1 0 1 0 0 3754.dat
1 7 1250 -360 600 0 0 -1 0 1 0 1 0 0 3754.dat
1 7 1250 -120 720 0 0 -1 0 1 0 1 0 0 3754.dat
1 7 1250 -240 720 0 0 -1 0 1 0 1 0 0 3754.dat
1 7 1250 -360 720 0 0 -1 0 1 0 1 0 0 3754.dat
1 7 1250 -120 160 0 0 -1 0 1 0 1 0 0 3754.dat
1 7 1250 -240 160 0 0 -1 0 1 0 1 0 0 3754.dat
1 7 1250 -360 160 0 0 -1 0 1 0 1 0 0 3754.dat
1 7 1250 -120 360 0 0 -1 0 1 0 1 0 0 3754.dat
1 7 1250 -240 360 0 0 -1 0 1 0 1 0 0 3754.dat
1 7 1250 -360 360 0 0 -1 0 1 0 1 0 0 3754.dat
1 7 1250 -120 -200 0 0 -1 0 1 0 1 0 0 3754.dat
1 7 1250 -240 -200 0 0 -1 0 1 0 1 0 0 3754.dat
1 7 1250 -360 -200 0 0 -1 0 1 0 1 0 0 3754.dat
1 7 1250 -120 -80 0 0 -1 0 1 0 1 0 0 3754.dat
1 7 1250 -240 -80 0 0 -1 0 1 0 1 0 0 3754.dat
1 7 1250 -360 -80 0 0 -1 0 1 0 1 0 0 3754.dat
1 7 1250 -120 40 0 0 -1 0 1 0 1 0 0 3754.dat
1 7 1250 -240 40 0 0 -1 0 1 0 1 0 0 3754.dat
1 7 1250 -360 40 0 0 -1 0 1 0 1 0 0 3754.dat
1 7 1250 -120 -560 0 0 -1 0 1 0 1 0 0 3754.dat
1 7 1250 -240 -560 0 0 -1 0 1 0 1 0 0 3754.dat
1 7 1250 -360 -560 0 0 -1 0 1 0 1 0 0 3754.dat
1 7 1250 -120 -440 0 0 -1 0 1 0 1 0 0 3754.dat
1 7 1250 -240 -440 0 0 -1 0 1 0 1 0 0 3754.dat
1 7 1250 -360 -440 0 0 -1 0 1 0 1 0 0 3754.dat
1 7 1250 -120 -320 0 0 -1 0 1 0 1 0 0 3754.dat
1 7 1250 -240 -320 0 0 -1 0 1 0 1 0 0 3754.dat
1 7 1250 -360 -320 0 0 -1 0 1 0 1 0 0 3754.dat
1 7 1250 -120 1200 0 0 -1 0 1 0 1 0 0 3754.dat
1 7 1250 -240 1200 0 0 -1 0 1 0 1 0 0 3754.dat
1 7 1250 -360 1200 0 0 -1 0 1 0 1 0 0 3754.dat
1 7 1250 -120 -680 0 0 -1 0 1 0 1 0 0 3754.dat
1 7 1250 -240 -680 0 0 -1 0 1 0 1 0 0 3754.dat
1 7 1250 -360 -680 0 0 -1 0 1 0 1 0 0 3754.dat
1 7 1250 -72 260 0 0 -1 0 1 0 1 0 0 49311.dat
1 7 1250 -144 260 0 0 -1 0 1 0 1 0 0 49311.dat
1 7 1250 -216 260 0 0 -1 0 1 0 1 0 0 49311.dat
1 7 1250 -288 260 0 0 -1 0 1 0 1 0 0 49311.dat
1 7 1250 -360 260 0 0 -1 0 1 0 1 0 0 49311.dat
1 7 1250 -360 1300 0 0 -1 0 1 0 1 0 0 49311.dat
1 7 1250 -288 1300 0 0 -1 0 1 0 1 0 0 49311.dat
1 7 1250 -216 1300 0 0 -1 0 1 0 1 0 0 49311.dat
1 7 1250 -144 1300 0 0 -1 0 1 0 1 0 0 49311.dat
1 7 1250 -72 1300 0 0 -1 0 1 0 1 0 0 49311.dat
1 7 1250 -360 -780 0 0 -1 0 1 0 1 0 0 49311.dat
1 7 1250 -288 -780 0 0 -1 0 1 0 1 0 0 49311.dat
1 7 1250 -216 -780 0 0 -1 0 1 0 1 0 0 49311.dat
1 7 1250 -144 -780 0 0 -1 0 1 0 1 0 0 49311.dat
1 7 1250 -72 -780 0 0 -1 0 1 0 1 0 0 49311.dat
1 8 1220 -120 -840 -1 0 0 0 1 0 0 0 -1 78594.dat
1 8 1220 -240 -840 -1 0 0 0 1 0 0 0 -1 78594.dat
1 8 1220 -360 -840 -1 0 0 0 1 0 0 0 -1 78594.dat
1 8 1220 -120 1360 0 0 1 0 1 0 -1 0 0 78594.dat
1 8 1220 -240 1360 0 0 1 0 1 0 -1 0 0 78594.dat
1 8 1220 -360 1360 0 0 1 0 1 0 -1 0 0 78594.dat
1 8 340 -120 1360 1 0 0 0 1 0 0 0 1 78594.dat
1 8 340 -240 1360 1 0 0 0 1 0 0 0 1 78594.dat
1 8 340 -360 1360 1 0 0 0 1 0 0 0 1 78594.dat
1 8 340 -120 -840 0 0 -1 0 1 0 1 0 0 78594.dat
1 8 340 -240 -840 0 0 -1 0 1 0 1 0 0 78594.dat
1 8 340 -360 -840 0 0 -1 0 1 0 1 0 0 78594.dat
1 7 170 -408 -160 0 0 1 0 1 0 -1 0 0 3009.dat
1 7 190 -384 -160 0 0 1 0 1 0 -1 0 0 3009.dat
1 7 210 -360 -160 0 0 1 0 1 0 -1 0 0 3009.dat
1 7 230 -336 -160 0 0 1 0 1 0 -1 0 0 3009.dat
1 7 260 -312 -160 0 0 1 0 1 0 -1 0 0 2456.dat
1 7 300 -312 -160 0 0 1 0 1 0 -1 0 0 2456.dat
1 7 340 -312 -160 0 0 1 0 1 0 -1 0 0 2456.dat
1 7 380 -312 -160 0 0 1 0 1 0 -1 0 0 2456.dat
1 7 420 -312 -160 0 0 1 0 1 0 -1 0 0 2456.dat
1 7 380 -288 -230 1 0 0 0 1 0 0 0 1 3009.dat
1 7 380 -264 -250 1 0 0 0 1 0 0 0 1 3009.dat
1 7 380 -240 -270 1 0 0 0 1 0 0 0 1 3009.dat
1 7 380 -216 -290 1 0 0 0 1 0 0 0 1 3009.dat
1 7 380 -192 -310 1 0 0 0 1 0 0 0 1 3009.dat
1 7 380 -168 -330 1 0 0 0 1 0 0 0 1 3009.dat
1 7 380 -144 -350 1 0 0 0 1 0 0 0 1 3009.dat
1 7 380 -120 -370 1 0 0 0 1 0 0 0 1 3009.dat
1 7 380 -96 -390 1 0 0 0 1 0 0 0 1 3009.dat
1 7 380 -72 -410 1 0 0 0 1 0 0 0 1 3009.dat
1 7 380 -48 -430 1 0 0 0 1 0 0 0 1 3009.dat
1 7 380 -24 -450 1 0 0 0 1 0 0 0 1 3009.dat
1 7 -200 -440 -100 1 0 0 0 1 0 0 0 1 4282.dat
1 7 -120 -440 700 1 0 0 0 1 0 0 0 1 3026.dat
1 7 -120 -440 -180 1 0 0 0 1 0 0 0 1 3026.dat
1 7 40 -440 -100 1 0 0 0 1 0 0 0 1 3034.dat
1 7 -200 -440 620 1 0 0 0 1 0 0 0 1 4282.dat
1 7 40 -440 620 1 0 0 0 1 0 0 0 1 3034.dat
1 7 -480 -440 260 0 0 -1 0 1 0 1 0 0 3026.dat
1 7 40 -448 739.9999 -1 0 0 0 1 0 0 0 -1 2527.dat
1 7 -120 -448 739.9999 -1 0 0 0 1 0 0 0 -1 2527.dat
1 7 -280 -448 739.9999 -1 0 0 0 1 0 0 0 -1 2527.dat
1 7 -520 -448 260 0 0 1 0 1 0 -1 0 0 2527.dat
1 7 -520 -448 420 0 0 1 0 1 0 -1 0 0 2527.dat
1 7 -520 -448 100 0 0 1 0 1 0 -1 0 0 2527.dat
1 7 -120 -448 -220 1 0 0 0 1 0 0 0 1 2527.dat
1 7 40 -448 -220 1 0 0 0 1 0 0 0 1 2527.dat
1 7 -280 -448 -220 1 0 0 0 1 0 0 0 1 2527.dat
1 8 290 -456 -890 0 0 1 0 1 0 -1 0 0 6107.dat
1 8 250 -432 -840 0 0 1 0 1 0 -1 0 0 3004.dat
1 8 340 -432 -930 1 0 0 0 1 0 0 0 1 3004.dat
1 8 210 -456 -290 0 0 1 0 1 0 -1 0 0 6107.dat
1 8 210 -456 810 -1 0 0 0 1 0 0 0 -1 6107.dat
1 8 290 -456 1410 -1 0 0 0 1 0 0 0 -1 6107.dat
1 8 1270 -456 1410 0 0 -1 0 1 0 1 0 0 6107.dat
1 8 1270 -456 -890 1 0 0 0 1 0 0 0 1 6107.dat
1 7 170 -408 680 0 0 1 0 1 0 -1 0 0 3009.dat
1 7 190 -384 680 0 0 1 0 1 0 -1 0 0 3009.dat
1 7 210 -360 680 0 0 1 0 1 0 -1 0 0 3009.dat
1 7 230 -336 680 0 0 1 0 1 0 -1 0 0 3009.dat
1 7 310 -72 -380 0 0 -1 0 1 0 1 0 0 49311.dat
1 7 310 -144 -380 0 0 -1 0 1 0 1 0 0 49311.dat
1 7 310 -216 -380 0 0 -1 0 1 0 1 0 0 49311.dat
1 7 310 -288 -380 0 0 -1 0 1 0 1 0 0 49311.dat
1 7 310 -360 -380 0 0 -1 0 1 0 1 0 0 49311.dat
1 8 310 -432 -380 0 0 -1 0 1 0 1 0 0 49311.dat
1 7 310 -120 -280 0 0 -1 0 1 0 1 0 0 3754.dat
1 7 310 -240 -280 0 0 -1 0 1 0 1 0 0 3754.dat
1 7 310 -360 -280 0 0 -1 0 1 0 1 0 0 3754.dat
1 7 310 -120 -160 0 0 -1 0 1 0 1 0 0 3754.dat
1 7 310 -240 -160 0 0 -1 0 1 0 1 0 0 3754.dat
1 7 220 -120 -110 -1 0 0 0 1 0 0 0 -1 3754.dat
1 7 220 -240 -110 -1 0 0 0 1 0 0 0 -1 3754.dat
1 7 240 -120 -230 -1 0 0 0 1 0 0 0 -1 3754.dat
1 7 240 -240 -230 -1 0 0 0 1 0 0 0 -1 3754.dat
1 7 240 -360 -230 -1 0 0 0 1 0 0 0 -1 3754.dat
1 8 310 -432 -300 0 0 -1 0 1 0 1 0 0 49311.dat
1 8 220 -432 -230 -1 0 0 0 1 0 0 0 -1 49311.dat
1 7 310 -288 -170 0 0 -1 0 1 0 1 0 0 39266.dat
1 7 210 -288 -110 -1 0 0 0 1 0 0 0 -1 39266.dat
1 7 290 -120 -110 1 0 0 0 1 0 0 0 1 2453a.dat
1 7 290 -240 -110 1 0 0 0 1 0 0 0 1 2453a.dat
1 7 290 -264 -110 -1 0 0 0 1 0 0 0 -1 3622.dat
1 7 290 -288 -110 -1 0 0 0 1 0 0 0 -1 3622.dat
1 7 200 -312 -110 -1 0 0 0 1 0 0 0 -1 3010.dat
1 7 190 -336 -110 -1 0 0 0 1 0 0 0 -1 3622.dat
1 7 180 -360 -110 -1 0 0 0 1 0 0 0 -1 3004.dat
1 7 170 -384 -110 -1 0 0 0 1 0 0 0 -1 3005.dat
1 8 280 -432 -230 -1 0 0 0 1 0 0 0 -1 22886.dat
1 8 310 -432 -240 0 0 1 0 1 0 -1 0 0 22886.dat
1 8 230 -432 -270 -1 0 0 0 1 0 0 0 -1 2420.dat
1 8 280 -432 -400 0 0 1 0 1 0 -1 0 0 4282.dat
1 8 280 -432 -700 0 0 1 0 1 0 -1 0 0 91988.dat
1 8 250 -432 -280 0 0 1 0 1 0 -1 0 0 3710.dat
1 8 210 -432 -250 -1 0 0 0 1 0 0 0 -1 3623.dat
1 8 210 -432 770 -1 0 0 0 1 0 0 0 -1 3623.dat
1 8 250 -432 800 0 0 1 0 1 0 -1 0 0 3710.dat
1 8 280 -432 920 0 0 1 0 1 0 -1 0 0 4282.dat
1 8 280 -432 1220 0 0 1 0 1 0 -1 0 0 91988.dat
1 8 230 -432 790 0 0 -1 0 1 0 1 0 0 2420.dat
1 8 220 -432 750 -1 0 0 0 1 0 0 0 -1 49311.dat
1 8 280 -432 750 -1 0 0 0 1 0 0 0 -1 22886.dat
1 8 310 -432 760 0 0 1 0 1 0 -1 0 0 22886.dat
1 8 310 -432 820 0 0 -1 0 1 0 1 0 0 49311.dat
1 8 310 -432 900 0 0 -1 0 1 0 1 0 0 49311.dat
1 7 170 -384 630 -1 0 0 0 1 0 0 0 -1 3005.dat
1 7 180 -360 630 -1 0 0 0 1 0 0 0 -1 3004.dat
1 7 190 -336 630 -1 0 0 0 1 0 0 0 -1 3622.dat
1 7 200 -312 630 -1 0 0 0 1 0 0 0 -1 3010.dat
1 7 210 -288 630 -1 0 0 0 1 0 0 0 -1 39266.dat
1 7 260 -312 680 0 0 1 0 1 0 -1 0 0 2456.dat
1 7 240 -360 750 -1 0 0 0 1 0 0 0 -1 3754.dat
1 7 310 -360 800 0 0 -1 0 1 0 1 0 0 3754.dat
1 7 310 -360 900 0 0 -1 0 1 0 1 0 0 49311.dat
1 7 310 -288 900 0 0 -1 0 1 0 1 0 0 49311.dat
1 7 310 -216 900 0 0 -1 0 1 0 1 0 0 49311.dat
1 7 310 -144 900 0 0 -1 0 1 0 1 0 0 49311.dat
1 7 310 -72 900 0 0 -1 0 1 0 1 0 0 49311.dat
1 7 220 -240 630 -1 0 0 0 1 0 0 0 -1 3754.dat
1 7 220 -120 630 -1 0 0 0 1 0 0 0 -1 3754.dat
1 7 290 -120 630 1 0 0 0 1 0 0 0 1 2453a.dat
1 7 290 -240 630 1 0 0 0 1 0 0 0 1 2453a.dat
1 7 310 -240 680 0 0 -1 0 1 0 1 0 0 3754.dat
1 7 310 -120 680 0 0 -1 0 1 0 1 0 0 3754.dat
1 7 310 -120 800 0 0 -1 0 1 0 1 0 0 3754.dat
1 7 310 -240 800 0 0 -1 0 1 0 1 0 0 3754.dat
1 7 290 -264 630 -1 0 0 0 1 0 0 0 -1 3622.dat
1 7 290 -288 630 -1 0 0 0 1 0 0 0 -1 3622.dat
1 7 310 -288 690 0 0 -1 0 1 0 1 0 0 39266.dat
1 7 300 -312 680 0 0 1 0 1 0 -1 0 0 2456.dat
1 7 340 -312 680 0 0 1 0 1 0 -1 0 0 2456.dat
1 7 380 -312 680 0 0 1 0 1 0 -1 0 0 2456.dat
1 7 420 -312 680 0 0 1 0 1 0 -1 0 0 2456.dat
1 7 380 -288 750 1 0 0 0 1 0 0 0 1 3009.dat
1 7 380 -264 770 1 0 0 0 1 0 0 0 1 3009.dat
1 7 380 -240 790 1 0 0 0 1 0 0 0 1 3009.dat
1 7 380 -216 810 1 0 0 0 1 0 0 0 1 3009.dat
1 7 380 -192 830 1 0 0 0 1 0 0 0 1 3009.dat
1 7 380 -168 850 1 0 0 0 1 0 0 0 1 3009.dat
1 7 380 -144 870 1 0 0 0 1 0 0 0 1 3009.dat
1 7 380 -120 890 1 0 0 0 1 0 0 0 1 3009.dat
1 7 380 -96 910 1 0 0 0 1 0 0 0 1 3009.dat
1 7 380 -72 930 1 0 0 0 1 0 0 0 1 3009.dat
1 7 380 -48 950 1 0 0 0 1 0 0 0 1 3009.dat
1 7 380 -24 970 1 0 0 0 1 0 0 0 1 3009.dat
1 8 250 -432 980 0 0 -1 0 1 0 1 0 0 49311.dat
1 8 250 -432 1060 0 0 -1 0 1 0 1 0 0 49311.dat
1 8 250 -432 1140 0 0 -1 0 1 0 1 0 0 49311.dat
1 8 250 -432 1220 0 0 -1 0 1 0 1 0 0 49311.dat
1 8 250 -432 1300 0 0 -1 0 1 0 1 0 0 49311.dat
1 8 250 -432 -460 0 0 -1 0 1 0 1 0 0 49311.dat
1 8 250 -432 -540 0 0 -1 0 1 0 1 0 0 49311.dat
1 8 250 -432 -620 0 0 -1 0 1 0 1 0 0 49311.dat
1 8 250 -432 -700 0 0 -1 0 1 0 1 0 0 49311.dat
1 8 250 -432 -780 0 0 -1 0 1 0 1 0 0 49311.dat
1 8 310 -432 -460 0 0 -1 0 1 0 1 0 0 49311.dat
1 8 310 -432 -540 0 0 -1 0 1 0 1 0 0 49311.dat
1 8 310 -432 -620 0 0 -1 0 1 0 1 0 0 49311.dat
1 8 310 -432 -700 0 0 -1 0 1 0 1 0 0 49311.dat
1 8 310 -432 -780 0 0 -1 0 1 0 1 0 0 49311.dat
1 8 310 -432 980 0 0 -1 0 1 0 1 0 0 49311.dat
1 8 310 -432 1060 0 0 -1 0 1 0 1 0 0 49311.dat
1 8 310 -432 1140 0 0 -1 0 1 0 1 0 0 49311.dat
1 8 310 -432 1220 0 0 -1 0 1 0 1 0 0 49311.dat
1 8 310 -432 1300 0 0 -1 0 1 0 1 0 0 49311.dat
1 8 -120 -248 700 -1 0 0 0 1 0 0 0 -1 3027.dat
1 72 100 -384 630 1 0 0 0 1 0 0 0 1 3747a.dat
1 72 60 -384 630 1 0 0 0 1 0 0 0 1 3747a.dat
1 7 -270 -272 650 1 0 0 0 1 0 0 0 1 3665b.dat
1 7 -250 -272 650 1 0 0 0 1 0 0 0 1 3665b.dat
1 7 -230 -272 650 1 0 0 0 1 0 0 0 1 3665b.dat
1 7 -210 -272 650 1 0 0 0 1 0 0 0 1 3665b.dat
1 7 -190 -272 650 1 0 0 0 1 0 0 0 1 3665b.dat
1 7 -170 -272 650 1 0 0 0 1 0 0 0 1 3665b.dat
1 7 -150 -272 650 1 0 0 0 1 0 0 0 1 3665b.dat
1 7 -130 -272 650 1 0 0 0 1 0 0 0 1 3665b.dat
1 7 -110 -272 650 1 0 0 0 1 0 0 0 1 3665b.dat
1 7 -90 -272 650 1 0 0 0 1 0 0 0 1 3665b.dat
1 7 -70 -272 650 1 0 0 0 1 0 0 0 1 3665b.dat
1 7 -50 -272 650 1 0 0 0 1 0 0 0 1 3665b.dat
1 7 -30 -272 650 1 0 0 0 1 0 0 0 1 3665b.dat
1 7 -10 -272 650 1 0 0 0 1 0 0 0 1 3665b.dat
1 7 10 -272 650 1 0 0 0 1 0 0 0 1 3665b.dat
1 7 30 -272 650 1 0 0 0 1 0 0 0 1 3665b.dat
1 7 -240 -344 630 -1 0 0 0 1 0 0 0 -1 49311.dat
1 7 -160 -344 630 -1 0 0 0 1 0 0 0 -1 49311.dat
1 7 -80 -344 630 -1 0 0 0 1 0 0 0 -1 49311.dat
1 7 0 -344 630 -1 0 0 0 1 0 0 0 -1 49311.dat
1 7 -200 -352 630 -1 0 0 0 1 0 0 0 -1 3460.dat
1 7 -40 -352 630 -1 0 0 0 1 0 0 0 -1 3460.dat
1 7 -40 -360 630 -1 0 0 0 1 0 0 0 -1 3460.dat
1 7 -200 -360 630 -1 0 0 0 1 0 0 0 -1 3460.dat
1 72 20 -384 630 1 0 0 0 1 0 0 0 1 3747a.dat
1 72 -20 -384 630 1 0 0 0 1 0 0 0 1 3747a.dat
1 72 -60 -384 630 1 0 0 0 1 0 0 0 1 3747a.dat
1 72 -100 -384 630 1 0 0 0 1 0 0 0 1 3747a.dat
1 72 -140 -384 630 1 0 0 0 1 0 0 0 1 3747a.dat
1 72 -180 -384 630 1 0 0 0 1 0 0 0 1 3747a.dat
1 72 -220 -384 630 1 0 0 0 1 0 0 0 1 3747a.dat
1 72 -260 -384 630 1 0 0 0 1 0 0 0 1 3747a.dat
1 8 0 -456 590 -1 0 0 0 1 0 0 0 -1 49311.dat
1 8 80 -456 590 -1 0 0 0 1 0 0 0 -1 49311.dat
1 8 -80 -456 590 -1 0 0 0 1 0 0 0 -1 49311.dat
1 8 -160 -456 590 -1 0 0 0 1 0 0 0 -1 49311.dat
1 8 -240 -456 590 -1 0 0 0 1 0 0 0 -1 49311.dat
1 8 -120 -248 -180 -1 0 0 0 1 0 0 0 -1 3027.dat
1 7 -240 -344 -110 -1 0 0 0 1 0 0 0 -1 49311.dat
1 7 -160 -344 -110 -1 0 0 0 1 0 0 0 -1 49311.dat
1 7 -80 -344 -110 -1 0 0 0 1 0 0 0 -1 49311.dat
1 7 0 -344 -110 -1 0 0 0 1 0 0 0 -1 49311.dat
1 7 -40 -352 -110 -1 0 0 0 1 0 0 0 -1 3460.dat
1 7 -200 -352 -110 -1 0 0 0 1 0 0 0 -1 3460.dat
1 7 -200 -360 -110 -1 0 0 0 1 0 0 0 -1 3460.dat
1 7 -40 -360 -110 -1 0 0 0 1 0 0 0 -1 3460.dat
1 7 -10 -272 -130 -1 0 0 0 1 0 0 0 -1 3665b.dat
1 7 10 -272 -130 -1 0 0 0 1 0 0 0 -1 3665b.dat
1 7 30 -272 -130 -1 0 0 0 1 0 0 0 -1 3665b.dat
1 7 -30 -272 -130 -1 0 0 0 1 0 0 0 -1 3665b.dat
1 7 -50 -272 -130 -1 0 0 0 1 0 0 0 -1 3665b.dat
1 7 -70 -272 -130 -1 0 0 0 1 0 0 0 -1 3665b.dat
1 7 -90 -272 -130 -1 0 0 0 1 0 0 0 -1 3665b.dat
1 7 -110 -272 -130 -1 0 0 0 1 0 0 0 -1 3665b.dat
1 7 -130 -272 -130 -1 0 0 0 1 0 0 0 -1 3665b.dat
1 7 -150 -272 -130 -1 0 0 0 1 0 0 0 -1 3665b.dat
1 7 -170 -272 -130 -1 0 0 0 1 0 0 0 -1 3665b.dat
1 7 -190 -272 -130 -1 0 0 0 1 0 0 0 -1 3665b.dat
1 7 -210 -272 -130 -1 0 0 0 1 0 0 0 -1 3665b.dat
1 7 -230 -272 -130 -1 0 0 0 1 0 0 0 -1 3665b.dat
1 7 -250 -272 -130 -1 0 0 0 1 0 0 0 -1 3665b.dat
1 7 -270 -272 -130 -1 0 0 0 1 0 0 0 -1 3665b.dat
1 72 100 -384 -110 -1 0 0 0 1 0 0 0 -1 3747a.dat
1 72 60 -384 -110 -1 0 0 0 1 0 0 0 -1 3747a.dat
1 72 20 -384 -110 -1 0 0 0 1 0 0 0 -1 3747a.dat
1 72 -20 -384 -110 -1 0 0 0 1 0 0 0 -1 3747a.dat
1 72 -60 -384 -110 -1 0 0 0 1 0 0 0 -1 3747a.dat
1 72 -100 -384 -110 -1 0 0 0 1 0 0 0 -1 3747a.dat
1 72 -140 -384 -110 -1 0 0 0 1 0 0 0 -1 3747a.dat
1 72 -180 -384 -110 -1 0 0 0 1 0 0 0 -1 3747a.dat
1 72 -220 -384 -110 -1 0 0 0 1 0 0 0 -1 3747a.dat
1 72 -260 -384 -110 -1 0 0 0 1 0 0 0 -1 3747a.dat
1 8 -240 -456 -70 -1 0 0 0 1 0 0 0 -1 49311.dat
1 8 -160 -456 -70 -1 0 0 0 1 0 0 0 -1 49311.dat
1 8 -80 -456 -70 -1 0 0 0 1 0 0 0 -1 49311.dat
1 8 80 -456 -70 -1 0 0 0 1 0 0 0 -1 49311.dat
1 8 0 -456 -70 -1 0 0 0 1 0 0 0 -1 49311.dat
1 72 130 -384 -110 -1 0 0 0 1 0 0 0 -1 3665b.dat
1 72 150 -384 -110 -1 0 0 0 1 0 0 0 -1 3665b.dat
1 72 150 -384 630 1 0 0 0 1 0 0 0 1 3665b.dat
1 72 130 -384 630 1 0 0 0 1 0 0 0 1 3665b.dat
1 8 140 -456 -90 -1 0 0 0 1 0 0 0 -1 22886.dat
1 8 140 -456 610 -1 0 0 0 1 0 0 0 -1 22886.dat
1 8 520 -432 -900 1 0 0 0 1 0 0 0 1 4282.dat
1 8 840 -432 -900 1 0 0 0 1 0 0 0 1 4282.dat
1 8 520 -432 1420 1 0 0 0 1 0 0 0 1 4282.dat
1 8 840 -432 1420 1 0 0 0 1 0 0 0 1 4282.dat
1 8 -510 -456 -210 0 0 1 0 1 0 -1 0 0 6107.dat
1 8 -510 -456 730 -1 0 0 0 1 0 0 0 -1 6107.dat
1 8 -480 -248 260 0 0 1 0 1 0 -1 0 0 3027.dat
1 7 -430 -272 110 0 0 -1 0 1 0 1 0 0 3665b.dat
1 7 -430 -272 130 0 0 -1 0 1 0 1 0 0 3665b.dat
1 7 -430 -272 150 0 0 -1 0 1 0 1 0 0 3665b.dat
1 7 -430 -272 170 0 0 -1 0 1 0 1 0 0 3665b.dat
1 7 -430 -272 190 0 0 -1 0 1 0 1 0 0 3665b.dat
1 7 -430 -272 210 0 0 -1 0 1 0 1 0 0 3665b.dat
1 7 -430 -272 230 0 0 -1 0 1 0 1 0 0 3665b.dat
1 7 -430 -272 250 0 0 -1 0 1 0 1 0 0 3665b.dat
1 7 -430 -272 270 0 0 -1 0 1 0 1 0 0 3665b.dat
1 7 -430 -272 290 0 0 -1 0 1 0 1 0 0 3665b.dat
1 7 -430 -272 310 0 0 -1 0 1 0 1 0 0 3665b.dat
1 7 -430 -272 330 0 0 -1 0 1 0 1 0 0 3665b.dat
1 7 -430 -272 350 0 0 -1 0 1 0 1 0 0 3665b.dat
1 7 -430 -272 370 0 0 -1 0 1 0 1 0 0 3665b.dat
1 7 -430 -272 390 0 0 -1 0 1 0 1 0 0 3665b.dat
1 7 -430 -272 410 0 0 -1 0 1 0 1 0 0 3665b.dat
1 7 -410 -344 140 0 0 1 0 1 0 -1 0 0 49311.dat
1 7 -410 -344 220 0 0 1 0 1 0 -1 0 0 49311.dat
1 7 -410 -344 300 0 0 1 0 1 0 -1 0 0 49311.dat
1 7 -410 -344 380 0 0 1 0 1 0 -1 0 0 49311.dat
1 7 -410 -352 180 0 0 1 0 1 0 -1 0 0 3460.dat
1 7 -410 -352 340 0 0 1 0 1 0 -1 0 0 3460.dat
1 7 -410 -360 340 0 0 1 0 1 0 -1 0 0 3460.dat
1 7 -410 -360 180 0 0 1 0 1 0 -1 0 0 3460.dat
1 72 -410 -384 400 0 0 -1 0 1 0 1 0 0 3747a.dat
1 72 -410 -384 360 0 0 -1 0 1 0 1 0 0 3747a.dat
1 72 -410 -384 320 0 0 -1 0 1 0 1 0 0 3747a.dat
1 72 -410 -384 280 0 0 -1 0 1 0 1 0 0 3747a.dat
1 72 -410 -384 240 0 0 -1 0 1 0 1 0 0 3747a.dat
1 72 -410 -384 200 0 0 -1 0 1 0 1 0 0 3747a.dat
1 72 -410 -384 160 0 0 -1 0 1 0 1 0 0 3747a.dat
1 72 -410 -384 120 0 0 -1 0 1 0 1 0 0 3747a.dat
1 72 -410 -384 80 0 0 -1 0 1 0 1 0 0 3747a.dat
1 72 -410 -384 40 0 0 -1 0 1 0 1 0 0 3747a.dat
1 72 -410 -384 440 0 0 -1 0 1 0 1 0 0 3747a.dat
1 72 -410 -384 480 0 0 -1 0 1 0 1 0 0 3747a.dat
1 8 -370 -456 460 0 0 1 0 1 0 -1 0 0 49311.dat
1 8 -370 -456 380 0 0 1 0 1 0 -1 0 0 49311.dat
1 8 -370 -456 300 0 0 1 0 1 0 -1 0 0 49311.dat
1 8 -370 -456 220 0 0 1 0 1 0 -1 0 0 49311.dat
1 8 -370 -456 140 0 0 1 0 1 0 -1 0 0 49311.dat
1 8 -370 -456 60 0 0 1 0 1 0 -1 0 0 49311.dat
1 7 -400 -440 140 0 0 -1 0 1 0 1 0 0 2445.dat
1 7 -400 -440 380 0 0 -1 0 1 0 1 0 0 2445.dat
1 8 -380 -120 -80 0 0 -1 0 1 0 1 0 0 78594.dat
1 8 -380 -240 -80 0 0 -1 0 1 0 1 0 0 78594.dat
1 8 -380 -360 -80 0 0 -1 0 1 0 1 0 0 78594.dat
1 8 -380 -360 600 1 0 0 0 1 0 0 0 1 78594.dat
1 8 -380 -240 600 1 0 0 0 1 0 0 0 1 78594.dat
1 8 -380 -120 600 1 0 0 0 1 0 0 0 1 78594.dat
1 72 -410 -384 0 0 0 -1 0 1 0 1 0 0 3747a.dat
1 72 -410 -384 -40 0 0 -1 0 1 0 1 0 0 3747a.dat
1 8 -370 -456 -20 0 0 1 0 1 0 -1 0 0 49311.dat
1 72 -410 -384 520 0 0 -1 0 1 0 1 0 0 3747a.dat
1 72 -410 -384 560 0 0 -1 0 1 0 1 0 0 3747a.dat
1 8 -370 -456 540 0 0 1 0 1 0 -1 0 0 49311.dat
1 8 -380 -432 -80 -1 0 0 0 1 0 0 0 -1 30145.dat
1 8 -380 -432 600 -1 0 0 0 1 0 0 0 -1 30145.dat
1 72 -300 -384 -110 -1 0 0 0 1 0 0 0 -1 3747a.dat
1 72 -340 -384 -110 -1 0 0 0 1 0 0 0 -1 3747a.dat
1 8 -320 -456 -70 -1 0 0 0 1 0 0 0 -1 49311.dat
1 72 -300 -384 630 1 0 0 0 1 0 0 0 1 3747a.dat
1 72 -340 -384 630 1 0 0 0 1 0 0 0 1 3747a.dat
1 8 -320 -456 590 -1 0 0 0 1 0 0 0 -1 49311.dat
1 7 -400 -440 540 0 0 -1 0 1 0 1 0 0 3020.dat
1 7 -400 -440 -20 0 0 -1 0 1 0 1 0 0 3020.dat
1 7 -390 -440 600 -1 0 0 0 1 0 0 0 -1 3021.dat
1 7 -390 -440 -80 -1 0 0 0 1 0 0 0 -1 3021.dat
1 8 340 -384 -840 0 0 -1 0 1 0 1 0 0 87620.dat
1 8 340 -408 -840 0 0 -1 0 1 0 1 0 0 87620.dat
1 8 340 -432 -840 0 0 -1 0 1 0 1 0 0 87620.dat
1 8 1220 -384 -840 -1 0 0 0 1 0 0 0 -1 87620.dat
1 8 1220 -408 -840 -1 0 0 0 1 0 0 0 -1 87620.dat
1 8 1220 -432 -840 -1 0 0 0 1 0 0 0 -1 87620.dat
1 8 340 -384 1360 1 0 0 0 1 0 0 0 1 87620.dat
1 8 340 -408 1360 1 0 0 0 1 0 0 0 1 87620.dat
1 8 340 -432 1360 1 0 0 0 1 0 0 0 1 87620.dat
1 8 1220 -384 1360 0 0 1 0 1 0 -1 0 0 87620.dat
1 8 1220 -408 1360 0 0 1 0 1 0 -1 0 0 87620.dat
1 8 1220 -432 1360 0 0 1 0 1 0 -1 0 0 87620.dat
1 8 400 -432 1390 1 0 0 0 1 0 0 0 1 49311.dat
1 8 480 -432 1390 1 0 0 0 1 0 0 0 1 49311.dat
1 8 640 -432 1390 1 0 0 0 1 0 0 0 1 49311.dat
1 8 560 -432 1390 1 0 0 0 1 0 0 0 1 49311.dat
1 8 720 -432 1390 1 0 0 0 1 0 0 0 1 49311.dat
1 8 800 -432 1390 1 0 0 0 1 0 0 0 1 49311.dat
1 8 880 -432 1390 1 0 0 0 1 0 0 0 1 49311.dat
1 8 960 -432 1390 1 0 0 0 1 0 0 0 1 49311.dat
1 8 1040 -432 1390 1 0 0 0 1 0 0 0 1 49311.dat
1 8 1120 -432 1390 1 0 0 0 1 0 0 0 1 49311.dat
1 8 400 -432 1450 1 0 0 0 1 0 0 0 1 49311.dat
1 8 480 -432 1450 1 0 0 0 1 0 0 0 1 49311.dat
1 8 640 -432 1450 1 0 0 0 1 0 0 0 1 49311.dat
1 8 560 -432 1450 1 0 0 0 1 0 0 0 1 49311.dat
1 8 720 -432 1450 1 0 0 0 1 0 0 0 1 49311.dat
1 8 800 -432 1450 1 0 0 0 1 0 0 0 1 49311.dat
1 8 880 -432 1450 1 0 0 0 1 0 0 0 1 49311.dat
1 8 960 -432 1450 1 0 0 0 1 0 0 0 1 49311.dat
1 8 1040 -432 1450 1 0 0 0 1 0 0 0 1 49311.dat
1 8 1120 -432 1450 1 0 0 0 1 0 0 0 1 49311.dat
1 8 400 -432 -930 1 0 0 0 1 0 0 0 1 49311.dat
1 8 480 -432 -930 1 0 0 0 1 0 0 0 1 49311.dat
1 8 640 -432 -930 1 0 0 0 1 0 0 0 1 49311.dat
1 8 560 -432 -930 1 0 0 0 1 0 0 0 1 49311.dat
1 8 720 -432 -930 1 0 0 0 1 0 0 0 1 49311.dat
1 8 800 -432 -930 1 0 0 0 1 0 0 0 1 49311.dat
1 8 880 -432 -930 1 0 0 0 1 0 0 0 1 49311.dat
1 8 960 -432 -930 1 0 0 0 1 0 0 0 1 49311.dat
1 8 1040 -432 -930 1 0 0 0 1 0 0 0 1 49311.dat
1 8 1120 -432 -930 1 0 0 0 1 0 0 0 1 49311.dat
1 8 400 -432 -870 1 0 0 0 1 0 0 0 1 49311.dat
1 8 480 -432 -870 1 0 0 0 1 0 0 0 1 49311.dat
1 8 640 -432 -870 1 0 0 0 1 0 0 0 1 49311.dat
1 8 560 -432 -870 1 0 0 0 1 0 0 0 1 49311.dat
1 8 720 -432 -870 1 0 0 0 1 0 0 0 1 49311.dat
1 8 800 -432 -870 1 0 0 0 1 0 0 0 1 49311.dat
1 8 880 -432 -870 1 0 0 0 1 0 0 0 1 49311.dat
1 8 960 -432 -870 1 0 0 0 1 0 0 0 1 49311.dat
1 8 1040 -432 -870 1 0 0 0 1 0 0 0 1 49311.dat
1 8 1120 -432 -870 1 0 0 0 1 0 0 0 1 49311.dat
1 8 1250 -432 900 0 0 -1 0 1 0 1 0 0 49311.dat
1 8 1310 -432 900 0 0 -1 0 1 0 1 0 0 49311.dat
1 8 1250 -432 980 0 0 -1 0 1 0 1 0 0 49311.dat
1 8 1250 -432 1060 0 0 -1 0 1 0 1 0 0 49311.dat
1 8 1250 -432 1140 0 0 -1 0 1 0 1 0 0 49311.dat
1 8 1250 -432 1220 0 0 -1 0 1 0 1 0 0 49311.dat
1 8 1250 -432 1300 0 0 -1 0 1 0 1 0 0 49311.dat
1 8 1310 -432 980 0 0 -1 0 1 0 1 0 0 49311.dat
1 8 1310 -432 1060 0 0 -1 0 1 0 1 0 0 49311.dat
1 8 1310 -432 1140 0 0 -1 0 1 0 1 0 0 49311.dat
1 8 1310 -432 1220 0 0 -1 0 1 0 1 0 0 49311.dat
1 8 1310 -432 1300 0 0 -1 0 1 0 1 0 0 49311.dat
1 8 1250 -432 420 0 0 -1 0 1 0 1 0 0 49311.dat
1 8 1310 -432 420 0 0 -1 0 1 0 1 0 0 49311.dat
1 8 1250 -432 500 0 0 -1 0 1 0 1 0 0 49311.dat
1 8 1250 -432 580 0 0 -1 0 1 0 1 0 0 49311.dat
1 8 1250 -432 660 0 0 -1 0 1 0 1 0 0 49311.dat
1 8 1250 -432 740 0 0 -1 0 1 0 1 0 0 49311.dat
1 8 1250 -432 820 0 0 -1 0 1 0 1 0 0 49311.dat
1 8 1310 -432 500 0 0 -1 0 1 0 1 0 0 49311.dat
1 8 1310 -432 580 0 0 -1 0 1 0 1 0 0 49311.dat
1 8 1310 -432 660 0 0 -1 0 1 0 1 0 0 49311.dat
1 8 1310 -432 740 0 0 -1 0 1 0 1 0 0 49311.dat
1 8 1310 -432 820 0 0 -1 0 1 0 1 0 0 49311.dat
1 8 1250 -432 -60 0 0 -1 0 1 0 1 0 0 49311.dat
1 8 1310 -432 -60 0 0 -1 0 1 0 1 0 0 49311.dat
1 8 1250 -432 20 0 0 -1 0 1 0 1 0 0 49311.dat
1 8 1250 -432 100 0 0 -1 0 1 0 1 0 0 49311.dat
1 8 1250 -432 180 0 0 -1 0 1 0 1 0 0 49311.dat
1 8 1250 -432 260 0 0 -1 0 1 0 1 0 0 49311.dat
1 8 1250 -432 340 0 0 -1 0 1 0 1 0 0 49311.dat
1 8 1310 -432 20 0 0 -1 0 1 0 1 0 0 49311.dat
1 8 1310 -432 100 0 0 -1 0 1 0 1 0 0 49311.dat
1 8 1310 -432 180 0 0 -1 0 1 0 1 0 0 49311.dat
1 8 1310 -432 260 0 0 -1 0 1 0 1 0 0 49311.dat
1 8 1310 -432 340 0 0 -1 0 1 0 1 0 0 49311.dat
1 8 1250 -432 -540 0 0 -1 0 1 0 1 0 0 49311.dat
1 8 1310 -432 -540 0 0 -1 0 1 0 1 0 0 49311.dat
1 8 1250 -432 -460 0 0 -1 0 1 0 1 0 0 49311.dat
1 8 1250 -432 -380 0 0 -1 0 1 0 1 0 0 49311.dat
1 8 1250 -432 -300 0 0 -1 0 1 0 1 0 0 49311.dat
1 8 1250 -432 -220 0 0 -1 0 1 0 1 0 0 49311.dat
1 8 1250 -432 -140 0 0 -1 0 1 0 1 0 0 49311.dat
1 8 1310 -432 -460 0 0 -1 0 1 0 1 0 0 49311.dat
1 8 1310 -432 -380 0 0 -1 0 1 0 1 0 0 49311.dat
1 8 1310 -432 -300 0 0 -1 0 1 0 1 0 0 49311.dat
1 8 1310 -432 -220 0 0 -1 0 1 0 1 0 0 49311.dat
1 8 1310 -432 -140 0 0 -1 0 1 0 1 0 0 49311.dat
1 8 1310 -432 -620 0 0 -1 0 1 0 1 0 0 49311.dat
1 8 1310 -432 -700 0 0 -1 0 1 0 1 0 0 49311.dat
1 8 1310 -432 -780 0 0 -1 0 1 0 1 0 0 49311.dat
1 8 1250 -432 -780 0 0 -1 0 1 0 1 0 0 49311.dat
1 8 1250 -432 -700 0 0 -1 0 1 0 1 0 0 49311.dat
1 8 1250 -432 -620 0 0 -1 0 1 0 1 0 0 49311.dat
1 8 1280 -432 -660 0 0 -1 0 1 0 1 0 0 4282.dat
1 8 1280 -432 -340 0 0 -1 0 1 0 1 0 0 4282.dat
1 8 1280 -432 -20 0 0 -1 0 1 0 1 0 0 4282.dat
1 8 1280 -432 1180 0 0 -1 0 1 0 1 0 0 4282.dat
1 8 1280 -432 860 0 0 -1 0 1 0 1 0 0 4282.dat
1 8 1280 -432 540 0 0 -1 0 1 0 1 0 0 4282.dat
1 8 1280 -432 260 0 0 -1 0 1 0 1 0 0 2445.dat
1 8 1120 -432 1420 1 0 0 0 1 0 0 0 1 2445.dat
1 8 1120 -432 -900 1 0 0 0 1 0 0 0 1 2445.dat
1 8 1250 -432 -870 0 0 1 0 1 0 -1 0 0 2420.dat
1 8 1270 -432 -840 1 0 0 0 1 0 0 0 1 3021.dat
1 8 1200 -432 -870 1 0 0 0 1 0 0 0 1 49311.dat
1 8 1230 -432 -850 1 0 0 0 1 0 0 0 1 3024.dat
1 8 1200 -432 1390 1 0 0 0 1 0 0 0 1 49311.dat
1 8 1230 -432 1370 1 0 0 0 1 0 0 0 1 3024.dat
1 8 1250 -432 1390 1 0 0 0 1 0 0 0 1 2420.dat
1 8 1270 -432 1360 1 0 0 0 1 0 0 0 1 3021.dat
1 8 310 -432 1390 0 0 -1 0 1 0 1 0 0 2420.dat
1 8 300 -432 1370 -1 0 0 0 1 0 0 0 -1 3710.dat
1 8 340 -432 1410 0 0 -1 0 1 0 1 0 0 3021.dat
1 8 310 -432 1350 -1 0 0 0 1 0 0 0 -1 3024.dat
1 8 310 -432 -830 0 0 -1 0 1 0 1 0 0 3024.dat
1 8 300 -432 -850 -1 0 0 0 1 0 0 0 -1 3710.dat
1 8 310 -432 -870 -1 0 0 0 1 0 0 0 -1 2420.dat
1 8 340 -432 -890 0 0 1 0 1 0 -1 0 0 3021.dat
1 8 250 -432 1360 0 0 -1 0 1 0 1 0 0 3004.dat
1 8 340 -432 1450 1 0 0 0 1 0 0 0 1 3004.dat
1 8 1310 -432 1360 0 0 -1 0 1 0 1 0 0 3004.dat
1 8 1220 -432 1450 -1 0 0 0 1 0 0 0 -1 3004.dat
1 8 1310 -432 -840 0 0 -1 0 1 0 1 0 0 3004.dat
1 8 1220 -432 -930 1 0 0 0 1 0 0 0 1 3004.dat
1 7 310 -120 1320 0 0 -1 0 1 0 1 0 0 2454b.dat
1 7 310 -240 1320 0 0 -1 0 1 0 1 0 0 2454b.dat
1 7 310 -360 1320 0 0 -1 0 1 0 1 0 0 2454b.dat
1 7 310 -360 -800 0 0 -1 0 1 0 1 0 0 2454b.dat
1 7 310 -240 -800 0 0 -1 0 1 0 1 0 0 2454b.dat
1 7 310 -120 -800 0 0 -1 0 1 0 1 0 0 2454b.dat
1 7 250 -120 -800 0 0 -1 0 1 0 1 0 0 2454b.dat
1 7 250 -240 -800 0 0 -1 0 1 0 1 0 0 2454b.dat
1 7 250 -360 -800 0 0 -1 0 1 0 1 0 0 2454b.dat
1 7 250 -360 1320 0 0 -1 0 1 0 1 0 0 2454b.dat
1 7 250 -240 1320 0 0 -1 0 1 0 1 0 0 2454b.dat
1 7 250 -120 1320 0 0 -1 0 1 0 1 0 0 2454b.dat
1 8 -580 -440 260 0 0 1 0 1 0 -1 0 0 68297.dat
1 8 -580 -440 100 0 0 1 0 1 0 -1 0 0 68297.dat
1 8 -580 -440 420 0 0 1 0 1 0 -1 0 0 68297.dat
1 8 -120 -440 -280 1 0 0 0 1 0 0 0 1 68297.dat
1 8 40 -440 -280 1 0 0 0 1 0 0 0 1 68297.dat
1 8 -280 -440 -280 1 0 0 0 1 0 0 0 1 68297.dat
1 8 -120 -440 800 -1 0 0 0 1 0 0 0 -1 68297.dat
1 8 -280 -440 800 -1 0 0 0 1 0 0 0 -1 68297.dat
1 8 40 -440 800 -1 0 0 0 1 0 0 0 -1 68297.dat
1 72 -100 -432 790 -1 0 0 0 1 0 0 0 -1 3747a.dat
1 72 -140 -432 790 -1 0 0 0 1 0 0 0 -1 3747a.dat
1 72 -260 -432 790 -1 0 0 0 1 0 0 0 -1 3747a.dat
1 72 -300 -432 790 -1 0 0 0 1 0 0 0 -1 3747a.dat
1 72 20 -432 790 -1 0 0 0 1 0 0 0 -1 3747a.dat
1 72 60 -432 790 -1 0 0 0 1 0 0 0 -1 3747a.dat
1 72 -10 -432 790 -1 0 0 0 1 0 0 0 -1 4287c.dat
1 72 -70 -432 790 -1 0 0 0 1 0 0 0 -1 4287c.dat
1 72 -170 -432 790 -1 0 0 0 1 0 0 0 -1 4287c.dat
1 72 -230 -432 790 -1 0 0 0 1 0 0 0 -1 4287c.dat
1 72 -330 -432 790 -1 0 0 0 1 0 0 0 -1 4287c.dat
1 72 90 -432 790 -1 0 0 0 1 0 0 0 -1 4287c.dat
1 72 110 -432 770 -1 0 0 0 1 0 0 0 -1 4287c.dat
1 72 -30 -432 770 -1 0 0 0 1 0 0 0 -1 4287c.dat
1 72 -50 -432 770 -1 0 0 0 1 0 0 0 -1 4287c.dat
1 72 -190 -432 770 -1 0 0 0 1 0 0 0 -1 4287c.dat
1 72 -210 -432 770 -1 0 0 0 1 0 0 0 -1 4287c.dat
1 72 -350 -432 770 -1 0 0 0 1 0 0 0 -1 4287c.dat
1 72 -330 -408 770 -1 0 0 0 1 0 0 0 -1 3665b.dat
1 72 -310 -408 770 -1 0 0 0 1 0 0 0 -1 3665b.dat
1 72 -290 -408 770 -1 0 0 0 1 0 0 0 -1 3665b.dat
1 72 -270 -408 770 -1 0 0 0 1 0 0 0 -1 3665b.dat
1 72 -250 -408 770 -1 0 0 0 1 0 0 0 -1 3665b.dat
1 72 -230 -408 770 -1 0 0 0 1 0 0 0 -1 3665b.dat
1 72 -170 -408 770 -1 0 0 0 1 0 0 0 -1 3665b.dat
1 72 -150 -408 770 -1 0 0 0 1 0 0 0 -1 3665b.dat
1 72 -130 -408 770 -1 0 0 0 1 0 0 0 -1 3665b.dat
1 72 -110 -408 770 -1 0 0 0 1 0 0 0 -1 3665b.dat
1 72 -90 -408 770 -1 0 0 0 1 0 0 0 -1 3665b.dat
1 72 -70 -408 770 -1 0 0 0 1 0 0 0 -1 3665b.dat
1 72 -10 -408 770 -1 0 0 0 1 0 0 0 -1 3665b.dat
1 72 10 -408 770 -1 0 0 0 1 0 0 0 -1 3665b.dat
1 72 30 -408 770 -1 0 0 0 1 0 0 0 -1 3665b.dat
1 72 50 -408 770 -1 0 0 0 1 0 0 0 -1 3665b.dat
1 72 70 -408 770 -1 0 0 0 1 0 0 0 -1 3665b.dat
1 72 90 -408 770 -1 0 0 0 1 0 0 0 -1 3665b.dat
1 72 -570 -432 440 0 0 1 0 1 0 -1 0 0 3747a.dat
1 72 -570 -432 400 0 0 1 0 1 0 -1 0 0 3747a.dat
1 72 -570 -432 280 0 0 1 0 1 0 -1 0 0 3747a.dat
1 72 -570 -432 240 0 0 1 0 1 0 -1 0 0 3747a.dat
1 72 -570 -432 120 0 0 1 0 1 0 -1 0 0 3747a.dat
1 72 -570 -432 80 0 0 1 0 1 0 -1 0 0 3747a.dat
1 72 -300 -432 -270 1 0 0 0 1 0 0 0 1 3747a.dat
1 72 -260 -432 -270 1 0 0 0 1 0 0 0 1 3747a.dat
1 72 -140 -432 -270 1 0 0 0 1 0 0 0 1 3747a.dat
1 72 -100 -432 -270 1 0 0 0 1 0 0 0 1 3747a.dat
1 72 20 -432 -270 1 0 0 0 1 0 0 0 1 3747a.dat
1 72 60 -432 -270 1 0 0 0 1 0 0 0 1 3747a.dat
1 72 -570 -432 50 0 0 1 0 1 0 -1 0 0 4287c.dat
1 72 -570 -432 210 0 0 1 0 1 0 -1 0 0 4287c.dat
1 72 -570 -432 370 0 0 1 0 1 0 -1 0 0 4287c.dat
1 72 -330 -432 -270 1 0 0 0 1 0 0 0 1 4287c.dat
1 72 -170 -432 -270 1 0 0 0 1 0 0 0 1 4287c.dat
1 72 -10 -432 -270 1 0 0 0 1 0 0 0 1 4287c.dat
1 72 -230 -432 -270 1 0 0 0 1 0 0 0 1 4287c.dat
1 72 -70 -432 -270 1 0 0 0 1 0 0 0 1 4287c.dat
1 72 90 -432 -270 1 0 0 0 1 0 0 0 1 4287c.dat
1 72 -570 -432 150 0 0 1 0 1 0 -1 0 0 4287c.dat
1 72 -570 -432 310 0 0 1 0 1 0 -1 0 0 4287c.dat
1 72 -570 -432 470 0 0 1 0 1 0 -1 0 0 4287c.dat
1 72 -550 -432 490 0 0 1 0 1 0 -1 0 0 4287c.dat
1 72 -550 -432 350 0 0 1 0 1 0 -1 0 0 4287c.dat
1 72 -550 -432 330 0 0 1 0 1 0 -1 0 0 4287c.dat
1 72 -550 -432 190 0 0 1 0 1 0 -1 0 0 4287c.dat
1 72 -550 -432 170 0 0 1 0 1 0 -1 0 0 4287c.dat
1 72 -550 -432 30 0 0 1 0 1 0 -1 0 0 4287c.dat
1 72 -350 -432 -250 1 0 0 0 1 0 0 0 1 4287c.dat
1 72 -210 -432 -250 1 0 0 0 1 0 0 0 1 4287c.dat
1 72 -190 -432 -250 1 0 0 0 1 0 0 0 1 4287c.dat
1 72 -50 -432 -250 1 0 0 0 1 0 0 0 1 4287c.dat
1 72 -30 -432 -250 1 0 0 0 1 0 0 0 1 4287c.dat
1 72 110 -432 -250 1 0 0 0 1 0 0 0 1 4287c.dat
1 72 -150 -408 -250 1 0 0 0 1 0 0 0 1 3665b.dat
1 72 -170 -408 -250 1 0 0 0 1 0 0 0 1 3665b.dat
1 72 -130 -408 -250 1 0 0 0 1 0 0 0 1 3665b.dat
1 72 -110 -408 -250 1 0 0 0 1 0 0 0 1 3665b.dat
1 72 -90 -408 -250 1 0 0 0 1 0 0 0 1 3665b.dat
1 72 -70 -408 -250 1 0 0 0 1 0 0 0 1 3665b.dat
1 72 -10 -408 -250 1 0 0 0 1 0 0 0 1 3665b.dat
1 72 10 -408 -250 1 0 0 0 1 0 0 0 1 3665b.dat
1 72 30 -408 -250 1 0 0 0 1 0 0 0 1 3665b.dat
1 72 50 -408 -250 1 0 0 0 1 0 0 0 1 3665b.dat
1 72 70 -408 -250 1 0 0 0 1 0 0 0 1 3665b.dat
1 72 90 -408 -250 1 0 0 0 1 0 0 0 1 3665b.dat
1 72 -230 -408 -250 1 0 0 0 1 0 0 0 1 3665b.dat
1 72 -250 -408 -250 1 0 0 0 1 0 0 0 1 3665b.dat
1 72 -270 -408 -250 1 0 0 0 1 0 0 0 1 3665b.dat
1 72 -290 -408 -250 1 0 0 0 1 0 0 0 1 3665b.dat
1 72 -310 -408 -250 1 0 0 0 1 0 0 0 1 3665b.dat
1 72 -330 -408 -250 1 0 0 0 1 0 0 0 1 3665b.dat
1 72 -550 -408 50 0 0 1 0 1 0 -1 0 0 3665b.dat
1 72 -550 -408 70 0 0 1 0 1 0 -1 0 0 3665b.dat
1 72 -550 -408 90 0 0 1 0 1 0 -1 0 0 3665b.dat
1 72 -550 -408 110 0 0 1 0 1 0 -1 0 0 3665b.dat
1 72 -550 -408 130 0 0 1 0 1 0 -1 0 0 3665b.dat
1 72 -550 -408 150 0 0 1 0 1 0 -1 0 0 3665b.dat
1 72 -550 -408 210 0 0 1 0 1 0 -1 0 0 3665b.dat
1 72 -550 -408 230 0 0 1 0 1 0 -1 0 0 3665b.dat
1 72 -550 -408 250 0 0 1 0 1 0 -1 0 0 3665b.dat
1 72 -550 -408 270 0 0 1 0 1 0 -1 0 0 3665b.dat
1 72 -550 -408 290 0 0 1 0 1 0 -1 0 0 3665b.dat
1 72 -550 -408 310 0 0 1 0 1 0 -1 0 0 3665b.dat
1 72 -550 -408 370 0 0 1 0 1 0 -1 0 0 3665b.dat
1 72 -550 -408 390 0 0 1 0 1 0 -1 0 0 3665b.dat
1 72 -550 -408 410 0 0 1 0 1 0 -1 0 0 3665b.dat
1 72 -550 -408 430 0 0 1 0 1 0 -1 0 0 3665b.dat
1 72 -550 -408 450 0 0 1 0 1 0 -1 0 0 3665b.dat
1 72 -550 -408 470 0 0 1 0 1 0 -1 0 0 3665b.dat
1 7 -550 -360 380 0 0 1 0 1 0 -1 0 0 49311.dat
1 7 -550 -360 300 0 0 1 0 1 0 -1 0 0 49311.dat
1 7 -550 -360 220 0 0 1 0 1 0 -1 0 0 49311.dat
1 7 -550 -360 140 0 0 1 0 1 0 -1 0 0 49311.dat
1 72 -550 -432 -20 0 0 1 0 1 0 -1 0 0 49311.dat
1 72 -550 -432 -100 0 0 1 0 1 0 -1 0 0 49311.dat
1 72 -550 -432 540 0 0 1 0 1 0 -1 0 0 49311.dat
1 72 -550 -432 620 0 0 1 0 1 0 -1 0 0 49311.dat
1 7 0 -360 770 -1 0 0 0 1 0 0 0 -1 49311.dat
1 7 -80 -360 770 -1 0 0 0 1 0 0 0 -1 49311.dat
1 7 -160 -360 770 -1 0 0 0 1 0 0 0 -1 49311.dat
1 7 -240 -360 770 -1 0 0 0 1 0 0 0 -1 49311.dat
1 72 -400 -432 770 -1 0 0 0 1 0 0 0 -1 49311.dat
1 7 -240 -360 -250 1 0 0 0 1 0 0 0 1 49311.dat
1 7 -160 -360 -250 1 0 0 0 1 0 0 0 1 49311.dat
1 7 -80 -360 -250 1 0 0 0 1 0 0 0 1 49311.dat
1 7 0 -360 -250 1 0 0 0 1 0 0 0 1 49311.dat
1 72 -400 -432 -250 1 0 0 0 1 0 0 0 1 49311.dat
1 72 -200 -384 -250 1 0 0 0 1 0 0 0 1 2465.dat
1 72 60 -384 -250 1 0 0 0 1 0 0 0 1 6111.dat
1 72 60 -384 770 1 0 0 0 1 0 0 0 1 6111.dat
1 72 -200 -384 770 1 0 0 0 1 0 0 0 1 2465.dat
1 72 -550 -384 380 0 0 1 0 1 0 -1 0 0 6112.dat
1 72 -550 -384 140 0 0 1 0 1 0 -1 0 0 6112.dat
1 72 -350 -408 -250 1 0 0 0 1 0 0 0 1 3005.dat
1 72 -350 -408 770 1 0 0 0 1 0 0 0 1 3005.dat
1 72 -550 -408 30 0 0 1 0 1 0 -1 0 0 3005.dat
1 72 -550 -408 490 0 0 1 0 1 0 -1 0 0 3005.dat
1 72 -550 -408 180 0 0 1 0 1 0 -1 0 0 3004.dat
1 72 -550 -408 340 0 0 1 0 1 0 -1 0 0 3004.dat
1 72 -200 -408 -250 1 0 0 0 1 0 0 0 1 3004.dat
1 72 -40 -408 -250 1 0 0 0 1 0 0 0 1 3004.dat
1 8 -460 -432 -250 1 0 0 0 1 0 0 0 1 3004.dat
1 8 -550 -432 -160 0 0 1 0 1 0 -1 0 0 3004.dat
1 8 -550 -432 680 0 0 1 0 1 0 -1 0 0 3004.dat
1 8 -460 -432 770 -1 0 0 0 1 0 0 0 -1 3004.dat
1 72 -200 -408 770 1 0 0 0 1 0 0 0 1 3004.dat
1 72 -40 -408 770 -1 0 0 0 1 0 0 0 -1 3004.dat
1 7 -450 -440 -190 0 0 1 0 1 0 -1 0 0 11212.dat
1 7 -510 -440 -130 0 0 1 0 1 0 -1 0 0 11212.dat
1 7 -510 -440 650 0 0 1 0 1 0 -1 0 0 11212.dat
1 7 -450 -440 710 0 0 1 0 1 0 -1 0 0 11212.dat
1 7 -490 -440 710 0 0 -1 0 1 0 1 0 0 2420.dat
1 7 -490 -440 -190 -1 0 0 0 1 0 0 0 -1 2420.dat
1 7 -510 -440 -170 1 0 0 0 1 0 0 0 1 3623.dat
1 7 -420 -440 -230 1 0 0 0 1 0 0 0 1 3666.dat
1 7 -420 -440 750 1 0 0 0 1 0 0 0 1 3666.dat
1 7 -510 -440 690 1 0 0 0 1 0 0 0 1 3623.dat
1 8 -550 -24 680 0 0 1 0 1 0 -1 0 0 3004.dat
1 8 -460 -24 770 -1 0 0 0 1 0 0 0 -1 3004.dat
1 8 -550 -24 -160 0 0 1 0 1 0 -1 0 0 3004.dat
1 8 -460 -24 -250 -1 0 0 0 1 0 0 0 -1 3004.dat
1 8 250 -24 -840 0 0 -1 0 1 0 1 0 0 3004.dat
1 8 340 -24 -930 1 0 0 0 1 0 0 0 1 3004.dat
1 8 250 -24 1360 0 0 -1 0 1 0 1 0 0 3004.dat
1 8 340 -24 1450 1 0 0 0 1 0 0 0 1 3004.dat
1 8 1220 -24 1450 1 0 0 0 1 0 0 0 1 3004.dat
1 8 1310 -24 1360 0 0 -1 0 1 0 1 0 0 3004.dat
1 8 1220 -24 -930 1 0 0 0 1 0 0 0 1 3004.dat
1 8 1310 -24 -840 0 0 -1 0 1 0 1 0 0 3004.dat
1 8 -550 -168 -160 0 0 1 0 1 0 -1 0 0 3245a.dat
1 8 -550 -312 -160 0 0 1 0 1 0 -1 0 0 3245a.dat
1 8 -460 -168 -250 -1 0 0 0 1 0 0 0 -1 3245a.dat
1 8 -460 -312 -250 -1 0 0 0 1 0 0 0 -1 3245a.dat
1 8 -550 -168 680 0 0 1 0 1 0 -1 0 0 3245a.dat
1 8 -550 -312 680 0 0 1 0 1 0 -1 0 0 3245a.dat
1 8 -460 -168 770 -1 0 0 0 1 0 0 0 -1 3245a.dat
1 8 -460 -312 770 -1 0 0 0 1 0 0 0 -1 3245a.dat
1 8 250 -168 1360 0 0 -1 0 1 0 1 0 0 3245a.dat
1 8 250 -312 1360 0 0 -1 0 1 0 1 0 0 3245a.dat
1 8 340 -168 1450 1 0 0 0 1 0 0 0 1 3245a.dat
1 8 340 -312 1450 1 0 0 0 1 0 0 0 1 3245a.dat
1 8 1220 -168 1450 1 0 0 0 1 0 0 0 1 3245a.dat
1 8 1220 -312 1450 1 0 0 0 1 0 0 0 1 3245a.dat
1 8 1310 -168 1360 0 0 -1 0 1 0 1 0 0 3245a.dat
1 8 1310 -312 1360 0 0 -1 0 1 0 1 0 0 3245a.dat
1 8 1310 -168 -840 0 0 -1 0 1 0 1 0 0 3245a.dat
1 8 1310 -312 -840 0 0 -1 0 1 0 1 0 0 3245a.dat
1 8 1220 -168 -930 1 0 0 0 1 0 0 0 1 3245a.dat
1 8 1220 -312 -930 1 0 0 0 1 0 0 0 1 3245a.dat
1 8 340 -168 -930 1 0 0 0 1 0 0 0 1 3245a.dat
1 8 340 -312 -930 1 0 0 0 1 0 0 0 1 3245a.dat
1 8 250 -168 -840 0 0 -1 0 1 0 1 0 0 3245a.dat
1 8 250 -312 -840 0 0 -1 0 1 0 1 0 0 3245a.dat
1 8 1180 -432 -930 1 0 0 0 1 0 0 0 1 22886.dat
1 8 1180 -432 1450 1 0 0 0 1 0 0 0 1 22886.dat
1 8 -550 -456 580 0 0 1 0 1 0 -1 0 0 3008.dat
1 8 -550 -456 -60 0 0 1 0 1 0 -1 0 0 3008.dat
1 8 -400 -456 -250 1 0 0 0 1 0 0 0 1 3010.dat
1 8 -400 -456 770 1 0 0 0 1 0 0 0 1 3010.dat
1 8 -550 -456 670 0 0 1 0 1 0 -1 0 0 3005.dat
1 8 -450 -456 770 1 0 0 0 1 0 0 0 1 3005.dat
1 8 -550 -456 -150 0 0 1 0 1 0 -1 0 0 3005.dat
1 8 -450 -456 -250 1 0 0 0 1 0 0 0 1 3005.dat
1 8 -590 -464 470 -1 0 0 0 1 0 0 0 -1 2462.dat
1 8 -590 -464 310 -1 0 0 0 1 0 0 0 -1 2462.dat
1 8 -590 -464 150 -1 0 0 0 1 0 0 0 -1 2462.dat
1 8 -590 -464 50 0 0 1 0 1 0 -1 0 0 2462.dat
1 8 -590 -464 210 0 0 1 0 1 0 -1 0 0 2462.dat
1 8 -590 -464 370 0 0 1 0 1 0 -1 0 0 2462.dat
1 8 -330 -464 -290 0 0 1 0 1 0 -1 0 0 2462.dat
1 8 -170 -464 -290 0 0 1 0 1 0 -1 0 0 2462.dat
1 8 -10 -464 -290 0 0 1 0 1 0 -1 0 0 2462.dat
1 8 90 -464 -290 1 0 0 0 1 0 0 0 1 2462.dat
1 8 -70 -464 -290 1 0 0 0 1 0 0 0 1 2462.dat
1 8 -230 -464 -290 1 0 0 0 1 0 0 0 1 2462.dat
1 8 -330 -464 810 -1 0 0 0 1 0 0 0 -1 2462.dat
1 8 -170 -464 810 -1 0 0 0 1 0 0 0 -1 2462.dat
1 8 -10 -464 810 -1 0 0 0 1 0 0 0 -1 2462.dat
1 8 90 -464 810 0 0 -1 0 1 0 1 0 0 2462.dat
1 8 -70 -464 810 0 0 -1 0 1 0 1 0 0 2462.dat
1 8 -230 -464 810 0 0 -1 0 1 0 1 0 0 2462.dat
1 8 -280 -448 830 -1 0 0 0 1 0 0 0 -1 3023b.dat
1 8 -120 -448 830 -1 0 0 0 1 0 0 0 -1 3023b.dat
1 8 40 -448 830 -1 0 0 0 1 0 0 0 -1 3023b.dat
1 8 -610 -448 260 0 0 1 0 1 0 -1 0 0 3023b.dat
1 8 -610 -448 420 0 0 1 0 1 0 -1 0 0 3023b.dat
1 8 -610 -448 100 0 0 1 0 1 0 -1 0 0 3023b.dat
1 8 -280 -448 -310 1 0 0 0 1 0 0 0 1 3023b.dat
1 8 -120 -448 -310 1 0 0 0 1 0 0 0 1 3023b.dat
1 8 40 -448 -310 1 0 0 0 1 0 0 0 1 3023b.dat
1 8 140 -456 -250 1 0 0 0 1 0 0 0 1 22886.dat
1 8 140 -456 770 1 0 0 0 1 0 0 0 1 22886.dat
1 8 150 -432 -230 1 0 0 0 1 0 0 0 1 3622.dat
1 7 140 -432 -160 0 0 -1 0 1 0 1 0 0 2456.dat
1 7 140 -432 680 0 0 -1 0 1 0 1 0 0 2456.dat
1 8 150 -432 750 -1 0 0 0 1 0 0 0 -1 3622.dat
1 60 1280 -448 260 0 0 -1 0 1 0 1 0 0 51708.dat
1 8 110 -408 -250 1 0 0 0 1 0 0 0 1 3005.dat
1 8 110 -408 770 -1 0 0 0 1 0 0 0 -1 3005.dat
