0 
0 Name: New Model.ldr
0 Author: 
1 308 680 -632 350 1 0 0 0 1 0 0 0 1 64645.dat
1 0 680 -560 320 1 0 0 0 1 0 0 0 1 64651.dat
1 0 680 -560 760 1 0 0 0 1 0 0 0 1 95227.dat
1 0 680 -560 1080 1 0 0 0 1 0 0 0 1 95227.dat
1 0 680 -632 1300 1 0 0 0 1 0 0 0 1 2558.dat
1 308 680 -632 1300 1 0 0 0 1 0 0 0 1 2559.dat
1 308 200 -552 220 1 0 0 0 1 0 0 0 1 6143.dat
1 308 200 -576 220 1 0 0 0 1 0 0 0 1 6143.dat
1 6 100 -584 260 1 0 0 0 1 0 0 0 1 3028.dat
1 6 100 -584 680 1 0 0 0 1 0 0 0 1 3028.dat
1 6 100 -584 400 1 0 0 0 1 0 0 0 1 3028.dat
1 6 100 -584 960 1 0 0 0 1 0 0 0 1 3028.dat
1 6 100 -584 820 1 0 0 0 1 0 0 0 1 3028.dat
1 6 100 -584 540 1 0 0 0 1 0 0 0 1 3028.dat
1 6 100 -584 1100 1 0 0 0 1 0 0 0 1 3028.dat
1 423 110 -632 260 1 0 0 0 1 0 0 0 1 2489.dat
0 !LEOCAD PIECE PIVOT  0 0 30 1 0 0 0 1 0 0 0 1
1 423 40 -600 280 1 0 0 0 1 0 0 0 1 30139.dat
1 308 100 -656 210 1 0 0 0 1 0 0 0 1 6079.dat
1 308 210 -656 300 0 0 -1 0 1 0 1 0 0 6079.dat
1 86 100 -633.9808 1115 0 0 1 -0.866025 0.5 0 -0.5 -0.866025 0 87079.dat
1 86 150 -633.9808 1115 0 0 1 -0.866025 0.5 0 -0.5 -0.866025 0 87079.dat
1 308 100 -656 1090 1 0 0 0 1 0 0 0 1 6079.dat
1 72 820 -672 740 0 0 1 0 1 0 -1 0 0 69729.dat
1 72 540 -672 740 0 0 1 0 1 0 -1 0 0 69729.dat
1 72 820 -672 980 0 0 1 0 1 0 -1 0 0 69729.dat
1 72 540 -672 980 0 0 1 0 1 0 -1 0 0 69729.dat
1 72 820 -672 860 0 0 1 0 1 0 -1 0 0 69729.dat
1 72 540 -672 860 0 0 1 0 1 0 -1 0 0 69729.dat
1 308 820 -736 1220 -1 0 0 0 1 0 0 0 -1 3003.dat
1 308 540 -736 1220 -1 0 0 0 1 0 0 0 -1 3003.dat
1 72 820 -712 1170 1 0 0 0 1 0 0 0 1 3039.dat
1 72 540 -712 1170 1 0 0 0 1 0 0 0 1 3039.dat
1 72 820 -736 1190 1 0 0 0 1 0 0 0 1 3039.dat
1 72 820 -784 1210 1 0 0 0 1 0 0 0 1 3039.dat
0 !LEOCAD PIECE PIVOT  70 0 0 1 0 0 0 1 0 0 0 1
1 72 540 -784 1210 1 0 0 0 1 0 0 0 1 3039.dat
1 72 540 -736 1190 1 0 0 0 1 0 0 0 1 3039.dat
1 308 820 -712 1190 1 0 0 0 1 0 0 0 1 3004.dat
1 308 820 -784 1230 1 0 0 0 1 0 0 0 1 3004.dat
1 308 540 -784 1230 1 0 0 0 1 0 0 0 1 3004.dat
1 308 540 -712 1190 1 0 0 0 1 0 0 0 1 3004.dat
1 72 820 -672 1070 0 0 1 0 1 0 -1 0 0 26603.dat
1 72 540 -672 1070 0 0 1 0 1 0 -1 0 0 26603.dat
1 308 760 -656 1360 0 0 -1 0 1 0 1 0 0 2577.dat
1 308 600 -656 1360 -1 0 0 0 1 0 0 0 -1 2577.dat
1 308 760 -680 1360 0 0 -1 0 1 0 1 0 0 2577.dat
1 308 600 -680 1360 -1 0 0 0 1 0 0 0 -1 2577.dat
1 308 830 -784 1270 0 0 -1 0 1 0 1 0 0 6798.dat
1 308 530 -784 1270 0 0 1 0 1 0 -1 0 0 6798.dat
1 308 820 -656 1330 0 0 -1 0 1 0 1 0 0 3002.dat
1 308 820 -680 1330 0 0 -1 0 1 0 1 0 0 3002.dat
1 308 720 -656 1410 1 0 0 0 1 0 0 0 1 60593.dat
1 308 640 -656 1410 1 0 0 0 1 0 0 0 1 60593.dat
1 308 704 -652 1405 0 0 -1 0 1 0 1 0 0 2529.dat
1 308 624 -652 1405 0 0 -1 0 1 0 1 0 0 2529.dat
1 308 640 -672 1430 1 0 0 0 1 0 0 0 1 6182.dat
1 308 720 -672 1430 1 0 0 0 1 0 0 0 1 6182.dat
1 308 750 -656 1410 1 0 0 0 1 0 0 0 1 3005.dat
1 308 610 -656 1410 1 0 0 0 1 0 0 0 1 3005.dat
1 308 750 -632 1410 1 0 0 0 1 0 0 0 1 3005.dat
1 308 610 -632 1410 1 0 0 0 1 0 0 0 1 3005.dat
1 308 680 -656 1410 1 0 0 0 1 0 0 0 1 3245c.dat
1 308 680 -680 1410 1 0 0 0 1 0 0 0 1 3008.dat
1 308 680 -784 1430 -1 0 0 0 1 0 0 0 -1 4510.dat
1 308 760 -784 1140 1 0 0 0 1 0 0 0 1 30134.dat
1 308 680 -792 1260 -1 0 0 0 1 0 0 0 -1 3027.dat
1 6 760 -848 1360 0 0 -1 0 1 0 1 0 0 21229.dat
1 6 600 -848 1360 -1 0 0 0 1 0 0 0 -1 21229.dat
1 6 720 -848 1430 1 0 0 0 1 0 0 0 1 15332.dat
1 6 530 -848 1320 0 0 1 0 1 0 -1 0 0 15332.dat
1 6 830 -848 1320 0 0 1 0 1 0 -1 0 0 15332.dat
1 6 530 -848 1240 0 0 1 0 1 0 -1 0 0 15332.dat
1 6 580 -848 1210 -1 0 0 0 1 0 0 0 -1 15332.dat
1 6 660 -848 1210 -1 0 0 0 1 0 0 0 -1 15332.dat
1 6 830 -848 1240 0 0 1 0 1 0 -1 0 0 15332.dat
1 6 640 -848 1430 1 0 0 0 1 0 0 0 1 15332.dat
1 308 800 -792 1400 0 0 -1 0 1 0 1 0 0 30565.dat
1 308 560 -792 1400 -1 0 0 0 1 0 0 0 -1 30565.dat
1 308 680 -792 1400 1 0 0 0 1 0 0 0 1 3035.dat
1 308 680 -792 1340 -1 0 0 0 1 0 0 0 -1 4282.dat
0 !LEOCAD PIECE PIVOT  10 25 0 1 0 0 0 1 0 0 0 1
1 19 680 -862 1285 1 0 0 0 0 1 0 -1 0 52395.dat
1 308 680 -872 1250 -1 0 0 0 1 0 0 0 -1 u608.dat
1 308 680 -824 1250 -1 0 0 0 1 0 0 0 -1 3010.dat
1 308 680 -648 920 1 0 0 0 1 0 0 0 1 4844a.dat
1 308 680 -856 920 0 0 -1 0 1 0 1 0 0 2538c.dat
1 6 680 -1240 920 0 0 1 0 1 0 -1 0 0 64951.dat
1 8 805 -680 750 0 0 -1 0 1 0 1 0 0 2533.dat
1 8 805 -680 750 0 0 -1 0 1 0 1 0 0 2535.dat
1 70 765 -672 770 -1 0 0 0 1 0 0 0 -1 2470.dat
1 70 765 -672 730 1 0 0 0 1 0 0 0 1 2470.dat
1 0 680 -504 400 1 0 0 0 1 0 0 0 1 47404.dat
1 30009 680 -632 360 1 0 0 0 1 0 0 0 1 47405.dat
1 0 680 -560 920 1 0 0 0 1 0 0 0 1 95227.dat
1 0 680 -504 820 0 0 1 0 1 0 -1 0 0 4204.dat
1 0 680 -504 1060 1 0 0 0 1 0 0 0 1 4201.dat
1 0 680 -504 1240 -1 0 0 0 1 0 0 0 -1 30181.dat
1 0 580 -504 760 0 0 1 0 1 0 -1 0 0 3006.dat
1 0 580 -504 960 0 0 1 0 1 0 -1 0 0 3006.dat
1 0 780 -504 960 0 0 1 0 1 0 -1 0 0 3006.dat
1 0 780 -504 760 0 0 1 0 1 0 -1 0 0 3006.dat
1 0 580 -504 1120 0 0 1 0 1 0 -1 0 0 2456.dat
1 0 780 -504 1120 0 0 1 0 1 0 -1 0 0 2456.dat
1 0 680 -504 1160 1 0 0 0 1 0 0 0 1 3007.dat
1 0 680 -504 1190 1 0 0 0 1 0 0 0 1 6111.dat
1 308 680 -648 620 1 0 0 0 1 0 0 0 1 6067.dat
1 308 680 -656 620 0 0 1 0 1 0 -1 0 0 2538c.dat
1 30009 680 -632 660 1 0 0 0 1 0 0 0 1 3028.dat
1 30009 680 -632 780 1 0 0 0 1 0 0 0 1 3028.dat
1 30009 680 -632 900 1 0 0 0 1 0 0 0 1 3028.dat
1 30009 680 -632 1020 1 0 0 0 1 0 0 0 1 3028.dat
1 30009 680 -632 1140 1 0 0 0 1 0 0 0 1 3028.dat
1 0 680 -560 600 1 0 0 0 1 0 0 0 1 95227.dat
1 72 540 -672 620 0 0 1 0 1 0 -1 0 0 69729.dat
1 72 820 -672 620 0 0 1 0 1 0 -1 0 0 69729.dat
1 0 680 -504 580 1 0 0 0 1 0 0 0 1 4201.dat
1 0 580 -504 600 0 0 1 0 1 0 -1 0 0 2456.dat
1 0 780 -504 600 0 0 1 0 1 0 -1 0 0 2456.dat
1 0 580 -504 520 1 0 0 0 1 0 0 0 1 3003.dat
1 0 780 -504 520 1 0 0 0 1 0 0 0 1 3003.dat
1 30009 680 -632 540 1 0 0 0 1 0 0 0 1 3028.dat
1 30009 680 -632 460 1 0 0 0 1 0 0 0 1 2445.dat
1 308 540 -632 620 0 0 1 0 1 0 -1 0 0 6213.dat
1 308 540 -632 1100 0 0 1 0 1 0 -1 0 0 6213.dat
1 308 540 -632 980 0 0 1 0 1 0 -1 0 0 6213.dat
1 308 540 -632 860 0 0 1 0 1 0 -1 0 0 6213.dat
1 308 540 -632 740 0 0 1 0 1 0 -1 0 0 6213.dat
1 308 540 -632 500 0 0 1 0 1 0 -1 0 0 6213.dat
1 308 820 -632 620 0 0 1 0 1 0 -1 0 0 6213.dat
1 308 820 -632 1100 0 0 1 0 1 0 -1 0 0 6213.dat
1 308 820 -632 980 0 0 1 0 1 0 -1 0 0 6213.dat
1 308 820 -632 860 0 0 1 0 1 0 -1 0 0 6213.dat
1 308 820 -632 740 0 0 1 0 1 0 -1 0 0 6213.dat
1 308 820 -632 500 0 0 1 0 1 0 -1 0 0 6213.dat
1 83 680 -512 320 1 0 0 0 1 0 0 0 1 3022.dat
1 83 680 -536 310 1 0 0 0 1 0 0 0 1 3660b.dat
1 83 680 -560 290 1 0 0 0 1 0 0 0 1 3660b.dat
1 83 680 -584 270 1 0 0 0 1 0 0 0 1 3660b.dat
1 83 680 -608 250 1 0 0 0 1 0 0 0 1 3747b.dat
1 83 680 -632 210 1 0 0 0 1 0 0 0 1 3747b.dat
1 83 680 -656 200 1 0 0 0 1 0 0 0 1 43713.dat
1 83 680 -664 110 1 0 0 0 1 0 0 0 1 48336.dat
1 83 680 -684 48 1 0 0 0 -0.5 0.866025 0 -0.866025 -0.5 48457.dat
1 83 680 -747 -51.3398 1 0 0 0 0.866025 0.5 0 -0.5 0.866025 42445.dat
1 0 680 -856 450 0 1 0 0 0 -1 -1 0 0 85651.dat
1 0 680 -1240 890 1 0 0 0 1 0 0 0 1 36069b.dat
1 0 686 -888 960 0 -1 0 0 0 -1 1 0 0 u66.dat
1 19 606.5065 -940.9302 920 0 0.984808 -0.173647 0 0.173647 0.984808 1 0 0 2541.dat
1 19 753.4935 -940.9303 920 0 0.984808 0.173648 0 -0.173648 0.984808 1 0 0 2541.dat
1 308 820 -656 1100 0 0 1 0 1 0 -1 0 0 2456.dat
1 308 820 -656 980 0 0 1 0 1 0 -1 0 0 2456.dat
1 308 820 -656 860 0 0 1 0 1 0 -1 0 0 2456.dat
1 308 820 -656 740 0 0 1 0 1 0 -1 0 0 2456.dat
1 308 820 -656 620 0 0 1 0 1 0 -1 0 0 2456.dat
1 308 820 -656 500 0 0 1 0 1 0 -1 0 0 2456.dat
1 308 820 -656 1180 0 0 1 0 1 0 -1 0 0 30145.dat
1 308 540 -656 1100 0 0 1 0 1 0 -1 0 0 2456.dat
1 308 540 -656 980 0 0 1 0 1 0 -1 0 0 2456.dat
1 308 540 -656 860 0 0 1 0 1 0 -1 0 0 2456.dat
1 308 540 -656 740 0 0 1 0 1 0 -1 0 0 2456.dat
1 308 540 -656 620 0 0 1 0 1 0 -1 0 0 2456.dat
1 308 540 -656 500 0 0 1 0 1 0 -1 0 0 2456.dat
1 72 820 -672 1110 1 0 0 0 1 0 0 0 1 85984.dat
1 308 820 -680 1160 0 0 1 0 1 0 -1 0 0 3001.dat
1 72 820 -688 1130 1 0 0 0 1 0 0 0 1 3069b.dat
1 308 820 -688 1170 0 0 1 0 1 0 -1 0 0 3021.dat
1 308 820 -664 620 0 0 1 0 1 0 -1 0 0 3795.dat
1 308 820 -664 740 0 0 1 0 1 0 -1 0 0 3795.dat
1 308 820 -664 860 0 0 1 0 1 0 -1 0 0 3795.dat
1 308 820 -664 980 0 0 1 0 1 0 -1 0 0 3795.dat
1 308 820 -664 1080 0 0 1 0 1 0 -1 0 0 3020.dat
1 308 820 -672 1110 1 0 0 0 1 0 0 0 1 3023a.dat
1 308 820 -664 500 0 0 1 0 1 0 -1 0 0 3795.dat
1 308 820 -680 420 0 0 1 0 1 0 -1 0 0 30145.dat
1 308 730 -656 280 1 0 0 0 1 0 0 0 1 42023.dat
1 308 630 -656 280 1 0 0 0 1 0 0 0 1 42023.dat
1 308 750 -656 290 1 0 0 0 1 0 0 0 1 13547.dat
1 308 610 -656 290 1 0 0 0 1 0 0 0 1 13547.dat
1 308 770 -648 270 1 0 0 0 1 0 0 0 1 24201.dat
1 308 590 -648 270 1 0 0 0 1 0 0 0 1 24201.dat
1 308 770 -656 310 0 0 -1 0 1 0 1 0 0 2357.dat
1 308 590 -656 310 1 0 0 0 1 0 0 0 1 2357.dat
1 308 800 -656 340 1 0 0 0 1 0 0 0 1 87620.dat
1 308 560 -656 340 0 0 1 0 1 0 -1 0 0 87620.dat
1 308 540 -680 420 0 0 1 0 1 0 -1 0 0 30145.dat
0 !LEOCAD PIECE PIVOT  0 0 0 1 0 0 0 1 0 0 0 1
1 308 820 -656 380 1 0 0 0 1 0 0 0 1 3003.dat
0 !LEOCAD PIECE PIVOT  0 0 0 1 0 0 0 1 0 0 0 1
1 308 540 -656 380 1 0 0 0 1 0 0 0 1 3003.dat
0 !LEOCAD PIECE PIVOT  0 0 0 1 0 0 0 1 0 0 0 1
1 308 540 -680 380 1 0 0 0 1 0 0 0 1 3003.dat
0 !LEOCAD PIECE PIVOT  0 0 0 1 0 0 0 1 0 0 0 1
1 308 820 -680 380 1 0 0 0 1 0 0 0 1 3003.dat
1 308 800 -680 340 1 0 0 0 1 0 0 0 1 87620.dat
1 308 770 -680 310 0 0 -1 0 1 0 1 0 0 2357.dat
1 308 560 -680 340 0 0 1 0 1 0 -1 0 0 87620.dat
1 308 590 -680 310 1 0 0 0 1 0 0 0 1 2357.dat
1 83 680 -632 250 0 0 -1 0 1 0 1 0 0 3002.dat
1 83 680 -640 240 1 0 0 0 1 0 0 0 1 3020.dat
1 83 680 -640 270 1 0 0 0 1 0 0 0 1 3710.dat
1 30009 570 -640 350 1 0 0 0 1 0 0 0 1 2420.dat
1 30009 790 -640 350 0 0 -1 0 1 0 1 0 0 2420.dat
1 308 770 -648 290 1 0 0 0 1 0 0 0 1 3024.dat
1 308 590 -648 290 1 0 0 0 1 0 0 0 1 3024.dat
1 308 600 -656 280 1 0 0 0 1 0 0 0 1 3022.dat
1 308 760 -656 280 1 0 0 0 1 0 0 0 1 3022.dat
1 308 630 -664 200 0 0 1 0 1 0 -1 0 0 88072.dat
1 308 730 -664 200 0 0 -1 0 1 0 1 0 0 88072.dat
1 15 610 -696 200 0 0 1 0 1 0 -1 0 0 3626bpaq.dat
1 15 750 -696 200 0 0 -1 0 1 0 1 0 0 3626bpaq.dat
1 0 568 -664 280 0 1 0 0 0 -1 -1 0 0 95354.dat
1 308 590 -664 280 0 0 1 0 1 0 -1 0 0 14704.dat
1 308 770 -664 280 0 0 -1 0 1 0 1 0 0 3023b.dat
1 72 540 -672 1110 1 0 0 0 1 0 0 0 1 85984.dat
1 308 540 -680 1160 0 0 1 0 1 0 -1 0 0 3001.dat
1 72 540 -688 1130 1 0 0 0 1 0 0 0 1 3069b.dat
1 308 540 -688 1170 0 0 1 0 1 0 -1 0 0 3021.dat
1 308 540 -664 620 0 0 1 0 1 0 -1 0 0 3795.dat
1 308 540 -664 740 0 0 1 0 1 0 -1 0 0 3795.dat
1 308 540 -664 860 0 0 1 0 1 0 -1 0 0 3795.dat
1 308 540 -664 980 0 0 1 0 1 0 -1 0 0 3795.dat
1 308 540 -664 1080 0 0 1 0 1 0 -1 0 0 3020.dat
1 308 540 -672 1110 1 0 0 0 1 0 0 0 1 3023a.dat
1 308 540 -664 500 0 0 1 0 1 0 -1 0 0 3795.dat
1 308 820 -680 1220 0 0 1 0 1 0 -1 0 0 30145.dat
1 308 820 -704 1260 0 0 1 0 1 0 -1 0 0 30145.dat
1 308 820 -752 1320 0 0 1 0 1 0 -1 0 0 30145.dat
1 308 760 -704 1360 0 0 -1 0 1 0 1 0 0 2577.dat
1 308 760 -728 1360 0 0 -1 0 1 0 1 0 0 2577.dat
1 308 760 -752 1360 0 0 -1 0 1 0 1 0 0 2577.dat
1 308 760 -776 1360 0 0 -1 0 1 0 1 0 0 2577.dat
1 308 600 -704 1360 -1 0 0 0 1 0 0 0 -1 2577.dat
1 308 600 -728 1360 -1 0 0 0 1 0 0 0 -1 2577.dat
1 308 600 -752 1360 -1 0 0 0 1 0 0 0 -1 2577.dat
1 308 600 -776 1360 -1 0 0 0 1 0 0 0 -1 2577.dat
1 308 560 -784 1400 -1 0 0 0 1 0 0 0 -1 30565.dat
1 308 800 -784 1400 0 0 -1 0 1 0 1 0 0 30565.dat
1 308 820 -712 1220 1 0 0 0 1 0 0 0 1 3022.dat
1 308 820 -712 1270 0 0 1 0 1 0 -1 0 0 3021.dat
1 308 820 -784 1330 0 0 1 0 1 0 -1 0 0 3021.dat
1 308 820 -776 1330 0 0 -1 0 1 0 1 0 0 3002.dat
1 308 820 -704 1220 0 0 1 0 1 0 -1 0 0 3003.dat
1 308 820 -736 1270 0 0 1 0 1 0 -1 0 0 3002.dat
1 308 820 -704 1290 1 0 0 0 1 0 0 0 1 22886.dat
1 308 820 -752 1350 1 0 0 0 1 0 0 0 1 22886.dat
1 308 540 -656 1330 0 0 -1 0 1 0 1 0 0 3002.dat
1 308 540 -680 1330 0 0 -1 0 1 0 1 0 0 3002.dat
1 308 540 -656 1180 0 0 1 0 1 0 -1 0 0 30145.dat
1 308 540 -680 1220 0 0 1 0 1 0 -1 0 0 30145.dat
1 308 540 -704 1260 0 0 1 0 1 0 -1 0 0 30145.dat
1 308 540 -752 1320 0 0 1 0 1 0 -1 0 0 30145.dat
1 308 540 -712 1220 1 0 0 0 1 0 0 0 1 3022.dat
1 308 540 -712 1270 0 0 1 0 1 0 -1 0 0 3021.dat
1 308 540 -784 1330 0 0 1 0 1 0 -1 0 0 3021.dat
1 308 540 -776 1330 0 0 -1 0 1 0 1 0 0 3002.dat
1 308 540 -704 1220 0 0 1 0 1 0 -1 0 0 3003.dat
1 308 540 -736 1270 0 0 1 0 1 0 -1 0 0 3002.dat
1 308 540 -704 1290 1 0 0 0 1 0 0 0 1 22886.dat
1 308 540 -752 1350 1 0 0 0 1 0 0 0 1 22886.dat
1 308 710 -720 1210 0.5 0 -0.866025 0 1 0 0.866025 0 0.5 64390.dat
1 308 760 -664 1210 1 0 0 0 1 0 0 0 1 3010.dat
1 308 730 -672 1210 0 0 1 0 1 0 -1 0 0 4085b.dat
1 308 760 -696 1210 1 0 0 0 1 0 0 0 1 3010.dat
1 308 760 -704 1210 1 0 0 0 1 0 0 0 1 3710.dat
1 308 730 -720 1210 0 0 1 0 1 0 -1 0 0 4085b.dat
1 308 770 -720 1210 1 0 0 0 1 0 0 0 1 3623.dat
1 308 770 -672 1210 1 0 0 0 1 0 0 0 1 3623.dat
1 308 760 -744 1210 1 0 0 0 1 0 0 0 1 3010.dat
1 308 760 -712 1210 1 0 0 0 1 0 0 0 1 3710.dat
1 308 680 -784 1210 -1 0 0 0 1 0 0 0 -1 92950.dat
1 308 600 -712 1210 1 0 0 0 1 0 0 0 1 49311.dat
1 308 600 -736 1210 1 0 0 0 1 0 0 0 1 3010.dat
1 308 600 -760 1210 1 0 0 0 1 0 0 0 1 3010.dat
1 308 760 -752 1210 1 0 0 0 1 0 0 0 1 3710.dat
1 308 760 -760 1210 1 0 0 0 1 0 0 0 1 3710.dat
1 308 590 -784 1210 1 0 0 0 1 0 0 0 1 3622.dat
1 308 790 -784 1210 1 0 0 0 1 0 0 0 1 3005.dat
1 308 760 -784 1210 1 0 0 0 1 0 0 0 1 3023b.dat
1 308 760 -768 1210 1 0 0 0 1 0 0 0 1 3023b.dat
1 72 540 -672 450 -1 0 0 0 1 0 0 0 -1 85984.dat
1 72 540 -672 470 -1 0 0 0 1 0 0 0 -1 3069b.dat
1 72 540 -688 400 0 0 1 0 1 0 -1 0 0 87079.dat
1 72 550 -688 330 1 0 0 0 1 0 0 0 1 27263.dat
1 72 590 -688 310 1 0 0 0 1 0 0 0 1 14719.dat
1 308 540 -672 450 -1 0 0 0 1 0 0 0 -1 3023b.dat
1 308 740 -680 260 0 0 1 0 1 0 -1 0 0 3001.dat
1 308 620 -680 260 0 0 1 0 1 0 -1 0 0 3001.dat
1 72 620 -688 260 0 0 1 0 1 0 -1 0 0 87079.dat
1 308 590 -672 280 0 0 1 0 1 0 -1 0 0 3023b.dat
1 308 590 -680 280 0 0 1 0 1 0 -1 0 0 3023b.dat
1 308 630 -672 200 0 0 1 0 1 0 -1 0 0 3023b.dat
1 308 630 -680 200 0 0 1 0 1 0 -1 0 0 3023b.dat
1 308 730 -672 200 0 0 1 0 1 0 -1 0 0 3023b.dat
1 308 730 -680 200 0 0 1 0 1 0 -1 0 0 3023b.dat
1 72 590 -688 280 0 0 1 0 1 0 -1 0 0 3069b.dat
1 72 630 -688 200 0 0 1 0 1 0 -1 0 0 3069b.dat
1 308 770 -672 280 0 0 1 0 1 0 -1 0 0 3023b.dat
1 308 770 -680 280 0 0 1 0 1 0 -1 0 0 3023b.dat
1 72 770 -688 280 0 0 1 0 1 0 -1 0 0 3069b.dat
1 72 730 -688 200 0 0 1 0 1 0 -1 0 0 3069b.dat
1 72 740 -688 260 0 0 1 0 1 0 -1 0 0 87079.dat
1 72 770 -688 310 0 0 -1 0 1 0 1 0 0 14719.dat
1 72 810 -688 330 0 0 -1 0 1 0 1 0 0 27263.dat
1 72 820 -688 400 0 0 1 0 1 0 -1 0 0 87079.dat
1 72 820 -672 450 -1 0 0 0 1 0 0 0 -1 85984.dat
1 72 820 -672 520 0 0 1 0 1 0 -1 0 0 87079.dat
1 72 820 -672 470 -1 0 0 0 1 0 0 0 -1 3069b.dat
1 308 820 -672 450 -1 0 0 0 1 0 0 0 -1 3023b.dat
1 86 496.0538 -668.1824 540 -0.981627 0.190809 0 0.190809 0.981627 0 0 0 -1 69729.dat
0 !LEOCAD PIECE PIVOT  -50 -32 0 1 0 0 0 1 0 0 0 1
1 86 496.0538 -668.1824 500 -0.981627 0.190809 0 0.190809 0.981627 0 0 0 -1 69729.dat
1 86 378.2563 -645.2847 500 -0.981627 0.190809 0 0.190809 0.981627 0 0 0 -1 69729.dat
1 86 378.2561 -645.2851 540 -0.981627 0.190809 0 0.190809 0.981627 0 0 0 -1 69729.dat
1 86 260.4588 -622.3876 500 -0.981627 0.190809 0 0.190809 0.981627 0 0 0 -1 69729.dat
1 86 260.4588 -622.3876 540 -0.981627 0.190809 0 0.190809 0.981627 0 0 0 -1 69729.dat
1 308 190 -592 500 0 0 1 0 1 0 -1 0 0 85984.dat
1 308 190 -592 540 0 0 1 0 1 0 -1 0 0 85984.dat
1 308 210 -600 520 0 0 1 0 1 0 -1 0 0 3710.dat
1 308 570 -656 500 0 0 -1 0 1 0 1 0 0 85984.dat
1 308 570 -656 540 0 0 -1 0 1 0 1 0 0 85984.dat
1 308 590 -640 540 0 0 -1 0 1 0 1 0 0 85984.dat
1 308 590 -640 500 0 0 -1 0 1 0 1 0 0 85984.dat
1 308 570 -648 520 0 0 1 0 1 0 -1 0 0 3710.dat
1 308 570 -656 520 0 0 1 0 1 0 -1 0 0 3710.dat
1 72 550 -672 520 0 0 1 0 1 0 -1 0 0 2431.dat
1 6 760 -640 1140 1 0 0 0 1 0 0 0 1 87079.dat
1 6 740 -640 1180 1 0 0 0 1 0 0 0 1 69729.dat
1 6 660 -640 1140 1 0 0 0 1 0 0 0 1 69729.dat
1 6 620 -640 1180 1 0 0 0 1 0 0 0 1 69729.dat
1 6 580 -640 1140 1 0 0 0 1 0 0 0 1 3068b.dat
1 6 780 -640 1100 1 0 0 0 1 0 0 0 1 3068b.dat
1 6 720 -640 1100 1 0 0 0 1 0 0 0 1 87079.dat
1 6 620 -640 1020 1 0 0 0 1 0 0 0 1 69729.dat
1 6 740 -640 1060 1 0 0 0 1 0 0 0 1 87079.dat
1 6 590 -640 1060 1 0 0 0 1 0 0 0 1 26603.dat
1 6 660 -640 1060 1 0 0 0 1 0 0 0 1 87079.dat
1 6 790 -640 1060 0 0 1 0 1 0 -1 0 0 3069b.dat
1 6 710 -640 1020 1 0 0 0 1 0 0 0 1 26603.dat
1 6 620 -640 1100 1 0 0 0 1 0 0 0 1 69729.dat
1 6 770 -640 1020 1 0 0 0 1 0 0 0 1 26603.dat
1 6 620 -640 980 1 0 0 0 1 0 0 0 1 69729.dat
1 6 740 -640 980 1 0 0 0 1 0 0 0 1 69729.dat
1 6 720 -640 940 1 0 0 0 1 0 0 0 1 87079.dat
1 6 620 -640 940 1 0 0 0 1 0 0 0 1 69729.dat
1 6 780 -640 940 1 0 0 0 1 0 0 0 1 3068b.dat
1 6 590 -640 900 1 0 0 0 1 0 0 0 1 26603.dat
1 6 630 -640 900 0 0 1 0 1 0 -1 0 0 3069b.dat
1 6 660 -640 900 1 0 0 0 1 0 0 0 1 3068b.dat
1 6 740 -640 900 1 0 0 0 1 0 0 0 1 69729.dat
1 6 580 -640 860 1 0 0 0 1 0 0 0 1 3068b.dat
1 6 660 -640 860 1 0 0 0 1 0 0 0 1 69729.dat
1 6 760 -640 860 1 0 0 0 1 0 0 0 1 87079.dat
1 6 790 -640 820 0 0 1 0 1 0 -1 0 0 3069b.dat
1 6 740 -640 820 1 0 0 0 1 0 0 0 1 87079.dat
1 6 660 -640 820 1 0 0 0 1 0 0 0 1 87079.dat
1 6 590 -640 820 1 0 0 0 1 0 0 0 1 26603.dat
1 6 740 -640 780 1 0 0 0 1 0 0 0 1 69729.dat
1 6 620 -640 780 1 0 0 0 1 0 0 0 1 69729.dat
1 6 710 -640 700 1 0 0 0 1 0 0 0 1 26603.dat
1 6 620 -640 700 1 0 0 0 1 0 0 0 1 69729.dat
1 6 770 -640 700 1 0 0 0 1 0 0 0 1 26603.dat
1 6 760 -640 740 1 0 0 0 1 0 0 0 1 87079.dat
1 6 660 -640 740 1 0 0 0 1 0 0 0 1 69729.dat
1 6 580 -640 740 1 0 0 0 1 0 0 0 1 3068b.dat
1 6 740 -640 660 1 0 0 0 1 0 0 0 1 87079.dat
1 6 660 -640 660 1 0 0 0 1 0 0 0 1 87079.dat
1 6 590 -640 660 1 0 0 0 1 0 0 0 1 26603.dat
1 6 790 -640 660 0 0 1 0 1 0 -1 0 0 3069b.dat
1 6 630 -640 620 0 0 1 0 1 0 -1 0 0 3069b.dat
1 6 740 -640 620 1 0 0 0 1 0 0 0 1 69729.dat
1 6 660 -640 620 1 0 0 0 1 0 0 0 1 3068b.dat
1 6 590 -640 620 1 0 0 0 1 0 0 0 1 26603.dat
1 6 620 -640 580 1 0 0 0 1 0 0 0 1 69729.dat
1 6 740 -640 580 1 0 0 0 1 0 0 0 1 69729.dat
1 6 620 -640 500 1 0 0 0 1 0 0 0 1 69729.dat
1 6 740 -640 540 1 0 0 0 1 0 0 0 1 87079.dat
1 6 590 -640 540 1 0 0 0 1 0 0 0 1 26603.dat
1 6 660 -640 540 1 0 0 0 1 0 0 0 1 87079.dat
1 6 790 -640 540 0 0 1 0 1 0 -1 0 0 3069b.dat
1 6 710 -640 500 1 0 0 0 1 0 0 0 1 26603.dat
1 6 770 -640 500 1 0 0 0 1 0 0 0 1 26603.dat
1 6 760 -640 460 1 0 0 0 1 0 0 0 1 87079.dat
1 6 660 -640 460 1 0 0 0 1 0 0 0 1 69729.dat
1 6 580 -640 460 1 0 0 0 1 0 0 0 1 3068b.dat
1 6 620 -640 420 1 0 0 0 1 0 0 0 1 69729.dat
1 6 710 -640 420 1 0 0 0 1 0 0 0 1 26603.dat
1 6 770 -640 420 1 0 0 0 1 0 0 0 1 26603.dat
1 6 590 -640 390 -1 0 0 0 1 0 0 0 -1 14719.dat
1 6 770 -640 390 0 0 1 0 1 0 -1 0 0 14719.dat
1 6 660 -640 380 1 0 0 0 1 0 0 0 1 69729.dat
1 6 740 -640 380 1 0 0 0 1 0 0 0 1 3068b.dat
1 6 730 -640 340 1 0 0 0 1 0 0 0 1 26603.dat
1 6 670 -640 340 1 0 0 0 1 0 0 0 1 26603.dat
1 6 620 -640 340 1 0 0 0 1 0 0 0 1 3068b.dat
1 6 710 -640 310 0 0 1 0 1 0 -1 0 0 14719.dat
1 6 650 -640 310 -1 0 0 0 1 0 0 0 -1 14719.dat
1 6 680 -640 300 1 0 0 0 1 0 0 0 1 3068b.dat
1 6 790 -648 350 0 0 -1 0 1 0 1 0 0 14719.dat
1 6 570 -648 350 1 0 0 0 1 0 0 0 1 14719.dat
1 308 540 -760 1220 -1 0 0 0 1 0 0 0 -1 3003.dat
1 72 540 -760 1190 1 0 0 0 1 0 0 0 1 3004.dat
1 308 820 -760 1220 -1 0 0 0 1 0 0 0 -1 3003.dat
1 72 820 -760 1190 1 0 0 0 1 0 0 0 1 3004.dat
1 72 600 -856 1360 -1 0 0 0 1 0 0 0 -1 27507.dat
1 72 760 -856 1360 0 0 -1 0 1 0 1 0 0 27507.dat
1 72 830 -856 1280 0 0 1 0 1 0 -1 0 0 4162.dat
1 72 680 -856 1430 1 0 0 0 1 0 0 0 1 4162.dat
1 72 530 -856 1280 0 0 1 0 1 0 -1 0 0 4162.dat
1 72 620 -856 1210 -1 0 0 0 1 0 0 0 -1 4162.dat
1 370 760 -768 1170 1 0 0 0 1 0 0 0 1 2431.dat
1 370 760 -744 1150 1 0 0 0 1 0 0 0 1 2431.dat
1 370 760 -720 1130 1 0 0 0 1 0 0 0 1 2431.dat
1 370 760 -696 1110 1 0 0 0 1 0 0 0 1 2431.dat
1 370 760 -672 1090 1 0 0 0 1 0 0 0 1 2431.dat
1 370 760 -792 1190 1 0 0 0 1 0 0 0 1 2431.dat
1 370 760 -800 1210 -1 0 0 0 1 0 0 0 -1 6636.dat
1 370 740 -800 1230 -1 0 0 0 1 0 0 0 -1 4162.dat
1 370 620 -800 1250 -1 0 0 0 1 0 0 0 -1 4162.dat
1 370 620 -800 1270 -1 0 0 0 1 0 0 0 -1 4162.dat
1 370 700 -800 1290 -1 0 0 0 1 0 0 0 -1 4162.dat
1 370 680 -800 1310 -1 0 0 0 1 0 0 0 -1 4162.dat
1 370 700 -800 1330 -1 0 0 0 1 0 0 0 -1 4162.dat
1 370 640 -800 1350 -1 0 0 0 1 0 0 0 -1 4162.dat
1 370 740 -800 1370 -1 0 0 0 1 0 0 0 -1 4162.dat
1 370 620 -800 1390 -1 0 0 0 1 0 0 0 -1 4162.dat
1 370 720 -800 1410 -1 0 0 0 1 0 0 0 -1 4162.dat
1 370 790 -800 1310 -1 0 0 0 1 0 0 0 -1 63864.dat
1 370 570 -800 1310 -1 0 0 0 1 0 0 0 -1 63864.dat
1 370 600 -800 1230 -1 0 0 0 1 0 0 0 -1 6636.dat
1 370 760 -800 1250 -1 0 0 0 1 0 0 0 -1 6636.dat
1 370 760 -800 1270 -1 0 0 0 1 0 0 0 -1 6636.dat
1 370 600 -800 1370 -1 0 0 0 1 0 0 0 -1 6636.dat
1 370 760 -800 1390 -1 0 0 0 1 0 0 0 -1 6636.dat
1 370 580 -800 1330 -1 0 0 0 1 0 0 0 -1 2431.dat
1 370 580 -800 1290 -1 0 0 0 1 0 0 0 -1 2431.dat
1 370 750 -800 1350 -1 0 0 0 1 0 0 0 -1 63864.dat
1 370 800 -800 1350 -1 0 0 0 1 0 0 0 -1 3069b.dat
1 370 800 -800 1330 -1 0 0 0 1 0 0 0 -1 3069b.dat
1 370 800 -800 1290 -1 0 0 0 1 0 0 0 -1 3069b.dat
1 370 550 -800 1350 -1 0 0 0 1 0 0 0 -1 3070b.dat
1 370 600 -800 1410 -1 0 0 0 1 0 0 0 -1 2431.dat
1 308 620 -800 1210 -1 0 0 0 1 0 0 0 -1 3460.dat
1 308 680 -800 1430 1 0 0 0 1 0 0 0 1 3460.dat
1 308 600 -800 1360 -1 0 0 0 1 0 0 0 -1 80015.dat
1 308 760 -800 1360 0 0 -1 0 1 0 1 0 0 80015.dat
1 308 530 -800 1310 0 0 -1 0 1 0 1 0 0 3623.dat
1 308 530 -800 1240 0 0 1 0 1 0 -1 0 0 3710.dat
1 308 830 -800 1310 0 0 -1 0 1 0 1 0 0 3623.dat
1 308 830 -800 1240 0 0 1 0 1 0 -1 0 0 3710.dat
1 86 50 -633.9808 1115 0 0 1 -0.866025 0.5 0 -0.5 -0.866025 0 87079.dat
1 308 -10 -656 300 0 0 1 0 1 0 -1 0 0 6079.dat
1 308 0 -552 220 1 0 0 0 1 0 0 0 1 6143.dat
1 308 0 -576 220 1 0 0 0 1 0 0 0 1 6143.dat
1 6 0 -592 610 1 0 0 0 1 0 0 0 1 2412a.dat
1 6 40 -592 610 1 0 0 0 1 0 0 0 1 2412a.dat
1 6 80 -592 610 1 0 0 0 1 0 0 0 1 2412a.dat
1 6 120 -592 610 1 0 0 0 1 0 0 0 1 2412a.dat
1 6 160 -592 610 1 0 0 0 1 0 0 0 1 2412a.dat
1 6 200 -592 610 1 0 0 0 1 0 0 0 1 2412a.dat
1 6 0 -592 470 1 0 0 0 1 0 0 0 1 2412a.dat
1 6 40 -592 470 1 0 0 0 1 0 0 0 1 2412a.dat
1 6 80 -592 470 1 0 0 0 1 0 0 0 1 2412a.dat
1 6 120 -592 470 1 0 0 0 1 0 0 0 1 2412a.dat
1 6 160 -592 470 1 0 0 0 1 0 0 0 1 2412a.dat
1 6 200 -592 470 1 0 0 0 1 0 0 0 1 2412a.dat
1 6 0 -592 330 1 0 0 0 1 0 0 0 1 2412a.dat
1 6 40 -592 330 1 0 0 0 1 0 0 0 1 2412a.dat
1 6 80 -592 330 1 0 0 0 1 0 0 0 1 2412a.dat
1 6 120 -592 330 1 0 0 0 1 0 0 0 1 2412a.dat
1 6 160 -592 330 1 0 0 0 1 0 0 0 1 2412a.dat
1 6 200 -592 330 1 0 0 0 1 0 0 0 1 2412a.dat
1 6 0 -592 750 1 0 0 0 1 0 0 0 1 2412a.dat
1 6 40 -592 750 1 0 0 0 1 0 0 0 1 2412a.dat
1 6 80 -592 750 1 0 0 0 1 0 0 0 1 2412a.dat
1 6 120 -592 750 1 0 0 0 1 0 0 0 1 2412a.dat
1 6 160 -592 750 1 0 0 0 1 0 0 0 1 2412a.dat
1 6 200 -592 750 1 0 0 0 1 0 0 0 1 2412a.dat
1 6 0 -592 890 1 0 0 0 1 0 0 0 1 2412a.dat
1 6 40 -592 890 1 0 0 0 1 0 0 0 1 2412a.dat
1 6 80 -592 890 1 0 0 0 1 0 0 0 1 2412a.dat
1 6 120 -592 890 1 0 0 0 1 0 0 0 1 2412a.dat
1 6 160 -592 890 1 0 0 0 1 0 0 0 1 2412a.dat
1 6 200 -592 890 1 0 0 0 1 0 0 0 1 2412a.dat
1 6 0 -592 1030 1 0 0 0 1 0 0 0 1 2412a.dat
1 6 40 -592 1030 1 0 0 0 1 0 0 0 1 2412a.dat
1 6 80 -592 1030 1 0 0 0 1 0 0 0 1 2412a.dat
1 6 120 -592 1030 1 0 0 0 1 0 0 0 1 2412a.dat
1 6 160 -592 1030 1 0 0 0 1 0 0 0 1 2412a.dat
1 6 200 -592 1030 1 0 0 0 1 0 0 0 1 2412a.dat
1 6 -120 -584 980 1 0 0 0 1 0 0 0 1 3033.dat
1 6 -120 -584 1100 1 0 0 0 1 0 0 0 1 3033.dat
1 19 -240 -584 1040 0 0 -1 0 1 0 1 0 0 2445.dat
1 19 -380 -616 920 0 0 1 0 1 0 -1 0 0 30072.dat
1 19 -180 -616 600 1 0 0 0 1 0 0 0 1 4204.dat
1 19 -420 -616 600 1 0 0 0 1 0 0 0 1 4201.dat
1 86 -230 -592 1100 0 0 -1 0 1 0 1 0 0 6636.dat
1 86 -230 -592 980 0 0 -1 0 1 0 1 0 0 6636.dat
1 19 -250 -592 1040 0 0 -1 0 1 0 1 0 0 60479.dat
1 19 -250 -600 1040 0 0 -1 0 1 0 1 0 0 60479.dat
1 86 -250 -608 1100 0 0 -1 0 1 0 1 0 0 6636.dat
1 86 -250 -608 980 0 0 -1 0 1 0 1 0 0 6636.dat
1 86 -270 -624 1080 0 0 -1 0 1 0 1 0 0 6636.dat
1 86 -320 -624 1150 -1 0 0 0 1 0 0 0 -1 6636.dat
1 86 -440 -624 1150 -1 0 0 0 1 0 0 0 -1 6636.dat
1 19 -160 -616 780 0 0 1 0 1 0 -1 0 0 733.dat
1 19 -40 -616 780 0 0 1 0 1 0 -1 0 0 3006.dat
1 19 -160 -616 900 1 0 0 0 1 0 0 0 1 3006.dat
1 19 -50 -616 890 0 0 -1 0 1 0 1 0 0 85080.dat
1 86 -50 -624 890 0 0 -1 0 1 0 1 0 0 27925.dat
1 308 -60 -640 880 0 0 1 0 1 0 -1 0 0 3941.dat
1 308 -60 -664 880 0 0 1 0 1 0 -1 0 0 3941.dat
1 8 -60 -672 880 0 0 1 0 1 0 -1 0 0 4150.dat
1 370 -120 -624 910 1 0 0 0 1 0 0 0 1 6636.dat
1 370 -220 -624 910 1 0 0 0 1 0 0 0 1 2431.dat
1 86 -270 -624 960 0 0 -1 0 1 0 1 0 0 6636.dat
1 19 -510 -664 1080 0 0 -1 0 1 0 1 0 0 15533.dat
1 19 -540 -688 1050 1 0 0 0 1 0 0 0 1 15533.dat
1 19 -510 -640 1100 0 0 1 0 1 0 -1 0 0 3010.dat
1 19 -610 -640 1100 0 0 1 0 1 0 -1 0 0 3010.dat
1 19 -560 -640 1150 1 0 0 0 1 0 0 0 1 3009.dat
1 19 -560 -640 1050 1 0 0 0 1 0 0 0 1 3009.dat
1 19 -510 -688 1100 0 0 1 0 1 0 -1 0 0 3010.dat
1 19 -510 -712 1100 0 0 -1 0 1 0 1 0 0 98283.dat
1 147 -510 -736 1120 0 0 1 0 1 0 -1 0 0 30136.dat
1 19 -510 -664 1140 0 0 1 0 1 0 -1 0 0 3004.dat
1 19 -510 -760 1100 0 0 1 0 1 0 -1 0 0 3010.dat
1 19 -510 -784 1080 0 0 -1 0 1 0 1 0 0 15533.dat
1 19 -510 -712 1060 0 0 1 0 1 0 -1 0 0 3004.dat
1 19 -540 -736 1050 1 0 0 0 1 0 0 0 1 15533.dat
1 19 -560 -688 1150 1 0 0 0 1 0 0 0 1 3009.dat
1 19 -510 -736 1070 0 0 -1 0 1 0 1 0 0 87087.dat
1 19 -510 -736 1090 0 0 1 0 1 0 -1 0 0 3005.dat
1 19 -490 -726 1070 0 -1 0 0 0 1 -1 0 0 6141.dat
1 147 -520 -736 1150 -1 0 0 0 1 0 0 0 -1 98283.dat
1 6 -510 -832 1100 0 0 -1 0 1 0 1 0 0 60592.dat
1 6 -510 -896 1100 0 0 -1 0 1 0 1 0 0 30044.dat
1 0 -510 -872 1100 0 0 -1 0 1 0 1 0 0 30046.dat
1 0 -510 -832 1100 0 0 -1 0 1 0 1 0 0 38320.dat
1 19 -510 -904 1100 0 0 -1 0 1 0 1 0 0 6182.dat
1 19 -510 -848 1130 0 0 -1 0 1 0 1 0 0 73825.dat
1 19 -490 -860.2259 1130 0 -1 0 1 0 0 0 0 1 96910.dat
1 19 -510 -848 1070 0 0 -1 0 1 0 1 0 0 73825.dat
1 19 -490 -860.2259 1070 0 -1 0 1 0 0 0 0 1 96910.dat
1 19 -510 -800 1070 0 0 -1 0 1 0 1 0 0 73825.dat
1 19 -490 -812.2259 1070 0 -1 0 1 0 0 0 0 1 96910.dat
1 19 -510 -800 1130 0 0 -1 0 1 0 1 0 0 73825.dat
1 19 -490 -812.2259 1130 0 -1 0 1 0 0 0 0 1 96910.dat
1 19 -510 -839.8174 1130 1 0 0 0 1 0 0 0 1 3005.dat
1 19 -510 -839.8174 1070 1 0 0 0 1 0 0 0 1 3005.dat
1 19 -510 -904 1050 0 0 -1 0 1 0 1 0 0 2453a.dat
1 19 -510 -904 1150 0 0 -1 0 1 0 1 0 0 2453a.dat
1 19 -510 -792 1070 0 0 -1 0 1 0 1 0 0 3024.dat
1 19 -510 -792 1130 0 0 -1 0 1 0 1 0 0 3024.dat
1 19 -510 -928 1080 0 0 -1 0 1 0 1 0 0 11211.dat
1 19 -510 -928 1120 0 0 -1 0 1 0 1 0 0 11211.dat
1 19 -490 -918 1100 0 -1 0 0 0 -1 1 0 0 96910.dat
1 19 -490 -918 1070 0 -1 0 1 0 0 0 0 1 49668.dat
1 19 -490 -918 1130 0 -1 0 -1 0 0 0 0 -1 49668.dat
1 320 -496.7905 -941.2095 1150 0 -0.866025 -0.5 0 -0.5 0.866025 -1 0 0 3062a.dat
1 320 -496.7905 -941.2095 1110 0 -0.866025 -0.5 0 -0.5 0.866025 -1 0 0 3062a.dat
1 18 -496.7905 -941.2095 1130 0 -0.866025 -0.5 0 -0.5 0.866025 -1 0 0 3062a.dat
1 422 -489.8622 -937.2094 1140 0 -0.866025 -0.5 0 -0.5 0.866025 -1 0 0 77845.dat
1 320 -517.5751 -953.2094 1130 0 -0.866025 -0.5 0 -0.5 0.866025 -1 0 0 3062a.dat
1 422 -517.5751 -953.2094 1100 0 -0.866025 -0.5 0 -0.5 0.866025 -1 0 0 3023b.dat
1 320 -524.5034 -957.2094 1110 0 -0.866025 -0.5 0 -0.5 0.866025 -1 0 0 6141.dat
1 308 -524.5034 -957.2094 1090 0 -0.866025 -0.5 0 -0.5 0.866025 -1 0 0 6141.dat
1 320 -533.1637 -962.2094 1110 0 -0.866025 -0.5 0 -0.5 0.866025 -1 0 0 6141.dat
1 308 -533.1637 -962.2094 1090 0 -0.866025 -0.5 0 -0.5 0.866025 -1 0 0 6141.dat
1 320 -496.7905 -941.2095 1090 0 -0.866025 -0.5 0 -0.5 0.866025 -1 0 0 3062a.dat
1 320 -496.7905 -941.2095 1050 0 -0.866025 -0.5 0 -0.5 0.866025 -1 0 0 3062a.dat
1 422 -489.8622 -937.2094 1060 0 -0.866025 -0.5 0 -0.5 0.866025 -1 0 0 77845.dat
1 4 -496.7905 -941.2095 1070 0 -0.866025 -0.5 0 -0.5 0.866025 -1 0 0 3062a.dat
1 320 -517.5751 -953.2094 1070 0 -0.866025 -0.5 0 -0.5 0.866025 -1 0 0 3062a.dat
1 18 -482.934 -933.2093 1130 0 -0.866025 -0.5 0 -0.5 0.866025 -1 0 0 98138.dat
1 320 -482.934 -933.2093 1170 0 -0.866025 -0.5 0 -0.5 0.866025 -1 0 0 98138.dat
1 320 -482.934 -933.2093 1150 0 -0.866025 -0.5 0 -0.5 0.866025 -1 0 0 98138.dat
1 320 -482.934 -933.2093 1110 0 -0.866025 -0.5 0 -0.5 0.866025 -1 0 0 98138.dat
1 320 -482.934 -933.2093 1090 0 -0.866025 -0.5 0 -0.5 0.866025 -1 0 0 98138.dat
1 320 -482.934 -933.2093 1050 0 -0.866025 -0.5 0 -0.5 0.866025 -1 0 0 98138.dat
1 320 -482.934 -933.2093 1070 0 -0.866025 -0.5 0 -0.5 0.866025 -1 0 0 98138.dat
1 320 -482.934 -933.2093 1030 0 -0.866025 -0.5 0 -0.5 0.866025 -1 0 0 98138.dat
1 6 -560.0283 -832 1149.9601 -1 0 0 0 1 0 0 0 -1 60592.dat
1 6 -560.0283 -896 1149.9601 -1 0 0 0 1 0 0 0 -1 30044.dat
1 0 -560.0283 -872 1149.9601 -1 0 0 0 1 0 0 0 -1 30046.dat
1 0 -560.0283 -832 1149.9601 -1 0 0 0 1 0 0 0 -1 38320.dat
1 19 -560.0283 -904 1149.9601 -1 0 0 0 1 0 0 0 -1 6182.dat
1 19 -590.0281 -848 1149.9602 -1 0 0 0 1 0 0 0 -1 73825.dat
1 19 -590.028 -860.2259 1169.9601 0 0 -1 1 0 0 0 -1 0 96910.dat
1 19 -530.0282 -848 1149.9602 -1 0 0 0 1 0 0 0 -1 73825.dat
1 19 -530.028 -860.2259 1169.9603 0 0 -1 1 0 0 0 -1 0 96910.dat
1 19 -530.0282 -800 1149.9602 -1 0 0 0 1 0 0 0 -1 73825.dat
1 19 -530.028 -812.2259 1169.9603 0 0 -1 1 0 0 0 -1 0 96910.dat
1 19 -590.0281 -800 1149.9602 -1 0 0 0 1 0 0 0 -1 73825.dat
1 19 -590.028 -812.2259 1169.9601 0 0 -1 1 0 0 0 -1 0 96910.dat
1 19 -590.0281 -839.8174 1149.9602 0 0 -1 0 1 0 1 0 0 3005.dat
1 19 -530.0282 -839.8174 1149.9602 0 0 -1 0 1 0 1 0 0 3005.dat
1 19 -530.0282 -792 1149.9602 -1 0 0 0 1 0 0 0 -1 3024.dat
1 19 -590.0281 -792 1149.9602 -1 0 0 0 1 0 0 0 -1 3024.dat
1 19 -540.0281 -928 1149.9602 -1 0 0 0 1 0 0 0 -1 11211.dat
1 19 -580.0282 -928 1149.9602 -1 0 0 0 1 0 0 0 -1 11211.dat
1 19 -560.0284 -918 1169.9602 -1 0 0 0 0 -1 0 -1 0 96910.dat
1 19 -530.028 -918 1169.9603 0 0 -1 1 0 0 0 -1 0 49668.dat
1 19 -590.028 -918 1169.9601 0 0 1 -1 0 0 0 -1 0 49668.dat
1 6 -610.4449 -832 1100 0 0 1 0 1 0 -1 0 0 60592.dat
1 6 -610.4449 -896 1100 0 0 1 0 1 0 -1 0 0 30044.dat
1 0 -610.4449 -872 1100 0 0 1 0 1 0 -1 0 0 30046.dat
1 0 -610.4449 -832 1100 0 0 1 0 1 0 -1 0 0 38320.dat
1 19 -610.4449 -904 1100 0 0 1 0 1 0 -1 0 0 6182.dat
1 19 -610.4449 -848 1070.0001 0 0 1 0 1 0 -1 0 0 73825.dat
1 19 -630.4448 -860.2259 1070 0 1 0 1 0 0 0 0 -1 96910.dat
1 19 -610.4448 -848 1129.9999 0 0 1 0 1 0 -1 0 0 73825.dat
1 19 -630.4448 -860.2259 1129.9999 0 1 0 1 0 0 0 0 -1 96910.dat
1 19 -610.4448 -800 1129.9999 0 0 1 0 1 0 -1 0 0 73825.dat
1 19 -630.4448 -812.2259 1129.9999 0 1 0 1 0 0 0 0 -1 96910.dat
1 19 -610.4449 -800 1070.0001 0 0 1 0 1 0 -1 0 0 73825.dat
1 19 -630.4448 -812.2259 1070 0 1 0 1 0 0 0 0 -1 96910.dat
1 19 -610.4449 -839.8174 1070.0001 -1 0 0 0 1 0 0 0 -1 3005.dat
1 19 -610.4448 -839.8174 1129.9999 -1 0 0 0 1 0 0 0 -1 3005.dat
1 19 -610.4448 -792 1129.9999 0 0 1 0 1 0 -1 0 0 3024.dat
1 19 -610.4449 -792 1070.0001 0 0 1 0 1 0 -1 0 0 3024.dat
1 19 -610.4449 -928 1120.0001 0 0 1 0 1 0 -1 0 0 11211.dat
1 19 -610.4448 -928 1079.9999 0 0 1 0 1 0 -1 0 0 11211.dat
1 19 -630.4448 -918 1100 0 1 0 0 0 -1 -1 0 0 96910.dat
1 19 -630.4448 -918 1129.9999 0 1 0 1 0 0 0 0 -1 49668.dat
1 19 -630.4448 -918 1070 0 1 0 -1 0 0 0 0 1 49668.dat
1 19 -580.0284 -928 1052.6876 1 0 0 0 1 0 0 0 1 11211.dat
1 19 -540.0283 -928 1052.6876 1 0 0 0 1 0 0 0 1 11211.dat
1 19 -560.0281 -918 1032.6876 1 0 0 0 0 -1 0 1 0 96910.dat
1 19 -590.0284 -918 1032.6875 0 0 1 1 0 0 0 1 0 49668.dat
1 19 -530.0285 -918 1032.6877 0 0 -1 -1 0 0 0 1 0 49668.dat
1 320 -560.4449 -992 1100.0001 0 0 1 0 1 0 -1 0 0 3942c.dat
1 320 -622.5139 -941.2095 1049.9999 -0.000001 0.866025 0.500001 0 -0.500001 0.866025 1 0.000001 0 3062a.dat
1 320 -622.5137 -941.2095 1090 -0.000001 0.866025 0.500001 0 -0.500001 0.866025 1 0.000001 0 3062a.dat
1 18 -622.5139 -941.2095 1069.9993 -0.000001 0.866025 0.500001 0 -0.500001 0.866025 1 0.000001 0 3062a.dat
1 422 -629.4419 -937.2094 1059.9994 -0.000001 0.866025 0.500001 0 -0.500001 0.866025 1 0.000001 0 77845.dat
1 320 -601.729 -953.2094 1069.9998 -0.000001 0.866025 0.500001 0 -0.500001 0.866025 1 0.000001 0 3062a.dat
1 422 -601.7289 -953.2094 1100.0001 -0.000001 0.866025 0.500001 0 -0.500001 0.866025 1 0.000001 0 3023b.dat
1 320 -594.8005 -957.2094 1089.9996 -0.000001 0.866025 0.500001 0 -0.500001 0.866025 1 0.000001 0 6141.dat
1 308 -594.8005 -957.2094 1110.0002 -0.000001 0.866025 0.500001 0 -0.500001 0.866025 1 0.000001 0 6141.dat
1 320 -586.1398 -962.2094 1089.9996 -0.000001 0.866025 0.500001 0 -0.500001 0.866025 1 0.000001 0 6141.dat
1 308 -586.141 -962.2094 1110.0001 -0.000001 0.866025 0.500001 0 -0.500001 0.866025 1 0.000001 0 6141.dat
1 320 -622.5138 -941.2095 1109.9999 -0.000001 0.866025 0.500001 0 -0.500001 0.866025 1 0.000001 0 3062a.dat
1 320 -622.5142 -941.2095 1150.0004 -0.000001 0.866025 0.500001 0 -0.500001 0.866025 1 0.000001 0 3062a.dat
1 422 -629.4416 -937.2094 1139.9999 -0.000001 0.866025 0.500001 0 -0.500001 0.866025 1 0.000001 0 77845.dat
1 4 -622.5138 -941.2095 1129.9999 -0.000001 0.866025 0.500001 0 -0.500001 0.866025 1 0.000001 0 3062a.dat
1 320 -601.729 -953.2094 1130.0009 -0.000001 0.866025 0.500001 0 -0.500001 0.866025 1 0.000001 0 3062a.dat
1 18 -636.3707 -933.2093 1070 -0.000001 0.866025 0.500001 0 -0.500001 0.866025 1 0.000001 0 98138.dat
1 320 -636.3705 -933.2093 1029.9998 -0.000001 0.866025 0.500001 0 -0.500001 0.866025 1 0.000001 0 98138.dat
1 320 -636.3705 -933.2093 1049.9993 -0.000001 0.866025 0.500001 0 -0.500001 0.866025 1 0.000001 0 98138.dat
1 320 -636.3702 -933.2093 1089.9998 -0.000001 0.866025 0.500001 0 -0.500001 0.866025 1 0.000001 0 98138.dat
1 320 -636.3701 -933.2093 1110 -0.000001 0.866025 0.500001 0 -0.500001 0.866025 1 0.000001 0 98138.dat
1 320 -636.3703 -933.2093 1150 -0.000001 0.866025 0.500001 0 -0.500001 0.866025 1 0.000001 0 98138.dat
1 320 -636.3704 -933.2093 1130.0005 -0.000001 0.866025 0.500001 0 -0.500001 0.866025 1 0.000001 0 98138.dat
1 320 -636.3701 -933.2093 1170.0002 -0.000001 0.866025 0.500001 0 -0.500001 0.866025 1 0.000001 0 98138.dat
1 19 -510 -928 1150 0 0 1 0 1 0 -1 0 0 3005.dat
1 19 -610 -928 1150 0 0 1 0 1 0 -1 0 0 3005.dat
1 19 -610 -928 1050 0 0 1 0 1 0 -1 0 0 3005.dat
1 19 -510 -928 1050 0 0 1 0 1 0 -1 0 0 3005.dat
1 6 -560.4449 -992 1100.0001 0 0 1 0 1 0 -1 0 0 63965a.dat
1 4 -560.4449 -1096 1100.0001 -1 0 -0.000001 0 1 0 0.000001 0 -1 4495b.dat
1 19 -510 -712 1150 -1 0 0 0 1 0 0 0 -1 2357.dat
1 19 -550 -784 1150 0 0 1 0 1 0 -1 0 0 3005.dat
1 19 -570 -784 1150 0 0 1 0 1 0 -1 0 0 3005.dat
1 19 -590 -784 1150 0 0 1 0 1 0 -1 0 0 3005.dat
1 19 -510 -784 1140 0 0 1 0 1 0 -1 0 0 3004.dat
1 19 -530 -784 1150 0 0 1 0 1 0 -1 0 0 3005.dat
1 19 -610 -784 1100 0 0 1 0 1 0 -1 0 0 3009.dat
1 19 -610 -904 1050 0 0 -1 0 1 0 1 0 0 2453a.dat
1 19 -610 -904 1150 0 0 -1 0 1 0 1 0 0 2453a.dat
1 19 -600 -712 1150 -1 0 0 0 1 0 0 0 -1 98283.dat
1 19 -560 -736 1150 1 0 0 0 1 0 0 0 1 3245a.dat
1 19 -540 -760 1150 -1 0 0 0 1 0 0 0 -1 3010.dat
1 19 -590 -736 1150 -1 0 0 0 1 0 0 0 -1 87087.dat
1 19 -590 -726 1170 1 0 0 0 0 1 0 -1 0 6141.dat
1 19 -580 -664 1150 -1 0 0 0 1 0 0 0 -1 15533.dat
1 19 -530 -664 1150 0 0 1 0 1 0 -1 0 0 3005.dat
1 19 -610 -736 1100 0 0 1 0 1 0 -1 0 0 3009.dat
1 19 -610 -760 1120 0 0 1 0 1 0 -1 0 0 15533.dat
1 19 -560 -760 1050 1 0 0 0 1 0 0 0 1 3009.dat
1 19 -610 -760 1070 0 0 1 0 1 0 -1 0 0 3005.dat
1 19 -590 -760 1150 0 0 1 0 1 0 -1 0 0 3005.dat
1 30009 -580 -856 1050 1 0 0 0 1 0 0 0 1 98283.dat
1 19 -560 -832 1050 1 0 0 0 1 0 0 0 1 49311.dat
1 19 -540 -856 1050 -1 0 0 0 1 0 0 0 -1 3004.dat
1 19 -560 -904 1050 1 0 0 0 1 0 0 0 1 15533.dat
1 19 -560 -880 1050 1 0 0 0 1 0 0 0 1 3010.dat
1 147 -610 -664 1080 0 0 1 0 1 0 -1 0 0 15533.dat
1 147 -540 -712 1050 -1 0 0 0 1 0 0 0 -1 30136.dat
1 19 -610 -712 1130 0 0 1 0 1 0 -1 0 0 14716.dat
1 19 -560 -664 1050 1 0 0 0 1 0 0 0 1 3010.dat
1 19 -610 -688 1080 0 0 1 0 1 0 -1 0 0 3010.dat
1 19 -590 -736 1050 0 0 1 0 1 0 -1 0 0 14716.dat
1 19 -610 -712 1080 0 0 1 0 1 0 -1 0 0 3010.dat
1 19 -570 -712 1050 0 0 1 0 1 0 -1 0 0 3005.dat
1 4 -548.5453 -945.578 1158.7405 1 0 0 0 -0.5 0.866025 0 -0.866025 -0.5 3062a.dat
1 320 -568.5453 -945.578 1158.7405 1 0 0 0 -0.5 0.866025 0 -0.866025 -0.5 3062a.dat
1 308 -588.5453 -945.578 1158.7405 1 0 0 0 -0.5 0.866025 0 -0.866025 -0.5 3062a.dat
1 320 -528.5453 -941.5779 1165.6686 1 0 0 0 -0.5 0.866025 0 -0.866025 -0.5 3062a.dat
1 422 -558.5453 -957.578 1137.9557 1 0 0 0 -0.5 0.866025 0 -0.866025 -0.5 3023b.dat
1 422 -538.5454 -937.578 1172.5967 1 0 0 0 -0.5 0.866025 0 -0.866025 -0.5 77845.dat
1 422 -548.5453 -941.578 1165.6685 1 0 0 0 -0.5 0.866025 0 -0.866025 -0.5 6141.dat
1 422 -528.5453 -953.5781 1144.8837 1 0 0 0 -0.5 0.866025 0 -0.866025 -0.5 6141.dat
1 422 -598.5453 -937.578 1172.5967 1 0 0 0 -0.5 0.866025 0 -0.866025 -0.5 35480.dat
1 422 -568.5453 -933.5779 1179.5249 1 0 0 0 -0.5 0.866025 0 -0.866025 -0.5 98138.dat
1 320 -578.5453 -941.5779 1165.6686 1 0 0 0 -0.5 0.866025 0 -0.866025 -0.5 35480.dat
1 320 -508.5454 -941.578 1165.6685 1 0 0 0 -0.5 0.866025 0 -0.866025 -0.5 6141.dat
1 320 -608.5454 -941.578 1165.6685 1 0 0 0 -0.5 0.866025 0 -0.866025 -0.5 6141.dat
1 320 -548.5453 -961.578 1131.0275 1 0 0 0 -0.5 0.866025 0 -0.866025 -0.5 6141.dat
1 320 -548.5453 -965.578 1124.0991 1 0 0 0 -0.5 0.866025 0 -0.866025 -0.5 6141.dat
1 320 -508.5453 -933.5781 1179.5249 1 0 0 0 -0.5 0.866025 0 -0.866025 -0.5 98138.dat
1 320 -528.5454 -933.5779 1179.5249 1 0 0 0 -0.5 0.866025 0 -0.866025 -0.5 98138.dat
1 320 -548.5453 -933.5781 1179.5249 1 0 0 0 -0.5 0.866025 0 -0.866025 -0.5 98138.dat
1 320 -588.5453 -933.5779 1179.5249 1 0 0 0 -0.5 0.866025 0 -0.866025 -0.5 98138.dat
1 320 -608.5453 -933.5781 1179.5249 1 0 0 0 -0.5 0.866025 0 -0.866025 -0.5 98138.dat
1 18 -568.5453 -961.578 1131.0275 1 0 0 0 -0.5 0.866025 0 -0.866025 -0.5 6141.dat
1 18 -568.5453 -965.5779 1124.0994 1 0 0 0 -0.5 0.866025 0 -0.866025 -0.5 6141.dat
1 4 -548.5453 -945.5781 1041.2596 1 0 0 0 -0.5 -0.866026 0 0.866026 -0.5 3062a.dat
1 320 -568.5452 -945.5777 1041.2595 1 0 0 0 -0.5 -0.866026 0 0.866026 -0.5 3062a.dat
1 308 -588.5452 -945.5779 1041.2595 1 0 0 0 -0.5 -0.866026 0 0.866026 -0.5 3062a.dat
1 320 -528.545 -941.5779 1034.3313 1 0 0 0 -0.5 -0.866026 0 0.866026 -0.5 3062a.dat
1 422 -558.5452 -957.5781 1062.0442 1 0 0 0 -0.5 -0.866026 0 0.866026 -0.5 3023b.dat
1 422 -538.5453 -937.578 1027.4032 1 0 0 0 -0.5 -0.866026 0 0.866026 -0.5 77845.dat
1 422 -548.545 -941.578 1034.3314 1 0 0 0 -0.5 -0.866026 0 0.866026 -0.5 6141.dat
1 422 -528.545 -953.5782 1055.1162 1 0 0 0 -0.5 -0.866026 0 0.866026 -0.5 6141.dat
1 422 -598.545 -937.5779 1027.4031 1 0 0 0 -0.5 -0.866026 0 0.866026 -0.5 35480.dat
1 422 -568.5452 -933.5782 1020.4749 1 0 0 0 -0.5 -0.866026 0 0.866026 -0.5 98138.dat
1 320 -578.545 -941.5779 1034.3313 1 0 0 0 -0.5 -0.866026 0 0.866026 -0.5 35480.dat
1 320 -508.5453 -941.578 1034.3314 1 0 0 0 -0.5 -0.866026 0 0.866026 -0.5 6141.dat
1 320 -608.5452 -941.578 1034.3314 1 0 0 0 -0.5 -0.866026 0 0.866026 -0.5 6141.dat
1 320 -548.5452 -961.578 1068.9724 1 0 0 0 -0.5 -0.866026 0 0.866026 -0.5 6141.dat
1 320 -548.545 -965.578 1075.9006 1 0 0 0 -0.5 -0.866026 0 0.866026 -0.5 6141.dat
1 320 -508.545 -933.5779 1020.4749 1 0 0 0 -0.5 -0.866026 0 0.866026 -0.5 98138.dat
1 320 -528.5452 -933.578 1020.4749 1 0 0 0 -0.5 -0.866026 0 0.866026 -0.5 98138.dat
1 320 -548.545 -933.578 1020.4751 1 0 0 0 -0.5 -0.866026 0 0.866026 -0.5 98138.dat
1 320 -588.5452 -933.5782 1020.4749 1 0 0 0 -0.5 -0.866026 0 0.866026 -0.5 98138.dat
1 320 -608.545 -933.5779 1020.4749 1 0 0 0 -0.5 -0.866026 0 0.866026 -0.5 98138.dat
1 18 -568.545 -961.578 1068.9724 1 0 0 0 -0.5 -0.866026 0 0.866026 -0.5 6141.dat
1 18 -568.5452 -965.578 1075.9003 1 0 0 0 -0.5 -0.866026 0 0.866026 -0.5 6141.dat
1 6 40 -592 960 1 0 0 0 1 0 0 0 1 10202.dat
1 6 160 -592 960 1 0 0 0 1 0 0 0 1 10202.dat
1 6 160 -592 820 1 0 0 0 1 0 0 0 1 10202.dat
1 6 40 -592 820 1 0 0 0 1 0 0 0 1 10202.dat
1 6 40 -592 680 1 0 0 0 1 0 0 0 1 10202.dat
1 6 160 -592 680 1 0 0 0 1 0 0 0 1 10202.dat
1 6 160 -592 540 1 0 0 0 1 0 0 0 1 10202.dat
1 6 40 -592 540 1 0 0 0 1 0 0 0 1 10202.dat
1 6 40 -592 400 1 0 0 0 1 0 0 0 1 10202.dat
1 6 160 -592 400 1 0 0 0 1 0 0 0 1 10202.dat
1 6 160 -592 260 1 0 0 0 1 0 0 0 1 10202.dat
1 6 40 -592 260 1 0 0 0 1 0 0 0 1 10202.dat
1 6 40 -592 1100 1 0 0 0 1 0 0 0 1 10202.dat
1 6 -80 -592 1100 1 0 0 0 1 0 0 0 1 10202.dat
1 6 160 -592 1100 1 0 0 0 1 0 0 0 1 10202.dat
1 6 -80 -592 980 1 0 0 0 1 0 0 0 1 10202.dat
1 6 -180 -592 960 1 0 0 0 1 0 0 0 1 1751.dat
1 6 -180 -592 1040 1 0 0 0 1 0 0 0 1 1751.dat
1 6 -180 -592 1120 1 0 0 0 1 0 0 0 1 1751.dat
1 308 200 -552 1140 1 0 0 0 1 0 0 0 1 6143.dat
1 308 200 -576 1140 1 0 0 0 1 0 0 0 1 6143.dat
1 308 0 -552 1140 1 0 0 0 1 0 0 0 1 6143.dat
1 308 0 -576 1140 1 0 0 0 1 0 0 0 1 6143.dat
1 308 -590 -704 850 -0.5 0 -0.866025 0 1 0 0.866025 0 -0.5 42448.dat
1 308 -590 -704 990 0.5 0 -0.866025 0 1 0 0.866025 0 0.5 42448.dat
1 19 -590 -744 1010 1 0 0 0 1 0 0 0 1 60583a.dat
1 19 -590 -744 830 -1 0 0 0 1 0 0 0 -1 60583a.dat
1 19 -580 -616 1000 0 0 1 0 1 0 -1 0 0 4204.dat
1 19 -580 -616 680 0 0 1 0 1 0 -1 0 0 4204.dat
1 19 -570 -816 830 1 0 0 0 1 0 0 0 1 2339.dat
1 19 -570 -816 1010 -1 0 0 0 1 0 0 0 -1 2339.dat
1 147 -580 -640 1020 0 0 1 0 1 0 -1 0 0 3003.dat
1 19 -590 -664 1020 0 0 1 0 1 0 -1 0 0 98283.dat
1 19 -590 -688 1030 0 0 1 0 1 0 -1 0 0 87087.dat
1 19 -610 -678 1030 0 1 0 0 0 -1 -1 0 0 6141.dat
1 19 -590 -784 1030 0 0 1 0 1 0 -1 0 0 14716.dat
1 147 -580 -712 1030 1 0 0 0 1 0 0 0 1 98283.dat
1 19 -590 -816 1010 -1 0 0 0 1 0 0 0 -1 13965.dat
1 19 -590 -816 830 1 0 0 0 1 0 0 0 1 13965.dat
1 19 -590 -840 920 0 0 1 0 1 0 -1 0 0 6112.dat
1 19 -590 -816 1020 0 0 -1 0 1 0 1 0 0 3004.dat
1 147 -590 -792 1030 0 0 1 0 1 0 -1 0 0 3024.dat
1 147 -590 -848 980 0 0 1 0 1 0 -1 0 0 3023b.dat
1 147 -590 -848 860 0 0 1 0 1 0 -1 0 0 3023b.dat
1 19 -580 -792 810 1 0 0 0 1 0 0 0 1 3004.dat
1 19 -580 -768 810 1 0 0 0 1 0 0 0 1 30136.dat
1 19 -580 -744 810 1 0 0 0 1 0 0 0 1 3004.dat
1 19 -580 -720 810 1 0 0 0 1 0 0 0 1 3004.dat
1 19 -590 -696 810 1 0 0 0 1 0 0 0 1 6141.dat
1 19 -590 -688 810 -1 0 0 0 1 0 0 0 -1 3024.dat
1 147 -590 -672 820 0 0 1 0 1 0 -1 0 0 98283.dat
1 147 -590 -680 810 0 0 1 0 1 0 -1 0 0 3024.dat
1 147 -580 -640 820 0 0 1 0 1 0 -1 0 0 3003.dat
1 147 -580 -648 820 0 0 1 0 1 0 -1 0 0 3022.dat
1 19 -590 -672 1010 -1 0 0 0 1 0 0 0 -1 3024.dat
1 8 -570 -816 920 0 0 -1 0 1 0 1 0 0 3710.dat
1 19 -590 -848 920 0 0 1 0 1 0 -1 0 0 3710.dat
1 19 -590 -848 820 0 0 1 0 1 0 -1 0 0 3023b.dat
1 19 -590 -848 1020 0 0 1 0 1 0 -1 0 0 3023b.dat
1 19 -590 -856 920 0 0 1 0 1 0 -1 0 0 60479.dat
1 19 -590 -856 1020 0 0 -1 0 1 0 1 0 0 85984.dat
1 19 -590 -856 980 0 0 -1 0 1 0 1 0 0 85984.dat
1 19 -590 -856 940 0 0 -1 0 1 0 1 0 0 85984.dat
1 19 -590 -856 900 0 0 -1 0 1 0 1 0 0 85984.dat
1 19 -590 -856 860 0 0 -1 0 1 0 1 0 0 85984.dat
1 19 -590 -856 820 0 0 -1 0 1 0 1 0 0 85984.dat
1 19 -580 -816 810 1 0 0 0 1 0 0 0 1 3004.dat
1 147 -570 -816 840 0 0 -1 0 1 0 1 0 0 98283.dat
1 19 -570 -816 1000 0 0 -1 0 1 0 1 0 0 98283.dat
1 19 -570 -784 1030 0 0 1 0 1 0 -1 0 0 14716.dat
1 147 -570 -792 1020 0 0 1 0 1 0 -1 0 0 3023b.dat
1 19 -570 -672 820 0 0 1 0 1 0 -1 0 0 98283.dat
1 19 -570 -664 1020 0 0 -1 0 1 0 1 0 0 98283.dat
1 19 -570 -680 810 0 0 1 0 1 0 -1 0 0 6141.dat
1 19 -570 -688 810 -1 0 0 0 1 0 0 0 -1 3024.dat
1 19 -570 -696 810 1 0 0 0 1 0 0 0 1 6141.dat
1 19 -570 -672 1010 0 0 -1 0 1 0 1 0 0 6141.dat
1 19 -570 -696 1010 1 0 0 0 1 0 0 0 1 3005.dat
1 19 -570 -720 1010 1 0 0 0 1 0 0 0 1 3005.dat
1 19 -570 -688 1030 0 0 1 0 1 0 -1 0 0 u9026.dat
1 19 -570 -696 830 -1 0 0 0 1 0 0 0 -1 3005.dat
1 147 -570 -720 830 -1 0 0 0 1 0 0 0 -1 u9026.dat
1 19 -570 -816 1030 1 0 0 0 1 0 0 0 1 3005.dat
1 19 -570 -792 830 1 0 0 0 1 0 0 0 1 3005.dat
1 147 -570 -776 1010 0 0 -1 0 1 0 1 0 0 6141.dat
1 147 -570 -784 1010 0 0 -1 0 1 0 1 0 0 3024.dat
1 19 -570 -824 920 0 0 -1 0 1 0 1 0 0 60479.dat
1 147 -570 -832 970 0 0 -1 0 1 0 1 0 0 6141.dat
1 147 -570 -840 970 0 0 -1 0 1 0 1 0 0 6141.dat
1 147 -570 -832 990 0 0 -1 0 1 0 1 0 0 6141.dat
1 147 -570 -832 870 0 0 -1 0 1 0 1 0 0 6141.dat
1 147 -570 -840 870 0 0 -1 0 1 0 1 0 0 6141.dat
1 147 -570 -840 850 0 0 -1 0 1 0 1 0 0 6141.dat
1 147 -570 -832 850 0 0 -1 0 1 0 1 0 0 6141.dat
1 147 -570 -840 990 0 0 -1 0 1 0 1 0 0 6141.dat
1 19 -570 -848 820 0 0 -1 0 1 0 1 0 0 3004.dat
1 19 -570 -848 1020 0 0 -1 0 1 0 1 0 0 3004.dat
1 19 -570 -848 920 0 0 1 0 1 0 -1 0 0 3010.dat
1 422 -592.4974 -878 920 0 -0.866025 -0.5 0 -0.5 0.866025 -1 0 0 60479.dat
1 18 -571.7129 -866.0001 810 0 -0.866025 -0.5 0 -0.5 0.866025 -1 0 0 3062a.dat
1 308 -550.9282 -854 810 0 -0.866025 -0.5 0 -0.5 0.866025 -1 0 0 3062a.dat
1 422 -544.0001 -850 920 0 -0.866025 -0.5 0 -0.5 0.866025 -1 0 0 60479.dat
1 320 -571.7129 -866.0001 830 0 -0.866025 -0.5 0 -0.5 0.866025 -1 0 0 3062a.dat
1 320 -550.9282 -854 830 0 -0.866025 -0.5 0 -0.5 0.866025 -1 0 0 3062a.dat
1 320 -571.7129 -866.0001 890 0 -0.866025 -0.5 0 -0.5 0.866025 -1 0 0 3062a.dat
1 308 -550.9282 -854 890 0 -0.866025 -0.5 0 -0.5 0.866025 -1 0 0 3062a.dat
1 320 -571.7129 -866.0001 910 0 -0.866025 -0.5 0 -0.5 0.866025 -1 0 0 3062a.dat
1 422 -550.9282 -854 910 0 -0.866025 -0.5 0 -0.5 0.866025 -1 0 0 3062a.dat
1 320 -571.7129 -866.0001 930 0 -0.866025 -0.5 0 -0.5 0.866025 -1 0 0 3062a.dat
1 18 -550.9282 -854 930 0 -0.866025 -0.5 0 -0.5 0.866025 -1 0 0 3062a.dat
1 4 -571.7129 -866.0001 950 0 -0.866025 -0.5 0 -0.5 0.866025 -1 0 0 3062a.dat
1 320 -550.9282 -854 950 0 -0.866025 -0.5 0 -0.5 0.866025 -1 0 0 3062a.dat
1 18 -571.7129 -866.0001 1010 0 -0.866025 -0.5 0 -0.5 0.866025 -1 0 0 3062a.dat
1 320 -550.9282 -854 1010 0 -0.866025 -0.5 0 -0.5 0.866025 -1 0 0 3062a.dat
1 320 -571.7129 -866.0001 1030 0 -0.866025 -0.5 0 -0.5 0.866025 -1 0 0 3062a.dat
1 320 -550.9282 -854 1030 0 -0.866025 -0.5 0 -0.5 0.866025 -1 0 0 3062a.dat
1 320 -571.7129 -866.0001 870 0 -0.866025 -0.5 0 -0.5 0.866025 -1 0 0 3062a.dat
1 308 -571.7129 -866.0001 850 0 -0.866025 -0.5 0 -0.5 0.866025 -1 0 0 3062a.dat
1 18 -571.7129 -866.0001 970 0 -0.866025 -0.5 0 -0.5 0.866025 -1 0 0 3062a.dat
1 320 -571.7129 -866.0001 990 0 -0.866025 -0.5 0 -0.5 0.866025 -1 0 0 3062a.dat
1 308 -523.2154 -838.0001 1030 0 -0.866025 -0.5 0 -0.5 0.866025 -1 0 0 3062a.dat
1 4 -523.2154 -838.0001 1010 0 -0.866025 -0.5 0 -0.5 0.866025 -1 0 0 3062a.dat
1 18 -523.2154 -838.0001 990 0 -0.866025 -0.5 0 -0.5 0.866025 -1 0 0 3062a.dat
1 320 -523.2154 -838.0001 970 0 -0.866025 -0.5 0 -0.5 0.866025 -1 0 0 3062a.dat
1 308 -523.2154 -838.0001 950 0 -0.866025 -0.5 0 -0.5 0.866025 -1 0 0 3062a.dat
1 320 -523.2154 -838.0001 930 0 -0.866025 -0.5 0 -0.5 0.866025 -1 0 0 3062a.dat
1 18 -523.2154 -838.0001 910 0 -0.866025 -0.5 0 -0.5 0.866025 -1 0 0 3062a.dat
1 320 -523.2154 -838.0001 890 0 -0.866025 -0.5 0 -0.5 0.866025 -1 0 0 3062a.dat
1 320 -523.2154 -838.0001 870 0 -0.866025 -0.5 0 -0.5 0.866025 -1 0 0 3062a.dat
1 422 -523.2154 -838.0001 850 0 -0.866025 -0.5 0 -0.5 0.866025 -1 0 0 3062a.dat
1 18 -523.2154 -838.0001 830 0 -0.866025 -0.5 0 -0.5 0.866025 -1 0 0 3062a.dat
1 320 -523.2154 -838.0001 810 0 -0.866025 -0.5 0 -0.5 0.866025 -1 0 0 3062a.dat
1 320 -523.2154 -838.0001 810 0 -0.866025 -0.5 0 -0.5 0.866025 -1 0 0 3062a.dat
1 4 -564.7845 -862 850 0 -0.866025 -0.5 0 -0.5 0.866025 -1 0 0 6141.dat
1 320 -557.8564 -858 850 0 -0.866025 -0.5 0 -0.5 0.866025 -1 0 0 6141.dat
1 4 -550.9282 -854 850 0 -0.866025 -0.5 0 -0.5 0.866025 -1 0 0 6141.dat
1 320 -550.9282 -854 870 0 -0.866025 -0.5 0 -0.5 0.866025 -1 0 0 6141.dat
1 320 -557.8564 -858 870 0 -0.866025 -0.5 0 -0.5 0.866025 -1 0 0 6141.dat
1 320 -564.7845 -862 870 0 -0.866025 -0.5 0 -0.5 0.866025 -1 0 0 6141.dat
1 320 -564.7845 -862 970 0 -0.866025 -0.5 0 -0.5 0.866025 -1 0 0 6141.dat
1 320 -557.8564 -858 970 0 -0.866025 -0.5 0 -0.5 0.866025 -1 0 0 6141.dat
1 320 -550.9282 -854 970 0 -0.866025 -0.5 0 -0.5 0.866025 -1 0 0 6141.dat
1 308 -550.9282 -854 990 0 -0.866025 -0.5 0 -0.5 0.866025 -1 0 0 6141.dat
1 308 -564.7845 -862 990 0 -0.866025 -0.5 0 -0.5 0.866025 -1 0 0 6141.dat
1 422 -557.8564 -858 990 0 -0.866025 -0.5 0 -0.5 0.866025 -1 0 0 98138.dat
1 422 -516.287 -834.0001 850 0 -0.866025 -0.5 0 -0.5 0.866025 -1 0 0 98138.dat
1 320 -516.287 -834.0001 810 0 -0.866025 -0.5 0 -0.5 0.866025 -1 0 0 98138.dat
1 320 -516.287 -834.0001 870 0 -0.866025 -0.5 0 -0.5 0.866025 -1 0 0 98138.dat
1 320 -516.287 -834.0001 890 0 -0.866025 -0.5 0 -0.5 0.866025 -1 0 0 98138.dat
1 320 -516.287 -834.0001 930 0 -0.866025 -0.5 0 -0.5 0.866025 -1 0 0 98138.dat
1 320 -516.287 -834.0001 970 0 -0.866025 -0.5 0 -0.5 0.866025 -1 0 0 98138.dat
1 308 -516.287 -834.0001 950 0 -0.866025 -0.5 0 -0.5 0.866025 -1 0 0 98138.dat
1 308 -516.287 -834.0001 1030 0 -0.866025 -0.5 0 -0.5 0.866025 -1 0 0 98138.dat
1 4 -516.287 -834.0001 1010 0 -0.866025 -0.5 0 -0.5 0.866025 -1 0 0 98138.dat
1 18 -516.287 -834.0001 990 0 -0.866025 -0.5 0 -0.5 0.866025 -1 0 0 98138.dat
1 18 -516.287 -834.0001 910 0 -0.866025 -0.5 0 -0.5 0.866025 -1 0 0 98138.dat
1 18 -516.287 -834.0001 830 0 -0.866025 -0.5 0 -0.5 0.866025 -1 0 0 98138.dat
1 86 -30 -624 800 0 0 1 0 1 0 -1 0 0 4162.dat
1 86 -30 -624 640 0 0 1 0 1 0 -1 0 0 4162.dat
1 86 -30 -624 530 0 0 -1 0 1 0 1 0 0 14719.dat
1 7 -380 -624 960 0 0 1 0 1 0 -1 0 0 15535.dat
1 7 -320 -624 1120 0 0 1 0 1 0 -1 0 0 14769.dat
1 7 -530 -624 910 0 0 1 0 1 0 -1 0 0 67095.dat
1 7 -290 -624 890 0 0 1 0 1 0 -1 0 0 98138.dat
1 7 -130 -624 870 0 0 1 0 1 0 -1 0 0 98138.dat
1 7 -370 -624 920 0 0 1 0 1 0 -1 0 0 1126.dat
1 8 -390 -624 930 0 0 1 0 1 0 -1 0 0 98138.dat
1 8 -340 -624 910 -1 0 0 0 1 0 0 0 -1 1126.dat
1 8 -580 -624 960 0 0 1 0 1 0 -1 0 0 14769.dat
1 8 -480 -624 920 0 0 1 0 1 0 -1 0 0 15535.dat
1 8 -380 -624 1100 0 0 1 0 1 0 -1 0 0 66857.dat
1 8 -290 -624 1120 0 0 1 0 1 0 -1 0 0 1126.dat
1 7 -300 -624 920 0 0 1 0 1 0 -1 0 0 14769.dat
1 7 -370 -624 1050 0 0 1 0 1 0 -1 0 0 98138.dat
1 7 -300 -624 1060 -1 0 0 0 1 0 0 0 -1 66857.dat
1 7 -170 -624 870 0 0 1 0 1 0 -1 0 0 67095.dat
1 7 -550 -624 960 0 0 1 0 1 0 -1 0 0 1126.dat
1 7 -100 -624 880 0 0 1 0 1 0 -1 0 0 15535.dat
1 7 -90 -624 830 0 0 1 0 1 0 -1 0 0 67095.dat
1 8 -310 -624 830 0 0 1 0 1 0 -1 0 0 67095.dat
1 7 -500 -624 960 0 0 -1 0 1 0 1 0 0 66857.dat
1 7 -350 -624 930 0 0 1 0 1 0 -1 0 0 98138.dat
1 7 -330 -624 940 0 0 1 0 1 0 -1 0 0 1126.dat
1 8 -350 -624 950 0 0 1 0 1 0 -1 0 0 98138.dat
1 8 -320 -624 980 0 0 1 0 1 0 -1 0 0 66857.dat
1 7 -300 -624 950 -1 0 0 0 1 0 0 0 -1 1126.dat
1 8 -90 -624 780 0 0 1 0 1 0 -1 0 0 1126.dat
1 7 -650 -624 970 0 0 1 0 1 0 -1 0 0 98138.dat
1 8 -350 -624 1050 0 0 1 0 1 0 -1 0 0 98138.dat
1 7 -420 -624 960 -1 0 0 0 1 0 0 0 -1 66857.dat
1 7 -410 -624 910 0 0 1 0 1 0 -1 0 0 98138.dat
1 8 -220 -624 890 -1 0 0 0 1 0 0 0 -1 1126.dat
1 8 -380 -624 890 -1 0 0 0 1 0 0 0 -1 1126.dat
1 7 -390 -624 910 0 0 1 0 1 0 -1 0 0 98138.dat
1 7 -440 -624 900 0 0 1 0 1 0 -1 0 0 14769.dat
1 8 -520 -624 840 0 0 1 0 1 0 -1 0 0 14769.dat
1 7 -420 -624 820 -1 0 0 0 1 0 0 0 -1 65474.dat
1 8 -160 -624 760 0 0 1 0 1 0 -1 0 0 7212.dat
1 7 -130 -624 840 0 0 1 0 1 0 -1 0 0 1126.dat
1 8 -320 -624 880 0 0 1 0 1 0 -1 0 0 15535.dat
1 7 -260 -624 890 -1 0 0 0 1 0 0 0 -1 1126.dat
1 7 -240 -624 860 0 0 -1 0 1 0 1 0 0 66857.dat
1 8 -410 -624 890 0 0 1 0 1 0 -1 0 0 98138.dat
1 7 -630 -624 870 0 0 1 0 1 0 -1 0 0 98138.dat
1 7 -620 -624 900 0 0 1 0 1 0 -1 0 0 14769.dat
1 7 -640 -624 850 -1 0 0 0 1 0 0 0 -1 1126.dat
1 8 -640 -624 940 0 0 1 0 1 0 -1 0 0 15535.dat
1 7 -590 -624 920 0 0 1 0 1 0 -1 0 0 1126.dat
1 7 -610 -624 930 0 0 1 0 1 0 -1 0 0 98138.dat
1 7 -450 -624 970 0 0 1 0 1 0 -1 0 0 98138.dat
1 8 -650 -624 900 0 0 1 0 1 0 -1 0 0 1126.dat
1 7 -650 -624 870 0 0 1 0 1 0 -1 0 0 98138.dat
1 7 -620 -624 990 -1 0 0 0 1 0 0 0 -1 1126.dat
1 8 -610 -624 960 0 0 1 0 1 0 -1 0 0 1126.dat
1 8 -580 -624 860 0 0 1 0 1 0 -1 0 0 66857.dat
1 7 -630 -624 970 0 0 1 0 1 0 -1 0 0 98138.dat
1 8 -650 -624 1000 0 0 1 0 1 0 -1 0 0 1126.dat
1 7 -520 -624 870 -1 0 0 0 1 0 0 0 -1 1126.dat
1 7 -580 -624 890 -1 0 0 0 1 0 0 0 -1 1126.dat
1 8 -570 -624 920 0 0 1 0 1 0 -1 0 0 1126.dat
1 8 -530 -624 1010 0 0 1 0 1 0 -1 0 0 67095.dat
1 7 -580 -624 990 -1 0 0 0 1 0 0 0 -1 1126.dat
1 8 -480 -624 1020 -1 0 0 0 1 0 0 0 -1 66857.dat
1 8 -440 -624 1020 0 0 1 0 1 0 -1 0 0 15535.dat
1 8 -450 -624 990 0 0 1 0 1 0 -1 0 0 98138.dat
1 7 -380 -624 1020 0 0 1 0 1 0 -1 0 0 14769.dat
1 8 -380 -624 990 -1 0 0 0 1 0 0 0 -1 1126.dat
1 7 -340 -624 1020 0 0 1 0 1 0 -1 0 0 15535.dat
1 7 -330 -624 1050 0 0 1 0 1 0 -1 0 0 98138.dat
1 7 -330 -624 1080 0 0 1 0 1 0 -1 0 0 1126.dat
1 8 -300 -624 1010 -1 0 0 0 1 0 0 0 -1 1126.dat
1 7 -410 -624 1020 0 0 1 0 1 0 -1 0 0 1126.dat
1 7 -400 -624 1060 0 0 1 0 1 0 -1 0 0 14769.dat
1 8 -350 -624 1070 0 0 1 0 1 0 -1 0 0 98138.dat
1 8 -370 -624 1070 0 0 1 0 1 0 -1 0 0 98138.dat
1 7 -470 -624 1090 0 0 1 0 1 0 -1 0 0 67095.dat
1 8 -450 -624 1050 0 0 1 0 1 0 -1 0 0 98138.dat
1 7 -430 -624 1060 0 0 1 0 1 0 -1 0 0 1126.dat
1 7 -430 -624 1100 0 0 1 0 1 0 -1 0 0 1126.dat
1 8 -410 -624 1130 0 0 1 0 1 0 -1 0 0 98138.dat
1 8 -480 -624 1130 -1 0 0 0 1 0 0 0 -1 1126.dat
1 7 -350 -624 1130 0 0 1 0 1 0 -1 0 0 98138.dat
1 7 -440 -624 1130 -1 0 0 0 1 0 0 0 -1 1126.dat
1 7 -380 -624 1130 -1 0 0 0 1 0 0 0 -1 1126.dat
1 7 -350 -624 880 0 0 1 0 1 0 -1 0 0 1126.dat
1 8 -480 -624 890 -1 0 0 0 1 0 0 0 -1 1126.dat
1 7 -490 -624 870 0 0 1 0 1 0 -1 0 0 98138.dat
1 8 -290 -624 870 0 0 1 0 1 0 -1 0 0 98138.dat
1 9 -500 -640 750 -1 0 0 0 1 0 0 0 -1 15533.dat
1 9 -550 -640 720 0 0 1 0 1 0 -1 0 0 15533.dat
1 7 -520 -688 750 -1 0 0 0 1 0 0 0 -1 3245a.dat
1 9 -480 -664 750 -1 0 0 0 1 0 0 0 -1 30136.dat
1 6 -400 -736 740 1 0 0 0 1 0 0 0 1 4130.dat
1 6 -430 -736 750 1 0 0 0 1 0 0 0 1 60616b.dat
1 9 -450 -640 750 -1 0 0 0 1 0 0 0 -1 3005.dat
1 9 -450 -648 750 -1 0 0 0 1 0 0 0 -1 3024.dat
1 9 -450 -672 750 -1 0 0 0 1 0 0 0 -1 u9026.dat
1 9 -480 -688 750 -1 0 0 0 1 0 0 0 -1 3004.dat
1 9 -480 -712 750 -1 0 0 0 1 0 0 0 -1 3010.dat
1 9 -540 -712 750 -1 0 0 0 1 0 0 0 -1 98283.dat
1 9 -450 -680 750 -1 0 0 0 1 0 0 0 -1 3024.dat
1 7 -450 -688 750 -1 0 0 0 1 0 0 0 -1 3024.dat
1 9 -550 -664 660 0 0 1 0 1 0 -1 0 0 6111.dat
1 7 -550 -688 640 0 0 1 0 1 0 -1 0 0 15533.dat
1 7 -550 -640 620 0 0 1 0 1 0 -1 0 0 30137.dat
1 7 -400 -640 570 1 0 0 0 1 0 0 0 1 2465.dat
1 9 -250 -640 620 0 0 -1 0 1 0 1 0 0 15533.dat
1 9 -250 -640 700 0 0 1 0 1 0 -1 0 0 3010.dat
1 9 -340 -648 750 1 0 0 0 1 0 0 0 1 3004.dat
1 9 -260 -712 750 -1 0 0 0 1 0 0 0 -1 98283.dat
1 7 -320 -736 750 -1 0 0 0 1 0 0 0 -1 15533.dat
1 7 -340 -624 750 -1 0 0 0 1 0 0 0 -1 3023b.dat
1 7 -350 -656 750 1 0 0 0 1 0 0 0 1 3024.dat
1 9 -350 -664 750 1 0 0 0 1 0 0 0 1 6141.dat
0 !LEOCAD PIECE PIVOT  0 0 0 1 0 0 0 1 0 0 0 1
1 9 -320 -688 750 1 0 0 0 1 0 0 0 1 3010.dat
1 9 -270 -688 750 1 0 0 0 1 0 0 0 1 3005.dat
1 9 -250 -688 750 -1 0 0 0 1 0 0 0 -1 u9026.dat
1 7 -310 -712 750 1 0 0 0 1 0 0 0 1 3005.dat
1 9 -290 -712 750 1 0 0 0 1 0 0 0 1 3005.dat
1 9 -340 -712 750 1 0 0 0 1 0 0 0 1 30136.dat
1 9 -280 -640 750 1 0 0 0 1 0 0 0 1 3010.dat
1 9 -290 -656 750 1 0 0 0 1 0 0 0 1 78329.dat
1 9 -290 -664 750 1 0 0 0 1 0 0 0 1 78329.dat
1 9 -280 -648 750 1 0 0 0 1 0 0 0 1 3023b.dat
1 7 -250 -648 750 1 0 0 0 1 0 0 0 1 3024.dat
1 7 -310 -648 750 1 0 0 0 1 0 0 0 1 6141.dat
1 7 -400 -760 750 1 0 0 0 1 0 0 0 1 2465.dat
1 7 -400 -760 570 1 0 0 0 1 0 0 0 1 2465.dat
1 9 -250 -760 720 0 0 -1 0 1 0 1 0 0 98283.dat
1 9 -250 -736 700 0 0 1 0 1 0 -1 0 0 98283.dat
1 9 -550 -712 630 0 0 1 0 1 0 -1 0 0 3622.dat
1 9 -550 -712 700 0 0 1 0 1 0 -1 0 0 3010.dat
1 9 -550 -688 720 0 0 1 0 1 0 -1 0 0 30137.dat
1 308 -240 -768 750 -1 0 0 0 1 0 0 0 -1 27261.dat
1 308 -240 -784 730 -1 0 0 0 1 0 0 0 -1 27261.dat
1 308 -240 -800 710 -1 0 0 0 1 0 0 0 -1 27261.dat
1 6 -240 -816 690 -1 0 0 0 1 0 0 0 -1 27261.dat
1 308 -280 -768 750 -1 0 0 0 1 0 0 0 -1 27261.dat
1 308 -280 -784 730 -1 0 0 0 1 0 0 0 -1 27261.dat
1 308 -280 -800 710 -1 0 0 0 1 0 0 0 -1 27261.dat
1 308 -280 -816 690 -1 0 0 0 1 0 0 0 -1 27261.dat
1 308 -320 -768 750 -1 0 0 0 1 0 0 0 -1 27261.dat
1 6 -320 -784 730 -1 0 0 0 1 0 0 0 -1 27261.dat
1 6 -320 -800 710 -1 0 0 0 1 0 0 0 -1 27261.dat
1 308 -320 -816 690 -1 0 0 0 1 0 0 0 -1 27261.dat
1 308 -360 -768 750 -1 0 0 0 1 0 0 0 -1 27261.dat
1 308 -360 -784 730 -1 0 0 0 1 0 0 0 -1 27261.dat
1 308 -360 -800 710 -1 0 0 0 1 0 0 0 -1 27261.dat
1 308 -360 -816 690 -1 0 0 0 1 0 0 0 -1 27261.dat
1 6 -400 -768 750 -1 0 0 0 1 0 0 0 -1 27261.dat
1 308 -400 -784 730 -1 0 0 0 1 0 0 0 -1 27261.dat
1 308 -400 -800 710 -1 0 0 0 1 0 0 0 -1 27261.dat
1 308 -400 -816 690 -1 0 0 0 1 0 0 0 -1 27261.dat
1 6 -440 -768 750 -1 0 0 0 1 0 0 0 -1 27261.dat
1 308 -440 -784 730 -1 0 0 0 1 0 0 0 -1 27261.dat
1 308 -440 -800 710 -1 0 0 0 1 0 0 0 -1 27261.dat
1 308 -440 -816 690 -1 0 0 0 1 0 0 0 -1 27261.dat
1 308 -480 -768 750 -1 0 0 0 1 0 0 0 -1 27261.dat
1 308 -480 -784 730 -1 0 0 0 1 0 0 0 -1 27261.dat
1 308 -480 -800 710 -1 0 0 0 1 0 0 0 -1 27261.dat
1 308 -480 -816 690 -1 0 0 0 1 0 0 0 -1 27261.dat
1 308 -520 -768 750 -1 0 0 0 1 0 0 0 -1 27261.dat
1 308 -520 -784 730 -1 0 0 0 1 0 0 0 -1 27261.dat
1 308 -520 -800 710 -1 0 0 0 1 0 0 0 -1 27261.dat
1 6 -520 -816 690 -1 0 0 0 1 0 0 0 -1 27261.dat
1 6 -560 -768 750 -1 0 0 0 1 0 0 0 -1 27261.dat
1 308 -560 -784 730 -1 0 0 0 1 0 0 0 -1 27261.dat
1 308 -560 -800 710 -1 0 0 0 1 0 0 0 -1 27261.dat
1 308 -560 -816 690 -1 0 0 0 1 0 0 0 -1 27261.dat
1 308 -240 -768 569.9999 1 0 0 0 1 0 0 0 1 27261.dat
1 308 -240.0001 -784 589.9999 1 0 0 0 1 0 0 0 1 27261.dat
1 308 -240 -800 610 1 0 0 0 1 0 0 0 1 27261.dat
1 308 -240 -816 630 1 0 0 0 1 0 0 0 1 27261.dat
1 308 -280 -768 569.9999 1 0 0 0 1 0 0 0 1 27261.dat
1 308 -280.0001 -784 589.9999 1 0 0 0 1 0 0 0 1 27261.dat
1 6 -280 -800 610 1 0 0 0 1 0 0 0 1 27261.dat
1 308 -280 -816 630 1 0 0 0 1 0 0 0 1 27261.dat
1 308 -320 -768 569.9999 1 0 0 0 1 0 0 0 1 27261.dat
1 308 -320.0001 -784 589.9999 1 0 0 0 1 0 0 0 1 27261.dat
1 308 -320 -800 610 1 0 0 0 1 0 0 0 1 27261.dat
1 308 -320 -816 630 1 0 0 0 1 0 0 0 1 27261.dat
1 6 -360 -768 569.9999 1 0 0 0 1 0 0 0 1 27261.dat
1 6 -360.0001 -784 589.9999 1 0 0 0 1 0 0 0 1 27261.dat
1 308 -360 -800 610 1 0 0 0 1 0 0 0 1 27261.dat
1 308 -360 -816 630 1 0 0 0 1 0 0 0 1 27261.dat
1 308 -400 -768 569.9999 1 0 0 0 1 0 0 0 1 27261.dat
1 308 -400.0001 -784 589.9999 1 0 0 0 1 0 0 0 1 27261.dat
1 308 -400 -800 610 1 0 0 0 1 0 0 0 1 27261.dat
1 308 -400 -816 630 1 0 0 0 1 0 0 0 1 27261.dat
1 308 -440 -768 569.9999 1 0 0 0 1 0 0 0 1 27261.dat
1 308 -440.0001 -784 589.9999 1 0 0 0 1 0 0 0 1 27261.dat
1 308 -440 -800 610 1 0 0 0 1 0 0 0 1 27261.dat
1 308 -440 -816 630 1 0 0 0 1 0 0 0 1 27261.dat
1 6 -480 -768 569.9999 1 0 0 0 1 0 0 0 1 27261.dat
1 308 -480.0001 -784 589.9999 1 0 0 0 1 0 0 0 1 27261.dat
1 308 -480 -800 610 1 0 0 0 1 0 0 0 1 27261.dat
1 308 -480 -816 630 1 0 0 0 1 0 0 0 1 27261.dat
1 308 -520 -768 569.9999 1 0 0 0 1 0 0 0 1 27261.dat
1 308 -520.0001 -784 589.9999 1 0 0 0 1 0 0 0 1 27261.dat
1 308 -520 -800 610 1 0 0 0 1 0 0 0 1 27261.dat
1 6 -520 -816 630 1 0 0 0 1 0 0 0 1 27261.dat
1 308 -560 -768 569.9999 1 0 0 0 1 0 0 0 1 27261.dat
1 308 -560.0001 -784 589.9999 1 0 0 0 1 0 0 0 1 27261.dat
1 308 -560 -800 610 1 0 0 0 1 0 0 0 1 27261.dat
1 6 -560 -816 630 1 0 0 0 1 0 0 0 1 27261.dat
1 9 -550 -640 670 0 0 1 0 1 0 -1 0 0 u9026.dat
1 308 -420 -624 640 1 0 0 0 1 0 0 0 1 3028.dat
1 308 -280 -624 640 0 0 -1 0 1 0 1 0 0 3795.dat
1 308 -420 -624 710 1 0 0 0 1 0 0 0 1 60479.dat
1 308 -280 -624 710 -1 0 0 0 1 0 0 0 -1 3023b.dat
1 9 -550 -736 620 0 0 -1 0 1 0 1 0 0 15533.dat
1 9 -550 -760 620 0 0 1 0 1 0 -1 0 0 98283.dat
1 9 -550 -760 590 0 0 -1 0 1 0 1 0 0 3005.dat
1 9 -550 -768 590 0 0 -1 0 1 0 1 0 0 3024.dat
1 7 -550 -776 590 0 0 -1 0 1 0 1 0 0 3024.dat
1 9 -550 -712 580 0 0 1 0 1 0 -1 0 0 3245a.dat
1 9 -550 -784 660 0 0 1 0 1 0 -1 0 0 3245a.dat
1 7 -550 -808 660 0 0 1 0 1 0 -1 0 0 30136.dat
1 7 -550 -816 670 0 0 1 0 1 0 -1 0 0 3024.dat
1 7 -550 -816 650 0 0 1 0 1 0 -1 0 0 6141.dat
1 9 -550 -808 630 0 0 1 0 1 0 -1 0 0 86996.dat
1 9 -550 -792 620 0 0 1 0 1 0 -1 0 0 3023b.dat
1 9 -550 -784 620 0 0 1 0 1 0 -1 0 0 3004.dat
1 9 -550 -736 720 0 0 1 0 1 0 -1 0 0 15533.dat
1 9 -550 -736 670 0 0 1 0 1 0 -1 0 0 87087.dat
1 9 -570 -726 670 0 1 0 0 0 -1 -1 0 0 3024.dat
1 9 -550 -760 710 0 0 1 0 1 0 -1 0 0 3622.dat
1 9 -550 -768 730 0 0 1 0 1 0 -1 0 0 3024.dat
1 7 -550 -776 730 0 0 1 0 1 0 -1 0 0 6141.dat
1 9 -550 -784 700 0 0 1 0 1 0 -1 0 0 3004.dat
1 7 -550 -792 700 0 0 1 0 1 0 -1 0 0 3023b.dat
1 7 -550 -808 690 0 0 1 0 1 0 -1 0 0 86996.dat
1 9 -480 -736 750 1 0 0 0 1 0 0 0 1 15533.dat
1 9 -530 -736 750 -1 0 0 0 1 0 0 0 -1 u9026.dat
0 !LEOCAD PIECE PIVOT  0 0 30 1 0 0 0 1 0 0 0 1
1 423 -80 -624 580 1 0 0 0 1 0 0 0 1 30139.dat
0 !LEOCAD PIECE PIVOT  0 0 30 1 0 0 0 1 0 0 0 1
1 423 -80 -624 660 1 0 0 0 1 0 0 0 1 30139.dat
0 !LEOCAD PIECE PIVOT  0 0 30 1 0 0 0 1 0 0 0 1
1 423 -160 -624 660 1 0 0 0 1 0 0 0 1 30139.dat
0 !LEOCAD PIECE PIVOT  0 0 30 1 0 0 0 1 0 0 0 1
1 423 -160 -624 580 1 0 0 0 1 0 0 0 1 30139.dat
1 9 -260 -736 740 0 0 -1 0 1 0 1 0 0 87620.dat
1 7 -250 -712 730 0 0 1 0 1 0 -1 0 0 14716.dat
1 9 -250 -664 680 0 0 1 0 1 0 -1 0 0 3010.dat
1 9 -250 -664 630 0 0 -1 0 1 0 1 0 0 u9026.dat
1 9 -250 -664 600 0 0 -1 0 1 0 1 0 0 3004.dat
1 9 -250 -688 630 0 0 -1 0 1 0 1 0 0 3622.dat
1 7 -250 -688 680 0 0 1 0 1 0 -1 0 0 30136.dat
1 7 -250 -672 710 0 0 1 0 1 0 -1 0 0 3024.dat
1 7 -250 -680 710 0 0 1 0 1 0 -1 0 0 6141.dat
1 9 -250 -704 710 0 0 1 0 1 0 -1 0 0 3005.dat
1 9 -250 -712 680 0 0 1 0 1 0 -1 0 0 3710.dat
1 9 -250 -712 600 0 0 1 0 1 0 -1 0 0 3010.dat
1 9 -250 -736 640 0 0 1 0 1 0 -1 0 0 30137.dat
1 9 -250 -784 650 0 0 1 0 1 0 -1 0 0 39266.dat
1 7 -250 -792 620 0 0 1 0 1 0 -1 0 0 3023b.dat
1 9 -250 -736 590 0 0 -1 0 1 0 1 0 0 87087.dat
1 9 -250 -808 630 0 0 1 0 1 0 -1 0 0 86996.dat
1 9 -230 -726 590 0 -1 0 0 0 -1 1 0 0 3024.dat
1 7 -250 -768 720 0 0 -1 0 1 0 1 0 0 3023b.dat
1 9 -250 -776 720 0 0 -1 0 1 0 1 0 0 3023b.dat
1 9 -250 -792 710 0 0 -1 0 1 0 1 0 0 86996.dat
1 9 -250 -808 670 0 0 1 0 1 0 -1 0 0 3622.dat
1 9 -250 -760 590 0 0 -1 0 1 0 1 0 0 3005.dat
1 9 -250 -768 590 0 0 -1 0 1 0 1 0 0 6141.dat
1 9 -250 -776 590 0 0 -1 0 1 0 1 0 0 6141.dat
1 7 -250 -816 660 0 0 1 0 1 0 -1 0 0 3023b.dat
1 7 -250 -696 660 0 0 1 0 1 0 -1 0 0 3023b.dat
1 7 -250 -704 680 0 0 1 0 1 0 -1 0 0 3023b.dat
1 9 -250 -704 650 0 0 1 0 1 0 -1 0 0 3024.dat
1 9 -250 -696 690 0 0 1 0 1 0 -1 0 0 3024.dat
1 7 -350 -656 570 1 0 0 0 1 0 0 0 1 3024.dat
0 !LEOCAD PIECE PIVOT  0 0 0 1 0 0 0 1 0 0 0 1
1 9 -320 -688 570 1 0 0 0 1 0 0 0 1 3010.dat
1 9 -270 -688 570 1 0 0 0 1 0 0 0 1 3005.dat
1 9 -250 -688 570 -1 0 0 0 1 0 0 0 -1 u9026.dat
1 7 -310 -712 570 1 0 0 0 1 0 0 0 1 3005.dat
1 9 -290 -712 570 1 0 0 0 1 0 0 0 1 3005.dat
1 9 -340 -712 570 1 0 0 0 1 0 0 0 1 30136.dat
1 9 -290 -656 570 1 0 0 0 1 0 0 0 1 78329.dat
1 9 -290 -664 570 1 0 0 0 1 0 0 0 1 78329.dat
1 9 -280 -648 570 1 0 0 0 1 0 0 0 1 3023b.dat
1 7 -250 -648 570 1 0 0 0 1 0 0 0 1 3024.dat
1 7 -310 -648 570 1 0 0 0 1 0 0 0 1 6141.dat
1 9 -250 -688 590 0 0 -1 0 1 0 1 0 0 3005.dat
1 9 -500 -664 570 1 0 0 0 1 0 0 0 1 15533.dat
1 7 -400 -736 570 -1 0 0 0 1 0 0 0 -1 15533.dat
1 9 -350 -648 570 1 0 0 0 1 0 0 0 1 3623.dat
1 9 -360 -664 570 1 0 0 0 1 0 0 0 1 3023b.dat
1 9 -390 -688 570 1 0 0 0 1 0 0 0 1 3622.dat
1 9 -440 -688 570 1 0 0 0 1 0 0 0 1 3245a.dat
1 7 -480 -712 570 1 0 0 0 1 0 0 0 1 3009.dat
1 7 -400 -664 570 1 0 0 0 1 0 0 0 1 4216.dat
1 9 -390 -712 570 1 0 0 0 1 0 0 0 1 u9026.dat
1 9 -410 -712 570 1 0 0 0 1 0 0 0 1 3005.dat
1 9 -370 -712 570 1 0 0 0 1 0 0 0 1 3005.dat
1 9 -520 -688 570 -1 0 0 0 1 0 0 0 -1 98283.dat
1 9 -480 -688 570 1 0 0 0 1 0 0 0 1 3004.dat
1 9 -500 -736 570 1 0 0 0 1 0 0 0 1 3009.dat
1 9 -270 -736 570 1 0 0 0 1 0 0 0 1 3622.dat
1 9 -270 -712 570 1 0 0 0 1 0 0 0 1 87087.dat
1 9 -270 -702 550 1 0 0 0 0 -1 0 1 0 6141.dat
1 9 -370 -656 570 1 0 0 0 1 0 0 0 1 6141.dat
1 9 -330 -720 570 1 0 0 0 1 0 0 0 1 3623.dat
1 9 -330 -736 570 1 0 0 0 1 0 0 0 1 3623.dat
1 7 -330 -728 570 1 0 0 0 1 0 0 0 1 3623.dat
1 308 -280 -824 670 0 0 -1 0 1 0 1 0 0 26603.dat
1 6 -360 -824 680 -1 0 0 0 1 0 0 0 -1 3068a.dat
1 6 -360 -824 640 -1 0 0 0 1 0 0 0 -1 3068a.dat
1 6 -400 -824 690 -1 0 0 0 1 0 0 0 -1 3069b.dat
1 6 -240 -824 660 0 0 1 0 1 0 -1 0 0 87079.dat
1 6 -320 -824 660 0 0 1 0 1 0 -1 0 0 87079.dat
1 6 -480 -824 660 0 0 1 0 1 0 -1 0 0 87079.dat
1 6 -560 -824 660 0 0 1 0 1 0 -1 0 0 87079.dat
1 6 -440 -824 680 -1 0 0 0 1 0 0 0 -1 3068a.dat
1 308 -400 -824 650 0 0 -1 0 1 0 1 0 0 26603.dat
1 308 -520 -824 670 0 0 -1 0 1 0 1 0 0 26603.dat
1 6 -280 -824 630 1 0 0 0 1 0 0 0 1 3794a.dat
1 6 -520 -824 630 1 0 0 0 1 0 0 0 1 3794a.dat
1 308 -440 -824 640 1 0 0 0 1 0 0 0 1 87580.dat
1 8 -300 -624 780 0 0 1 0 1 0 -1 0 0 66857.dat
1 7 -350 -624 770 0 0 1 0 1 0 -1 0 0 98138.dat
1 7 -260 -624 820 0 0 1 0 1 0 -1 0 0 15535.dat
1 8 -220 -624 820 0 0 1 0 1 0 -1 0 0 14769.dat
1 7 -230 -624 780 0 0 1 0 1 0 -1 0 0 1126.dat
1 7 -250 -624 790 0 0 1 0 1 0 -1 0 0 98138.dat
1 8 -150 -624 830 0 0 1 0 1 0 -1 0 0 98138.dat
1 8 -250 -624 770 0 0 1 0 1 0 -1 0 0 98138.dat
1 7 -180 -624 830 -1 0 0 0 1 0 0 0 -1 1126.dat
1 8 -130 -624 890 0 0 1 0 1 0 -1 0 0 98138.dat
1 7 -50 -624 840 0 0 1 0 1 0 -1 0 0 1126.dat
1 8 -50 -624 810 0 0 1 0 1 0 -1 0 0 98138.dat
1 7 -60 -624 760 -1 0 0 0 1 0 0 0 -1 66857.dat
1 8 -450 -624 940 0 0 1 0 1 0 -1 0 0 1126.dat
1 7 -90 -624 740 0 0 1 0 1 0 -1 0 0 1126.dat
1 7 -70 -624 710 0 0 1 0 1 0 -1 0 0 98138.dat
1 7 -50 -624 710 0 0 1 0 1 0 -1 0 0 98138.dat
1 8 -100 -624 710 -1 0 0 0 1 0 0 0 -1 1126.dat
1 288 -210 -640 710 0.5 0 -0.866025 0 1 0 0.866025 0 0.5 30176.dat
1 6 -220 -624 680 1 0 0 0 1 0 0 0 1 61780.dat
1 423 -520 -656 780 1 0 0 0 1 0 0 0 1 2489.dat
1 2 -530 -640 810 0.5 0 -0.866025 0 1 0 0.866025 0 0.5 30176.dat
1 308 720 -744 1430 1 0 0 0 1 0 0 0 1 49311.dat
1 308 640 -744 1430 1 0 0 0 1 0 0 0 1 49311.dat
1 308 680 -768 1430 1 0 0 0 1 0 0 0 1 3008.dat
1 308 680 -776 1430 -1 0 0 0 1 0 0 0 -1 4510.dat
1 6 620 -640 1260 1 0 0 0 1 0 0 0 1 6881b.dat
1 6 740 -640 1260 1 0 0 0 1 0 0 0 1 6881b.dat
1 6 740 -640 1340 1 0 0 0 1 0 0 0 1 69729.dat
1 6 620 -640 1340 1 0 0 0 1 0 0 0 1 69729.dat
1 6 680 -640 1380 1 0 0 0 1 0 0 0 1 69729.dat
1 6 750 -640 1380 0 0 -1 0 1 0 1 0 0 2412b.dat
1 6 610 -640 1380 0 0 -1 0 1 0 1 0 0 2412b.dat
1 19 -380 -592 920 0 0 1 0 1 0 -1 0 0 30072.dat
1 19 -420 -592 600 1 0 0 0 1 0 0 0 1 4201.dat
1 19 -180 -592 600 1 0 0 0 1 0 0 0 1 4204.dat
1 19 -160 -592 780 0 0 1 0 1 0 -1 0 0 733.dat
1 19 -580 -592 680 0 0 1 0 1 0 -1 0 0 4204.dat
1 19 -40 -616 780 0 0 1 0 1 0 -1 0 0 3006.dat
1 19 -160 -592 900 1 0 0 0 1 0 0 0 1 3006.dat
1 19 -40 -592 780 0 0 1 0 1 0 -1 0 0 3006.dat
1 19 -50 -592 890 0 0 -1 0 1 0 1 0 0 85080.dat
1 19 -610 -616 1100 0 0 1 0 1 0 -1 0 0 3010.dat
1 19 -560 -616 1050 1 0 0 0 1 0 0 0 1 3009.dat
1 19 -580 -592 1000 0 0 1 0 1 0 -1 0 0 4204.dat
1 19 -380 -568 920 0 0 1 0 1 0 -1 0 0 30072.dat
1 19 -420 -568 600 1 0 0 0 1 0 0 0 1 4201.dat
1 19 -180 -568 600 1 0 0 0 1 0 0 0 1 4204.dat
1 19 -160 -568 780 0 0 1 0 1 0 -1 0 0 733.dat
1 19 -580 -568 680 0 0 1 0 1 0 -1 0 0 4204.dat
1 19 -160 -568 900 1 0 0 0 1 0 0 0 1 3006.dat
1 19 -40 -568 780 0 0 1 0 1 0 -1 0 0 3006.dat
1 19 -50 -568 890 0 0 -1 0 1 0 1 0 0 85080.dat
1 19 -610 -592 1100 0 0 1 0 1 0 -1 0 0 3010.dat
1 19 -560 -592 1050 1 0 0 0 1 0 0 0 1 3009.dat
1 19 -580 -568 1000 0 0 1 0 1 0 -1 0 0 4204.dat
1 19 -240 -576 1060 0 0 1 0 1 0 -1 0 0 3006.dat
1 19 -240 -552 1060 0 0 1 0 1 0 -1 0 0 3006.dat
1 19 -240 -576 940 0 0 1 0 1 0 -1 0 0 3003.dat
1 19 -240 -552 940 0 0 1 0 1 0 -1 0 0 3003.dat
1 86 -140 -624 530 -1 0 0 0 1 0 0 0 -1 4162.dat
1 86 -250 -624 530 1 0 0 0 1 0 0 0 1 14719.dat
1 86 -590 -624 750 1 0 0 0 1 0 0 0 1 14719.dat
1 86 -590 -624 790 0 0 1 0 1 0 -1 0 0 3070a.dat
1 19 -590 -800 830 0 0 -1 0 1 0 1 0 0 98138.dat
1 19 -590 -816 830 0 0 -1 0 1 0 1 0 0 20482.dat
1 19 -380 -544 920 0 0 1 0 1 0 -1 0 0 30072.dat
1 19 -420 -544 600 1 0 0 0 1 0 0 0 1 4201.dat
1 19 -180 -544 600 1 0 0 0 1 0 0 0 1 4204.dat
1 19 -580 -544 680 0 0 1 0 1 0 -1 0 0 4204.dat
1 19 -160 -544 900 1 0 0 0 1 0 0 0 1 3006.dat
1 19 -40 -544 780 0 0 1 0 1 0 -1 0 0 3006.dat
1 19 -50 -544 890 0 0 -1 0 1 0 1 0 0 85080.dat
1 19 -580 -544 1000 0 0 1 0 1 0 -1 0 0 4204.dat
1 19 -240 -528 1060 0 0 1 0 1 0 -1 0 0 3006.dat
1 19 -240 -528 940 0 0 1 0 1 0 -1 0 0 3003.dat
1 19 -380 -520 920 0 0 1 0 1 0 -1 0 0 30072.dat
1 19 -420 -520 600 1 0 0 0 1 0 0 0 1 4201.dat
1 19 -180 -520 600 1 0 0 0 1 0 0 0 1 4204.dat
1 19 -580 -520 680 0 0 1 0 1 0 -1 0 0 4204.dat
1 19 -160 -520 900 1 0 0 0 1 0 0 0 1 3006.dat
1 19 -40 -520 780 0 0 1 0 1 0 -1 0 0 3006.dat
1 19 -50 -520 890 0 0 -1 0 1 0 1 0 0 85080.dat
1 19 -580 -520 1000 0 0 1 0 1 0 -1 0 0 4204.dat
1 19 -240 -504 1060 0 0 1 0 1 0 -1 0 0 3006.dat
1 19 -240 -504 940 0 0 1 0 1 0 -1 0 0 3003.dat
1 19 -380 -496 920 0 0 1 0 1 0 -1 0 0 30072.dat
1 19 -420 -496 600 1 0 0 0 1 0 0 0 1 4201.dat
1 19 -180 -496 600 1 0 0 0 1 0 0 0 1 4204.dat
1 19 -580 -496 680 0 0 1 0 1 0 -1 0 0 4204.dat
1 19 -160 -496 900 1 0 0 0 1 0 0 0 1 3006.dat
1 19 -40 -496 780 0 0 1 0 1 0 -1 0 0 3006.dat
1 19 -50 -496 890 0 0 -1 0 1 0 1 0 0 85080.dat
1 19 -580 -496 1000 0 0 1 0 1 0 -1 0 0 4204.dat
1 19 -240 -480 1060 0 0 1 0 1 0 -1 0 0 3006.dat
1 19 -240 -480 940 0 0 1 0 1 0 -1 0 0 3003.dat
1 19 -380 -472 920 0 0 1 0 1 0 -1 0 0 30072.dat
1 19 -420 -472 600 1 0 0 0 1 0 0 0 1 4201.dat
1 19 -180 -472 600 1 0 0 0 1 0 0 0 1 4204.dat
1 19 -580 -472 680 0 0 1 0 1 0 -1 0 0 4204.dat
1 19 -160 -472 900 1 0 0 0 1 0 0 0 1 3006.dat
1 19 -40 -472 780 0 0 1 0 1 0 -1 0 0 3006.dat
1 19 -50 -472 890 0 0 -1 0 1 0 1 0 0 85080.dat
1 19 -580 -472 1000 0 0 1 0 1 0 -1 0 0 4204.dat
1 19 -240 -456 1060 0 0 1 0 1 0 -1 0 0 3006.dat
1 19 -240 -456 940 0 0 1 0 1 0 -1 0 0 3003.dat
1 19 -380 -448 920 0 0 1 0 1 0 -1 0 0 30072.dat
1 19 -420 -448 600 1 0 0 0 1 0 0 0 1 4201.dat
1 19 -180 -448 600 1 0 0 0 1 0 0 0 1 4204.dat
1 19 -580 -448 680 0 0 1 0 1 0 -1 0 0 4204.dat
1 19 -160 -448 900 1 0 0 0 1 0 0 0 1 3006.dat
1 19 -40 -448 780 0 0 1 0 1 0 -1 0 0 3006.dat
1 19 -50 -448 890 0 0 -1 0 1 0 1 0 0 85080.dat
1 19 -580 -448 1000 0 0 1 0 1 0 -1 0 0 4204.dat
1 19 -240 -432 1060 0 0 1 0 1 0 -1 0 0 3006.dat
1 19 -240 -432 940 0 0 1 0 1 0 -1 0 0 3003.dat
1 19 -380 -424 920 0 0 1 0 1 0 -1 0 0 30072.dat
1 19 -420 -424 600 1 0 0 0 1 0 0 0 1 4201.dat
1 19 -180 -424 600 1 0 0 0 1 0 0 0 1 4204.dat
1 19 -580 -424 680 0 0 1 0 1 0 -1 0 0 4204.dat
1 19 -160 -424 900 1 0 0 0 1 0 0 0 1 3006.dat
1 19 -40 -424 780 0 0 1 0 1 0 -1 0 0 3006.dat
1 19 -50 -424 890 0 0 -1 0 1 0 1 0 0 85080.dat
1 19 -580 -424 1000 0 0 1 0 1 0 -1 0 0 4204.dat
1 19 -240 -408 1060 0 0 1 0 1 0 -1 0 0 3006.dat
1 19 -240 -408 940 0 0 1 0 1 0 -1 0 0 3003.dat
1 19 -380 -400 920 0 0 1 0 1 0 -1 0 0 30072.dat
1 19 -420 -400 600 1 0 0 0 1 0 0 0 1 4201.dat
1 19 -180 -400 600 1 0 0 0 1 0 0 0 1 4204.dat
1 19 -580 -400 680 0 0 1 0 1 0 -1 0 0 4204.dat
1 19 -160 -400 900 1 0 0 0 1 0 0 0 1 3006.dat
1 19 -40 -400 780 0 0 1 0 1 0 -1 0 0 3006.dat
1 19 -50 -400 890 0 0 -1 0 1 0 1 0 0 85080.dat
1 19 -580 -400 1000 0 0 1 0 1 0 -1 0 0 4204.dat
1 19 -240 -384 1060 0 0 1 0 1 0 -1 0 0 3006.dat
1 19 -240 -384 940 0 0 1 0 1 0 -1 0 0 3003.dat
1 308 200 -504 220 1 0 0 0 1 0 0 0 1 6143.dat
1 308 200 -528 220 1 0 0 0 1 0 0 0 1 6143.dat
1 308 0 -504 220 1 0 0 0 1 0 0 0 1 6143.dat
1 308 0 -528 220 1 0 0 0 1 0 0 0 1 6143.dat
1 308 200 -504 1140 1 0 0 0 1 0 0 0 1 6143.dat
1 308 200 -528 1140 1 0 0 0 1 0 0 0 1 6143.dat
1 308 0 -504 1140 1 0 0 0 1 0 0 0 1 6143.dat
1 308 0 -528 1140 1 0 0 0 1 0 0 0 1 6143.dat
1 308 200 -456 220 1 0 0 0 1 0 0 0 1 6143.dat
1 308 200 -480 220 1 0 0 0 1 0 0 0 1 6143.dat
1 308 0 -456 220 1 0 0 0 1 0 0 0 1 6143.dat
1 308 0 -480 220 1 0 0 0 1 0 0 0 1 6143.dat
1 308 200 -456 1140 1 0 0 0 1 0 0 0 1 6143.dat
1 308 200 -480 1140 1 0 0 0 1 0 0 0 1 6143.dat
1 308 0 -456 1140 1 0 0 0 1 0 0 0 1 6143.dat
1 308 0 -480 1140 1 0 0 0 1 0 0 0 1 6143.dat
1 308 200 -408 220 1 0 0 0 1 0 0 0 1 6143.dat
1 308 200 -432 220 1 0 0 0 1 0 0 0 1 6143.dat
1 308 0 -408 220 1 0 0 0 1 0 0 0 1 6143.dat
1 308 0 -432 220 1 0 0 0 1 0 0 0 1 6143.dat
1 308 200 -408 1140 1 0 0 0 1 0 0 0 1 6143.dat
1 308 200 -432 1140 1 0 0 0 1 0 0 0 1 6143.dat
1 308 0 -408 1140 1 0 0 0 1 0 0 0 1 6143.dat
1 308 0 -432 1140 1 0 0 0 1 0 0 0 1 6143.dat
1 308 200 -360 220 1 0 0 0 1 0 0 0 1 6143.dat
1 308 200 -384 220 1 0 0 0 1 0 0 0 1 6143.dat
1 308 0 -360 220 1 0 0 0 1 0 0 0 1 6143.dat
1 308 0 -384 220 1 0 0 0 1 0 0 0 1 6143.dat
1 308 200 -360 1140 1 0 0 0 1 0 0 0 1 6143.dat
1 308 200 -384 1140 1 0 0 0 1 0 0 0 1 6143.dat
1 308 0 -360 1140 1 0 0 0 1 0 0 0 1 6143.dat
1 308 0 -384 1140 1 0 0 0 1 0 0 0 1 6143.dat
1 308 200 -312 220 1 0 0 0 1 0 0 0 1 6143.dat
1 308 200 -336 220 1 0 0 0 1 0 0 0 1 6143.dat
1 308 0 -312 220 1 0 0 0 1 0 0 0 1 6143.dat
1 308 0 -336 220 1 0 0 0 1 0 0 0 1 6143.dat
1 308 200 -312 1140 1 0 0 0 1 0 0 0 1 6143.dat
1 308 200 -336 1140 1 0 0 0 1 0 0 0 1 6143.dat
1 308 0 -312 1140 1 0 0 0 1 0 0 0 1 6143.dat
1 308 0 -336 1140 1 0 0 0 1 0 0 0 1 6143.dat
1 308 200 -264 220 1 0 0 0 1 0 0 0 1 6143.dat
1 308 200 -288 220 1 0 0 0 1 0 0 0 1 6143.dat
1 308 0 -264 220 1 0 0 0 1 0 0 0 1 6143.dat
1 308 0 -288 220 1 0 0 0 1 0 0 0 1 6143.dat
1 308 200 -264 1140 1 0 0 0 1 0 0 0 1 6143.dat
1 308 200 -288 1140 1 0 0 0 1 0 0 0 1 6143.dat
1 308 0 -264 1140 1 0 0 0 1 0 0 0 1 6143.dat
1 308 0 -288 1140 1 0 0 0 1 0 0 0 1 6143.dat
1 308 200 -216 220 1 0 0 0 1 0 0 0 1 6143.dat
1 308 200 -240 220 1 0 0 0 1 0 0 0 1 6143.dat
1 308 0 -216 220 1 0 0 0 1 0 0 0 1 6143.dat
1 308 0 -240 220 1 0 0 0 1 0 0 0 1 6143.dat
1 308 200 -216 1140 1 0 0 0 1 0 0 0 1 6143.dat
1 308 200 -240 1140 1 0 0 0 1 0 0 0 1 6143.dat
1 308 0 -216 1140 1 0 0 0 1 0 0 0 1 6143.dat
1 308 0 -240 1140 1 0 0 0 1 0 0 0 1 6143.dat
1 308 200 -168 220 1 0 0 0 1 0 0 0 1 6143.dat
1 308 200 -192 220 1 0 0 0 1 0 0 0 1 6143.dat
1 308 0 -168 220 1 0 0 0 1 0 0 0 1 6143.dat
1 308 0 -192 220 1 0 0 0 1 0 0 0 1 6143.dat
1 308 200 -168 1140 1 0 0 0 1 0 0 0 1 6143.dat
1 308 200 -192 1140 1 0 0 0 1 0 0 0 1 6143.dat
1 308 0 -168 1140 1 0 0 0 1 0 0 0 1 6143.dat
1 308 0 -192 1140 1 0 0 0 1 0 0 0 1 6143.dat
1 308 200 -120 220 1 0 0 0 1 0 0 0 1 6143.dat
1 308 200 -144 220 1 0 0 0 1 0 0 0 1 6143.dat
1 308 0 -120 220 1 0 0 0 1 0 0 0 1 6143.dat
1 308 0 -144 220 1 0 0 0 1 0 0 0 1 6143.dat
1 308 200 -120 1140 1 0 0 0 1 0 0 0 1 6143.dat
1 308 200 -144 1140 1 0 0 0 1 0 0 0 1 6143.dat
1 308 0 -120 1140 1 0 0 0 1 0 0 0 1 6143.dat
1 308 0 -144 1140 1 0 0 0 1 0 0 0 1 6143.dat
1 308 200 -72 220 1 0 0 0 1 0 0 0 1 6143.dat
1 308 200 -96 220 1 0 0 0 1 0 0 0 1 6143.dat
1 308 0 -72 220 1 0 0 0 1 0 0 0 1 6143.dat
1 308 0 -96 220 1 0 0 0 1 0 0 0 1 6143.dat
1 308 200 -72 1140 1 0 0 0 1 0 0 0 1 6143.dat
1 308 200 -96 1140 1 0 0 0 1 0 0 0 1 6143.dat
1 308 0 -72 1140 1 0 0 0 1 0 0 0 1 6143.dat
1 308 0 -96 1140 1 0 0 0 1 0 0 0 1 6143.dat
1 308 200 -72 220 1 0 0 0 1 0 0 0 1 6143.dat
1 308 200 -96 220 1 0 0 0 1 0 0 0 1 6143.dat
1 308 0 -72 220 1 0 0 0 1 0 0 0 1 6143.dat
1 308 0 -96 220 1 0 0 0 1 0 0 0 1 6143.dat
1 308 200 -72 1140 1 0 0 0 1 0 0 0 1 6143.dat
1 308 200 -96 1140 1 0 0 0 1 0 0 0 1 6143.dat
1 308 0 -72 1140 1 0 0 0 1 0 0 0 1 6143.dat
1 308 0 -96 1140 1 0 0 0 1 0 0 0 1 6143.dat
1 308 200 -24 220 1 0 0 0 1 0 0 0 1 6143.dat
1 308 200 -48 220 1 0 0 0 1 0 0 0 1 6143.dat
1 308 0 -24 220 1 0 0 0 1 0 0 0 1 6143.dat
1 308 0 -48 220 1 0 0 0 1 0 0 0 1 6143.dat
1 308 200 -24 1140 1 0 0 0 1 0 0 0 1 6143.dat
1 308 200 -48 1140 1 0 0 0 1 0 0 0 1 6143.dat
1 308 0 -24 1140 1 0 0 0 1 0 0 0 1 6143.dat
1 308 0 -48 1140 1 0 0 0 1 0 0 0 1 6143.dat
