0 
0 Name: New Model.ldr
0 Author: 
1 308 680 -152 350 1 0 0 0 1 0 0 0 1 64645.dat
1 0 680 -80 320 1 0 0 0 1 0 0 0 1 64651.dat
1 0 680 -80 760 1 0 0 0 1 0 0 0 1 95227.dat
1 0 680 -80 1080 1 0 0 0 1 0 0 0 1 95227.dat
1 0 680 -152 1300 1 0 0 0 1 0 0 0 1 2558.dat
1 308 680 -152 1300 1 0 0 0 1 0 0 0 1 2559.dat
1 308 200 -24 220 1 0 0 0 1 0 0 0 1 6143.dat
1 308 200 -48 220 1 0 0 0 1 0 0 0 1 6143.dat
1 6 100 -56 260 1 0 0 0 1 0 0 0 1 3028.dat
1 6 100 -56 680 1 0 0 0 1 0 0 0 1 3028.dat
1 6 100 -56 400 1 0 0 0 1 0 0 0 1 3028.dat
1 6 100 -56 960 1 0 0 0 1 0 0 0 1 3028.dat
1 6 100 -56 820 1 0 0 0 1 0 0 0 1 3028.dat
1 6 100 -56 540 1 0 0 0 1 0 0 0 1 3028.dat
1 6 100 -56 1100 1 0 0 0 1 0 0 0 1 3028.dat
1 423 110 -104 260 1 0 0 0 1 0 0 0 1 2489.dat
0 !LEOCAD PIECE PIVOT  0 0 30 1 0 0 0 1 0 0 0 1
1 423 40 -72 280 1 0 0 0 1 0 0 0 1 30139.dat
1 308 100 -128 210 1 0 0 0 1 0 0 0 1 6079.dat
1 308 210 -128 300 0 0 -1 0 1 0 1 0 0 6079.dat
1 86 100 -105.9808 1115 0 0 1 -0.866025 0.5 0 -0.5 -0.866025 0 87079.dat
1 86 150 -105.9808 1115 0 0 1 -0.866025 0.5 0 -0.5 -0.866025 0 87079.dat
1 308 100 -128 1090 1 0 0 0 1 0 0 0 1 6079.dat
1 72 820 -192 740 0 0 1 0 1 0 -1 0 0 69729.dat
1 72 540 -192 740 0 0 1 0 1 0 -1 0 0 69729.dat
1 72 820 -192 980 0 0 1 0 1 0 -1 0 0 69729.dat
1 72 540 -192 980 0 0 1 0 1 0 -1 0 0 69729.dat
1 72 820 -192 860 0 0 1 0 1 0 -1 0 0 69729.dat
1 72 540 -192 860 0 0 1 0 1 0 -1 0 0 69729.dat
1 308 820 -256 1220 -1 0 0 0 1 0 0 0 -1 3003.dat
1 308 540 -256 1220 -1 0 0 0 1 0 0 0 -1 3003.dat
1 72 820 -232 1170 1 0 0 0 1 0 0 0 1 3039.dat
1 72 540 -232 1170 1 0 0 0 1 0 0 0 1 3039.dat
1 72 820 -256 1190 1 0 0 0 1 0 0 0 1 3039.dat
1 72 820 -304 1210 1 0 0 0 1 0 0 0 1 3039.dat
0 !LEOCAD PIECE PIVOT  70 0 0 1 0 0 0 1 0 0 0 1
1 72 540 -304 1210 1 0 0 0 1 0 0 0 1 3039.dat
1 72 540 -256 1190 1 0 0 0 1 0 0 0 1 3039.dat
1 308 820 -232 1190 1 0 0 0 1 0 0 0 1 3004.dat
1 308 820 -304 1230 1 0 0 0 1 0 0 0 1 3004.dat
1 308 540 -304 1230 1 0 0 0 1 0 0 0 1 3004.dat
1 308 540 -232 1190 1 0 0 0 1 0 0 0 1 3004.dat
1 72 820 -192 1070 0 0 1 0 1 0 -1 0 0 26603.dat
1 72 540 -192 1070 0 0 1 0 1 0 -1 0 0 26603.dat
1 308 760 -176 1360 0 0 -1 0 1 0 1 0 0 2577.dat
1 308 600 -176 1360 -1 0 0 0 1 0 0 0 -1 2577.dat
1 308 760 -200 1360 0 0 -1 0 1 0 1 0 0 2577.dat
1 308 600 -200 1360 -1 0 0 0 1 0 0 0 -1 2577.dat
1 308 830 -304 1270 0 0 -1 0 1 0 1 0 0 6798.dat
1 308 530 -304 1270 0 0 1 0 1 0 -1 0 0 6798.dat
1 308 820 -176 1330 0 0 -1 0 1 0 1 0 0 3002.dat
1 308 820 -200 1330 0 0 -1 0 1 0 1 0 0 3002.dat
1 308 720 -176 1410 1 0 0 0 1 0 0 0 1 60593.dat
1 308 640 -176 1410 1 0 0 0 1 0 0 0 1 60593.dat
1 308 704 -172 1405 0 0 -1 0 1 0 1 0 0 2529.dat
1 308 624 -172 1405 0 0 -1 0 1 0 1 0 0 2529.dat
1 308 640 -192 1430 1 0 0 0 1 0 0 0 1 6182.dat
1 308 720 -192 1430 1 0 0 0 1 0 0 0 1 6182.dat
1 308 750 -176 1410 1 0 0 0 1 0 0 0 1 3005.dat
1 308 610 -176 1410 1 0 0 0 1 0 0 0 1 3005.dat
1 308 750 -152 1410 1 0 0 0 1 0 0 0 1 3005.dat
1 308 610 -152 1410 1 0 0 0 1 0 0 0 1 3005.dat
1 308 680 -176 1410 1 0 0 0 1 0 0 0 1 3245c.dat
1 308 680 -200 1410 1 0 0 0 1 0 0 0 1 3008.dat
1 308 680 -304 1430 -1 0 0 0 1 0 0 0 -1 4510.dat
1 308 760 -304 1140 1 0 0 0 1 0 0 0 1 30134.dat
1 308 680 -312 1260 -1 0 0 0 1 0 0 0 -1 3027.dat
1 6 760 -368 1360 0 0 -1 0 1 0 1 0 0 21229.dat
1 6 600 -368 1360 -1 0 0 0 1 0 0 0 -1 21229.dat
1 6 720 -368 1430 1 0 0 0 1 0 0 0 1 15332.dat
1 6 530 -368 1320 0 0 1 0 1 0 -1 0 0 15332.dat
1 6 830 -368 1320 0 0 1 0 1 0 -1 0 0 15332.dat
1 6 530 -368 1240 0 0 1 0 1 0 -1 0 0 15332.dat
1 6 580 -368 1210 -1 0 0 0 1 0 0 0 -1 15332.dat
1 6 660 -368 1210 -1 0 0 0 1 0 0 0 -1 15332.dat
1 6 830 -368 1240 0 0 1 0 1 0 -1 0 0 15332.dat
1 6 640 -368 1430 1 0 0 0 1 0 0 0 1 15332.dat
1 308 800 -312 1400 0 0 -1 0 1 0 1 0 0 30565.dat
1 308 560 -312 1400 -1 0 0 0 1 0 0 0 -1 30565.dat
1 308 680 -312 1400 1 0 0 0 1 0 0 0 1 3035.dat
1 308 680 -312 1340 -1 0 0 0 1 0 0 0 -1 4282.dat
0 !LEOCAD PIECE PIVOT  10 25 0 1 0 0 0 1 0 0 0 1
1 19 680 -382 1285 1 0 0 0 0 1 0 -1 0 52395.dat
1 308 680 -392 1250 -1 0 0 0 1 0 0 0 -1 u608.dat
1 308 680 -344 1250 -1 0 0 0 1 0 0 0 -1 3010.dat
1 308 680 -168 920 1 0 0 0 1 0 0 0 1 4844a.dat
1 308 680 -376 920 0 0 -1 0 1 0 1 0 0 2538c.dat
1 6 680 -760 920 0 0 1 0 1 0 -1 0 0 64951.dat
1 8 805 -200 750 0 0 -1 0 1 0 1 0 0 2533.dat
1 8 805 -200 750 0 0 -1 0 1 0 1 0 0 2535.dat
1 70 765 -192 770 -1 0 0 0 1 0 0 0 -1 2470.dat
1 70 765 -192 730 1 0 0 0 1 0 0 0 1 2470.dat
1 0 680 -24 400 1 0 0 0 1 0 0 0 1 47404.dat
1 30009 680 -152 360 1 0 0 0 1 0 0 0 1 47405.dat
1 0 680 -80 920 1 0 0 0 1 0 0 0 1 95227.dat
1 0 680 -24 820 0 0 1 0 1 0 -1 0 0 4204.dat
1 0 680 -24 1060 1 0 0 0 1 0 0 0 1 4201.dat
1 0 680 -24 1240 -1 0 0 0 1 0 0 0 -1 30181.dat
1 0 580 -24 760 0 0 1 0 1 0 -1 0 0 3006.dat
1 0 580 -24 960 0 0 1 0 1 0 -1 0 0 3006.dat
1 0 780 -24 960 0 0 1 0 1 0 -1 0 0 3006.dat
1 0 780 -24 760 0 0 1 0 1 0 -1 0 0 3006.dat
1 0 580 -24 1120 0 0 1 0 1 0 -1 0 0 2456.dat
1 0 780 -24 1120 0 0 1 0 1 0 -1 0 0 2456.dat
1 0 680 -24 1160 1 0 0 0 1 0 0 0 1 3007.dat
1 0 680 -24 1190 1 0 0 0 1 0 0 0 1 6111.dat
1 308 680 -168 620 1 0 0 0 1 0 0 0 1 6067.dat
1 308 680 -176 620 0 0 1 0 1 0 -1 0 0 2538c.dat
1 30009 680 -152 660 1 0 0 0 1 0 0 0 1 3028.dat
1 30009 680 -152 780 1 0 0 0 1 0 0 0 1 3028.dat
1 30009 680 -152 900 1 0 0 0 1 0 0 0 1 3028.dat
1 30009 680 -152 1020 1 0 0 0 1 0 0 0 1 3028.dat
1 30009 680 -152 1140 1 0 0 0 1 0 0 0 1 3028.dat
1 0 680 -80 600 1 0 0 0 1 0 0 0 1 95227.dat
1 72 540 -192 620 0 0 1 0 1 0 -1 0 0 69729.dat
1 72 820 -192 620 0 0 1 0 1 0 -1 0 0 69729.dat
1 0 680 -24 580 1 0 0 0 1 0 0 0 1 4201.dat
1 0 580 -24 600 0 0 1 0 1 0 -1 0 0 2456.dat
1 0 780 -24 600 0 0 1 0 1 0 -1 0 0 2456.dat
1 0 580 -24 520 1 0 0 0 1 0 0 0 1 3003.dat
1 0 780 -24 520 1 0 0 0 1 0 0 0 1 3003.dat
1 30009 680 -152 540 1 0 0 0 1 0 0 0 1 3028.dat
1 30009 680 -152 460 1 0 0 0 1 0 0 0 1 2445.dat
1 308 540 -152 620 0 0 1 0 1 0 -1 0 0 6213.dat
1 308 540 -152 1100 0 0 1 0 1 0 -1 0 0 6213.dat
1 308 540 -152 980 0 0 1 0 1 0 -1 0 0 6213.dat
1 308 540 -152 860 0 0 1 0 1 0 -1 0 0 6213.dat
1 308 540 -152 740 0 0 1 0 1 0 -1 0 0 6213.dat
1 308 540 -152 500 0 0 1 0 1 0 -1 0 0 6213.dat
1 308 820 -152 620 0 0 1 0 1 0 -1 0 0 6213.dat
1 308 820 -152 1100 0 0 1 0 1 0 -1 0 0 6213.dat
1 308 820 -152 980 0 0 1 0 1 0 -1 0 0 6213.dat
1 308 820 -152 860 0 0 1 0 1 0 -1 0 0 6213.dat
1 308 820 -152 740 0 0 1 0 1 0 -1 0 0 6213.dat
1 308 820 -152 500 0 0 1 0 1 0 -1 0 0 6213.dat
1 83 680 -32 320 1 0 0 0 1 0 0 0 1 3022.dat
1 83 680 -56 310 1 0 0 0 1 0 0 0 1 3660b.dat
1 83 680 -80 290 1 0 0 0 1 0 0 0 1 3660b.dat
1 83 680 -104 270 1 0 0 0 1 0 0 0 1 3660b.dat
1 83 680 -128 250 1 0 0 0 1 0 0 0 1 3747b.dat
1 83 680 -152 210 1 0 0 0 1 0 0 0 1 3747b.dat
1 83 680 -176 200 1 0 0 0 1 0 0 0 1 43713.dat
1 83 680 -184 110 1 0 0 0 1 0 0 0 1 48336.dat
1 83 680 -204 48 1 0 0 0 -0.5 0.866025 0 -0.866025 -0.5 48457.dat
1 83 680 -267 -51.3398 1 0 0 0 0.866025 0.5 0 -0.5 0.866025 42445.dat
1 0 680 -376 450 0 1 0 0 0 -1 -1 0 0 85651.dat
1 0 680 -760 890 1 0 0 0 1 0 0 0 1 36069b.dat
1 0 686 -408 960 0 -1 0 0 0 -1 1 0 0 u66.dat
1 19 606.5065 -460.9302 920 0 0.984808 -0.173647 0 0.173647 0.984808 1 0 0 2541.dat
1 19 753.4935 -460.9303 920 0 0.984808 0.173648 0 -0.173648 0.984808 1 0 0 2541.dat
1 308 820 -176 1100 0 0 1 0 1 0 -1 0 0 2456.dat
1 308 820 -176 980 0 0 1 0 1 0 -1 0 0 2456.dat
1 308 820 -176 860 0 0 1 0 1 0 -1 0 0 2456.dat
1 308 820 -176 740 0 0 1 0 1 0 -1 0 0 2456.dat
1 308 820 -176 620 0 0 1 0 1 0 -1 0 0 2456.dat
1 308 820 -176 500 0 0 1 0 1 0 -1 0 0 2456.dat
1 308 820 -176 1180 0 0 1 0 1 0 -1 0 0 30145.dat
1 308 540 -176 1100 0 0 1 0 1 0 -1 0 0 2456.dat
1 308 540 -176 980 0 0 1 0 1 0 -1 0 0 2456.dat
1 308 540 -176 860 0 0 1 0 1 0 -1 0 0 2456.dat
1 308 540 -176 740 0 0 1 0 1 0 -1 0 0 2456.dat
1 308 540 -176 620 0 0 1 0 1 0 -1 0 0 2456.dat
1 308 540 -176 500 0 0 1 0 1 0 -1 0 0 2456.dat
1 72 820 -192 1110 1 0 0 0 1 0 0 0 1 85984.dat
1 308 820 -200 1160 0 0 1 0 1 0 -1 0 0 3001.dat
1 72 820 -208 1130 1 0 0 0 1 0 0 0 1 3069b.dat
1 308 820 -208 1170 0 0 1 0 1 0 -1 0 0 3021.dat
1 308 820 -184 620 0 0 1 0 1 0 -1 0 0 3795.dat
1 308 820 -184 740 0 0 1 0 1 0 -1 0 0 3795.dat
1 308 820 -184 860 0 0 1 0 1 0 -1 0 0 3795.dat
1 308 820 -184 980 0 0 1 0 1 0 -1 0 0 3795.dat
1 308 820 -184 1080 0 0 1 0 1 0 -1 0 0 3020.dat
1 308 820 -192 1110 1 0 0 0 1 0 0 0 1 3023a.dat
1 308 820 -184 500 0 0 1 0 1 0 -1 0 0 3795.dat
1 308 820 -200 420 0 0 1 0 1 0 -1 0 0 30145.dat
1 308 730 -176 280 1 0 0 0 1 0 0 0 1 42023.dat
1 308 630 -176 280 1 0 0 0 1 0 0 0 1 42023.dat
1 308 750 -176 290 1 0 0 0 1 0 0 0 1 13547.dat
1 308 610 -176 290 1 0 0 0 1 0 0 0 1 13547.dat
1 308 770 -168 270 1 0 0 0 1 0 0 0 1 24201.dat
1 308 590 -168 270 1 0 0 0 1 0 0 0 1 24201.dat
1 308 770 -176 310 0 0 -1 0 1 0 1 0 0 2357.dat
1 308 590 -176 310 1 0 0 0 1 0 0 0 1 2357.dat
1 308 800 -176 340 1 0 0 0 1 0 0 0 1 87620.dat
1 308 560 -176 340 0 0 1 0 1 0 -1 0 0 87620.dat
1 308 540 -200 420 0 0 1 0 1 0 -1 0 0 30145.dat
0 !LEOCAD PIECE PIVOT  0 0 0 1 0 0 0 1 0 0 0 1
1 308 820 -176 380 1 0 0 0 1 0 0 0 1 3003.dat
0 !LEOCAD PIECE PIVOT  0 0 0 1 0 0 0 1 0 0 0 1
1 308 540 -176 380 1 0 0 0 1 0 0 0 1 3003.dat
0 !LEOCAD PIECE PIVOT  0 0 0 1 0 0 0 1 0 0 0 1
1 308 540 -200 380 1 0 0 0 1 0 0 0 1 3003.dat
0 !LEOCAD PIECE PIVOT  0 0 0 1 0 0 0 1 0 0 0 1
1 308 820 -200 380 1 0 0 0 1 0 0 0 1 3003.dat
1 308 800 -200 340 1 0 0 0 1 0 0 0 1 87620.dat
1 308 770 -200 310 0 0 -1 0 1 0 1 0 0 2357.dat
1 308 560 -200 340 0 0 1 0 1 0 -1 0 0 87620.dat
1 308 590 -200 310 1 0 0 0 1 0 0 0 1 2357.dat
1 83 680 -152 250 0 0 -1 0 1 0 1 0 0 3002.dat
1 83 680 -160 240 1 0 0 0 1 0 0 0 1 3020.dat
1 83 680 -160 270 1 0 0 0 1 0 0 0 1 3710.dat
1 30009 570 -160 350 1 0 0 0 1 0 0 0 1 2420.dat
1 30009 790 -160 350 0 0 -1 0 1 0 1 0 0 2420.dat
1 308 770 -168 290 1 0 0 0 1 0 0 0 1 3024.dat
1 308 590 -168 290 1 0 0 0 1 0 0 0 1 3024.dat
1 308 600 -176 280 1 0 0 0 1 0 0 0 1 3022.dat
1 308 760 -176 280 1 0 0 0 1 0 0 0 1 3022.dat
1 308 630 -184 200 0 0 1 0 1 0 -1 0 0 88072.dat
1 308 730 -184 200 0 0 -1 0 1 0 1 0 0 88072.dat
1 15 610 -216 200 0 0 1 0 1 0 -1 0 0 3626bpaq.dat
1 15 750 -216 200 0 0 -1 0 1 0 1 0 0 3626bpaq.dat
1 0 568 -184 280 0 1 0 0 0 -1 -1 0 0 95354.dat
1 308 590 -184 280 0 0 1 0 1 0 -1 0 0 14704.dat
1 308 770 -184 280 0 0 -1 0 1 0 1 0 0 3023b.dat
1 72 540 -192 1110 1 0 0 0 1 0 0 0 1 85984.dat
1 308 540 -200 1160 0 0 1 0 1 0 -1 0 0 3001.dat
1 72 540 -208 1130 1 0 0 0 1 0 0 0 1 3069b.dat
1 308 540 -208 1170 0 0 1 0 1 0 -1 0 0 3021.dat
1 308 540 -184 620 0 0 1 0 1 0 -1 0 0 3795.dat
1 308 540 -184 740 0 0 1 0 1 0 -1 0 0 3795.dat
1 308 540 -184 860 0 0 1 0 1 0 -1 0 0 3795.dat
1 308 540 -184 980 0 0 1 0 1 0 -1 0 0 3795.dat
1 308 540 -184 1080 0 0 1 0 1 0 -1 0 0 3020.dat
1 308 540 -192 1110 1 0 0 0 1 0 0 0 1 3023a.dat
1 308 540 -184 500 0 0 1 0 1 0 -1 0 0 3795.dat
1 308 820 -200 1220 0 0 1 0 1 0 -1 0 0 30145.dat
1 308 820 -224 1260 0 0 1 0 1 0 -1 0 0 30145.dat
1 308 820 -272 1320 0 0 1 0 1 0 -1 0 0 30145.dat
1 308 760 -224 1360 0 0 -1 0 1 0 1 0 0 2577.dat
1 308 760 -248 1360 0 0 -1 0 1 0 1 0 0 2577.dat
1 308 760 -272 1360 0 0 -1 0 1 0 1 0 0 2577.dat
1 308 760 -296 1360 0 0 -1 0 1 0 1 0 0 2577.dat
1 308 600 -224 1360 -1 0 0 0 1 0 0 0 -1 2577.dat
1 308 600 -248 1360 -1 0 0 0 1 0 0 0 -1 2577.dat
1 308 600 -272 1360 -1 0 0 0 1 0 0 0 -1 2577.dat
1 308 600 -296 1360 -1 0 0 0 1 0 0 0 -1 2577.dat
1 308 560 -304 1400 -1 0 0 0 1 0 0 0 -1 30565.dat
1 308 800 -304 1400 0 0 -1 0 1 0 1 0 0 30565.dat
1 308 820 -232 1220 1 0 0 0 1 0 0 0 1 3022.dat
1 308 820 -232 1270 0 0 1 0 1 0 -1 0 0 3021.dat
1 308 820 -304 1330 0 0 1 0 1 0 -1 0 0 3021.dat
1 308 820 -296 1330 0 0 -1 0 1 0 1 0 0 3002.dat
1 308 820 -224 1220 0 0 1 0 1 0 -1 0 0 3003.dat
1 308 820 -256 1270 0 0 1 0 1 0 -1 0 0 3002.dat
1 308 820 -224 1290 1 0 0 0 1 0 0 0 1 22886.dat
1 308 820 -272 1350 1 0 0 0 1 0 0 0 1 22886.dat
1 308 540 -176 1330 0 0 -1 0 1 0 1 0 0 3002.dat
1 308 540 -200 1330 0 0 -1 0 1 0 1 0 0 3002.dat
1 308 540 -176 1180 0 0 1 0 1 0 -1 0 0 30145.dat
1 308 540 -200 1220 0 0 1 0 1 0 -1 0 0 30145.dat
1 308 540 -224 1260 0 0 1 0 1 0 -1 0 0 30145.dat
1 308 540 -272 1320 0 0 1 0 1 0 -1 0 0 30145.dat
1 308 540 -232 1220 1 0 0 0 1 0 0 0 1 3022.dat
1 308 540 -232 1270 0 0 1 0 1 0 -1 0 0 3021.dat
1 308 540 -304 1330 0 0 1 0 1 0 -1 0 0 3021.dat
1 308 540 -296 1330 0 0 -1 0 1 0 1 0 0 3002.dat
1 308 540 -224 1220 0 0 1 0 1 0 -1 0 0 3003.dat
1 308 540 -256 1270 0 0 1 0 1 0 -1 0 0 3002.dat
1 308 540 -224 1290 1 0 0 0 1 0 0 0 1 22886.dat
1 308 540 -272 1350 1 0 0 0 1 0 0 0 1 22886.dat
1 308 710 -240 1210 0.5 0 -0.866025 0 1 0 0.866025 0 0.5 64390.dat
1 308 760 -184 1210 1 0 0 0 1 0 0 0 1 3010.dat
1 308 730 -192 1210 0 0 1 0 1 0 -1 0 0 4085b.dat
1 308 760 -216 1210 1 0 0 0 1 0 0 0 1 3010.dat
1 308 760 -224 1210 1 0 0 0 1 0 0 0 1 3710.dat
1 308 730 -240 1210 0 0 1 0 1 0 -1 0 0 4085b.dat
1 308 770 -240 1210 1 0 0 0 1 0 0 0 1 3623.dat
1 308 770 -192 1210 1 0 0 0 1 0 0 0 1 3623.dat
1 308 760 -264 1210 1 0 0 0 1 0 0 0 1 3010.dat
1 308 760 -232 1210 1 0 0 0 1 0 0 0 1 3710.dat
1 308 680 -304 1210 -1 0 0 0 1 0 0 0 -1 92950.dat
1 308 600 -232 1210 1 0 0 0 1 0 0 0 1 49311.dat
1 308 600 -256 1210 1 0 0 0 1 0 0 0 1 3010.dat
1 308 600 -280 1210 1 0 0 0 1 0 0 0 1 3010.dat
1 308 760 -272 1210 1 0 0 0 1 0 0 0 1 3710.dat
1 308 760 -280 1210 1 0 0 0 1 0 0 0 1 3710.dat
1 308 590 -304 1210 1 0 0 0 1 0 0 0 1 3622.dat
1 308 790 -304 1210 1 0 0 0 1 0 0 0 1 3005.dat
1 308 760 -304 1210 1 0 0 0 1 0 0 0 1 3023b.dat
1 308 760 -288 1210 1 0 0 0 1 0 0 0 1 3023b.dat
1 72 540 -192 450 -1 0 0 0 1 0 0 0 -1 85984.dat
1 72 540 -192 470 -1 0 0 0 1 0 0 0 -1 3069b.dat
1 72 540 -208 400 0 0 1 0 1 0 -1 0 0 87079.dat
1 72 550 -208 330 1 0 0 0 1 0 0 0 1 27263.dat
1 72 590 -208 310 1 0 0 0 1 0 0 0 1 14719.dat
1 308 540 -192 450 -1 0 0 0 1 0 0 0 -1 3023b.dat
1 308 740 -200 260 0 0 1 0 1 0 -1 0 0 3001.dat
1 308 620 -200 260 0 0 1 0 1 0 -1 0 0 3001.dat
1 72 620 -208 260 0 0 1 0 1 0 -1 0 0 87079.dat
1 308 590 -192 280 0 0 1 0 1 0 -1 0 0 3023b.dat
1 308 590 -200 280 0 0 1 0 1 0 -1 0 0 3023b.dat
1 308 630 -192 200 0 0 1 0 1 0 -1 0 0 3023b.dat
1 308 630 -200 200 0 0 1 0 1 0 -1 0 0 3023b.dat
1 308 730 -192 200 0 0 1 0 1 0 -1 0 0 3023b.dat
1 308 730 -200 200 0 0 1 0 1 0 -1 0 0 3023b.dat
1 72 590 -208 280 0 0 1 0 1 0 -1 0 0 3069b.dat
1 72 630 -208 200 0 0 1 0 1 0 -1 0 0 3069b.dat
1 308 770 -192 280 0 0 1 0 1 0 -1 0 0 3023b.dat
1 308 770 -200 280 0 0 1 0 1 0 -1 0 0 3023b.dat
1 72 770 -208 280 0 0 1 0 1 0 -1 0 0 3069b.dat
1 72 730 -208 200 0 0 1 0 1 0 -1 0 0 3069b.dat
1 72 740 -208 260 0 0 1 0 1 0 -1 0 0 87079.dat
1 72 770 -208 310 0 0 -1 0 1 0 1 0 0 14719.dat
1 72 810 -208 330 0 0 -1 0 1 0 1 0 0 27263.dat
1 72 820 -208 400 0 0 1 0 1 0 -1 0 0 87079.dat
1 72 820 -192 450 -1 0 0 0 1 0 0 0 -1 85984.dat
1 72 820 -192 520 0 0 1 0 1 0 -1 0 0 87079.dat
1 72 820 -192 470 -1 0 0 0 1 0 0 0 -1 3069b.dat
1 308 820 -192 450 -1 0 0 0 1 0 0 0 -1 3023b.dat
1 86 482.752 -179.0962 540 -0.939693 0.34202 0 0.34202 0.939693 0 0 0 -1 69729.dat
1 86 482.752 -179.0962 500 -0.939693 0.34202 0 0.34202 0.939693 0 0 0 -1 69729.dat
1 86 369.9886 -138.0536 500 -0.939693 0.34202 0 0.34202 0.939693 0 0 0 -1 69729.dat
1 86 369.9886 -138.0537 540 -0.939693 0.34202 0 0.34202 0.939693 0 0 0 -1 69729.dat
1 86 257.2251 -97.0111 500 -0.939693 0.34202 0 0.34202 0.939693 0 0 0 -1 69729.dat
1 86 257.2251 -97.0111 540 -0.939693 0.34202 0 0.34202 0.939693 0 0 0 -1 69729.dat
1 308 190 -64 500 0 0 1 0 1 0 -1 0 0 85984.dat
1 308 190 -64 540 0 0 1 0 1 0 -1 0 0 85984.dat
1 308 210 -72 520 0 0 1 0 1 0 -1 0 0 3710.dat
1 308 570 -176 500 0 0 -1 0 1 0 1 0 0 85984.dat
1 308 570 -176 540 0 0 -1 0 1 0 1 0 0 85984.dat
1 308 590 -160 540 0 0 -1 0 1 0 1 0 0 85984.dat
1 308 590 -160 500 0 0 -1 0 1 0 1 0 0 85984.dat
1 308 570 -168 520 0 0 1 0 1 0 -1 0 0 3710.dat
1 308 570 -176 520 0 0 1 0 1 0 -1 0 0 3710.dat
1 72 550 -192 520 0 0 1 0 1 0 -1 0 0 2431.dat
1 6 760 -160 1140 1 0 0 0 1 0 0 0 1 87079.dat
1 6 740 -160 1180 1 0 0 0 1 0 0 0 1 69729.dat
1 6 660 -160 1140 1 0 0 0 1 0 0 0 1 69729.dat
1 6 620 -160 1180 1 0 0 0 1 0 0 0 1 69729.dat
1 6 580 -160 1140 1 0 0 0 1 0 0 0 1 3068b.dat
1 6 780 -160 1100 1 0 0 0 1 0 0 0 1 3068b.dat
1 6 720 -160 1100 1 0 0 0 1 0 0 0 1 87079.dat
1 6 620 -160 1020 1 0 0 0 1 0 0 0 1 69729.dat
1 6 740 -160 1060 1 0 0 0 1 0 0 0 1 87079.dat
1 6 590 -160 1060 1 0 0 0 1 0 0 0 1 26603.dat
1 6 660 -160 1060 1 0 0 0 1 0 0 0 1 87079.dat
1 6 790 -160 1060 0 0 1 0 1 0 -1 0 0 3069b.dat
1 6 710 -160 1020 1 0 0 0 1 0 0 0 1 26603.dat
1 6 620 -160 1100 1 0 0 0 1 0 0 0 1 69729.dat
1 6 770 -160 1020 1 0 0 0 1 0 0 0 1 26603.dat
1 6 620 -160 980 1 0 0 0 1 0 0 0 1 69729.dat
1 6 740 -160 980 1 0 0 0 1 0 0 0 1 69729.dat
1 6 720 -160 940 1 0 0 0 1 0 0 0 1 87079.dat
1 6 620 -160 940 1 0 0 0 1 0 0 0 1 69729.dat
1 6 780 -160 940 1 0 0 0 1 0 0 0 1 3068b.dat
1 6 590 -160 900 1 0 0 0 1 0 0 0 1 26603.dat
1 6 630 -160 900 0 0 1 0 1 0 -1 0 0 3069b.dat
1 6 660 -160 900 1 0 0 0 1 0 0 0 1 3068b.dat
1 6 740 -160 900 1 0 0 0 1 0 0 0 1 69729.dat
1 6 580 -160 860 1 0 0 0 1 0 0 0 1 3068b.dat
1 6 660 -160 860 1 0 0 0 1 0 0 0 1 69729.dat
1 6 760 -160 860 1 0 0 0 1 0 0 0 1 87079.dat
1 6 790 -160 820 0 0 1 0 1 0 -1 0 0 3069b.dat
1 6 740 -160 820 1 0 0 0 1 0 0 0 1 87079.dat
1 6 660 -160 820 1 0 0 0 1 0 0 0 1 87079.dat
1 6 590 -160 820 1 0 0 0 1 0 0 0 1 26603.dat
1 6 740 -160 780 1 0 0 0 1 0 0 0 1 69729.dat
1 6 620 -160 780 1 0 0 0 1 0 0 0 1 69729.dat
1 6 710 -160 700 1 0 0 0 1 0 0 0 1 26603.dat
1 6 620 -160 700 1 0 0 0 1 0 0 0 1 69729.dat
1 6 770 -160 700 1 0 0 0 1 0 0 0 1 26603.dat
1 6 760 -160 740 1 0 0 0 1 0 0 0 1 87079.dat
1 6 660 -160 740 1 0 0 0 1 0 0 0 1 69729.dat
1 6 580 -160 740 1 0 0 0 1 0 0 0 1 3068b.dat
1 6 740 -160 660 1 0 0 0 1 0 0 0 1 87079.dat
1 6 660 -160 660 1 0 0 0 1 0 0 0 1 87079.dat
1 6 590 -160 660 1 0 0 0 1 0 0 0 1 26603.dat
1 6 790 -160 660 0 0 1 0 1 0 -1 0 0 3069b.dat
1 6 630 -160 620 0 0 1 0 1 0 -1 0 0 3069b.dat
1 6 740 -160 620 1 0 0 0 1 0 0 0 1 69729.dat
1 6 660 -160 620 1 0 0 0 1 0 0 0 1 3068b.dat
1 6 590 -160 620 1 0 0 0 1 0 0 0 1 26603.dat
1 6 620 -160 580 1 0 0 0 1 0 0 0 1 69729.dat
1 6 740 -160 580 1 0 0 0 1 0 0 0 1 69729.dat
1 6 620 -160 500 1 0 0 0 1 0 0 0 1 69729.dat
1 6 740 -160 540 1 0 0 0 1 0 0 0 1 87079.dat
1 6 590 -160 540 1 0 0 0 1 0 0 0 1 26603.dat
1 6 660 -160 540 1 0 0 0 1 0 0 0 1 87079.dat
1 6 790 -160 540 0 0 1 0 1 0 -1 0 0 3069b.dat
1 6 710 -160 500 1 0 0 0 1 0 0 0 1 26603.dat
1 6 770 -160 500 1 0 0 0 1 0 0 0 1 26603.dat
1 6 760 -160 460 1 0 0 0 1 0 0 0 1 87079.dat
1 6 660 -160 460 1 0 0 0 1 0 0 0 1 69729.dat
1 6 580 -160 460 1 0 0 0 1 0 0 0 1 3068b.dat
1 6 620 -160 420 1 0 0 0 1 0 0 0 1 69729.dat
1 6 710 -160 420 1 0 0 0 1 0 0 0 1 26603.dat
1 6 770 -160 420 1 0 0 0 1 0 0 0 1 26603.dat
1 6 590 -160 390 -1 0 0 0 1 0 0 0 -1 14719.dat
1 6 770 -160 390 0 0 1 0 1 0 -1 0 0 14719.dat
1 6 660 -160 380 1 0 0 0 1 0 0 0 1 69729.dat
1 6 740 -160 380 1 0 0 0 1 0 0 0 1 3068b.dat
1 6 730 -160 340 1 0 0 0 1 0 0 0 1 26603.dat
1 6 670 -160 340 1 0 0 0 1 0 0 0 1 26603.dat
1 6 620 -160 340 1 0 0 0 1 0 0 0 1 3068b.dat
1 6 710 -160 310 0 0 1 0 1 0 -1 0 0 14719.dat
1 6 650 -160 310 -1 0 0 0 1 0 0 0 -1 14719.dat
1 6 680 -160 300 1 0 0 0 1 0 0 0 1 3068b.dat
1 6 790 -168 350 0 0 -1 0 1 0 1 0 0 14719.dat
1 6 570 -168 350 1 0 0 0 1 0 0 0 1 14719.dat
1 308 540 -280 1220 -1 0 0 0 1 0 0 0 -1 3003.dat
1 72 540 -280 1190 1 0 0 0 1 0 0 0 1 3004.dat
1 308 820 -280 1220 -1 0 0 0 1 0 0 0 -1 3003.dat
1 72 820 -280 1190 1 0 0 0 1 0 0 0 1 3004.dat
1 72 600 -376 1360 -1 0 0 0 1 0 0 0 -1 27507.dat
1 72 760 -376 1360 0 0 -1 0 1 0 1 0 0 27507.dat
1 72 830 -376 1280 0 0 1 0 1 0 -1 0 0 4162.dat
1 72 680 -376 1430 1 0 0 0 1 0 0 0 1 4162.dat
1 72 530 -376 1280 0 0 1 0 1 0 -1 0 0 4162.dat
1 72 620 -376 1210 -1 0 0 0 1 0 0 0 -1 4162.dat
1 370 760 -288 1170 1 0 0 0 1 0 0 0 1 2431.dat
1 370 760 -264 1150 1 0 0 0 1 0 0 0 1 2431.dat
1 370 760 -240 1130 1 0 0 0 1 0 0 0 1 2431.dat
1 370 760 -216 1110 1 0 0 0 1 0 0 0 1 2431.dat
1 370 760 -192 1090 1 0 0 0 1 0 0 0 1 2431.dat
1 370 760 -312 1190 1 0 0 0 1 0 0 0 1 2431.dat
1 370 760 -320 1210 -1 0 0 0 1 0 0 0 -1 6636.dat
1 370 740 -320 1230 -1 0 0 0 1 0 0 0 -1 4162.dat
1 370 620 -320 1250 -1 0 0 0 1 0 0 0 -1 4162.dat
1 370 620 -320 1270 -1 0 0 0 1 0 0 0 -1 4162.dat
1 370 700 -320 1290 -1 0 0 0 1 0 0 0 -1 4162.dat
1 370 680 -320 1310 -1 0 0 0 1 0 0 0 -1 4162.dat
1 370 700 -320 1330 -1 0 0 0 1 0 0 0 -1 4162.dat
1 370 640 -320 1350 -1 0 0 0 1 0 0 0 -1 4162.dat
1 370 740 -320 1370 -1 0 0 0 1 0 0 0 -1 4162.dat
1 370 620 -320 1390 -1 0 0 0 1 0 0 0 -1 4162.dat
1 370 720 -320 1410 -1 0 0 0 1 0 0 0 -1 4162.dat
1 370 790 -320 1310 -1 0 0 0 1 0 0 0 -1 63864.dat
1 370 570 -320 1310 -1 0 0 0 1 0 0 0 -1 63864.dat
1 370 600 -320 1230 -1 0 0 0 1 0 0 0 -1 6636.dat
1 370 760 -320 1250 -1 0 0 0 1 0 0 0 -1 6636.dat
1 370 760 -320 1270 -1 0 0 0 1 0 0 0 -1 6636.dat
1 370 600 -320 1370 -1 0 0 0 1 0 0 0 -1 6636.dat
1 370 760 -320 1390 -1 0 0 0 1 0 0 0 -1 6636.dat
1 370 580 -320 1330 -1 0 0 0 1 0 0 0 -1 2431.dat
1 370 580 -320 1290 -1 0 0 0 1 0 0 0 -1 2431.dat
1 370 750 -320 1350 -1 0 0 0 1 0 0 0 -1 63864.dat
1 370 800 -320 1350 -1 0 0 0 1 0 0 0 -1 3069b.dat
1 370 800 -320 1330 -1 0 0 0 1 0 0 0 -1 3069b.dat
1 370 800 -320 1290 -1 0 0 0 1 0 0 0 -1 3069b.dat
1 370 550 -320 1350 -1 0 0 0 1 0 0 0 -1 3070b.dat
1 370 600 -320 1410 -1 0 0 0 1 0 0 0 -1 2431.dat
1 308 620 -320 1210 -1 0 0 0 1 0 0 0 -1 3460.dat
1 308 680 -320 1430 1 0 0 0 1 0 0 0 1 3460.dat
1 308 600 -320 1360 -1 0 0 0 1 0 0 0 -1 80015.dat
1 308 760 -320 1360 0 0 -1 0 1 0 1 0 0 80015.dat
1 308 530 -320 1310 0 0 -1 0 1 0 1 0 0 3623.dat
1 308 530 -320 1240 0 0 1 0 1 0 -1 0 0 3710.dat
1 308 830 -320 1310 0 0 -1 0 1 0 1 0 0 3623.dat
1 308 830 -320 1240 0 0 1 0 1 0 -1 0 0 3710.dat
1 86 50 -105.9808 1115 0 0 1 -0.866025 0.5 0 -0.5 -0.866025 0 87079.dat
1 308 -10 -128 300 0 0 1 0 1 0 -1 0 0 6079.dat
1 308 0 -24 220 1 0 0 0 1 0 0 0 1 6143.dat
1 308 0 -48 220 1 0 0 0 1 0 0 0 1 6143.dat
1 6 0 -64 610 1 0 0 0 1 0 0 0 1 2412a.dat
1 6 40 -64 610 1 0 0 0 1 0 0 0 1 2412a.dat
1 6 80 -64 610 1 0 0 0 1 0 0 0 1 2412a.dat
1 6 120 -64 610 1 0 0 0 1 0 0 0 1 2412a.dat
1 6 160 -64 610 1 0 0 0 1 0 0 0 1 2412a.dat
1 6 200 -64 610 1 0 0 0 1 0 0 0 1 2412a.dat
1 6 0 -64 470 1 0 0 0 1 0 0 0 1 2412a.dat
1 6 40 -64 470 1 0 0 0 1 0 0 0 1 2412a.dat
1 6 80 -64 470 1 0 0 0 1 0 0 0 1 2412a.dat
1 6 120 -64 470 1 0 0 0 1 0 0 0 1 2412a.dat
1 6 160 -64 470 1 0 0 0 1 0 0 0 1 2412a.dat
1 6 200 -64 470 1 0 0 0 1 0 0 0 1 2412a.dat
1 6 0 -64 330 1 0 0 0 1 0 0 0 1 2412a.dat
1 6 40 -64 330 1 0 0 0 1 0 0 0 1 2412a.dat
1 6 80 -64 330 1 0 0 0 1 0 0 0 1 2412a.dat
1 6 120 -64 330 1 0 0 0 1 0 0 0 1 2412a.dat
1 6 160 -64 330 1 0 0 0 1 0 0 0 1 2412a.dat
1 6 200 -64 330 1 0 0 0 1 0 0 0 1 2412a.dat
1 6 0 -64 750 1 0 0 0 1 0 0 0 1 2412a.dat
1 6 40 -64 750 1 0 0 0 1 0 0 0 1 2412a.dat
1 6 80 -64 750 1 0 0 0 1 0 0 0 1 2412a.dat
1 6 120 -64 750 1 0 0 0 1 0 0 0 1 2412a.dat
1 6 160 -64 750 1 0 0 0 1 0 0 0 1 2412a.dat
1 6 200 -64 750 1 0 0 0 1 0 0 0 1 2412a.dat
1 6 0 -64 890 1 0 0 0 1 0 0 0 1 2412a.dat
1 6 40 -64 890 1 0 0 0 1 0 0 0 1 2412a.dat
1 6 80 -64 890 1 0 0 0 1 0 0 0 1 2412a.dat
1 6 120 -64 890 1 0 0 0 1 0 0 0 1 2412a.dat
1 6 160 -64 890 1 0 0 0 1 0 0 0 1 2412a.dat
1 6 200 -64 890 1 0 0 0 1 0 0 0 1 2412a.dat
1 6 0 -64 1030 1 0 0 0 1 0 0 0 1 2412a.dat
1 6 40 -64 1030 1 0 0 0 1 0 0 0 1 2412a.dat
1 6 80 -64 1030 1 0 0 0 1 0 0 0 1 2412a.dat
1 6 120 -64 1030 1 0 0 0 1 0 0 0 1 2412a.dat
1 6 160 -64 1030 1 0 0 0 1 0 0 0 1 2412a.dat
1 6 200 -64 1030 1 0 0 0 1 0 0 0 1 2412a.dat
1 6 -120 -56 980 1 0 0 0 1 0 0 0 1 3033.dat
1 6 -120 -56 1100 1 0 0 0 1 0 0 0 1 3033.dat
1 19 -240 -56 1040 0 0 -1 0 1 0 1 0 0 2445.dat
1 19 -380 -88 920 0 0 1 0 1 0 -1 0 0 30072.dat
1 19 -180 -88 600 1 0 0 0 1 0 0 0 1 4204.dat
1 19 -420 -88 600 1 0 0 0 1 0 0 0 1 4201.dat
1 86 -230 -64 1100 0 0 -1 0 1 0 1 0 0 6636.dat
1 86 -230 -64 980 0 0 -1 0 1 0 1 0 0 6636.dat
1 19 -250 -64 1040 0 0 -1 0 1 0 1 0 0 60479.dat
1 19 -250 -72 1040 0 0 -1 0 1 0 1 0 0 60479.dat
1 86 -250 -80 1100 0 0 -1 0 1 0 1 0 0 6636.dat
1 86 -250 -80 980 0 0 -1 0 1 0 1 0 0 6636.dat
1 86 -270 -96 1080 0 0 -1 0 1 0 1 0 0 6636.dat
1 86 -320 -96 1150 -1 0 0 0 1 0 0 0 -1 6636.dat
1 86 -440 -96 1150 -1 0 0 0 1 0 0 0 -1 6636.dat
1 19 -160 -88 780 0 0 1 0 1 0 -1 0 0 733.dat
1 19 -40 -88 780 0 0 1 0 1 0 -1 0 0 3006.dat
1 19 -160 -88 900 1 0 0 0 1 0 0 0 1 3006.dat
1 19 -50 -88 890 0 0 -1 0 1 0 1 0 0 85080.dat
1 86 -50 -96 890 0 0 -1 0 1 0 1 0 0 27925.dat
1 308 -60 -112 880 0 0 1 0 1 0 -1 0 0 3941.dat
1 308 -60 -136 880 0 0 1 0 1 0 -1 0 0 3941.dat
1 8 -60 -144 880 0 0 1 0 1 0 -1 0 0 4150.dat
1 370 -120 -96 910 1 0 0 0 1 0 0 0 1 6636.dat
1 370 -220 -96 910 1 0 0 0 1 0 0 0 1 2431.dat
1 86 -270 -96 960 0 0 -1 0 1 0 1 0 0 6636.dat
1 19 -510 -136 1080 0 0 -1 0 1 0 1 0 0 15533.dat
1 19 -540 -160 1050 1 0 0 0 1 0 0 0 1 15533.dat
1 19 -510 -112 1100 0 0 1 0 1 0 -1 0 0 3010.dat
1 19 -610 -112 1100 0 0 1 0 1 0 -1 0 0 3010.dat
1 19 -560 -112 1150 1 0 0 0 1 0 0 0 1 3009.dat
1 19 -560 -112 1050 1 0 0 0 1 0 0 0 1 3009.dat
1 19 -510 -160 1100 0 0 1 0 1 0 -1 0 0 3010.dat
1 19 -510 -184 1100 0 0 -1 0 1 0 1 0 0 98283.dat
1 147 -510 -208 1120 0 0 1 0 1 0 -1 0 0 30136.dat
1 19 -510 -136 1140 0 0 1 0 1 0 -1 0 0 3004.dat
1 19 -510 -232 1100 0 0 1 0 1 0 -1 0 0 3010.dat
1 19 -510 -256 1080 0 0 -1 0 1 0 1 0 0 15533.dat
1 19 -510 -184 1060 0 0 1 0 1 0 -1 0 0 3004.dat
1 19 -540 -208 1050 1 0 0 0 1 0 0 0 1 15533.dat
1 19 -560 -160 1150 1 0 0 0 1 0 0 0 1 3009.dat
1 19 -510 -208 1070 0 0 -1 0 1 0 1 0 0 87087.dat
1 19 -510 -208 1090 0 0 1 0 1 0 -1 0 0 3005.dat
1 19 -490 -198 1070 0 -1 0 0 0 1 -1 0 0 6141.dat
1 147 -520 -208 1150 -1 0 0 0 1 0 0 0 -1 98283.dat
1 6 -510 -304 1100 0 0 -1 0 1 0 1 0 0 60592.dat
1 6 -510 -368 1100 0 0 -1 0 1 0 1 0 0 30044.dat
1 0 -510 -344 1100 0 0 -1 0 1 0 1 0 0 30046.dat
1 0 -510 -304 1100 0 0 -1 0 1 0 1 0 0 38320.dat
1 19 -510 -376 1100 0 0 -1 0 1 0 1 0 0 6182.dat
1 19 -510 -320 1130 0 0 -1 0 1 0 1 0 0 73825.dat
1 19 -490 -332.2259 1130 0 -1 0 1 0 0 0 0 1 96910.dat
1 19 -510 -320 1070 0 0 -1 0 1 0 1 0 0 73825.dat
1 19 -490 -332.2259 1070 0 -1 0 1 0 0 0 0 1 96910.dat
1 19 -510 -272 1070 0 0 -1 0 1 0 1 0 0 73825.dat
1 19 -490 -284.2259 1070 0 -1 0 1 0 0 0 0 1 96910.dat
1 19 -510 -272 1130 0 0 -1 0 1 0 1 0 0 73825.dat
1 19 -490 -284.2259 1130 0 -1 0 1 0 0 0 0 1 96910.dat
1 19 -510 -311.8174 1130 1 0 0 0 1 0 0 0 1 3005.dat
1 19 -510 -311.8174 1070 1 0 0 0 1 0 0 0 1 3005.dat
1 19 -510 -376 1050 0 0 -1 0 1 0 1 0 0 2453a.dat
1 19 -510 -376 1150 0 0 -1 0 1 0 1 0 0 2453a.dat
1 19 -510 -264 1070 0 0 -1 0 1 0 1 0 0 3024.dat
1 19 -510 -264 1130 0 0 -1 0 1 0 1 0 0 3024.dat
1 19 -510 -400 1080 0 0 -1 0 1 0 1 0 0 11211.dat
1 19 -510 -400 1120 0 0 -1 0 1 0 1 0 0 11211.dat
1 19 -490 -390 1100 0 -1 0 0 0 -1 1 0 0 96910.dat
1 19 -490 -390 1070 0 -1 0 1 0 0 0 0 1 49668.dat
1 19 -490 -390 1130 0 -1 0 -1 0 0 0 0 -1 49668.dat
1 320 -496.7905 -413.2095 1150 0 -0.866025 -0.5 0 -0.5 0.866025 -1 0 0 3062a.dat
1 320 -496.7905 -413.2095 1110 0 -0.866025 -0.5 0 -0.5 0.866025 -1 0 0 3062a.dat
1 18 -496.7905 -413.2095 1130 0 -0.866025 -0.5 0 -0.5 0.866025 -1 0 0 3062a.dat
1 422 -489.8622 -409.2094 1140 0 -0.866025 -0.5 0 -0.5 0.866025 -1 0 0 77845.dat
1 320 -517.5751 -425.2094 1130 0 -0.866025 -0.5 0 -0.5 0.866025 -1 0 0 3062a.dat
1 422 -517.5751 -425.2094 1100 0 -0.866025 -0.5 0 -0.5 0.866025 -1 0 0 3023b.dat
1 320 -524.5034 -429.2094 1110 0 -0.866025 -0.5 0 -0.5 0.866025 -1 0 0 6141.dat
1 308 -524.5034 -429.2094 1090 0 -0.866025 -0.5 0 -0.5 0.866025 -1 0 0 6141.dat
1 320 -533.1637 -434.2094 1110 0 -0.866025 -0.5 0 -0.5 0.866025 -1 0 0 6141.dat
1 308 -533.1637 -434.2094 1090 0 -0.866025 -0.5 0 -0.5 0.866025 -1 0 0 6141.dat
1 320 -496.7905 -413.2095 1090 0 -0.866025 -0.5 0 -0.5 0.866025 -1 0 0 3062a.dat
1 320 -496.7905 -413.2095 1050 0 -0.866025 -0.5 0 -0.5 0.866025 -1 0 0 3062a.dat
1 422 -489.8622 -409.2094 1060 0 -0.866025 -0.5 0 -0.5 0.866025 -1 0 0 77845.dat
1 4 -496.7905 -413.2095 1070 0 -0.866025 -0.5 0 -0.5 0.866025 -1 0 0 3062a.dat
1 320 -517.5751 -425.2094 1070 0 -0.866025 -0.5 0 -0.5 0.866025 -1 0 0 3062a.dat
1 18 -482.934 -405.2093 1130 0 -0.866025 -0.5 0 -0.5 0.866025 -1 0 0 98138.dat
1 320 -482.934 -405.2093 1170 0 -0.866025 -0.5 0 -0.5 0.866025 -1 0 0 98138.dat
1 320 -482.934 -405.2093 1150 0 -0.866025 -0.5 0 -0.5 0.866025 -1 0 0 98138.dat
1 320 -482.934 -405.2093 1110 0 -0.866025 -0.5 0 -0.5 0.866025 -1 0 0 98138.dat
1 320 -482.934 -405.2093 1090 0 -0.866025 -0.5 0 -0.5 0.866025 -1 0 0 98138.dat
1 320 -482.934 -405.2093 1050 0 -0.866025 -0.5 0 -0.5 0.866025 -1 0 0 98138.dat
1 320 -482.934 -405.2093 1070 0 -0.866025 -0.5 0 -0.5 0.866025 -1 0 0 98138.dat
1 320 -482.934 -405.2093 1030 0 -0.866025 -0.5 0 -0.5 0.866025 -1 0 0 98138.dat
1 6 -560.0283 -304 1149.9601 -1 0 0 0 1 0 0 0 -1 60592.dat
1 6 -560.0283 -368 1149.9601 -1 0 0 0 1 0 0 0 -1 30044.dat
1 0 -560.0283 -344 1149.9601 -1 0 0 0 1 0 0 0 -1 30046.dat
1 0 -560.0283 -304 1149.9601 -1 0 0 0 1 0 0 0 -1 38320.dat
1 19 -560.0283 -376 1149.9601 -1 0 0 0 1 0 0 0 -1 6182.dat
1 19 -590.0281 -320 1149.9602 -1 0 0 0 1 0 0 0 -1 73825.dat
1 19 -590.028 -332.2259 1169.9601 0 0 -1 1 0 0 0 -1 0 96910.dat
1 19 -530.0282 -320 1149.9602 -1 0 0 0 1 0 0 0 -1 73825.dat
1 19 -530.028 -332.2259 1169.9603 0 0 -1 1 0 0 0 -1 0 96910.dat
1 19 -530.0282 -272 1149.9602 -1 0 0 0 1 0 0 0 -1 73825.dat
1 19 -530.028 -284.2259 1169.9603 0 0 -1 1 0 0 0 -1 0 96910.dat
1 19 -590.0281 -272 1149.9602 -1 0 0 0 1 0 0 0 -1 73825.dat
1 19 -590.028 -284.2259 1169.9601 0 0 -1 1 0 0 0 -1 0 96910.dat
1 19 -590.0281 -311.8174 1149.9602 0 0 -1 0 1 0 1 0 0 3005.dat
1 19 -530.0282 -311.8174 1149.9602 0 0 -1 0 1 0 1 0 0 3005.dat
1 19 -530.0282 -264 1149.9602 -1 0 0 0 1 0 0 0 -1 3024.dat
1 19 -590.0281 -264 1149.9602 -1 0 0 0 1 0 0 0 -1 3024.dat
1 19 -540.0281 -400 1149.9602 -1 0 0 0 1 0 0 0 -1 11211.dat
1 19 -580.0282 -400 1149.9602 -1 0 0 0 1 0 0 0 -1 11211.dat
1 19 -560.0284 -390 1169.9602 -1 0 0 0 0 -1 0 -1 0 96910.dat
1 19 -530.028 -390 1169.9603 0 0 -1 1 0 0 0 -1 0 49668.dat
1 19 -590.028 -390 1169.9601 0 0 1 -1 0 0 0 -1 0 49668.dat
1 6 -610.4449 -304 1100 0 0 1 0 1 0 -1 0 0 60592.dat
1 6 -610.4449 -368 1100 0 0 1 0 1 0 -1 0 0 30044.dat
1 0 -610.4449 -344 1100 0 0 1 0 1 0 -1 0 0 30046.dat
1 0 -610.4449 -304 1100 0 0 1 0 1 0 -1 0 0 38320.dat
1 19 -610.4449 -376 1100 0 0 1 0 1 0 -1 0 0 6182.dat
1 19 -610.4449 -320 1070.0001 0 0 1 0 1 0 -1 0 0 73825.dat
1 19 -630.4448 -332.2259 1070 0 1 0 1 0 0 0 0 -1 96910.dat
1 19 -610.4448 -320 1129.9999 0 0 1 0 1 0 -1 0 0 73825.dat
1 19 -630.4448 -332.2259 1129.9999 0 1 0 1 0 0 0 0 -1 96910.dat
1 19 -610.4448 -272 1129.9999 0 0 1 0 1 0 -1 0 0 73825.dat
1 19 -630.4448 -284.2259 1129.9999 0 1 0 1 0 0 0 0 -1 96910.dat
1 19 -610.4449 -272 1070.0001 0 0 1 0 1 0 -1 0 0 73825.dat
1 19 -630.4448 -284.2259 1070 0 1 0 1 0 0 0 0 -1 96910.dat
1 19 -610.4449 -311.8174 1070.0001 -1 0 0 0 1 0 0 0 -1 3005.dat
1 19 -610.4448 -311.8174 1129.9999 -1 0 0 0 1 0 0 0 -1 3005.dat
1 19 -610.4448 -264 1129.9999 0 0 1 0 1 0 -1 0 0 3024.dat
1 19 -610.4449 -264 1070.0001 0 0 1 0 1 0 -1 0 0 3024.dat
1 19 -610.4449 -400 1120.0001 0 0 1 0 1 0 -1 0 0 11211.dat
1 19 -610.4448 -400 1079.9999 0 0 1 0 1 0 -1 0 0 11211.dat
1 19 -630.4448 -390 1100 0 1 0 0 0 -1 -1 0 0 96910.dat
1 19 -630.4448 -390 1129.9999 0 1 0 1 0 0 0 0 -1 49668.dat
1 19 -630.4448 -390 1070 0 1 0 -1 0 0 0 0 1 49668.dat
1 19 -580.0284 -400 1052.6876 1 0 0 0 1 0 0 0 1 11211.dat
1 19 -540.0283 -400 1052.6876 1 0 0 0 1 0 0 0 1 11211.dat
1 19 -560.0281 -390 1032.6876 1 0 0 0 0 -1 0 1 0 96910.dat
1 19 -590.0284 -390 1032.6875 0 0 1 1 0 0 0 1 0 49668.dat
1 19 -530.0285 -390 1032.6877 0 0 -1 -1 0 0 0 1 0 49668.dat
1 320 -560.4449 -464 1100.0001 0 0 1 0 1 0 -1 0 0 3942c.dat
1 320 -622.5139 -413.2095 1049.9999 -0.000001 0.866025 0.500001 0 -0.500001 0.866025 1 0.000001 0 3062a.dat
1 320 -622.5137 -413.2095 1090 -0.000001 0.866025 0.500001 0 -0.500001 0.866025 1 0.000001 0 3062a.dat
1 18 -622.5139 -413.2095 1069.9993 -0.000001 0.866025 0.500001 0 -0.500001 0.866025 1 0.000001 0 3062a.dat
1 422 -629.4419 -409.2094 1059.9994 -0.000001 0.866025 0.500001 0 -0.500001 0.866025 1 0.000001 0 77845.dat
1 320 -601.729 -425.2094 1069.9998 -0.000001 0.866025 0.500001 0 -0.500001 0.866025 1 0.000001 0 3062a.dat
1 422 -601.7289 -425.2094 1100.0001 -0.000001 0.866025 0.500001 0 -0.500001 0.866025 1 0.000001 0 3023b.dat
1 320 -594.8005 -429.2094 1089.9996 -0.000001 0.866025 0.500001 0 -0.500001 0.866025 1 0.000001 0 6141.dat
1 308 -594.8005 -429.2094 1110.0002 -0.000001 0.866025 0.500001 0 -0.500001 0.866025 1 0.000001 0 6141.dat
1 320 -586.1398 -434.2094 1089.9996 -0.000001 0.866025 0.500001 0 -0.500001 0.866025 1 0.000001 0 6141.dat
1 308 -586.141 -434.2094 1110.0001 -0.000001 0.866025 0.500001 0 -0.500001 0.866025 1 0.000001 0 6141.dat
1 320 -622.5138 -413.2095 1109.9999 -0.000001 0.866025 0.500001 0 -0.500001 0.866025 1 0.000001 0 3062a.dat
1 320 -622.5142 -413.2095 1150.0004 -0.000001 0.866025 0.500001 0 -0.500001 0.866025 1 0.000001 0 3062a.dat
1 422 -629.4416 -409.2094 1139.9999 -0.000001 0.866025 0.500001 0 -0.500001 0.866025 1 0.000001 0 77845.dat
1 4 -622.5138 -413.2095 1129.9999 -0.000001 0.866025 0.500001 0 -0.500001 0.866025 1 0.000001 0 3062a.dat
1 320 -601.729 -425.2094 1130.0009 -0.000001 0.866025 0.500001 0 -0.500001 0.866025 1 0.000001 0 3062a.dat
1 18 -636.3707 -405.2093 1070 -0.000001 0.866025 0.500001 0 -0.500001 0.866025 1 0.000001 0 98138.dat
1 320 -636.3705 -405.2093 1029.9998 -0.000001 0.866025 0.500001 0 -0.500001 0.866025 1 0.000001 0 98138.dat
1 320 -636.3705 -405.2093 1049.9993 -0.000001 0.866025 0.500001 0 -0.500001 0.866025 1 0.000001 0 98138.dat
1 320 -636.3702 -405.2093 1089.9998 -0.000001 0.866025 0.500001 0 -0.500001 0.866025 1 0.000001 0 98138.dat
1 320 -636.3701 -405.2093 1110 -0.000001 0.866025 0.500001 0 -0.500001 0.866025 1 0.000001 0 98138.dat
1 320 -636.3703 -405.2093 1150 -0.000001 0.866025 0.500001 0 -0.500001 0.866025 1 0.000001 0 98138.dat
1 320 -636.3704 -405.2093 1130.0005 -0.000001 0.866025 0.500001 0 -0.500001 0.866025 1 0.000001 0 98138.dat
1 320 -636.3701 -405.2093 1170.0002 -0.000001 0.866025 0.500001 0 -0.500001 0.866025 1 0.000001 0 98138.dat
1 19 -510 -400 1150 0 0 1 0 1 0 -1 0 0 3005.dat
1 19 -610 -400 1150 0 0 1 0 1 0 -1 0 0 3005.dat
1 19 -610 -400 1050 0 0 1 0 1 0 -1 0 0 3005.dat
1 19 -510 -400 1050 0 0 1 0 1 0 -1 0 0 3005.dat
1 6 -560.4449 -464 1100.0001 0 0 1 0 1 0 -1 0 0 63965a.dat
1 4 -560.4449 -568 1100.0001 -1 0 -0.000001 0 1 0 0.000001 0 -1 4495b.dat
1 19 -510 -184 1150 -1 0 0 0 1 0 0 0 -1 2357.dat
1 19 -550 -256 1150 0 0 1 0 1 0 -1 0 0 3005.dat
1 19 -570 -256 1150 0 0 1 0 1 0 -1 0 0 3005.dat
1 19 -590 -256 1150 0 0 1 0 1 0 -1 0 0 3005.dat
1 19 -510 -256 1140 0 0 1 0 1 0 -1 0 0 3004.dat
1 19 -530 -256 1150 0 0 1 0 1 0 -1 0 0 3005.dat
1 19 -610 -256 1100 0 0 1 0 1 0 -1 0 0 3009.dat
1 19 -610 -376 1050 0 0 -1 0 1 0 1 0 0 2453a.dat
1 19 -610 -376 1150 0 0 -1 0 1 0 1 0 0 2453a.dat
1 19 -600 -184 1150 -1 0 0 0 1 0 0 0 -1 98283.dat
1 19 -560 -208 1150 1 0 0 0 1 0 0 0 1 3245a.dat
1 19 -540 -232 1150 -1 0 0 0 1 0 0 0 -1 3010.dat
1 19 -590 -208 1150 -1 0 0 0 1 0 0 0 -1 87087.dat
1 19 -590 -198 1170 1 0 0 0 0 1 0 -1 0 6141.dat
1 19 -580 -136 1150 -1 0 0 0 1 0 0 0 -1 15533.dat
1 19 -530 -136 1150 0 0 1 0 1 0 -1 0 0 3005.dat
1 19 -610 -208 1100 0 0 1 0 1 0 -1 0 0 3009.dat
1 19 -610 -232 1120 0 0 1 0 1 0 -1 0 0 15533.dat
1 19 -560 -232 1050 1 0 0 0 1 0 0 0 1 3009.dat
1 19 -610 -232 1070 0 0 1 0 1 0 -1 0 0 3005.dat
1 19 -590 -232 1150 0 0 1 0 1 0 -1 0 0 3005.dat
1 30009 -580 -328 1050 1 0 0 0 1 0 0 0 1 98283.dat
1 19 -560 -304 1050 1 0 0 0 1 0 0 0 1 49311.dat
1 19 -540 -328 1050 -1 0 0 0 1 0 0 0 -1 3004.dat
1 19 -560 -376 1050 1 0 0 0 1 0 0 0 1 15533.dat
1 19 -560 -352 1050 1 0 0 0 1 0 0 0 1 3010.dat
1 147 -610 -136 1080 0 0 1 0 1 0 -1 0 0 15533.dat
1 147 -540 -184 1050 -1 0 0 0 1 0 0 0 -1 30136.dat
1 19 -610 -184 1130 0 0 1 0 1 0 -1 0 0 14716.dat
1 19 -560 -136 1050 1 0 0 0 1 0 0 0 1 3010.dat
1 19 -610 -160 1080 0 0 1 0 1 0 -1 0 0 3010.dat
1 19 -590 -208 1050 0 0 1 0 1 0 -1 0 0 14716.dat
1 19 -610 -184 1080 0 0 1 0 1 0 -1 0 0 3010.dat
1 19 -570 -184 1050 0 0 1 0 1 0 -1 0 0 3005.dat
1 4 -548.5453 -417.578 1158.7405 1 0 0 0 -0.5 0.866025 0 -0.866025 -0.5 3062a.dat
1 320 -568.5453 -417.578 1158.7405 1 0 0 0 -0.5 0.866025 0 -0.866025 -0.5 3062a.dat
1 308 -588.5453 -417.578 1158.7405 1 0 0 0 -0.5 0.866025 0 -0.866025 -0.5 3062a.dat
1 320 -528.5453 -413.5779 1165.6686 1 0 0 0 -0.5 0.866025 0 -0.866025 -0.5 3062a.dat
1 422 -558.5453 -429.578 1137.9557 1 0 0 0 -0.5 0.866025 0 -0.866025 -0.5 3023b.dat
1 422 -538.5454 -409.578 1172.5967 1 0 0 0 -0.5 0.866025 0 -0.866025 -0.5 77845.dat
1 422 -548.5453 -413.578 1165.6685 1 0 0 0 -0.5 0.866025 0 -0.866025 -0.5 6141.dat
1 422 -528.5453 -425.5781 1144.8837 1 0 0 0 -0.5 0.866025 0 -0.866025 -0.5 6141.dat
1 422 -598.5453 -409.578 1172.5967 1 0 0 0 -0.5 0.866025 0 -0.866025 -0.5 35480.dat
1 422 -568.5453 -405.5779 1179.5249 1 0 0 0 -0.5 0.866025 0 -0.866025 -0.5 98138.dat
1 320 -578.5453 -413.5779 1165.6686 1 0 0 0 -0.5 0.866025 0 -0.866025 -0.5 35480.dat
1 320 -508.5454 -413.578 1165.6685 1 0 0 0 -0.5 0.866025 0 -0.866025 -0.5 6141.dat
1 320 -608.5454 -413.578 1165.6685 1 0 0 0 -0.5 0.866025 0 -0.866025 -0.5 6141.dat
1 320 -548.5453 -433.578 1131.0275 1 0 0 0 -0.5 0.866025 0 -0.866025 -0.5 6141.dat
1 320 -548.5453 -437.578 1124.0991 1 0 0 0 -0.5 0.866025 0 -0.866025 -0.5 6141.dat
1 320 -508.5453 -405.5781 1179.5249 1 0 0 0 -0.5 0.866025 0 -0.866025 -0.5 98138.dat
1 320 -528.5454 -405.5779 1179.5249 1 0 0 0 -0.5 0.866025 0 -0.866025 -0.5 98138.dat
1 320 -548.5453 -405.5781 1179.5249 1 0 0 0 -0.5 0.866025 0 -0.866025 -0.5 98138.dat
1 320 -588.5453 -405.5779 1179.5249 1 0 0 0 -0.5 0.866025 0 -0.866025 -0.5 98138.dat
1 320 -608.5453 -405.5781 1179.5249 1 0 0 0 -0.5 0.866025 0 -0.866025 -0.5 98138.dat
1 18 -568.5453 -433.578 1131.0275 1 0 0 0 -0.5 0.866025 0 -0.866025 -0.5 6141.dat
1 18 -568.5453 -437.5779 1124.0994 1 0 0 0 -0.5 0.866025 0 -0.866025 -0.5 6141.dat
1 4 -548.5453 -417.5781 1041.2596 1 0 0 0 -0.5 -0.866026 0 0.866026 -0.5 3062a.dat
1 320 -568.5452 -417.5777 1041.2595 1 0 0 0 -0.5 -0.866026 0 0.866026 -0.5 3062a.dat
1 308 -588.5452 -417.5779 1041.2595 1 0 0 0 -0.5 -0.866026 0 0.866026 -0.5 3062a.dat
1 320 -528.545 -413.5779 1034.3313 1 0 0 0 -0.5 -0.866026 0 0.866026 -0.5 3062a.dat
1 422 -558.5452 -429.5781 1062.0442 1 0 0 0 -0.5 -0.866026 0 0.866026 -0.5 3023b.dat
1 422 -538.5453 -409.578 1027.4032 1 0 0 0 -0.5 -0.866026 0 0.866026 -0.5 77845.dat
1 422 -548.545 -413.578 1034.3314 1 0 0 0 -0.5 -0.866026 0 0.866026 -0.5 6141.dat
1 422 -528.545 -425.5782 1055.1162 1 0 0 0 -0.5 -0.866026 0 0.866026 -0.5 6141.dat
1 422 -598.545 -409.5779 1027.4031 1 0 0 0 -0.5 -0.866026 0 0.866026 -0.5 35480.dat
1 422 -568.5452 -405.5782 1020.4749 1 0 0 0 -0.5 -0.866026 0 0.866026 -0.5 98138.dat
1 320 -578.545 -413.5779 1034.3313 1 0 0 0 -0.5 -0.866026 0 0.866026 -0.5 35480.dat
1 320 -508.5453 -413.578 1034.3314 1 0 0 0 -0.5 -0.866026 0 0.866026 -0.5 6141.dat
1 320 -608.5452 -413.578 1034.3314 1 0 0 0 -0.5 -0.866026 0 0.866026 -0.5 6141.dat
1 320 -548.5452 -433.578 1068.9724 1 0 0 0 -0.5 -0.866026 0 0.866026 -0.5 6141.dat
1 320 -548.545 -437.578 1075.9006 1 0 0 0 -0.5 -0.866026 0 0.866026 -0.5 6141.dat
1 320 -508.545 -405.5779 1020.4749 1 0 0 0 -0.5 -0.866026 0 0.866026 -0.5 98138.dat
1 320 -528.5452 -405.578 1020.4749 1 0 0 0 -0.5 -0.866026 0 0.866026 -0.5 98138.dat
1 320 -548.545 -405.578 1020.4751 1 0 0 0 -0.5 -0.866026 0 0.866026 -0.5 98138.dat
1 320 -588.5452 -405.5782 1020.4749 1 0 0 0 -0.5 -0.866026 0 0.866026 -0.5 98138.dat
1 320 -608.545 -405.5779 1020.4749 1 0 0 0 -0.5 -0.866026 0 0.866026 -0.5 98138.dat
1 18 -568.545 -433.578 1068.9724 1 0 0 0 -0.5 -0.866026 0 0.866026 -0.5 6141.dat
1 18 -568.5452 -437.578 1075.9003 1 0 0 0 -0.5 -0.866026 0 0.866026 -0.5 6141.dat
1 6 40 -64 960 1 0 0 0 1 0 0 0 1 10202.dat
1 6 160 -64 960 1 0 0 0 1 0 0 0 1 10202.dat
1 6 160 -64 820 1 0 0 0 1 0 0 0 1 10202.dat
1 6 40 -64 820 1 0 0 0 1 0 0 0 1 10202.dat
1 6 40 -64 680 1 0 0 0 1 0 0 0 1 10202.dat
1 6 160 -64 680 1 0 0 0 1 0 0 0 1 10202.dat
1 6 160 -64 540 1 0 0 0 1 0 0 0 1 10202.dat
1 6 40 -64 540 1 0 0 0 1 0 0 0 1 10202.dat
1 6 40 -64 400 1 0 0 0 1 0 0 0 1 10202.dat
1 6 160 -64 400 1 0 0 0 1 0 0 0 1 10202.dat
1 6 160 -64 260 1 0 0 0 1 0 0 0 1 10202.dat
1 6 40 -64 260 1 0 0 0 1 0 0 0 1 10202.dat
1 6 40 -64 1100 1 0 0 0 1 0 0 0 1 10202.dat
1 6 -80 -64 1100 1 0 0 0 1 0 0 0 1 10202.dat
1 6 160 -64 1100 1 0 0 0 1 0 0 0 1 10202.dat
1 6 -80 -64 980 1 0 0 0 1 0 0 0 1 10202.dat
1 6 -180 -64 960 1 0 0 0 1 0 0 0 1 1751.dat
1 6 -180 -64 1040 1 0 0 0 1 0 0 0 1 1751.dat
1 6 -180 -64 1120 1 0 0 0 1 0 0 0 1 1751.dat
1 308 200 -24 1140 1 0 0 0 1 0 0 0 1 6143.dat
1 308 200 -48 1140 1 0 0 0 1 0 0 0 1 6143.dat
1 308 0 -24 1140 1 0 0 0 1 0 0 0 1 6143.dat
1 308 0 -48 1140 1 0 0 0 1 0 0 0 1 6143.dat
1 308 -590 -176 850 -0.5 0 -0.866025 0 1 0 0.866025 0 -0.5 42448.dat
1 308 -590 -176 990 0.5 0 -0.866025 0 1 0 0.866025 0 0.5 42448.dat
1 19 -590 -216 1010 1 0 0 0 1 0 0 0 1 60583a.dat
1 19 -590 -216 830 -1 0 0 0 1 0 0 0 -1 60583a.dat
1 19 -580 -88 1000 0 0 1 0 1 0 -1 0 0 4204.dat
1 19 -580 -88 680 0 0 1 0 1 0 -1 0 0 4204.dat
1 19 -570 -288 830 1 0 0 0 1 0 0 0 1 2339.dat
1 19 -570 -288 1010 -1 0 0 0 1 0 0 0 -1 2339.dat
1 147 -580 -112 1020 0 0 1 0 1 0 -1 0 0 3003.dat
1 19 -590 -136 1020 0 0 1 0 1 0 -1 0 0 98283.dat
1 19 -590 -160 1030 0 0 1 0 1 0 -1 0 0 87087.dat
1 19 -610 -150 1030 0 1 0 0 0 -1 -1 0 0 6141.dat
1 19 -590 -256 1030 0 0 1 0 1 0 -1 0 0 14716.dat
1 147 -580 -184 1030 1 0 0 0 1 0 0 0 1 98283.dat
1 19 -590 -288 1010 -1 0 0 0 1 0 0 0 -1 13965.dat
1 19 -590 -288 830 1 0 0 0 1 0 0 0 1 13965.dat
1 19 -590 -312 920 0 0 1 0 1 0 -1 0 0 6112.dat
1 19 -590 -288 1020 0 0 -1 0 1 0 1 0 0 3004.dat
1 147 -590 -264 1030 0 0 1 0 1 0 -1 0 0 3024.dat
1 147 -590 -320 980 0 0 1 0 1 0 -1 0 0 3023b.dat
1 147 -590 -320 860 0 0 1 0 1 0 -1 0 0 3023b.dat
1 19 -580 -264 810 1 0 0 0 1 0 0 0 1 3004.dat
1 19 -580 -240 810 1 0 0 0 1 0 0 0 1 30136.dat
1 19 -580 -216 810 1 0 0 0 1 0 0 0 1 3004.dat
1 19 -580 -192 810 1 0 0 0 1 0 0 0 1 3004.dat
1 19 -590 -168 810 1 0 0 0 1 0 0 0 1 6141.dat
1 19 -590 -160 810 -1 0 0 0 1 0 0 0 -1 3024.dat
1 147 -590 -144 820 0 0 1 0 1 0 -1 0 0 98283.dat
1 147 -590 -152 810 0 0 1 0 1 0 -1 0 0 3024.dat
1 147 -580 -112 820 0 0 1 0 1 0 -1 0 0 3003.dat
1 147 -580 -120 820 0 0 1 0 1 0 -1 0 0 3022.dat
1 19 -590 -144 1010 -1 0 0 0 1 0 0 0 -1 3024.dat
1 8 -570 -288 920 0 0 -1 0 1 0 1 0 0 3710.dat
1 19 -590 -320 920 0 0 1 0 1 0 -1 0 0 3710.dat
1 19 -590 -320 820 0 0 1 0 1 0 -1 0 0 3023b.dat
1 19 -590 -320 1020 0 0 1 0 1 0 -1 0 0 3023b.dat
1 19 -590 -328 920 0 0 1 0 1 0 -1 0 0 60479.dat
1 19 -590 -328 1020 0 0 -1 0 1 0 1 0 0 85984.dat
1 19 -590 -328 980 0 0 -1 0 1 0 1 0 0 85984.dat
1 19 -590 -328 940 0 0 -1 0 1 0 1 0 0 85984.dat
1 19 -590 -328 900 0 0 -1 0 1 0 1 0 0 85984.dat
1 19 -590 -328 860 0 0 -1 0 1 0 1 0 0 85984.dat
1 19 -590 -328 820 0 0 -1 0 1 0 1 0 0 85984.dat
1 19 -580 -288 810 1 0 0 0 1 0 0 0 1 3004.dat
1 147 -570 -288 840 0 0 -1 0 1 0 1 0 0 98283.dat
1 19 -570 -288 1000 0 0 -1 0 1 0 1 0 0 98283.dat
1 19 -570 -256 1030 0 0 1 0 1 0 -1 0 0 14716.dat
1 147 -570 -264 1020 0 0 1 0 1 0 -1 0 0 3023b.dat
1 19 -570 -144 820 0 0 1 0 1 0 -1 0 0 98283.dat
1 19 -570 -136 1020 0 0 -1 0 1 0 1 0 0 98283.dat
1 19 -570 -152 810 0 0 1 0 1 0 -1 0 0 6141.dat
1 19 -570 -160 810 -1 0 0 0 1 0 0 0 -1 3024.dat
1 19 -570 -168 810 1 0 0 0 1 0 0 0 1 6141.dat
1 19 -570 -144 1010 0 0 -1 0 1 0 1 0 0 6141.dat
1 19 -570 -168 1010 1 0 0 0 1 0 0 0 1 3005.dat
1 19 -570 -192 1010 1 0 0 0 1 0 0 0 1 3005.dat
1 19 -570 -160 1030 0 0 1 0 1 0 -1 0 0 u9026.dat
1 19 -570 -168 830 -1 0 0 0 1 0 0 0 -1 3005.dat
1 147 -570 -192 830 -1 0 0 0 1 0 0 0 -1 u9026.dat
1 19 -570 -288 1030 1 0 0 0 1 0 0 0 1 3005.dat
1 19 -570 -264 830 1 0 0 0 1 0 0 0 1 3005.dat
1 147 -570 -248 1010 0 0 -1 0 1 0 1 0 0 6141.dat
1 147 -570 -256 1010 0 0 -1 0 1 0 1 0 0 3024.dat
1 19 -570 -296 920 0 0 -1 0 1 0 1 0 0 60479.dat
1 147 -570 -304 970 0 0 -1 0 1 0 1 0 0 6141.dat
1 147 -570 -312 970 0 0 -1 0 1 0 1 0 0 6141.dat
1 147 -570 -304 990 0 0 -1 0 1 0 1 0 0 6141.dat
1 147 -570 -304 870 0 0 -1 0 1 0 1 0 0 6141.dat
1 147 -570 -312 870 0 0 -1 0 1 0 1 0 0 6141.dat
1 147 -570 -312 850 0 0 -1 0 1 0 1 0 0 6141.dat
1 147 -570 -304 850 0 0 -1 0 1 0 1 0 0 6141.dat
1 147 -570 -312 990 0 0 -1 0 1 0 1 0 0 6141.dat
1 19 -570 -320 820 0 0 -1 0 1 0 1 0 0 3004.dat
1 19 -570 -320 1020 0 0 -1 0 1 0 1 0 0 3004.dat
1 19 -570 -320 920 0 0 1 0 1 0 -1 0 0 3010.dat
1 422 -592.4974 -350 920 0 -0.866025 -0.5 0 -0.5 0.866025 -1 0 0 60479.dat
1 18 -571.7129 -338.0001 810 0 -0.866025 -0.5 0 -0.5 0.866025 -1 0 0 3062a.dat
1 308 -550.9282 -326 810 0 -0.866025 -0.5 0 -0.5 0.866025 -1 0 0 3062a.dat
1 422 -544.0001 -322 920 0 -0.866025 -0.5 0 -0.5 0.866025 -1 0 0 60479.dat
1 320 -571.7129 -338.0001 830 0 -0.866025 -0.5 0 -0.5 0.866025 -1 0 0 3062a.dat
1 320 -550.9282 -326 830 0 -0.866025 -0.5 0 -0.5 0.866025 -1 0 0 3062a.dat
1 320 -571.7129 -338.0001 890 0 -0.866025 -0.5 0 -0.5 0.866025 -1 0 0 3062a.dat
1 308 -550.9282 -326 890 0 -0.866025 -0.5 0 -0.5 0.866025 -1 0 0 3062a.dat
1 320 -571.7129 -338.0001 910 0 -0.866025 -0.5 0 -0.5 0.866025 -1 0 0 3062a.dat
1 422 -550.9282 -326 910 0 -0.866025 -0.5 0 -0.5 0.866025 -1 0 0 3062a.dat
1 320 -571.7129 -338.0001 930 0 -0.866025 -0.5 0 -0.5 0.866025 -1 0 0 3062a.dat
1 18 -550.9282 -326 930 0 -0.866025 -0.5 0 -0.5 0.866025 -1 0 0 3062a.dat
1 4 -571.7129 -338.0001 950 0 -0.866025 -0.5 0 -0.5 0.866025 -1 0 0 3062a.dat
1 320 -550.9282 -326 950 0 -0.866025 -0.5 0 -0.5 0.866025 -1 0 0 3062a.dat
1 18 -571.7129 -338.0001 1010 0 -0.866025 -0.5 0 -0.5 0.866025 -1 0 0 3062a.dat
1 320 -550.9282 -326 1010 0 -0.866025 -0.5 0 -0.5 0.866025 -1 0 0 3062a.dat
1 320 -571.7129 -338.0001 1030 0 -0.866025 -0.5 0 -0.5 0.866025 -1 0 0 3062a.dat
1 320 -550.9282 -326 1030 0 -0.866025 -0.5 0 -0.5 0.866025 -1 0 0 3062a.dat
1 320 -571.7129 -338.0001 870 0 -0.866025 -0.5 0 -0.5 0.866025 -1 0 0 3062a.dat
1 308 -571.7129 -338.0001 850 0 -0.866025 -0.5 0 -0.5 0.866025 -1 0 0 3062a.dat
1 18 -571.7129 -338.0001 970 0 -0.866025 -0.5 0 -0.5 0.866025 -1 0 0 3062a.dat
1 320 -571.7129 -338.0001 990 0 -0.866025 -0.5 0 -0.5 0.866025 -1 0 0 3062a.dat
1 308 -523.2154 -310.0001 1030 0 -0.866025 -0.5 0 -0.5 0.866025 -1 0 0 3062a.dat
1 4 -523.2154 -310.0001 1010 0 -0.866025 -0.5 0 -0.5 0.866025 -1 0 0 3062a.dat
1 18 -523.2154 -310.0001 990 0 -0.866025 -0.5 0 -0.5 0.866025 -1 0 0 3062a.dat
1 320 -523.2154 -310.0001 970 0 -0.866025 -0.5 0 -0.5 0.866025 -1 0 0 3062a.dat
1 308 -523.2154 -310.0001 950 0 -0.866025 -0.5 0 -0.5 0.866025 -1 0 0 3062a.dat
1 320 -523.2154 -310.0001 930 0 -0.866025 -0.5 0 -0.5 0.866025 -1 0 0 3062a.dat
1 18 -523.2154 -310.0001 910 0 -0.866025 -0.5 0 -0.5 0.866025 -1 0 0 3062a.dat
1 320 -523.2154 -310.0001 890 0 -0.866025 -0.5 0 -0.5 0.866025 -1 0 0 3062a.dat
1 320 -523.2154 -310.0001 870 0 -0.866025 -0.5 0 -0.5 0.866025 -1 0 0 3062a.dat
1 422 -523.2154 -310.0001 850 0 -0.866025 -0.5 0 -0.5 0.866025 -1 0 0 3062a.dat
1 18 -523.2154 -310.0001 830 0 -0.866025 -0.5 0 -0.5 0.866025 -1 0 0 3062a.dat
1 320 -523.2154 -310.0001 810 0 -0.866025 -0.5 0 -0.5 0.866025 -1 0 0 3062a.dat
1 320 -523.2154 -310.0001 810 0 -0.866025 -0.5 0 -0.5 0.866025 -1 0 0 3062a.dat
1 4 -564.7845 -334 850 0 -0.866025 -0.5 0 -0.5 0.866025 -1 0 0 6141.dat
1 320 -557.8564 -330 850 0 -0.866025 -0.5 0 -0.5 0.866025 -1 0 0 6141.dat
1 4 -550.9282 -326 850 0 -0.866025 -0.5 0 -0.5 0.866025 -1 0 0 6141.dat
1 320 -550.9282 -326 870 0 -0.866025 -0.5 0 -0.5 0.866025 -1 0 0 6141.dat
1 320 -557.8564 -330 870 0 -0.866025 -0.5 0 -0.5 0.866025 -1 0 0 6141.dat
1 320 -564.7845 -334 870 0 -0.866025 -0.5 0 -0.5 0.866025 -1 0 0 6141.dat
1 320 -564.7845 -334 970 0 -0.866025 -0.5 0 -0.5 0.866025 -1 0 0 6141.dat
1 320 -557.8564 -330 970 0 -0.866025 -0.5 0 -0.5 0.866025 -1 0 0 6141.dat
1 320 -550.9282 -326 970 0 -0.866025 -0.5 0 -0.5 0.866025 -1 0 0 6141.dat
1 308 -550.9282 -326 990 0 -0.866025 -0.5 0 -0.5 0.866025 -1 0 0 6141.dat
1 308 -564.7845 -334 990 0 -0.866025 -0.5 0 -0.5 0.866025 -1 0 0 6141.dat
1 422 -557.8564 -330 990 0 -0.866025 -0.5 0 -0.5 0.866025 -1 0 0 98138.dat
1 422 -516.287 -306.0001 850 0 -0.866025 -0.5 0 -0.5 0.866025 -1 0 0 98138.dat
1 320 -516.287 -306.0001 810 0 -0.866025 -0.5 0 -0.5 0.866025 -1 0 0 98138.dat
1 320 -516.287 -306.0001 870 0 -0.866025 -0.5 0 -0.5 0.866025 -1 0 0 98138.dat
1 320 -516.287 -306.0001 890 0 -0.866025 -0.5 0 -0.5 0.866025 -1 0 0 98138.dat
1 320 -516.287 -306.0001 930 0 -0.866025 -0.5 0 -0.5 0.866025 -1 0 0 98138.dat
1 320 -516.287 -306.0001 970 0 -0.866025 -0.5 0 -0.5 0.866025 -1 0 0 98138.dat
1 308 -516.287 -306.0001 950 0 -0.866025 -0.5 0 -0.5 0.866025 -1 0 0 98138.dat
1 308 -516.287 -306.0001 1030 0 -0.866025 -0.5 0 -0.5 0.866025 -1 0 0 98138.dat
1 4 -516.287 -306.0001 1010 0 -0.866025 -0.5 0 -0.5 0.866025 -1 0 0 98138.dat
1 18 -516.287 -306.0001 990 0 -0.866025 -0.5 0 -0.5 0.866025 -1 0 0 98138.dat
1 18 -516.287 -306.0001 910 0 -0.866025 -0.5 0 -0.5 0.866025 -1 0 0 98138.dat
1 18 -516.287 -306.0001 830 0 -0.866025 -0.5 0 -0.5 0.866025 -1 0 0 98138.dat
1 86 -30 -96 800 0 0 1 0 1 0 -1 0 0 4162.dat
1 86 -30 -96 640 0 0 1 0 1 0 -1 0 0 4162.dat
1 86 -30 -96 530 0 0 -1 0 1 0 1 0 0 14719.dat
1 7 -380 -96 960 0 0 1 0 1 0 -1 0 0 15535.dat
1 7 -320 -96 1120 0 0 1 0 1 0 -1 0 0 14769.dat
1 7 -530 -96 910 0 0 1 0 1 0 -1 0 0 67095.dat
1 7 -290 -96 890 0 0 1 0 1 0 -1 0 0 98138.dat
1 7 -130 -96 870 0 0 1 0 1 0 -1 0 0 98138.dat
1 7 -370 -96 920 0 0 1 0 1 0 -1 0 0 1126.dat
1 8 -390 -96 930 0 0 1 0 1 0 -1 0 0 98138.dat
1 8 -340 -96 910 -1 0 0 0 1 0 0 0 -1 1126.dat
1 8 -580 -96 960 0 0 1 0 1 0 -1 0 0 14769.dat
1 8 -480 -96 920 0 0 1 0 1 0 -1 0 0 15535.dat
1 8 -380 -96 1100 0 0 1 0 1 0 -1 0 0 66857.dat
1 8 -290 -96 1120 0 0 1 0 1 0 -1 0 0 1126.dat
1 7 -300 -96 920 0 0 1 0 1 0 -1 0 0 14769.dat
1 7 -370 -96 1050 0 0 1 0 1 0 -1 0 0 98138.dat
1 7 -300 -96 1060 -1 0 0 0 1 0 0 0 -1 66857.dat
1 7 -170 -96 870 0 0 1 0 1 0 -1 0 0 67095.dat
1 7 -550 -96 960 0 0 1 0 1 0 -1 0 0 1126.dat
1 7 -100 -96 880 0 0 1 0 1 0 -1 0 0 15535.dat
1 7 -90 -96 830 0 0 1 0 1 0 -1 0 0 67095.dat
1 8 -310 -96 830 0 0 1 0 1 0 -1 0 0 67095.dat
1 7 -500 -96 960 0 0 -1 0 1 0 1 0 0 66857.dat
1 7 -350 -96 930 0 0 1 0 1 0 -1 0 0 98138.dat
1 7 -330 -96 940 0 0 1 0 1 0 -1 0 0 1126.dat
1 8 -350 -96 950 0 0 1 0 1 0 -1 0 0 98138.dat
1 8 -320 -96 980 0 0 1 0 1 0 -1 0 0 66857.dat
1 7 -300 -96 950 -1 0 0 0 1 0 0 0 -1 1126.dat
1 8 -90 -96 780 0 0 1 0 1 0 -1 0 0 1126.dat
1 7 -650 -96 970 0 0 1 0 1 0 -1 0 0 98138.dat
1 8 -350 -96 1050 0 0 1 0 1 0 -1 0 0 98138.dat
1 7 -420 -96 960 -1 0 0 0 1 0 0 0 -1 66857.dat
1 7 -410 -96 910 0 0 1 0 1 0 -1 0 0 98138.dat
1 8 -220 -96 890 -1 0 0 0 1 0 0 0 -1 1126.dat
1 8 -380 -96 890 -1 0 0 0 1 0 0 0 -1 1126.dat
1 7 -390 -96 910 0 0 1 0 1 0 -1 0 0 98138.dat
1 7 -440 -96 900 0 0 1 0 1 0 -1 0 0 14769.dat
1 8 -520 -96 840 0 0 1 0 1 0 -1 0 0 14769.dat
1 7 -420 -96 820 -1 0 0 0 1 0 0 0 -1 65474.dat
1 8 -160 -96 760 0 0 1 0 1 0 -1 0 0 7212.dat
1 7 -130 -96 840 0 0 1 0 1 0 -1 0 0 1126.dat
1 8 -320 -96 880 0 0 1 0 1 0 -1 0 0 15535.dat
1 7 -260 -96 890 -1 0 0 0 1 0 0 0 -1 1126.dat
1 7 -240 -96 860 0 0 -1 0 1 0 1 0 0 66857.dat
1 8 -410 -96 890 0 0 1 0 1 0 -1 0 0 98138.dat
1 7 -630 -96 870 0 0 1 0 1 0 -1 0 0 98138.dat
1 7 -620 -96 900 0 0 1 0 1 0 -1 0 0 14769.dat
1 7 -640 -96 850 -1 0 0 0 1 0 0 0 -1 1126.dat
1 8 -640 -96 940 0 0 1 0 1 0 -1 0 0 15535.dat
1 7 -590 -96 920 0 0 1 0 1 0 -1 0 0 1126.dat
1 7 -610 -96 930 0 0 1 0 1 0 -1 0 0 98138.dat
1 7 -450 -96 970 0 0 1 0 1 0 -1 0 0 98138.dat
1 8 -650 -96 900 0 0 1 0 1 0 -1 0 0 1126.dat
1 7 -650 -96 870 0 0 1 0 1 0 -1 0 0 98138.dat
1 7 -620 -96 990 -1 0 0 0 1 0 0 0 -1 1126.dat
1 8 -610 -96 960 0 0 1 0 1 0 -1 0 0 1126.dat
1 8 -580 -96 860 0 0 1 0 1 0 -1 0 0 66857.dat
1 7 -630 -96 970 0 0 1 0 1 0 -1 0 0 98138.dat
1 8 -650 -96 1000 0 0 1 0 1 0 -1 0 0 1126.dat
1 7 -520 -96 870 -1 0 0 0 1 0 0 0 -1 1126.dat
1 7 -580 -96 890 -1 0 0 0 1 0 0 0 -1 1126.dat
1 8 -570 -96 920 0 0 1 0 1 0 -1 0 0 1126.dat
1 8 -530 -96 1010 0 0 1 0 1 0 -1 0 0 67095.dat
1 7 -580 -96 990 -1 0 0 0 1 0 0 0 -1 1126.dat
1 8 -480 -96 1020 -1 0 0 0 1 0 0 0 -1 66857.dat
1 8 -440 -96 1020 0 0 1 0 1 0 -1 0 0 15535.dat
1 8 -450 -96 990 0 0 1 0 1 0 -1 0 0 98138.dat
1 7 -380 -96 1020 0 0 1 0 1 0 -1 0 0 14769.dat
1 8 -380 -96 990 -1 0 0 0 1 0 0 0 -1 1126.dat
1 7 -340 -96 1020 0 0 1 0 1 0 -1 0 0 15535.dat
1 7 -330 -96 1050 0 0 1 0 1 0 -1 0 0 98138.dat
1 7 -330 -96 1080 0 0 1 0 1 0 -1 0 0 1126.dat
1 8 -300 -96 1010 -1 0 0 0 1 0 0 0 -1 1126.dat
1 7 -410 -96 1020 0 0 1 0 1 0 -1 0 0 1126.dat
1 7 -400 -96 1060 0 0 1 0 1 0 -1 0 0 14769.dat
1 8 -350 -96 1070 0 0 1 0 1 0 -1 0 0 98138.dat
1 8 -370 -96 1070 0 0 1 0 1 0 -1 0 0 98138.dat
1 7 -470 -96 1090 0 0 1 0 1 0 -1 0 0 67095.dat
1 8 -450 -96 1050 0 0 1 0 1 0 -1 0 0 98138.dat
1 7 -430 -96 1060 0 0 1 0 1 0 -1 0 0 1126.dat
1 7 -430 -96 1100 0 0 1 0 1 0 -1 0 0 1126.dat
1 8 -410 -96 1130 0 0 1 0 1 0 -1 0 0 98138.dat
1 8 -480 -96 1130 -1 0 0 0 1 0 0 0 -1 1126.dat
1 7 -350 -96 1130 0 0 1 0 1 0 -1 0 0 98138.dat
1 7 -440 -96 1130 -1 0 0 0 1 0 0 0 -1 1126.dat
1 7 -380 -96 1130 -1 0 0 0 1 0 0 0 -1 1126.dat
1 7 -350 -96 880 0 0 1 0 1 0 -1 0 0 1126.dat
1 8 -480 -96 890 -1 0 0 0 1 0 0 0 -1 1126.dat
1 7 -490 -96 870 0 0 1 0 1 0 -1 0 0 98138.dat
1 8 -290 -96 870 0 0 1 0 1 0 -1 0 0 98138.dat
1 9 -500 -112 750 -1 0 0 0 1 0 0 0 -1 15533.dat
1 9 -550 -112 720 0 0 1 0 1 0 -1 0 0 15533.dat
1 7 -520 -160 750 -1 0 0 0 1 0 0 0 -1 3245a.dat
1 9 -480 -136 750 -1 0 0 0 1 0 0 0 -1 30136.dat
1 6 -400 -208 740 1 0 0 0 1 0 0 0 1 4130.dat
1 6 -430 -208 750 1 0 0 0 1 0 0 0 1 60616b.dat
1 9 -450 -112 750 -1 0 0 0 1 0 0 0 -1 3005.dat
1 9 -450 -120 750 -1 0 0 0 1 0 0 0 -1 3024.dat
1 9 -450 -144 750 -1 0 0 0 1 0 0 0 -1 u9026.dat
1 9 -480 -160 750 -1 0 0 0 1 0 0 0 -1 3004.dat
1 9 -480 -184 750 -1 0 0 0 1 0 0 0 -1 3010.dat
1 9 -540 -184 750 -1 0 0 0 1 0 0 0 -1 98283.dat
1 9 -450 -152 750 -1 0 0 0 1 0 0 0 -1 3024.dat
1 7 -450 -160 750 -1 0 0 0 1 0 0 0 -1 3024.dat
1 9 -550 -136 660 0 0 1 0 1 0 -1 0 0 6111.dat
1 7 -550 -160 640 0 0 1 0 1 0 -1 0 0 15533.dat
1 7 -550 -112 620 0 0 1 0 1 0 -1 0 0 30137.dat
1 7 -400 -112 570 1 0 0 0 1 0 0 0 1 2465.dat
1 9 -250 -112 620 0 0 -1 0 1 0 1 0 0 15533.dat
1 9 -250 -112 700 0 0 1 0 1 0 -1 0 0 3010.dat
1 9 -340 -120 750 1 0 0 0 1 0 0 0 1 3004.dat
1 9 -260 -184 750 -1 0 0 0 1 0 0 0 -1 98283.dat
1 7 -320 -208 750 -1 0 0 0 1 0 0 0 -1 15533.dat
1 7 -340 -96 750 -1 0 0 0 1 0 0 0 -1 3023b.dat
1 7 -350 -128 750 1 0 0 0 1 0 0 0 1 3024.dat
1 9 -350 -136 750 1 0 0 0 1 0 0 0 1 6141.dat
0 !LEOCAD PIECE PIVOT  0 0 0 1 0 0 0 1 0 0 0 1
1 9 -320 -160 750 1 0 0 0 1 0 0 0 1 3010.dat
1 9 -270 -160 750 1 0 0 0 1 0 0 0 1 3005.dat
1 9 -250 -160 750 -1 0 0 0 1 0 0 0 -1 u9026.dat
1 7 -310 -184 750 1 0 0 0 1 0 0 0 1 3005.dat
1 9 -290 -184 750 1 0 0 0 1 0 0 0 1 3005.dat
1 9 -340 -184 750 1 0 0 0 1 0 0 0 1 30136.dat
1 9 -280 -112 750 1 0 0 0 1 0 0 0 1 3010.dat
1 9 -290 -128 750 1 0 0 0 1 0 0 0 1 78329.dat
1 9 -290 -136 750 1 0 0 0 1 0 0 0 1 78329.dat
1 9 -280 -120 750 1 0 0 0 1 0 0 0 1 3023b.dat
1 7 -250 -120 750 1 0 0 0 1 0 0 0 1 3024.dat
1 7 -310 -120 750 1 0 0 0 1 0 0 0 1 6141.dat
1 7 -400 -232 750 1 0 0 0 1 0 0 0 1 2465.dat
1 7 -400 -232 570 1 0 0 0 1 0 0 0 1 2465.dat
1 9 -250 -232 720 0 0 -1 0 1 0 1 0 0 98283.dat
1 9 -250 -208 700 0 0 1 0 1 0 -1 0 0 98283.dat
1 9 -550 -184 630 0 0 1 0 1 0 -1 0 0 3622.dat
1 9 -550 -184 700 0 0 1 0 1 0 -1 0 0 3010.dat
1 9 -550 -160 720 0 0 1 0 1 0 -1 0 0 30137.dat
1 308 -240 -240 750 -1 0 0 0 1 0 0 0 -1 27261.dat
1 308 -240 -256 730 -1 0 0 0 1 0 0 0 -1 27261.dat
1 308 -240 -272 710 -1 0 0 0 1 0 0 0 -1 27261.dat
1 6 -240 -288 690 -1 0 0 0 1 0 0 0 -1 27261.dat
1 308 -280 -240 750 -1 0 0 0 1 0 0 0 -1 27261.dat
1 308 -280 -256 730 -1 0 0 0 1 0 0 0 -1 27261.dat
1 308 -280 -272 710 -1 0 0 0 1 0 0 0 -1 27261.dat
1 308 -280 -288 690 -1 0 0 0 1 0 0 0 -1 27261.dat
1 308 -320 -240 750 -1 0 0 0 1 0 0 0 -1 27261.dat
1 6 -320 -256 730 -1 0 0 0 1 0 0 0 -1 27261.dat
1 6 -320 -272 710 -1 0 0 0 1 0 0 0 -1 27261.dat
1 308 -320 -288 690 -1 0 0 0 1 0 0 0 -1 27261.dat
1 308 -360 -240 750 -1 0 0 0 1 0 0 0 -1 27261.dat
1 308 -360 -256 730 -1 0 0 0 1 0 0 0 -1 27261.dat
1 308 -360 -272 710 -1 0 0 0 1 0 0 0 -1 27261.dat
1 308 -360 -288 690 -1 0 0 0 1 0 0 0 -1 27261.dat
1 6 -400 -240 750 -1 0 0 0 1 0 0 0 -1 27261.dat
1 308 -400 -256 730 -1 0 0 0 1 0 0 0 -1 27261.dat
1 308 -400 -272 710 -1 0 0 0 1 0 0 0 -1 27261.dat
1 308 -400 -288 690 -1 0 0 0 1 0 0 0 -1 27261.dat
1 6 -440 -240 750 -1 0 0 0 1 0 0 0 -1 27261.dat
1 308 -440 -256 730 -1 0 0 0 1 0 0 0 -1 27261.dat
1 308 -440 -272 710 -1 0 0 0 1 0 0 0 -1 27261.dat
1 308 -440 -288 690 -1 0 0 0 1 0 0 0 -1 27261.dat
1 308 -480 -240 750 -1 0 0 0 1 0 0 0 -1 27261.dat
1 308 -480 -256 730 -1 0 0 0 1 0 0 0 -1 27261.dat
1 308 -480 -272 710 -1 0 0 0 1 0 0 0 -1 27261.dat
1 308 -480 -288 690 -1 0 0 0 1 0 0 0 -1 27261.dat
1 308 -520 -240 750 -1 0 0 0 1 0 0 0 -1 27261.dat
1 308 -520 -256 730 -1 0 0 0 1 0 0 0 -1 27261.dat
1 308 -520 -272 710 -1 0 0 0 1 0 0 0 -1 27261.dat
1 6 -520 -288 690 -1 0 0 0 1 0 0 0 -1 27261.dat
1 6 -560 -240 750 -1 0 0 0 1 0 0 0 -1 27261.dat
1 308 -560 -256 730 -1 0 0 0 1 0 0 0 -1 27261.dat
1 308 -560 -272 710 -1 0 0 0 1 0 0 0 -1 27261.dat
1 308 -560 -288 690 -1 0 0 0 1 0 0 0 -1 27261.dat
1 308 -240 -240 569.9999 1 0 0 0 1 0 0 0 1 27261.dat
1 308 -240.0001 -256 589.9999 1 0 0 0 1 0 0 0 1 27261.dat
1 308 -240 -272 610 1 0 0 0 1 0 0 0 1 27261.dat
1 308 -240 -288 630 1 0 0 0 1 0 0 0 1 27261.dat
1 308 -280 -240 569.9999 1 0 0 0 1 0 0 0 1 27261.dat
1 308 -280.0001 -256 589.9999 1 0 0 0 1 0 0 0 1 27261.dat
1 6 -280 -272 610 1 0 0 0 1 0 0 0 1 27261.dat
1 308 -280 -288 630 1 0 0 0 1 0 0 0 1 27261.dat
1 308 -320 -240 569.9999 1 0 0 0 1 0 0 0 1 27261.dat
1 308 -320.0001 -256 589.9999 1 0 0 0 1 0 0 0 1 27261.dat
1 308 -320 -272 610 1 0 0 0 1 0 0 0 1 27261.dat
1 308 -320 -288 630 1 0 0 0 1 0 0 0 1 27261.dat
1 6 -360 -240 569.9999 1 0 0 0 1 0 0 0 1 27261.dat
1 6 -360.0001 -256 589.9999 1 0 0 0 1 0 0 0 1 27261.dat
1 308 -360 -272 610 1 0 0 0 1 0 0 0 1 27261.dat
1 308 -360 -288 630 1 0 0 0 1 0 0 0 1 27261.dat
1 308 -400 -240 569.9999 1 0 0 0 1 0 0 0 1 27261.dat
1 308 -400.0001 -256 589.9999 1 0 0 0 1 0 0 0 1 27261.dat
1 308 -400 -272 610 1 0 0 0 1 0 0 0 1 27261.dat
1 308 -400 -288 630 1 0 0 0 1 0 0 0 1 27261.dat
1 308 -440 -240 569.9999 1 0 0 0 1 0 0 0 1 27261.dat
1 308 -440.0001 -256 589.9999 1 0 0 0 1 0 0 0 1 27261.dat
1 308 -440 -272 610 1 0 0 0 1 0 0 0 1 27261.dat
1 308 -440 -288 630 1 0 0 0 1 0 0 0 1 27261.dat
1 6 -480 -240 569.9999 1 0 0 0 1 0 0 0 1 27261.dat
1 308 -480.0001 -256 589.9999 1 0 0 0 1 0 0 0 1 27261.dat
1 308 -480 -272 610 1 0 0 0 1 0 0 0 1 27261.dat
1 308 -480 -288 630 1 0 0 0 1 0 0 0 1 27261.dat
1 308 -520 -240 569.9999 1 0 0 0 1 0 0 0 1 27261.dat
1 308 -520.0001 -256 589.9999 1 0 0 0 1 0 0 0 1 27261.dat
1 308 -520 -272 610 1 0 0 0 1 0 0 0 1 27261.dat
1 6 -520 -288 630 1 0 0 0 1 0 0 0 1 27261.dat
1 308 -560 -240 569.9999 1 0 0 0 1 0 0 0 1 27261.dat
1 308 -560.0001 -256 589.9999 1 0 0 0 1 0 0 0 1 27261.dat
1 308 -560 -272 610 1 0 0 0 1 0 0 0 1 27261.dat
1 6 -560 -288 630 1 0 0 0 1 0 0 0 1 27261.dat
1 9 -550 -112 670 0 0 1 0 1 0 -1 0 0 u9026.dat
1 308 -420 -96 640 1 0 0 0 1 0 0 0 1 3028.dat
1 308 -280 -96 640 0 0 -1 0 1 0 1 0 0 3795.dat
1 308 -420 -96 710 1 0 0 0 1 0 0 0 1 60479.dat
1 308 -280 -96 710 -1 0 0 0 1 0 0 0 -1 3023b.dat
1 9 -550 -208 620 0 0 -1 0 1 0 1 0 0 15533.dat
1 9 -550 -232 620 0 0 1 0 1 0 -1 0 0 98283.dat
1 9 -550 -232 590 0 0 -1 0 1 0 1 0 0 3005.dat
1 9 -550 -240 590 0 0 -1 0 1 0 1 0 0 3024.dat
1 7 -550 -248 590 0 0 -1 0 1 0 1 0 0 3024.dat
1 9 -550 -184 580 0 0 1 0 1 0 -1 0 0 3245a.dat
1 9 -550 -256 660 0 0 1 0 1 0 -1 0 0 3245a.dat
1 7 -550 -280 660 0 0 1 0 1 0 -1 0 0 30136.dat
1 7 -550 -288 670 0 0 1 0 1 0 -1 0 0 3024.dat
1 7 -550 -288 650 0 0 1 0 1 0 -1 0 0 6141.dat
1 9 -550 -280 630 0 0 1 0 1 0 -1 0 0 86996.dat
1 9 -550 -264 620 0 0 1 0 1 0 -1 0 0 3023b.dat
1 9 -550 -256 620 0 0 1 0 1 0 -1 0 0 3004.dat
1 9 -550 -208 720 0 0 1 0 1 0 -1 0 0 15533.dat
1 9 -550 -208 670 0 0 1 0 1 0 -1 0 0 87087.dat
1 9 -570 -198 670 0 1 0 0 0 -1 -1 0 0 3024.dat
1 9 -550 -232 710 0 0 1 0 1 0 -1 0 0 3622.dat
1 9 -550 -240 730 0 0 1 0 1 0 -1 0 0 3024.dat
1 7 -550 -248 730 0 0 1 0 1 0 -1 0 0 6141.dat
1 9 -550 -256 700 0 0 1 0 1 0 -1 0 0 3004.dat
1 7 -550 -264 700 0 0 1 0 1 0 -1 0 0 3023b.dat
1 7 -550 -280 690 0 0 1 0 1 0 -1 0 0 86996.dat
1 9 -480 -208 750 1 0 0 0 1 0 0 0 1 15533.dat
1 9 -530 -208 750 -1 0 0 0 1 0 0 0 -1 u9026.dat
0 !LEOCAD PIECE PIVOT  0 0 30 1 0 0 0 1 0 0 0 1
1 423 -80 -96 580 1 0 0 0 1 0 0 0 1 30139.dat
0 !LEOCAD PIECE PIVOT  0 0 30 1 0 0 0 1 0 0 0 1
1 423 -80 -96 660 1 0 0 0 1 0 0 0 1 30139.dat
0 !LEOCAD PIECE PIVOT  0 0 30 1 0 0 0 1 0 0 0 1
1 423 -160 -96 660 1 0 0 0 1 0 0 0 1 30139.dat
0 !LEOCAD PIECE PIVOT  0 0 30 1 0 0 0 1 0 0 0 1
1 423 -160 -96 580 1 0 0 0 1 0 0 0 1 30139.dat
1 9 -260 -208 740 0 0 -1 0 1 0 1 0 0 87620.dat
1 7 -250 -184 730 0 0 1 0 1 0 -1 0 0 14716.dat
1 9 -250 -136 680 0 0 1 0 1 0 -1 0 0 3010.dat
1 9 -250 -136 630 0 0 -1 0 1 0 1 0 0 u9026.dat
1 9 -250 -136 600 0 0 -1 0 1 0 1 0 0 3004.dat
1 9 -250 -160 630 0 0 -1 0 1 0 1 0 0 3622.dat
1 7 -250 -160 680 0 0 1 0 1 0 -1 0 0 30136.dat
1 7 -250 -144 710 0 0 1 0 1 0 -1 0 0 3024.dat
1 7 -250 -152 710 0 0 1 0 1 0 -1 0 0 6141.dat
1 9 -250 -176 710 0 0 1 0 1 0 -1 0 0 3005.dat
1 9 -250 -184 680 0 0 1 0 1 0 -1 0 0 3710.dat
1 9 -250 -184 600 0 0 1 0 1 0 -1 0 0 3010.dat
1 9 -250 -208 640 0 0 1 0 1 0 -1 0 0 30137.dat
1 9 -250 -256 650 0 0 1 0 1 0 -1 0 0 39266.dat
1 7 -250 -264 620 0 0 1 0 1 0 -1 0 0 3023b.dat
1 9 -250 -208 590 0 0 -1 0 1 0 1 0 0 87087.dat
1 9 -250 -280 630 0 0 1 0 1 0 -1 0 0 86996.dat
1 9 -230 -198 590 0 -1 0 0 0 -1 1 0 0 3024.dat
1 7 -250 -240 720 0 0 -1 0 1 0 1 0 0 3023b.dat
1 9 -250 -248 720 0 0 -1 0 1 0 1 0 0 3023b.dat
1 9 -250 -264 710 0 0 -1 0 1 0 1 0 0 86996.dat
1 9 -250 -280 670 0 0 1 0 1 0 -1 0 0 3622.dat
1 9 -250 -232 590 0 0 -1 0 1 0 1 0 0 3005.dat
1 9 -250 -240 590 0 0 -1 0 1 0 1 0 0 6141.dat
1 9 -250 -248 590 0 0 -1 0 1 0 1 0 0 6141.dat
1 7 -250 -288 660 0 0 1 0 1 0 -1 0 0 3023b.dat
1 7 -250 -168 660 0 0 1 0 1 0 -1 0 0 3023b.dat
1 7 -250 -176 680 0 0 1 0 1 0 -1 0 0 3023b.dat
1 9 -250 -176 650 0 0 1 0 1 0 -1 0 0 3024.dat
1 9 -250 -168 690 0 0 1 0 1 0 -1 0 0 3024.dat
1 7 -350 -128 570 1 0 0 0 1 0 0 0 1 3024.dat
0 !LEOCAD PIECE PIVOT  0 0 0 1 0 0 0 1 0 0 0 1
1 9 -320 -160 570 1 0 0 0 1 0 0 0 1 3010.dat
1 9 -270 -160 570 1 0 0 0 1 0 0 0 1 3005.dat
1 9 -250 -160 570 -1 0 0 0 1 0 0 0 -1 u9026.dat
1 7 -310 -184 570 1 0 0 0 1 0 0 0 1 3005.dat
1 9 -290 -184 570 1 0 0 0 1 0 0 0 1 3005.dat
1 9 -340 -184 570 1 0 0 0 1 0 0 0 1 30136.dat
1 9 -290 -128 570 1 0 0 0 1 0 0 0 1 78329.dat
1 9 -290 -136 570 1 0 0 0 1 0 0 0 1 78329.dat
1 9 -280 -120 570 1 0 0 0 1 0 0 0 1 3023b.dat
1 7 -250 -120 570 1 0 0 0 1 0 0 0 1 3024.dat
1 7 -310 -120 570 1 0 0 0 1 0 0 0 1 6141.dat
1 9 -250 -160 590 0 0 -1 0 1 0 1 0 0 3005.dat
1 9 -500 -136 570 1 0 0 0 1 0 0 0 1 15533.dat
1 7 -400 -208 570 -1 0 0 0 1 0 0 0 -1 15533.dat
1 9 -350 -120 570 1 0 0 0 1 0 0 0 1 3623.dat
1 9 -360 -136 570 1 0 0 0 1 0 0 0 1 3023b.dat
1 9 -390 -160 570 1 0 0 0 1 0 0 0 1 3622.dat
1 9 -440 -160 570 1 0 0 0 1 0 0 0 1 3245a.dat
1 7 -480 -184 570 1 0 0 0 1 0 0 0 1 3009.dat
1 7 -400 -136 570 1 0 0 0 1 0 0 0 1 4216.dat
1 9 -390 -184 570 1 0 0 0 1 0 0 0 1 u9026.dat
1 9 -410 -184 570 1 0 0 0 1 0 0 0 1 3005.dat
1 9 -370 -184 570 1 0 0 0 1 0 0 0 1 3005.dat
1 9 -520 -160 570 -1 0 0 0 1 0 0 0 -1 98283.dat
1 9 -480 -160 570 1 0 0 0 1 0 0 0 1 3004.dat
1 9 -500 -208 570 1 0 0 0 1 0 0 0 1 3009.dat
1 9 -270 -208 570 1 0 0 0 1 0 0 0 1 3622.dat
1 9 -270 -184 570 1 0 0 0 1 0 0 0 1 87087.dat
1 9 -270 -174 550 1 0 0 0 0 -1 0 1 0 6141.dat
1 9 -370 -128 570 1 0 0 0 1 0 0 0 1 6141.dat
1 9 -330 -192 570 1 0 0 0 1 0 0 0 1 3623.dat
1 9 -330 -208 570 1 0 0 0 1 0 0 0 1 3623.dat
1 7 -330 -200 570 1 0 0 0 1 0 0 0 1 3623.dat
1 308 -280 -296 670 0 0 -1 0 1 0 1 0 0 26603.dat
1 6 -360 -296 680 -1 0 0 0 1 0 0 0 -1 3068a.dat
1 6 -360 -296 640 -1 0 0 0 1 0 0 0 -1 3068a.dat
1 6 -400 -296 690 -1 0 0 0 1 0 0 0 -1 3069b.dat
1 6 -240 -296 660 0 0 1 0 1 0 -1 0 0 87079.dat
1 6 -320 -296 660 0 0 1 0 1 0 -1 0 0 87079.dat
1 6 -480 -296 660 0 0 1 0 1 0 -1 0 0 87079.dat
1 6 -560 -296 660 0 0 1 0 1 0 -1 0 0 87079.dat
1 6 -440 -296 680 -1 0 0 0 1 0 0 0 -1 3068a.dat
1 308 -400 -296 650 0 0 -1 0 1 0 1 0 0 26603.dat
1 308 -520 -296 670 0 0 -1 0 1 0 1 0 0 26603.dat
1 6 -280 -296 630 1 0 0 0 1 0 0 0 1 3794a.dat
1 6 -520 -296 630 1 0 0 0 1 0 0 0 1 3794a.dat
1 308 -440 -296 640 1 0 0 0 1 0 0 0 1 87580.dat
1 8 -300 -96 780 0 0 1 0 1 0 -1 0 0 66857.dat
1 7 -350 -96 770 0 0 1 0 1 0 -1 0 0 98138.dat
1 7 -260 -96 820 0 0 1 0 1 0 -1 0 0 15535.dat
1 8 -220 -96 820 0 0 1 0 1 0 -1 0 0 14769.dat
1 7 -230 -96 780 0 0 1 0 1 0 -1 0 0 1126.dat
1 7 -250 -96 790 0 0 1 0 1 0 -1 0 0 98138.dat
1 8 -150 -96 830 0 0 1 0 1 0 -1 0 0 98138.dat
1 8 -250 -96 770 0 0 1 0 1 0 -1 0 0 98138.dat
1 7 -180 -96 830 -1 0 0 0 1 0 0 0 -1 1126.dat
1 8 -130 -96 890 0 0 1 0 1 0 -1 0 0 98138.dat
1 7 -50 -96 840 0 0 1 0 1 0 -1 0 0 1126.dat
1 8 -50 -96 810 0 0 1 0 1 0 -1 0 0 98138.dat
1 7 -60 -96 760 -1 0 0 0 1 0 0 0 -1 66857.dat
1 8 -450 -96 940 0 0 1 0 1 0 -1 0 0 1126.dat
1 7 -90 -96 740 0 0 1 0 1 0 -1 0 0 1126.dat
1 7 -70 -96 710 0 0 1 0 1 0 -1 0 0 98138.dat
1 7 -50 -96 710 0 0 1 0 1 0 -1 0 0 98138.dat
1 8 -100 -96 710 -1 0 0 0 1 0 0 0 -1 1126.dat
1 288 -210 -112 710 0.5 0 -0.866025 0 1 0 0.866025 0 0.5 30176.dat
1 6 -220 -96 680 1 0 0 0 1 0 0 0 1 61780.dat
1 423 -520 -128 780 1 0 0 0 1 0 0 0 1 2489.dat
1 2 -530 -112 810 0.5 0 -0.866025 0 1 0 0.866025 0 0.5 30176.dat
1 308 720 -264 1430 1 0 0 0 1 0 0 0 1 49311.dat
1 308 640 -264 1430 1 0 0 0 1 0 0 0 1 49311.dat
1 308 680 -288 1430 1 0 0 0 1 0 0 0 1 3008.dat
1 308 680 -296 1430 -1 0 0 0 1 0 0 0 -1 4510.dat
1 6 620 -160 1260 1 0 0 0 1 0 0 0 1 6881b.dat
1 6 740 -160 1260 1 0 0 0 1 0 0 0 1 6881b.dat
1 6 740 -160 1340 1 0 0 0 1 0 0 0 1 69729.dat
1 6 620 -160 1340 1 0 0 0 1 0 0 0 1 69729.dat
1 6 680 -160 1380 1 0 0 0 1 0 0 0 1 69729.dat
1 6 750 -160 1380 0 0 -1 0 1 0 1 0 0 2412b.dat
1 6 610 -160 1380 0 0 -1 0 1 0 1 0 0 2412b.dat
1 19 -380 -64 920 0 0 1 0 1 0 -1 0 0 30072.dat
1 19 -420 -64 600 1 0 0 0 1 0 0 0 1 4201.dat
1 19 -180 -64 600 1 0 0 0 1 0 0 0 1 4204.dat
1 19 -160 -64 780 0 0 1 0 1 0 -1 0 0 733.dat
1 19 -580 -64 680 0 0 1 0 1 0 -1 0 0 4204.dat
1 19 -40 -88 780 0 0 1 0 1 0 -1 0 0 3006.dat
1 19 -160 -64 900 1 0 0 0 1 0 0 0 1 3006.dat
1 19 -40 -64 780 0 0 1 0 1 0 -1 0 0 3006.dat
1 19 -50 -64 890 0 0 -1 0 1 0 1 0 0 85080.dat
1 19 -610 -88 1100 0 0 1 0 1 0 -1 0 0 3010.dat
1 19 -560 -88 1050 1 0 0 0 1 0 0 0 1 3009.dat
1 19 -580 -64 1000 0 0 1 0 1 0 -1 0 0 4204.dat
1 19 -380 -40 920 0 0 1 0 1 0 -1 0 0 30072.dat
1 19 -420 -40 600 1 0 0 0 1 0 0 0 1 4201.dat
1 19 -180 -40 600 1 0 0 0 1 0 0 0 1 4204.dat
1 19 -160 -40 780 0 0 1 0 1 0 -1 0 0 733.dat
1 19 -580 -40 680 0 0 1 0 1 0 -1 0 0 4204.dat
1 19 -160 -40 900 1 0 0 0 1 0 0 0 1 3006.dat
1 19 -40 -40 780 0 0 1 0 1 0 -1 0 0 3006.dat
1 19 -50 -40 890 0 0 -1 0 1 0 1 0 0 85080.dat
1 19 -610 -64 1100 0 0 1 0 1 0 -1 0 0 3010.dat
1 19 -560 -64 1050 1 0 0 0 1 0 0 0 1 3009.dat
1 19 -580 -40 1000 0 0 1 0 1 0 -1 0 0 4204.dat
1 19 -240 -48 1060 0 0 1 0 1 0 -1 0 0 3006.dat
1 19 -240 -24 1060 0 0 1 0 1 0 -1 0 0 3006.dat
1 19 -240 -48 940 0 0 1 0 1 0 -1 0 0 3003.dat
1 19 -240 -24 940 0 0 1 0 1 0 -1 0 0 3003.dat
1 86 -140 -96 530 -1 0 0 0 1 0 0 0 -1 4162.dat
1 86 -250 -96 530 1 0 0 0 1 0 0 0 1 14719.dat
1 86 -590 -96 750 1 0 0 0 1 0 0 0 1 14719.dat
1 86 -590 -96 790 0 0 1 0 1 0 -1 0 0 3070a.dat
1 19 -590 -272 830 0 0 -1 0 1 0 1 0 0 98138.dat
1 19 -590 -288 830 0 0 -1 0 1 0 1 0 0 20482.dat
