0 
0 Name: New Model.ldr
0 Author: 
1 4 280 -368 -120 1 0 0 0 1 0 0 0 1 43085.dat
1 308 280 -392 -120 1 0 0 0 1 0 0 0 1 3007.dat
1 4 280 -368 -80 -1 0 0 0 1 0 0 0 -1 43085.dat
1 308 280 -392 -80 1 0 0 0 1 0 0 0 1 3007.dat
1 1 320 -400 -100 1 0 0 0 1 0 0 0 1 1751.dat
1 1 240 -400 -100 1 0 0 0 1 0 0 0 1 1751.dat
1 4 120 -368 -120 1 0 0 0 1 0 0 0 1 43085.dat
1 308 120 -392 -120 1 0 0 0 1 0 0 0 1 3007.dat
1 4 120 -368 -80 -1 0 0 0 1 0 0 0 -1 43085.dat
1 308 120 -392 -80 1 0 0 0 1 0 0 0 1 3007.dat
1 1 160 -400 -100 1 0 0 0 1 0 0 0 1 1751.dat
1 1 80 -400 -100 1 0 0 0 1 0 0 0 1 1751.dat
1 4 -220 -368 220 0 0 1 0 1 0 -1 0 0 43085.dat
1 308 -220 -392 220 0 0 1 0 1 0 -1 0 0 3007.dat
1 4 -180 -368 220 0 0 -1 0 1 0 1 0 0 43085.dat
1 308 -180 -392 220 0 0 1 0 1 0 -1 0 0 3007.dat
1 1 -200 -400 180 0 0 1 0 1 0 -1 0 0 1751.dat
1 1 -200 -400 260 0 0 1 0 1 0 -1 0 0 1751.dat
1 4 -220 -368 -420 0 0 1 0 1 0 -1 0 0 43085.dat
1 308 -220 -392 -420 0 0 1 0 1 0 -1 0 0 3007.dat
1 4 -180 -368 -420 0 0 -1 0 1 0 1 0 0 43085.dat
1 308 -180 -392 -420 0 0 1 0 1 0 -1 0 0 3007.dat
1 1 -200 -400 -460 0 0 1 0 1 0 -1 0 0 1751.dat
1 1 -200 -400 -380 0 0 1 0 1 0 -1 0 0 1751.dat
1 4 -220 -368 -580 0 0 1 0 1 0 -1 0 0 43085.dat
1 308 -220 -392 -580 0 0 1 0 1 0 -1 0 0 3007.dat
1 4 -180 -368 -580 0 0 -1 0 1 0 1 0 0 43085.dat
1 308 -180 -392 -580 0 0 1 0 1 0 -1 0 0 3007.dat
1 1 -200 -400 -620 0 0 1 0 1 0 -1 0 0 1751.dat
1 1 -200 -400 -540 0 0 1 0 1 0 -1 0 0 1751.dat
1 4 -220 -368 380 0 0 1 0 1 0 -1 0 0 43085.dat
1 308 -220 -392 380 0 0 1 0 1 0 -1 0 0 3007.dat
1 4 -180 -368 380 0 0 -1 0 1 0 1 0 0 43085.dat
1 308 -180 -392 380 0 0 1 0 1 0 -1 0 0 3007.dat
1 1 -200 -400 340 0 0 1 0 1 0 -1 0 0 1751.dat
1 1 -200 -400 420 0 0 1 0 1 0 -1 0 0 1751.dat
1 308 40 -80 140 1 0 0 0 1 0 0 0 1 30145.dat
1 308 40 -152 140 1 0 0 0 1 0 0 0 1 30145.dat
1 308 40 -224 140 1 0 0 0 1 0 0 0 1 30145.dat
1 308 40 -80 -340 1 0 0 0 1 0 0 0 1 30145.dat
1 308 40 -152 -340 1 0 0 0 1 0 0 0 1 30145.dat
1 308 40 -224 -340 1 0 0 0 1 0 0 0 1 30145.dat
1 308 -440 -80 140 1 0 0 0 1 0 0 0 1 30145.dat
1 308 -440 -152 140 1 0 0 0 1 0 0 0 1 30145.dat
1 308 -440 -224 140 1 0 0 0 1 0 0 0 1 30145.dat
1 308 440 -80 140 1 0 0 0 1 0 0 0 1 30145.dat
1 308 440 -152 140 1 0 0 0 1 0 0 0 1 30145.dat
1 308 440 -224 140 1 0 0 0 1 0 0 0 1 30145.dat
1 308 440 -80 -340 1 0 0 0 1 0 0 0 1 30145.dat
1 308 440 -152 -340 1 0 0 0 1 0 0 0 1 30145.dat
1 308 440 -224 -340 1 0 0 0 1 0 0 0 1 30145.dat
1 7 320 0 140 1 0 0 0 1 0 0 0 1 79759.dat
1 7 320 0 -20 1 0 0 0 1 0 0 0 1 79759.dat
1 7 320 0 -180 1 0 0 0 1 0 0 0 1 79759.dat
1 7 320 0 -340 1 0 0 0 1 0 0 0 1 79759.dat
1 7 160 0 140 1 0 0 0 1 0 0 0 1 79759.dat
1 7 160 0 -20 1 0 0 0 1 0 0 0 1 79759.dat
1 7 160 0 -180 1 0 0 0 1 0 0 0 1 79759.dat
1 7 160 0 -340 1 0 0 0 1 0 0 0 1 79759.dat
1 7 0 0 140 1 0 0 0 1 0 0 0 1 79759.dat
1 7 0 0 -20 1 0 0 0 1 0 0 0 1 79759.dat
1 7 0 0 -180 1 0 0 0 1 0 0 0 1 79759.dat
1 7 0 0 -340 1 0 0 0 1 0 0 0 1 79759.dat
1 7 -160 0 140 1 0 0 0 1 0 0 0 1 79759.dat
1 7 -160 0 -20 1 0 0 0 1 0 0 0 1 79759.dat
1 7 -160 0 -180 1 0 0 0 1 0 0 0 1 79759.dat
1 7 -160 0 -340 1 0 0 0 1 0 0 0 1 79759.dat
1 7 -320 0 140 1 0 0 0 1 0 0 0 1 79759.dat
1 7 -320 0 -20 1 0 0 0 1 0 0 0 1 79759.dat
1 7 -320 0 -180 1 0 0 0 1 0 0 0 1 79759.dat
1 7 -320 0 -340 1 0 0 0 1 0 0 0 1 79759.dat
1 7 -480 0 140 1 0 0 0 1 0 0 0 1 79759.dat
1 7 -480 0 -20 1 0 0 0 1 0 0 0 1 79759.dat
1 7 -480 0 -180 1 0 0 0 1 0 0 0 1 79759.dat
1 7 -480 0 -340 1 0 0 0 1 0 0 0 1 79759.dat
1 308 40 -232 140 1 0 0 0 1 0 0 0 1 3022.dat
1 7 50 -240 150 1 0 0 0 1 0 0 0 1 3024.dat
1 308 30 -240 130 1 0 0 0 1 0 0 0 1 3024.dat
1 308 30 -240 -330 1 0 0 0 1 0 0 0 1 3024.dat
1 7 50 -240 -350 1 0 0 0 1 0 0 0 1 3024.dat
1 308 40 -232 -340 1 0 0 0 1 0 0 0 1 3022.dat
1 308 -440 -232 -340 1 0 0 0 1 0 0 0 1 3022.dat
1 308 -440 -232 140 1 0 0 0 1 0 0 0 1 3022.dat
1 4 440 -368 -120 1 0 0 0 1 0 0 0 1 43085.dat
1 308 440 -392 -120 1 0 0 0 1 0 0 0 1 3007.dat
1 4 440 -368 -80 -1 0 0 0 1 0 0 0 -1 43085.dat
1 308 440 -392 -80 1 0 0 0 1 0 0 0 1 3007.dat
1 1 400 -400 -100 1 0 0 0 1 0 0 0 1 1751.dat
1 7 480 0 140 1 0 0 0 1 0 0 0 1 79759.dat
1 7 480 0 -20 1 0 0 0 1 0 0 0 1 79759.dat
1 7 480 0 -180 1 0 0 0 1 0 0 0 1 79759.dat
1 7 480 0 -340 1 0 0 0 1 0 0 0 1 79759.dat
1 1 480 -400 -100 1 0 0 0 1 0 0 0 1 1751.dat
1 4 190 -264 150 0 0 1 0 1 0 -1 0 0 78666.dat
1 4 210 -264 150 0 0 1 0 1 0 -1 0 0 78666.dat
1 4 350 -264 150 0 0 1 0 1 0 -1 0 0 78666.dat
1 4 370 -264 150 0 0 1 0 1 0 -1 0 0 78666.dat
1 4 510 -264 150 0 0 1 0 1 0 -1 0 0 78666.dat
1 4 470 -264 150 -1 0 0 0 1 0 0 0 -1 3622.dat
1 4 410 -264 150 -1 0 0 0 1 0 0 0 -1 3622.dat
1 4 310 -264 150 -1 0 0 0 1 0 0 0 -1 3622.dat
1 4 250 -264 150 -1 0 0 0 1 0 0 0 -1 3622.dat
1 4 150 -264 150 -1 0 0 0 1 0 0 0 -1 3622.dat
1 4 90 -264 150 -1 0 0 0 1 0 0 0 -1 3622.dat
1 4 510 -264 -350 0 0 -1 0 1 0 1 0 0 78666.dat
1 4 370 -264 -350 0 0 -1 0 1 0 1 0 0 78666.dat
1 4 350 -264 -350 0 0 -1 0 1 0 1 0 0 78666.dat
1 4 210 -264 -350 0 0 -1 0 1 0 1 0 0 78666.dat
1 4 190 -264 -350 0 0 -1 0 1 0 1 0 0 78666.dat
1 4 470 -264 -350 -1 0 0 0 1 0 0 0 -1 3622.dat
1 4 410 -264 -350 -1 0 0 0 1 0 0 0 -1 3622.dat
1 4 310 -264 -350 -1 0 0 0 1 0 0 0 -1 3622.dat
1 4 250 -264 -350 -1 0 0 0 1 0 0 0 -1 3622.dat
1 4 150 -264 -350 -1 0 0 0 1 0 0 0 -1 3622.dat
1 4 90 -264 -350 -1 0 0 0 1 0 0 0 -1 3622.dat
1 308 40 -312 140 1 0 0 0 1 0 0 0 1 30145.dat
1 308 40 -384 140 1 0 0 0 1 0 0 0 1 30145.dat
1 308 40 -312 -340 1 0 0 0 1 0 0 0 1 30145.dat
1 308 40 -384 -340 1 0 0 0 1 0 0 0 1 30145.dat
1 4 440 -272 150 -1 0 0 0 1 0 0 0 -1 4162.dat
1 4 280 -272 150 -1 0 0 0 1 0 0 0 -1 4162.dat
1 4 140 -272 150 -1 0 0 0 1 0 0 0 -1 6636.dat
1 4 70 -272 150 -1 0 0 0 1 0 0 0 -1 3070b.dat
1 4 440 -272 -350 -1 0 0 0 1 0 0 0 -1 4162.dat
1 4 280 -272 -350 -1 0 0 0 1 0 0 0 -1 4162.dat
1 4 140 -272 -350 -1 0 0 0 1 0 0 0 -1 6636.dat
1 7 0 0 300 1 0 0 0 1 0 0 0 1 79759.dat
1 7 -160 0 300 1 0 0 0 1 0 0 0 1 79759.dat
1 7 -320 0 300 1 0 0 0 1 0 0 0 1 79759.dat
1 7 -480 0 300 1 0 0 0 1 0 0 0 1 79759.dat
1 7 0 0 460 1 0 0 0 1 0 0 0 1 79759.dat
1 7 -160 0 460 1 0 0 0 1 0 0 0 1 79759.dat
1 7 -320 0 460 1 0 0 0 1 0 0 0 1 79759.dat
1 7 -480 0 460 1 0 0 0 1 0 0 0 1 79759.dat
1 7 0 0 -500 1 0 0 0 1 0 0 0 1 79759.dat
1 7 -160 0 -500 1 0 0 0 1 0 0 0 1 79759.dat
1 7 -320 0 -500 1 0 0 0 1 0 0 0 1 79759.dat
1 7 -480 0 -500 1 0 0 0 1 0 0 0 1 79759.dat
1 7 0 0 -660 1 0 0 0 1 0 0 0 1 79759.dat
1 7 -160 0 -660 1 0 0 0 1 0 0 0 1 79759.dat
1 7 -320 0 -660 1 0 0 0 1 0 0 0 1 79759.dat
1 7 -480 0 -660 1 0 0 0 1 0 0 0 1 79759.dat
1 4 180 -240 -350 1 0 0 0 1 0 0 0 1 4477.dat
1 4 400 -240 -350 1 0 0 0 1 0 0 0 1 60479.dat
1 4 70 -240 -350 1 0 0 0 1 0 0 0 1 3024.dat
1 308 70 -232 -350 1 0 0 0 1 0 0 0 1 3024.dat
1 4 400 -240 150 1 0 0 0 1 0 0 0 1 60479.dat
1 4 180 -240 150 1 0 0 0 1 0 0 0 1 4477.dat
1 308 70 -232 150 1 0 0 0 1 0 0 0 1 3024.dat
1 4 70 -240 150 1 0 0 0 1 0 0 0 1 3024.dat
1 308 500 -232 130 -1 0 0 0 1 0 0 0 -1 3023b.dat
1 308 500 -232 -330 -1 0 0 0 1 0 0 0 -1 3023b.dat
1 308 440 -80 -40 1 0 0 0 1 0 0 0 1 30145.dat
1 308 440 -152 -40 1 0 0 0 1 0 0 0 1 30145.dat
1 308 440 -80 -160 1 0 0 0 1 0 0 0 1 30145.dat
1 308 440 -152 -160 1 0 0 0 1 0 0 0 1 30145.dat
1 308 440 -296 -40 1 0 0 0 1 0 0 0 1 30145.dat
1 308 440 -296 -160 1 0 0 0 1 0 0 0 1 30145.dat
1 308 440 -176 -40 1 0 0 0 1 0 0 0 1 3003.dat
1 308 440 -176 -160 1 0 0 0 1 0 0 0 1 3003.dat
1 4 460 -184 -100 0 0 -1 0 1 0 1 0 0 3034.dat
1 4 470 -208 -10 0 0 1 0 1 0 -1 0 0 78666.dat
1 4 470 -208 -190 0 0 -1 0 1 0 1 0 0 78666.dat
1 4 470 -192 -100 0 0 -1 0 1 0 1 0 0 6636.dat
1 4 470 -216 -10 0 0 1 0 1 0 -1 0 0 3070b.dat
1 4 470 -216 -190 0 0 1 0 1 0 -1 0 0 3070b.dat
1 308 430 -184 -100 0 0 -1 0 1 0 1 0 0 3460.dat
1 308 440 -192 -100 0 0 -1 0 1 0 1 0 0 3034.dat
1 308 440 -200 -100 0 0 -1 0 1 0 1 0 0 3034.dat
1 308 440 -224 -40 1 0 0 0 1 0 0 0 1 3003.dat
1 308 440 -224 -160 1 0 0 0 1 0 0 0 1 3003.dat
1 4 470 -128 -40 0 0 -1 0 1 0 1 0 0 2454b.dat
1 4 470 -128 -160 0 0 -1 0 1 0 1 0 0 2454b.dat
1 4 470 -176 -40 0 0 -1 0 1 0 1 0 0 3245a.dat
1 4 470 -176 -160 0 0 -1 0 1 0 1 0 0 3245a.dat
1 308 470 -128 140 0 0 -1 0 1 0 1 0 0 2454b.dat
1 308 470 -176 140 0 0 -1 0 1 0 1 0 0 3245a.dat
1 308 470 -128 -340 0 0 -1 0 1 0 1 0 0 2454b.dat
1 308 470 -176 -340 0 0 -1 0 1 0 1 0 0 3245a.dat
1 4 450 -128 50 1 0 0 0 1 0 0 0 1 2453b.dat
1 4 450 -128 -250 1 0 0 0 1 0 0 0 1 2453b.dat
1 15 450 -144 -290 0 0 -1 0 1 0 1 0 0 3755b.dat
1 15 450 -144 -210 0 0 -1 0 1 0 1 0 0 3755b.dat
1 15 450 -144 10 0 0 -1 0 1 0 1 0 0 3755b.dat
1 15 450 -144 90 0 0 -1 0 1 0 1 0 0 3755b.dat
1 4 450 -200 50 1 0 0 0 1 0 0 0 1 14716.dat
1 4 450 -200 -250 1 0 0 0 1 0 0 0 1 14716.dat
1 308 490 -344 -100 0 0 -1 0 1 0 1 0 0 3010.dat
1 308 490 -320 -100 0 0 -1 0 1 0 1 0 0 3004.dat
1 308 490 -272 -100 0 0 -1 0 1 0 1 0 0 3004.dat
1 308 490 -296 -100 0 0 -1 0 1 0 1 0 0 3004.dat
1 308 490 -240 -100 0 0 -1 0 1 0 1 0 0 3023b.dat
1 308 490 -248 -100 0 0 -1 0 1 0 1 0 0 3023b.dat
1 4 490 -240 -30 0 0 -1 0 1 0 1 0 0 78329.dat
1 4 490 -240 -170 0 0 -1 0 1 0 1 0 0 78329.dat
1 4 490 -240 -240 0 0 -1 0 1 0 1 0 0 3023b.dat
1 4 490 -240 40 0 0 -1 0 1 0 1 0 0 3023b.dat
1 4 490 -272 -30 0 0 -1 0 1 0 1 0 0 78329.dat
1 4 490 -272 -170 0 0 -1 0 1 0 1 0 0 78329.dat
1 15 490 -264 -20 0 0 -1 0 1 0 1 0 0 3010.dat
1 15 490 -264 -180 0 0 -1 0 1 0 1 0 0 3010.dat
1 15 490 -264 30 0 0 -1 0 1 0 1 0 0 3005.dat
1 15 490 -264 -230 0 0 -1 0 1 0 1 0 0 3005.dat
1 4 490 -264 -130 0 0 -1 0 1 0 1 0 0 3005.dat
1 4 490 -264 -70 0 0 -1 0 1 0 1 0 0 3005.dat
1 15 490 -264 -20 0 0 -1 0 1 0 1 0 0 3010.dat
1 308 490 -296 -50 0 0 -1 0 1 0 1 0 0 3622.dat
1 308 490 -296 -150 0 0 -1 0 1 0 1 0 0 3622.dat
1 308 490 -320 -140 0 0 -1 0 1 0 1 0 0 3004.dat
1 308 490 -320 -60 0 0 -1 0 1 0 1 0 0 3004.dat
1 4 490 -248 -250 0 0 -1 0 1 0 1 0 0 3024.dat
1 4 490 -248 50 0 0 -1 0 1 0 1 0 0 3024.dat
1 308 490 -280 -10 0 0 -1 0 1 0 1 0 0 3024.dat
1 308 490 -288 -10 0 0 -1 0 1 0 1 0 0 3024.dat
1 308 490 -280 -190 0 0 -1 0 1 0 1 0 0 3024.dat
1 308 490 -288 -190 0 0 -1 0 1 0 1 0 0 3024.dat
1 308 490 -232 -100 0 0 -1 0 1 0 1 0 0 3023b.dat
1 308 490 -232 -30 0 0 -1 0 1 0 1 0 0 78329.dat
1 308 490 -232 -170 0 0 -1 0 1 0 1 0 0 78329.dat
1 4 450 -224 50 1 0 0 0 1 0 0 0 1 3005.dat
1 4 450 -224 -250 1 0 0 0 1 0 0 0 1 3005.dat
1 4 470 -232 -250 1 0 0 0 1 0 0 0 1 3623.dat
1 4 470 -232 50 1 0 0 0 1 0 0 0 1 3623.dat
1 308 490 -232 30 0 0 -1 0 1 0 1 0 0 3024.dat
1 308 490 -232 -230 0 0 -1 0 1 0 1 0 0 3024.dat
1 15 450 -200 90 0 0 -1 0 1 0 1 0 0 3622.dat
1 15 450 -224 90 0 0 -1 0 1 0 1 0 0 3622.dat
1 15 450 -200 -290 0 0 -1 0 1 0 1 0 0 3622.dat
1 15 450 -224 -290 0 0 -1 0 1 0 1 0 0 3622.dat
1 308 460 -232 -210 0 0 -1 0 1 0 1 0 0 3021.dat
1 308 460 -232 10 0 0 -1 0 1 0 1 0 0 3021.dat
1 308 470 -240 -100 0 0 -1 0 1 0 1 0 0 3460.dat
1 4 -120 -600 -120 1 0 0 0 1 0 0 0 1 43085.dat
1 308 -120 -624 -120 1 0 0 0 1 0 0 0 1 3007.dat
1 4 -120 -600 -80 -1 0 0 0 1 0 0 0 -1 43085.dat
1 308 -120 -624 -80 1 0 0 0 1 0 0 0 1 3007.dat
1 1 -80 -632 -100 1 0 0 0 1 0 0 0 1 1751.dat
1 1 -160 -632 -100 1 0 0 0 1 0 0 0 1 1751.dat
1 4 -280 -600 -120 1 0 0 0 1 0 0 0 1 43085.dat
1 308 -280 -624 -120 1 0 0 0 1 0 0 0 1 3007.dat
1 4 -280 -600 -80 -1 0 0 0 1 0 0 0 -1 43085.dat
1 308 -280 -624 -80 1 0 0 0 1 0 0 0 1 3007.dat
1 1 -240 -632 -100 1 0 0 0 1 0 0 0 1 1751.dat
1 1 -320 -632 -100 1 0 0 0 1 0 0 0 1 1751.dat
1 308 40 -456 140 1 0 0 0 1 0 0 0 1 30145.dat
1 308 40 -456 -340 1 0 0 0 1 0 0 0 1 30145.dat
1 4 40 -600 -120 1 0 0 0 1 0 0 0 1 43085.dat
1 308 40 -624 -120 1 0 0 0 1 0 0 0 1 3007.dat
1 4 40 -600 -80 -1 0 0 0 1 0 0 0 -1 43085.dat
1 308 40 -624 -80 1 0 0 0 1 0 0 0 1 3007.dat
1 1 0 -632 -100 1 0 0 0 1 0 0 0 1 1751.dat
1 1 80 -632 -100 1 0 0 0 1 0 0 0 1 1751.dat
1 4 -210 -496 150 0 0 1 0 1 0 -1 0 0 78666.dat
1 4 -190 -496 150 0 0 1 0 1 0 -1 0 0 78666.dat
1 4 -50 -496 150 0 0 1 0 1 0 -1 0 0 78666.dat
1 4 -30 -496 150 0 0 1 0 1 0 -1 0 0 78666.dat
1 4 110 -496 150 0 0 1 0 1 0 -1 0 0 78666.dat
1 4 70 -496 150 -1 0 0 0 1 0 0 0 -1 3622.dat
1 4 10 -496 150 -1 0 0 0 1 0 0 0 -1 3622.dat
1 4 -90 -496 150 -1 0 0 0 1 0 0 0 -1 3622.dat
1 4 -150 -496 150 -1 0 0 0 1 0 0 0 -1 3622.dat
1 4 -250 -496 150 -1 0 0 0 1 0 0 0 -1 3622.dat
1 4 110 -496 -350 0 0 -1 0 1 0 1 0 0 78666.dat
1 4 -30 -496 -350 0 0 -1 0 1 0 1 0 0 78666.dat
1 4 -50 -496 -350 0 0 -1 0 1 0 1 0 0 78666.dat
1 4 -190 -496 -350 0 0 -1 0 1 0 1 0 0 78666.dat
1 4 -210 -496 -350 0 0 -1 0 1 0 1 0 0 78666.dat
1 4 70 -496 -350 -1 0 0 0 1 0 0 0 -1 3622.dat
1 4 10 -496 -350 -1 0 0 0 1 0 0 0 -1 3622.dat
1 4 -90 -496 -350 -1 0 0 0 1 0 0 0 -1 3622.dat
1 4 -150 -496 -350 -1 0 0 0 1 0 0 0 -1 3622.dat
1 4 -250 -496 -350 -1 0 0 0 1 0 0 0 -1 3622.dat
1 4 40 -504 150 -1 0 0 0 1 0 0 0 -1 4162.dat
1 4 -440 -504 150 -1 0 0 0 1 0 0 0 -1 4162.dat
1 4 40 -504 -350 -1 0 0 0 1 0 0 0 -1 4162.dat
1 4 -120 -504 -350 -1 0 0 0 1 0 0 0 -1 4162.dat
1 308 0 -464 -350 1 0 0 0 1 0 0 0 1 60479.dat
1 308 -220 -464 -350 1 0 0 0 1 0 0 0 1 4477.dat
1 4 -220 -472 -350 1 0 0 0 1 0 0 0 1 4477.dat
1 4 0 -472 -350 1 0 0 0 1 0 0 0 1 60479.dat
1 308 0 -464 -350 1 0 0 0 1 0 0 0 1 60479.dat
1 308 0 -464 150 1 0 0 0 1 0 0 0 1 60479.dat
1 4 0 -472 150 1 0 0 0 1 0 0 0 1 60479.dat
1 308 -220 -464 150 1 0 0 0 1 0 0 0 1 4477.dat
1 4 -220 -472 150 1 0 0 0 1 0 0 0 1 4477.dat
1 308 100 -464 130 -1 0 0 0 1 0 0 0 -1 3023b.dat
1 308 100 -464 -330 -1 0 0 0 1 0 0 0 -1 3023b.dat
1 308 40 -528 -40 1 0 0 0 1 0 0 0 1 30145.dat
1 308 40 -528 -160 1 0 0 0 1 0 0 0 1 30145.dat
1 308 90 -576 -100 0 0 -1 0 1 0 1 0 0 3010.dat
1 308 90 -552 -100 0 0 -1 0 1 0 1 0 0 3004.dat
1 308 90 -504 -100 0 0 -1 0 1 0 1 0 0 3004.dat
1 308 90 -528 -100 0 0 -1 0 1 0 1 0 0 3004.dat
1 308 90 -472 -100 0 0 -1 0 1 0 1 0 0 3023b.dat
1 308 90 -480 -100 0 0 -1 0 1 0 1 0 0 3023b.dat
1 4 90 -472 -30 0 0 -1 0 1 0 1 0 0 78329.dat
1 4 90 -472 -170 0 0 -1 0 1 0 1 0 0 78329.dat
1 4 90 -472 -240 0 0 -1 0 1 0 1 0 0 3023b.dat
1 4 90 -472 40 0 0 -1 0 1 0 1 0 0 3023b.dat
1 4 90 -504 -30 0 0 -1 0 1 0 1 0 0 78329.dat
1 4 90 -504 -170 0 0 -1 0 1 0 1 0 0 78329.dat
1 15 90 -496 -20 0 0 -1 0 1 0 1 0 0 3010.dat
1 15 90 -496 -180 0 0 -1 0 1 0 1 0 0 3010.dat
1 15 90 -496 30 0 0 -1 0 1 0 1 0 0 3005.dat
1 15 90 -496 -230 0 0 -1 0 1 0 1 0 0 3005.dat
1 4 90 -496 -130 0 0 -1 0 1 0 1 0 0 3005.dat
1 4 90 -496 -70 0 0 -1 0 1 0 1 0 0 3005.dat
1 308 90 -528 -50 0 0 -1 0 1 0 1 0 0 3622.dat
1 308 90 -528 -150 0 0 -1 0 1 0 1 0 0 3622.dat
1 308 90 -552 -140 0 0 -1 0 1 0 1 0 0 3004.dat
1 308 90 -552 -60 0 0 -1 0 1 0 1 0 0 3004.dat
1 4 90 -480 -250 0 0 -1 0 1 0 1 0 0 3024.dat
1 4 90 -480 50 0 0 -1 0 1 0 1 0 0 3024.dat
1 308 90 -512 -10 0 0 -1 0 1 0 1 0 0 3024.dat
1 308 90 -520 -10 0 0 -1 0 1 0 1 0 0 3024.dat
1 308 90 -512 -190 0 0 -1 0 1 0 1 0 0 3024.dat
1 308 90 -520 -190 0 0 -1 0 1 0 1 0 0 3024.dat
1 308 90 -464 -100 0 0 -1 0 1 0 1 0 0 3023b.dat
1 308 90 -464 -30 0 0 -1 0 1 0 1 0 0 78329.dat
1 308 90 -464 -170 0 0 -1 0 1 0 1 0 0 78329.dat
1 4 70 -464 -250 1 0 0 0 1 0 0 0 1 3623.dat
1 4 70 -464 50 1 0 0 0 1 0 0 0 1 3623.dat
1 308 90 -464 30 0 0 -1 0 1 0 1 0 0 3024.dat
1 308 90 -464 -230 0 0 -1 0 1 0 1 0 0 3024.dat
1 308 60 -464 -210 0 0 -1 0 1 0 1 0 0 3021.dat
1 308 60 -464 10 0 0 -1 0 1 0 1 0 0 3021.dat
1 308 70 -464 -100 0 0 -1 0 1 0 1 0 0 3460.dat
1 4 -440 -600 -120 1 0 0 0 1 0 0 0 1 43085.dat
1 308 -440 -624 -120 1 0 0 0 1 0 0 0 1 3007.dat
1 4 -440 -600 -80 -1 0 0 0 1 0 0 0 -1 43085.dat
1 308 -440 -624 -80 1 0 0 0 1 0 0 0 1 3007.dat
1 1 -400 -632 -100 1 0 0 0 1 0 0 0 1 1751.dat
1 1 -480 -632 -100 1 0 0 0 1 0 0 0 1 1751.dat
1 4 -410 -496 150 -1 0 0 0 1 0 0 0 -1 3622.dat
1 4 -410 -496 -350 -1 0 0 0 1 0 0 0 -1 3622.dat
1 308 -420 -464 -350 1 0 0 0 1 0 0 0 1 4477.dat
1 4 -420 -472 -350 1 0 0 0 1 0 0 0 1 4477.dat
1 308 -420 -464 150 1 0 0 0 1 0 0 0 1 4477.dat
1 4 -420 -472 150 1 0 0 0 1 0 0 0 1 4477.dat
1 4 -310 -496 -350 -1 0 0 0 1 0 0 0 -1 3622.dat
1 4 -470 -496 -350 -1 0 0 0 1 0 0 0 -1 3622.dat
1 4 -310 -496 150 -1 0 0 0 1 0 0 0 -1 3622.dat
1 4 -470 -496 150 -1 0 0 0 1 0 0 0 -1 3622.dat
1 4 -120 -504 150 -1 0 0 0 1 0 0 0 -1 4162.dat
1 4 -280 -504 150 -1 0 0 0 1 0 0 0 -1 4162.dat
1 4 -280 -504 -350 -1 0 0 0 1 0 0 0 -1 4162.dat
1 4 -440 -504 -350 -1 0 0 0 1 0 0 0 -1 4162.dat
1 4 -350 -496 -350 0 0 -1 0 1 0 1 0 0 78666.dat
1 4 -370 -496 -350 0 0 -1 0 1 0 1 0 0 78666.dat
1 4 -510 -496 -350 0 0 -1 0 1 0 1 0 0 78666.dat
1 4 -350 -496 150 0 0 1 0 1 0 -1 0 0 78666.dat
1 4 -370 -496 150 0 0 1 0 1 0 -1 0 0 78666.dat
1 4 -510 -496 150 0 0 1 0 1 0 -1 0 0 78666.dat
1 15 30 -456 -290 0 0 -1 0 1 0 1 0 0 3755b.dat
1 15 30 -456 -210 0 0 -1 0 1 0 1 0 0 3755b.dat
1 15 30 -456 10 0 0 -1 0 1 0 1 0 0 3755b.dat
1 15 30 -456 90 0 0 -1 0 1 0 1 0 0 3755b.dat
1 4 30 -456 -250 1 0 0 0 1 0 0 0 1 2453b.dat
1 4 30 -456 50 1 0 0 0 1 0 0 0 1 2453b.dat
1 4 30 -456 -170 1 0 0 0 1 0 0 0 1 2453b.dat
1 4 30 -456 -30 1 0 0 0 1 0 0 0 1 2453b.dat
1 4 30 -336 -240 0 0 -1 0 1 0 1 0 0 3460.dat
1 4 30 -336 40 0 0 -1 0 1 0 1 0 0 3460.dat
1 308 30 -456 -130 0 0 -1 0 1 0 1 0 0 3755b.dat
1 308 30 -456 -70 0 0 -1 0 1 0 1 0 0 3755b.dat
1 308 70 -456 130 0 0 1 0 1 0 -1 0 0 88292.dat
1 308 70 -456 150 0 0 1 0 1 0 -1 0 0 88292.dat
1 308 70 -456 -330 0 0 1 0 1 0 -1 0 0 88292.dat
1 308 70 -456 -350 0 0 1 0 1 0 -1 0 0 88292.dat
1 308 70 -408 140 0 0 -1 0 -1 0 -1 0 0 85984.dat
1 308 70 -408 -340 0 0 -1 0 -1 0 -1 0 0 85984.dat
1 308 70 -456 140 0 0 -1 0 1 0 1 0 0 3004.dat
1 308 70 -456 -340 0 0 -1 0 1 0 1 0 0 3004.dat
1 308 90 -456 -70 0 0 -1 0 1 0 1 0 0 24201.dat
1 308 90 -456 -90 0 0 -1 0 1 0 1 0 0 24201.dat
1 308 90 -456 -110 0 0 -1 0 1 0 1 0 0 24201.dat
1 308 90 -456 -130 0 0 -1 0 1 0 1 0 0 24201.dat
1 308 90 -456 -150 0 0 -1 0 1 0 1 0 0 24201.dat
1 308 90 -456 -50 0 0 -1 0 1 0 1 0 0 24201.dat
1 308 60 -456 -100 0 0 -1 0 1 0 1 0 0 3795.dat
1 308 50 -440 -100 0 0 1 0 -1 0 1 0 0 6636.dat
1 4 30 -232 -240 0 0 -1 0 1 0 1 0 0 3460.dat
1 4 30 -232 40 0 0 -1 0 1 0 1 0 0 3460.dat
1 308 30 -336 -100 0 0 -1 0 1 0 1 0 0 3666.dat
1 308 30 -328 -100 0 0 -1 0 1 0 1 0 0 3009.dat
1 308 30 -304 -100 0 0 -1 0 1 0 1 0 0 3009.dat
1 308 30 -264 -100 0 0 -1 0 1 0 1 0 0 3009.dat
1 4 30 -240 -100 0 0 -1 0 1 0 1 0 0 3666.dat
1 308 30 -272 -100 0 0 -1 0 1 0 1 0 0 3666.dat
1 4 30 -328 -250 1 0 0 0 1 0 0 0 1 14716.dat
1 4 30 -328 50 1 0 0 0 1 0 0 0 1 14716.dat
1 4 30 -328 -30 1 0 0 0 1 0 0 0 1 14716.dat
1 4 30 -328 -170 1 0 0 0 1 0 0 0 1 14716.dat
1 308 30 -256 -210 0 0 -1 0 1 0 1 0 0 3622.dat
1 308 30 -280 -210 0 0 -1 0 1 0 1 0 0 3622.dat
1 308 30 -304 -210 0 0 -1 0 1 0 1 0 0 3622.dat
1 308 30 -328 -210 0 0 -1 0 1 0 1 0 0 3622.dat
1 308 30 -256 -290 0 0 -1 0 1 0 1 0 0 3622.dat
1 308 30 -280 -290 0 0 -1 0 1 0 1 0 0 3622.dat
1 308 30 -304 -290 0 0 -1 0 1 0 1 0 0 3622.dat
1 308 30 -328 -290 0 0 -1 0 1 0 1 0 0 3622.dat
1 308 30 -328 10 0 0 -1 0 1 0 1 0 0 3622.dat
1 308 30 -304 10 0 0 -1 0 1 0 1 0 0 3622.dat
1 308 30 -280 10 0 0 -1 0 1 0 1 0 0 3622.dat
1 308 30 -256 10 0 0 -1 0 1 0 1 0 0 3622.dat
1 308 30 -256 90 0 0 -1 0 1 0 1 0 0 3622.dat
1 308 30 -280 90 0 0 -1 0 1 0 1 0 0 3622.dat
1 308 30 -304 90 0 0 -1 0 1 0 1 0 0 3622.dat
1 308 30 -328 90 0 0 -1 0 1 0 1 0 0 3622.dat
1 4 30 -256 -170 0 0 -1 0 1 0 1 0 0 3005.dat
1 4 30 -256 -250 0 0 -1 0 1 0 1 0 0 3005.dat
1 4 30 -256 -30 0 0 -1 0 1 0 1 0 0 3005.dat
1 4 30 -256 50 0 0 -1 0 1 0 1 0 0 3005.dat
1 4 30 -224 -170 1 0 0 0 1 0 0 0 1 2453b.dat
1 4 30 -224 -30 1 0 0 0 1 0 0 0 1 2453b.dat
1 4 30 -104 -30 1 0 0 0 1 0 0 0 1 14716.dat
1 4 30 -104 -170 1 0 0 0 1 0 0 0 1 14716.dat
1 308 450 -272 -100 0 0 -1 0 1 0 1 0 0 49311.dat
1 308 430 -272 -100 0 0 -1 0 1 0 1 0 0 49311.dat
1 308 450 -256 -210 0 0 -1 0 1 0 1 0 0 3622.dat
1 308 450 -256 10 0 0 -1 0 1 0 1 0 0 3622.dat
1 308 280 -296 -100 0 0 -1 0 1 0 1 0 0 3034.dat
1 308 120 -296 -100 0 0 -1 0 1 0 1 0 0 3034.dat
1 308 340 -280 -100 1 0 0 0 1 0 0 0 1 2445.dat
1 308 120 -280 -100 1 0 0 0 1 0 0 0 1 3832.dat
1 308 380 -272 -100 1 0 0 0 1 0 0 0 1 3395.dat
1 308 300 -272 -100 1 0 0 0 1 0 0 0 1 3395.dat
1 308 220 -272 -100 1 0 0 0 1 0 0 0 1 3395.dat
1 308 140 -272 -100 1 0 0 0 1 0 0 0 1 3395.dat
1 308 80 -272 -100 1 0 0 0 1 0 0 0 1 11203.dat
1 308 50 -264 -100 0 0 -1 0 -1 0 -1 0 0 3069b.dat
1 308 120 -288 -60 0 0 1 0 1 0 -1 0 0 3395.dat
1 308 120 -288 -140 0 0 1 0 1 0 -1 0 0 3395.dat
1 308 280 -288 -140 0 0 1 0 1 0 -1 0 0 3395.dat
1 308 280 -288 -60 0 0 1 0 1 0 -1 0 0 3395.dat
1 308 -440 -312 -340 1 0 0 0 1 0 0 0 1 30145.dat
1 308 -440 -384 -340 1 0 0 0 1 0 0 0 1 30145.dat
1 308 -440 -456 -340 1 0 0 0 1 0 0 0 1 30145.dat
1 308 -440 -312 140 1 0 0 0 1 0 0 0 1 30145.dat
1 308 -440 -384 140 1 0 0 0 1 0 0 0 1 30145.dat
1 308 -440 -456 140 1 0 0 0 1 0 0 0 1 30145.dat
1 308 30 -280 -60 0 0 -1 0 1 0 1 0 0 3023b.dat
1 308 30 -280 -140 0 0 -1 0 1 0 1 0 0 3023b.dat
1 308 -470 -456 -350 0 0 -1 0 1 0 1 0 0 88292.dat
1 308 -470 -456 -330 0 0 -1 0 1 0 1 0 0 88292.dat
1 308 -470 -408 -340 0 0 1 0 -1 0 1 0 0 85984.dat
1 308 -470 -456 -340 0 0 1 0 1 0 -1 0 0 3004.dat
1 308 -470 -456 130 0 0 -1 0 1 0 1 0 0 88292.dat
1 308 -470 -456 150 0 0 -1 0 1 0 1 0 0 88292.dat
1 308 -470 -408 140 0 0 1 0 -1 0 1 0 0 85984.dat
1 308 -470 -456 140 0 0 1 0 1 0 -1 0 0 3004.dat
1 308 -450 -240 130 1 0 0 0 1 0 0 0 1 2420.dat
1 308 -450 -240 -330 0 0 1 0 1 0 -1 0 0 2420.dat
1 308 -440 -80 -340 1 0 0 0 1 0 0 0 1 30145.dat
1 308 -440 -152 -340 1 0 0 0 1 0 0 0 1 30145.dat
1 308 -440 -224 -340 1 0 0 0 1 0 0 0 1 30145.dat
1 308 -440 -80 -580 1 0 0 0 1 0 0 0 1 30145.dat
1 308 -440 -152 -580 1 0 0 0 1 0 0 0 1 30145.dat
1 308 -440 -224 -580 1 0 0 0 1 0 0 0 1 30145.dat
1 308 40 -80 -580 1 0 0 0 1 0 0 0 1 30145.dat
1 308 40 -152 -580 1 0 0 0 1 0 0 0 1 30145.dat
1 308 40 -224 -580 1 0 0 0 1 0 0 0 1 30145.dat
1 308 40 -80 380 1 0 0 0 1 0 0 0 1 30145.dat
1 308 40 -152 380 1 0 0 0 1 0 0 0 1 30145.dat
1 308 40 -224 380 1 0 0 0 1 0 0 0 1 30145.dat
1 308 -440 -80 380 1 0 0 0 1 0 0 0 1 30145.dat
1 308 -440 -152 380 1 0 0 0 1 0 0 0 1 30145.dat
1 308 -440 -224 380 1 0 0 0 1 0 0 0 1 30145.dat
1 308 -200 -80 380 1 0 0 0 1 0 0 0 1 30145.dat
1 308 -200 -152 380 1 0 0 0 1 0 0 0 1 30145.dat
1 308 -200 -224 380 1 0 0 0 1 0 0 0 1 30145.dat
1 308 -200 -296 380 1 0 0 0 1 0 0 0 1 30145.dat
1 308 -200 -320 380 1 0 0 0 1 0 0 0 1 u8101.dat
1 308 -200 -344 380 1 0 0 0 1 0 0 0 1 u8101.dat
1 308 -200 -80 -580 1 0 0 0 1 0 0 0 1 30145.dat
1 308 -200 -152 -580 1 0 0 0 1 0 0 0 1 30145.dat
1 308 -200 -224 -580 1 0 0 0 1 0 0 0 1 30145.dat
1 308 -200 -296 -580 1 0 0 0 1 0 0 0 1 30145.dat
1 308 -200 -320 -580 1 0 0 0 1 0 0 0 1 u8101.dat
1 308 -200 -344 -580 1 0 0 0 1 0 0 0 1 u8101.dat
1 15 -270 -144 -570 -1 0 0 0 1 0 0 0 -1 3755b.dat
1 4 -310 -128 -570 1 0 0 0 1 0 0 0 1 2453b.dat
1 15 -350 -144 -570 -1 0 0 0 1 0 0 0 -1 3755b.dat
1 308 -400 -56 -590 1 0 0 0 1 0 0 0 1 3245a.dat
1 308 -400 -104 -590 1 0 0 0 1 0 0 0 1 3245a.dat
1 308 -400 -152 -590 1 0 0 0 1 0 0 0 1 3245a.dat
1 308 -400 -200 -590 1 0 0 0 1 0 0 0 1 3245a.dat
1 308 0 -200 -590 1 0 0 0 1 0 0 0 1 3245a.dat
1 308 0 -152 -590 1 0 0 0 1 0 0 0 1 3245a.dat
1 308 0 -104 -590 1 0 0 0 1 0 0 0 1 3245a.dat
1 308 0 -56 -590 1 0 0 0 1 0 0 0 1 3245a.dat
1 15 -130 -144 -570 -1 0 0 0 1 0 0 0 -1 3755b.dat
1 15 -50 -144 -570 -1 0 0 0 1 0 0 0 -1 3755b.dat
1 4 -90 -128 -570 1 0 0 0 1 0 0 0 1 2453b.dat
1 308 -170 -128 -570 -1 0 0 0 1 0 0 0 -1 2453a.dat
1 308 -140 -16 60 1 0 0 0 1 0 0 0 1 3027.dat
1 308 -140 -16 -260 1 0 0 0 1 0 0 0 1 3027.dat
1 308 -360 -16 -100 0 0 -1 0 1 0 1 0 0 3027.dat
1 308 -240 -16 -100 0 0 1 0 1 0 -1 0 0 3033.dat
1 308 -120 -16 -100 0 0 1 0 1 0 -1 0 0 3033.dat
1 308 -20 -16 -100 0 0 1 0 1 0 -1 0 0 3030.dat
1 308 -330 -16 90 1 0 0 0 1 0 0 0 1 11212.dat
1 308 -390 -16 90 1 0 0 0 1 0 0 0 1 11212.dat
1 308 -390 -16 -290 1 0 0 0 1 0 0 0 1 11212.dat
1 308 -330 -16 -290 1 0 0 0 1 0 0 0 1 11212.dat
1 308 20 -24 20 0 0 1 0 1 0 -1 0 0 3832.dat
1 308 20 -24 -220 0 0 1 0 1 0 -1 0 0 3832.dat
1 308 20 -24 -100 0 0 1 0 1 0 -1 0 0 3022.dat
1 308 30 -32 -60 0 0 1 0 1 0 -1 0 0 2412a.dat
1 308 30 -32 -100 0 0 1 0 1 0 -1 0 0 2412a.dat
1 308 30 -32 -140 0 0 1 0 1 0 -1 0 0 2412a.dat
1 308 30 -32 -200 0 0 1 0 1 0 -1 0 0 2412a.dat
1 308 30 -32 -240 0 0 1 0 1 0 -1 0 0 2412a.dat
1 308 30 -32 -280 0 0 1 0 1 0 -1 0 0 2412a.dat
1 308 30 -32 0 0 0 1 0 1 0 -1 0 0 2412a.dat
1 308 30 -32 40 0 0 1 0 1 0 -1 0 0 2412a.dat
1 308 30 -32 80 0 0 1 0 1 0 -1 0 0 2412a.dat
1 308 30 -32 -30 0 0 1 0 1 0 -1 0 0 3024.dat
1 308 30 -32 -170 0 0 1 0 1 0 -1 0 0 3024.dat
1 308 -100 -24 100 -1 0 0 0 1 0 0 0 -1 3832.dat
1 308 -300 -24 100 -1 0 0 0 1 0 0 0 -1 3832.dat
1 308 -100 -24 -300 -1 0 0 0 1 0 0 0 -1 3832.dat
1 308 -300 -24 -300 -1 0 0 0 1 0 0 0 -1 3832.dat
1 308 -60 -24 -100 0 0 -1 0 1 0 1 0 0 3027.dat
1 308 -180 -24 -100 0 0 -1 0 1 0 1 0 0 3027.dat
1 308 -300 -24 -100 0 0 -1 0 1 0 1 0 0 3027.dat
1 308 -120 -24 -270 -1 0 0 0 1 0 0 0 -1 60479.dat
1 308 -120 -24 70 -1 0 0 0 1 0 0 0 -1 60479.dat
1 308 -380 -24 -100 0 0 -1 0 1 0 1 0 0 4282.dat
1 308 -320 -24 -270 1 0 0 0 1 0 0 0 1 3460.dat
1 308 -320 -24 70 1 0 0 0 1 0 0 0 1 3460.dat
1 308 0 -32 -310 -1 0 0 0 1 0 0 0 -1 2412a.dat
1 308 -40 -32 -310 -1 0 0 0 1 0 0 0 -1 2412a.dat
1 308 -80 -32 -310 -1 0 0 0 1 0 0 0 -1 2412a.dat
1 308 -120 -32 -310 -1 0 0 0 1 0 0 0 -1 2412a.dat
1 308 -160 -32 -310 -1 0 0 0 1 0 0 0 -1 2412a.dat
1 308 -200 -32 -310 -1 0 0 0 1 0 0 0 -1 2412a.dat
1 308 -240 -32 -310 -1 0 0 0 1 0 0 0 -1 2412a.dat
1 308 -280 -32 -310 -1 0 0 0 1 0 0 0 -1 2412a.dat
1 308 -320 -32 -310 -1 0 0 0 1 0 0 0 -1 2412a.dat
1 308 -360 -32 -310 -1 0 0 0 1 0 0 0 -1 2412a.dat
1 308 -360 -32 110 -1 0 0 0 1 0 0 0 -1 2412a.dat
1 308 -320 -32 110 -1 0 0 0 1 0 0 0 -1 2412a.dat
1 308 -280 -32 110 -1 0 0 0 1 0 0 0 -1 2412a.dat
1 308 -240 -32 110 -1 0 0 0 1 0 0 0 -1 2412a.dat
1 308 -200 -32 110 -1 0 0 0 1 0 0 0 -1 2412a.dat
1 308 -160 -32 110 -1 0 0 0 1 0 0 0 -1 2412a.dat
1 308 -120 -32 110 -1 0 0 0 1 0 0 0 -1 2412a.dat
1 308 -80 -32 110 -1 0 0 0 1 0 0 0 -1 2412a.dat
1 308 -40 -32 110 -1 0 0 0 1 0 0 0 -1 2412a.dat
1 308 0 -32 110 -1 0 0 0 1 0 0 0 -1 2412a.dat
1 308 30 -32 -310 0 0 1 0 1 0 -1 0 0 3070b.dat
1 308 30 -32 110 0 0 1 0 1 0 -1 0 0 3070b.dat
1 120 -40 -32 -100 0 0 -1 0 1 0 1 0 0 10202.dat
1 120 -40 -32 -240 0 0 -1 0 1 0 1 0 0 10202.dat
1 120 -40 -32 40 0 0 -1 0 1 0 1 0 0 10202.dat
1 120 -180 -32 40 0 0 -1 0 1 0 1 0 0 10202.dat
1 120 -180 -32 -100 0 0 -1 0 1 0 1 0 0 10202.dat
1 120 -180 -32 -240 0 0 -1 0 1 0 1 0 0 10202.dat
1 120 -320 -32 -240 0 0 -1 0 1 0 1 0 0 10202.dat
1 120 -320 -32 -100 0 0 -1 0 1 0 1 0 0 10202.dat
1 120 -320 -32 40 0 0 -1 0 1 0 1 0 0 10202.dat
1 308 -390 -32 80 0 0 1 0 1 0 -1 0 0 2412a.dat
1 308 -390 -32 40 0 0 1 0 1 0 -1 0 0 2412a.dat
1 308 -390 -32 0 0 0 1 0 1 0 -1 0 0 2412a.dat
1 308 -390 -32 -40 0 0 1 0 1 0 -1 0 0 2412a.dat
1 308 -390 -32 -80 0 0 1 0 1 0 -1 0 0 2412a.dat
1 308 -390 -32 -120 0 0 1 0 1 0 -1 0 0 2412a.dat
1 308 -390 -32 -160 0 0 1 0 1 0 -1 0 0 2412a.dat
1 308 -390 -32 -200 0 0 1 0 1 0 -1 0 0 2412a.dat
1 308 -390 -32 -240 0 0 1 0 1 0 -1 0 0 2412a.dat
1 308 -390 -32 -280 0 0 1 0 1 0 -1 0 0 2412a.dat
1 308 -390 -32 -310 0 0 1 0 1 0 -1 0 0 3070b.dat
1 308 -390 -32 110 0 0 1 0 1 0 -1 0 0 3070b.dat
1 83 -40 -32 -30 1 0 0 0 1 0 0 0 1 6636.dat
1 83 -180 -32 -30 1 0 0 0 1 0 0 0 1 6636.dat
1 83 -320 -32 -30 1 0 0 0 1 0 0 0 1 6636.dat
1 83 -320 -32 -170 1 0 0 0 1 0 0 0 1 6636.dat
1 83 -180 -32 -170 1 0 0 0 1 0 0 0 1 6636.dat
1 83 -40 -32 -170 1 0 0 0 1 0 0 0 1 6636.dat
1 83 -110 -32 -100 0 0 1 0 1 0 -1 0 0 6636.dat
1 83 -110 -32 -240 0 0 1 0 1 0 -1 0 0 6636.dat
1 83 -110 -32 40 0 0 1 0 1 0 -1 0 0 6636.dat
1 83 -250 -32 40 0 0 1 0 1 0 -1 0 0 6636.dat
1 83 -250 -32 -100 0 0 1 0 1 0 -1 0 0 6636.dat
1 83 -250 -32 -240 0 0 1 0 1 0 -1 0 0 6636.dat
1 110 -110 -32 -170 1 0 0 0 1 0 0 0 1 3070b.dat
1 110 -110 -32 -30 1 0 0 0 1 0 0 0 1 3070b.dat
1 110 -250 -32 -30 1 0 0 0 1 0 0 0 1 3070b.dat
1 110 -250 -32 -170 1 0 0 0 1 0 0 0 1 3070b.dat
1 308 -410 -24 -100 0 0 -1 0 1 0 1 0 0 60479.dat
1 308 -410 -24 70 0 0 -1 0 1 0 1 0 0 78329.dat
1 308 -410 -24 -270 0 0 -1 0 1 0 1 0 0 78329.dat
1 308 -440 -80 -40 1 0 0 0 1 0 0 0 1 30145.dat
1 308 -440 -152 -40 1 0 0 0 1 0 0 0 1 30145.dat
1 308 -440 -224 -40 1 0 0 0 1 0 0 0 1 30145.dat
1 308 -440 -384 -40 1 0 0 0 1 0 0 0 1 30145.dat
1 308 -440 -456 -40 1 0 0 0 1 0 0 0 1 30145.dat
1 308 -440 -528 -40 1 0 0 0 1 0 0 0 1 30145.dat
1 308 -440 -312 -40 1 0 0 0 1 0 0 0 1 30145.dat
1 308 -440 -80 -160 1 0 0 0 1 0 0 0 1 30145.dat
1 308 -440 -152 -160 1 0 0 0 1 0 0 0 1 30145.dat
1 308 -440 -224 -160 1 0 0 0 1 0 0 0 1 30145.dat
1 308 -440 -312 -160 1 0 0 0 1 0 0 0 1 30145.dat
1 308 -440 -384 -160 1 0 0 0 1 0 0 0 1 30145.dat
1 308 -440 -456 -160 1 0 0 0 1 0 0 0 1 30145.dat
1 308 -440 -528 -160 1 0 0 0 1 0 0 0 1 30145.dat
1 15 -50 -456 -330 1 0 0 0 1 0 0 0 1 3755b.dat
1 15 -130 -456 -330 1 0 0 0 1 0 0 0 1 3755b.dat
1 15 -350 -456 -330 1 0 0 0 1 0 0 0 1 3755b.dat
1 15 -270 -456 -330 1 0 0 0 1 0 0 0 1 3755b.dat
1 15 -270 -456 130 1 0 0 0 1 0 0 0 1 3755b.dat
1 15 -350 -456 130 1 0 0 0 1 0 0 0 1 3755b.dat
1 15 -50 -456 130 1 0 0 0 1 0 0 0 1 3755b.dat
1 15 -130 -456 130 1 0 0 0 1 0 0 0 1 3755b.dat
1 308 0 -200 -570 1 0 0 0 1 0 0 0 1 3245a.dat
1 308 0 -152 -570 1 0 0 0 1 0 0 0 1 3245a.dat
1 308 0 -104 -570 1 0 0 0 1 0 0 0 1 3245a.dat
1 308 0 -56 -570 1 0 0 0 1 0 0 0 1 3245a.dat
1 308 -400 -200 -570 1 0 0 0 1 0 0 0 1 3245a.dat
1 308 -400 -152 -570 1 0 0 0 1 0 0 0 1 3245a.dat
1 308 -400 -104 -570 1 0 0 0 1 0 0 0 1 3245a.dat
1 308 -400 -56 -570 1 0 0 0 1 0 0 0 1 3245a.dat
1 308 -410 -72 -270 0 0 -1 0 1 0 1 0 0 39266.dat
1 308 -410 -72 70 0 0 -1 0 1 0 1 0 0 39266.dat
1 308 -410 -72 -30 0 0 -1 0 1 0 1 0 0 39266.dat
1 308 -410 -120 -170 0 0 -1 0 1 0 1 0 0 39266.dat
1 308 -410 -72 -100 0 0 -1 0 1 0 1 0 0 3245a.dat
1 320 -370 -120 -100 0 0 -1 0 1 0 1 0 0 30174.dat
1 308 -410 -80 -100 0 0 -1 0 1 0 1 0 0 48336.dat
1 308 -390 -80 -100 0 1 0 -1 0 0 0 0 1 76116.dat
1 308 -410 -80 -270 0 0 -1 0 1 0 1 0 0 78329.dat
1 308 -410 -80 70 0 0 -1 0 1 0 1 0 0 78329.dat
1 308 -410 -72 -170 0 0 -1 0 1 0 1 0 0 39266.dat
1 308 -410 -120 -30 0 0 -1 0 1 0 1 0 0 39266.dat
1 308 -410 -152 -30 0 0 -1 0 1 0 1 0 0 4085c.dat
1 308 -410 -152 -170 0 0 -1 0 1 0 1 0 0 4085c.dat
1 308 -410 -128 -270 0 0 -1 0 1 0 1 0 0 39266.dat
1 308 -410 -128 70 0 0 -1 0 1 0 1 0 0 39266.dat
1 308 -410 -128 -100 0 0 -1 0 1 0 1 0 0 3245a.dat
1 308 -410 -128 -60 0 0 -1 0 1 0 1 0 0 3023b.dat
1 308 -410 -128 0 0 0 -1 0 1 0 1 0 0 3023b.dat
1 308 -410 -128 -140 0 0 -1 0 1 0 1 0 0 3023b.dat
1 308 -410 -128 -200 0 0 -1 0 1 0 1 0 0 3023b.dat
1 0 -390 -152 -30 1 0 0 0 -1 0 0 0 -1 30173a.dat
1 0 -390 -152 -170 -1 0 0 0 -1 0 0 0 1 30173a.dat
1 308 -410 -144 -30 0 0 -1 0 1 0 1 0 0 3005.dat
1 308 -410 -144 -170 0 0 -1 0 1 0 1 0 0 3005.dat
1 308 -410 -152 -100 0 0 -1 0 1 0 1 0 0 3009.dat
1 308 -410 -152 40 0 0 -1 0 1 0 1 0 0 3009.dat
1 308 -410 -152 -240 0 0 -1 0 1 0 1 0 0 3009.dat
1 308 -410 -160 -240 0 0 -1 0 1 0 1 0 0 6636.dat
1 308 -410 -160 40 0 0 -1 0 1 0 1 0 0 6636.dat
1 308 -410 -160 -100 0 0 -1 0 1 0 1 0 0 4162.dat
1 308 -410 -136 110 0 0 -1 0 1 0 1 0 0 3024.dat
1 308 -410 -136 -310 0 0 -1 0 1 0 1 0 0 3024.dat
1 308 -410 -144 110 -1 0 0 0 1 0 0 0 -1 54200.dat
1 308 -410 -144 -310 1 0 0 0 1 0 0 0 1 54200.dat
1 308 -410 -144 -310 0 0 -1 0 1 0 1 0 0 3024.dat
1 308 -410 -144 110 0 0 -1 0 1 0 1 0 0 3024.dat
1 308 -440 -232 -40 1 0 0 0 1 0 0 0 1 3022.dat
1 308 -440 -232 -160 1 0 0 0 1 0 0 0 1 3022.dat
1 308 -440 -240 -160 1 0 0 0 1 0 0 0 1 3022.dat
1 308 -440 -240 -40 1 0 0 0 1 0 0 0 1 3022.dat
1 4 70 -272 -350 -1 0 0 0 1 0 0 0 -1 3070b.dat
1 4 50 -264 -650 -1 0 0 0 1 0 0 0 -1 78666.dat
1 4 50 -264 -490 -1 0 0 0 1 0 0 0 -1 78666.dat
1 4 50 -264 -510 -1 0 0 0 1 0 0 0 -1 78666.dat
1 4 -450 -264 -510 1 0 0 0 1 0 0 0 1 78666.dat
1 4 -450 -264 -490 1 0 0 0 1 0 0 0 1 78666.dat
1 4 -450 -264 -650 1 0 0 0 1 0 0 0 1 78666.dat
1 4 -450 -264 450 1 0 0 0 1 0 0 0 1 78666.dat
1 4 -450 -264 310 1 0 0 0 1 0 0 0 1 78666.dat
1 4 -450 -264 290 1 0 0 0 1 0 0 0 1 78666.dat
1 4 50 -264 450 -1 0 0 0 1 0 0 0 -1 78666.dat
1 4 50 -264 310 -1 0 0 0 1 0 0 0 -1 78666.dat
1 4 50 -264 290 -1 0 0 0 1 0 0 0 -1 78666.dat
1 4 50 -264 410 0 0 -1 0 1 0 1 0 0 3622.dat
1 4 50 -264 350 0 0 -1 0 1 0 1 0 0 3622.dat
1 4 50 -264 250 0 0 -1 0 1 0 1 0 0 3622.dat
1 4 50 -264 190 0 0 -1 0 1 0 1 0 0 3622.dat
1 4 -450 -264 190 0 0 -1 0 1 0 1 0 0 3622.dat
1 4 -450 -264 250 0 0 -1 0 1 0 1 0 0 3622.dat
1 4 -450 -264 350 0 0 -1 0 1 0 1 0 0 3622.dat
1 4 -450 -264 410 0 0 -1 0 1 0 1 0 0 3622.dat
1 4 50 -272 380 0 0 -1 0 1 0 1 0 0 4162.dat
1 4 -450 -272 380 0 0 -1 0 1 0 1 0 0 4162.dat
1 4 50 -272 240 0 0 -1 0 1 0 1 0 0 6636.dat
1 4 -450 -272 240 0 0 -1 0 1 0 1 0 0 6636.dat
1 4 50 -272 170 -1 0 0 0 1 0 0 0 -1 3070b.dat
1 4 -450 -272 170 -1 0 0 0 1 0 0 0 -1 3070b.dat
1 4 50 -240 340 0 0 -1 0 1 0 1 0 0 60479.dat
1 4 50 -240 190 0 0 -1 0 1 0 1 0 0 3623.dat
1 4 -450 -240 340 0 0 -1 0 1 0 1 0 0 60479.dat
1 4 -450 -240 190 0 0 -1 0 1 0 1 0 0 3623.dat
1 4 -450 -240 -390 0 0 -1 0 1 0 1 0 0 3623.dat
1 4 -450 -240 -540 0 0 -1 0 1 0 1 0 0 60479.dat
1 4 50 -240 -540 0 0 -1 0 1 0 1 0 0 60479.dat
1 4 50 -240 -390 0 0 -1 0 1 0 1 0 0 3623.dat
1 4 -450 -264 -390 0 0 -1 0 1 0 1 0 0 3622.dat
1 4 -450 -264 -450 0 0 -1 0 1 0 1 0 0 3622.dat
1 4 -450 -264 -550 0 0 -1 0 1 0 1 0 0 3622.dat
1 4 -450 -264 -610 0 0 -1 0 1 0 1 0 0 3622.dat
1 4 -450 -272 -580 0 0 -1 0 1 0 1 0 0 4162.dat
1 4 -450 -272 -440 0 0 -1 0 1 0 1 0 0 6636.dat
1 4 -450 -272 -370 -1 0 0 0 1 0 0 0 -1 3070b.dat
1 4 50 -264 -390 0 0 -1 0 1 0 1 0 0 3622.dat
1 4 50 -264 -450 0 0 -1 0 1 0 1 0 0 3622.dat
1 4 50 -264 -550 0 0 -1 0 1 0 1 0 0 3622.dat
1 4 50 -264 -610 0 0 -1 0 1 0 1 0 0 3622.dat
1 4 50 -272 -580 0 0 -1 0 1 0 1 0 0 4162.dat
1 4 50 -272 -440 0 0 -1 0 1 0 1 0 0 6636.dat
1 4 50 -272 -370 -1 0 0 0 1 0 0 0 -1 3070b.dat
1 4 -90 -456 -330 1 0 0 0 1 0 0 0 1 2453b.dat
1 4 -310 -456 -330 1 0 0 0 1 0 0 0 1 2453b.dat
1 4 -310 -456 130 1 0 0 0 1 0 0 0 1 2453b.dat
1 4 -90 -456 130 1 0 0 0 1 0 0 0 1 2453b.dat
1 308 0 -456 -330 1 0 0 0 1 0 0 0 1 3245a.dat
1 308 0 -408 -330 1 0 0 0 1 0 0 0 1 3245a.dat
1 308 0 -360 -330 1 0 0 0 1 0 0 0 1 3245a.dat
1 308 0 -312 -330 1 0 0 0 1 0 0 0 1 3245a.dat
1 308 -400 -456 -330 1 0 0 0 1 0 0 0 1 3245a.dat
1 308 -400 -408 -330 1 0 0 0 1 0 0 0 1 3245a.dat
1 308 -400 -360 -330 1 0 0 0 1 0 0 0 1 3245a.dat
1 308 -400 -312 -330 1 0 0 0 1 0 0 0 1 3245a.dat
1 308 0 -456 130 1 0 0 0 1 0 0 0 1 3245a.dat
1 308 0 -408 130 1 0 0 0 1 0 0 0 1 3245a.dat
1 308 0 -360 130 1 0 0 0 1 0 0 0 1 3245a.dat
1 308 0 -312 130 1 0 0 0 1 0 0 0 1 3245a.dat
1 308 -400 -456 130 1 0 0 0 1 0 0 0 1 3245a.dat
1 308 -400 -408 130 1 0 0 0 1 0 0 0 1 3245a.dat
1 308 -400 -360 130 1 0 0 0 1 0 0 0 1 3245a.dat
1 308 -400 -312 130 1 0 0 0 1 0 0 0 1 3245a.dat
1 4 -100 -336 -330 1 0 0 0 1 0 0 0 1 3460.dat
1 4 -300 -336 -330 1 0 0 0 1 0 0 0 1 3460.dat
1 4 -230 -456 -330 1 0 0 0 1 0 0 0 1 2453b.dat
1 4 -170 -456 -330 1 0 0 0 1 0 0 0 1 2453b.dat
1 4 -100 -336 130 1 0 0 0 1 0 0 0 1 3460.dat
1 4 -170 -456 130 1 0 0 0 1 0 0 0 1 2453b.dat
1 4 -300 -336 130 1 0 0 0 1 0 0 0 1 3460.dat
1 4 -230 -456 130 1 0 0 0 1 0 0 0 1 2453b.dat
1 308 -200 -456 130 1 0 0 0 1 0 0 0 1 3245a.dat
1 308 -200 -408 130 1 0 0 0 1 0 0 0 1 3245a.dat
1 308 -200 -360 130 1 0 0 0 1 0 0 0 1 3245a.dat
1 308 -200 -312 130 1 0 0 0 1 0 0 0 1 3245a.dat
1 308 -200 -456 -330 1 0 0 0 1 0 0 0 1 3245a.dat
1 308 -200 -408 -330 1 0 0 0 1 0 0 0 1 3245a.dat
1 308 -200 -360 -330 1 0 0 0 1 0 0 0 1 3245a.dat
1 308 -200 -312 -330 1 0 0 0 1 0 0 0 1 3245a.dat
1 15 370 -144 -330 1 0 0 0 1 0 0 0 1 3755b.dat
1 15 290 -144 -330 1 0 0 0 1 0 0 0 1 3755b.dat
1 15 190 -144 -330 1 0 0 0 1 0 0 0 1 3755b.dat
1 15 110 -144 -330 1 0 0 0 1 0 0 0 1 3755b.dat
1 4 330 -128 -330 1 0 0 0 1 0 0 0 1 2453b.dat
1 4 150 -128 -330 1 0 0 0 1 0 0 0 1 2453b.dat
1 4 330 -200 -330 1 0 0 0 1 0 0 0 1 14716.dat
1 4 150 -200 -330 1 0 0 0 1 0 0 0 1 14716.dat
1 4 330 -224 -330 1 0 0 0 1 0 0 0 1 3005.dat
1 4 150 -224 -330 1 0 0 0 1 0 0 0 1 3005.dat
1 4 370 -152 -330 1 0 0 0 1 0 0 0 1 3623.dat
1 4 290 -152 -330 1 0 0 0 1 0 0 0 1 3623.dat
1 4 190 -152 -330 1 0 0 0 1 0 0 0 1 3623.dat
1 4 110 -152 -330 1 0 0 0 1 0 0 0 1 3623.dat
1 4 190 -24 -330 1 0 0 0 1 0 0 0 1 3623.dat
1 4 -50 -24 -570 1 0 0 0 1 0 0 0 1 3623.dat
1 4 290 -24 -330 1 0 0 0 1 0 0 0 1 3623.dat
1 4 370 -24 -330 1 0 0 0 1 0 0 0 1 3623.dat
1 308 410 -128 -330 1 0 0 0 1 0 0 0 1 2453b.dat
1 308 70 -128 -330 1 0 0 0 1 0 0 0 1 2453b.dat
1 308 410 -200 -330 1 0 0 0 1 0 0 0 1 14716.dat
1 308 70 -200 -330 1 0 0 0 1 0 0 0 1 14716.dat
1 308 70 -224 -330 1 0 0 0 1 0 0 0 1 3005.dat
1 308 410 -224 -330 1 0 0 0 1 0 0 0 1 3005.dat
1 4 110 -24 -330 1 0 0 0 1 0 0 0 1 3623.dat
1 4 -130 -24 -570 1 0 0 0 1 0 0 0 1 3623.dat
1 4 -270 -24 -570 1 0 0 0 1 0 0 0 1 3623.dat
1 4 -350 -24 -570 1 0 0 0 1 0 0 0 1 3623.dat
1 4 -50 -152 -570 1 0 0 0 1 0 0 0 1 3623.dat
1 4 -130 -152 -570 1 0 0 0 1 0 0 0 1 3623.dat
1 4 -270 -152 -570 1 0 0 0 1 0 0 0 1 3623.dat
1 4 -350 -152 -570 1 0 0 0 1 0 0 0 1 3623.dat
1 308 290 -16 -330 1 0 0 0 1 0 0 0 1 3623.dat
1 308 370 -16 -330 1 0 0 0 1 0 0 0 1 3623.dat
1 308 190 -16 -330 1 0 0 0 1 0 0 0 1 3623.dat
1 308 110 -16 -330 1 0 0 0 1 0 0 0 1 3623.dat
1 15 370 -200 -330 1 0 0 0 1 0 0 0 1 3622.dat
1 15 370 -224 -330 1 0 0 0 1 0 0 0 1 3622.dat
1 15 290 -224 -330 1 0 0 0 1 0 0 0 1 3622.dat
1 15 290 -200 -330 1 0 0 0 1 0 0 0 1 3622.dat
1 15 190 -200 -330 1 0 0 0 1 0 0 0 1 3622.dat
1 15 190 -224 -330 1 0 0 0 1 0 0 0 1 3622.dat
1 15 110 -224 -330 1 0 0 0 1 0 0 0 1 3622.dat
1 15 110 -200 -330 1 0 0 0 1 0 0 0 1 3622.dat
1 308 240 -128 -350 1 0 0 0 1 0 0 0 1 2454b.dat
1 308 240 -176 -350 1 0 0 0 1 0 0 0 1 772.dat
1 308 240 -224 -350 1 0 0 0 1 0 0 0 1 772.dat
1 4 370 -176 -330 1 0 0 0 1 0 0 0 1 3623.dat
1 4 290 -176 -330 1 0 0 0 1 0 0 0 1 3623.dat
1 4 190 -176 -330 1 0 0 0 1 0 0 0 1 3623.dat
1 4 110 -176 -330 1 0 0 0 1 0 0 0 1 3623.dat
1 308 370 -160 -330 1 0 0 0 1 0 0 0 1 3623.dat
1 308 370 -168 -330 1 0 0 0 1 0 0 0 1 3623.dat
1 308 290 -168 -330 1 0 0 0 1 0 0 0 1 3623.dat
1 308 290 -160 -330 1 0 0 0 1 0 0 0 1 3623.dat
1 308 190 -160 -330 1 0 0 0 1 0 0 0 1 3623.dat
1 308 190 -168 -330 1 0 0 0 1 0 0 0 1 3623.dat
1 308 110 -168 -330 1 0 0 0 1 0 0 0 1 3623.dat
1 308 110 -160 -330 1 0 0 0 1 0 0 0 1 3623.dat
1 4 330 -232 -340 0 0 1 0 1 0 -1 0 0 3023a.dat
1 4 150 -232 -340 0 0 1 0 1 0 -1 0 0 3023a.dat
1 308 110 -232 -350 1 0 0 0 1 0 0 0 1 3623.dat
1 308 470 -232 -350 1 0 0 0 1 0 0 0 1 78329.dat
1 308 240 -232 -350 1 0 0 0 1 0 0 0 1 3460.dat
1 308 380 -232 -350 1 0 0 0 1 0 0 0 1 3710.dat
1 15 370 -144 130 1 0 0 0 1 0 0 0 1 3755b.dat
1 15 290 -144 130 1 0 0 0 1 0 0 0 1 3755b.dat
1 15 190 -144 130 1 0 0 0 1 0 0 0 1 3755b.dat
1 15 110 -144 130 1 0 0 0 1 0 0 0 1 3755b.dat
1 4 330 -128 130 1 0 0 0 1 0 0 0 1 2453b.dat
1 4 150 -128 130 1 0 0 0 1 0 0 0 1 2453b.dat
1 4 330 -200 130 1 0 0 0 1 0 0 0 1 14716.dat
1 4 150 -200 130 1 0 0 0 1 0 0 0 1 14716.dat
1 4 330 -224 130 1 0 0 0 1 0 0 0 1 3005.dat
1 4 150 -224 130 1 0 0 0 1 0 0 0 1 3005.dat
1 4 370 -152 130 1 0 0 0 1 0 0 0 1 3623.dat
1 4 290 -152 130 1 0 0 0 1 0 0 0 1 3623.dat
1 4 190 -152 130 1 0 0 0 1 0 0 0 1 3623.dat
1 4 110 -152 130 1 0 0 0 1 0 0 0 1 3623.dat
1 4 190 -24 130 1 0 0 0 1 0 0 0 1 3623.dat
1 4 290 -24 130 1 0 0 0 1 0 0 0 1 3623.dat
1 4 370 -24 130 1 0 0 0 1 0 0 0 1 3623.dat
1 308 410 -128 130 1 0 0 0 1 0 0 0 1 2453b.dat
1 308 410 -200 130 1 0 0 0 1 0 0 0 1 14716.dat
1 308 410 -224 130 1 0 0 0 1 0 0 0 1 3005.dat
1 4 110 -24 130 1 0 0 0 1 0 0 0 1 3623.dat
1 308 290 -16 130 1 0 0 0 1 0 0 0 1 3623.dat
1 308 370 -16 130 1 0 0 0 1 0 0 0 1 3623.dat
1 308 190 -16 130 1 0 0 0 1 0 0 0 1 3623.dat
1 308 110 -16 130 1 0 0 0 1 0 0 0 1 3623.dat
1 15 370 -200 130 1 0 0 0 1 0 0 0 1 3622.dat
1 15 370 -224 130 1 0 0 0 1 0 0 0 1 3622.dat
1 15 290 -224 130 1 0 0 0 1 0 0 0 1 3622.dat
1 15 290 -200 130 1 0 0 0 1 0 0 0 1 3622.dat
1 15 190 -200 130 1 0 0 0 1 0 0 0 1 3622.dat
1 15 190 -224 130 1 0 0 0 1 0 0 0 1 3622.dat
1 15 110 -224 130 1 0 0 0 1 0 0 0 1 3622.dat
1 15 110 -200 130 1 0 0 0 1 0 0 0 1 3622.dat
1 4 370 -176 130 1 0 0 0 1 0 0 0 1 3623.dat
1 4 290 -176 130 1 0 0 0 1 0 0 0 1 3623.dat
1 4 190 -176 130 1 0 0 0 1 0 0 0 1 3623.dat
1 4 110 -176 130 1 0 0 0 1 0 0 0 1 3623.dat
1 308 370 -160 130 1 0 0 0 1 0 0 0 1 3623.dat
1 308 370 -168 130 1 0 0 0 1 0 0 0 1 3623.dat
1 308 290 -168 130 1 0 0 0 1 0 0 0 1 3623.dat
1 308 290 -160 130 1 0 0 0 1 0 0 0 1 3623.dat
1 308 190 -160 130 1 0 0 0 1 0 0 0 1 3623.dat
1 308 190 -168 130 1 0 0 0 1 0 0 0 1 3623.dat
1 308 110 -168 130 1 0 0 0 1 0 0 0 1 3623.dat
1 308 110 -160 130 1 0 0 0 1 0 0 0 1 3623.dat
1 308 70 -128 130 1 0 0 0 1 0 0 0 1 2453b.dat
1 308 70 -200 130 1 0 0 0 1 0 0 0 1 14716.dat
1 308 70 -224 130 1 0 0 0 1 0 0 0 1 3005.dat
1 308 240 -128 130 1 0 0 0 1 0 0 0 1 2454b.dat
1 308 240 -176 130 1 0 0 0 1 0 0 0 1 772.dat
1 308 240 -224 130 1 0 0 0 1 0 0 0 1 772.dat
1 4 330 -232 140 0 0 1 0 1 0 -1 0 0 3023a.dat
1 4 150 -232 140 0 0 1 0 1 0 -1 0 0 3023a.dat
1 308 110 -232 150 1 0 0 0 1 0 0 0 1 3623.dat
1 308 470 -232 150 1 0 0 0 1 0 0 0 1 78329.dat
1 308 240 -232 150 1 0 0 0 1 0 0 0 1 3460.dat
1 308 380 -232 150 1 0 0 0 1 0 0 0 1 3710.dat
1 4 450 -152 10 0 0 -1 0 1 0 1 0 0 3623.dat
1 4 450 -152 90 0 0 -1 0 1 0 1 0 0 3623.dat
1 4 450 -152 -210 0 0 -1 0 1 0 1 0 0 3623.dat
1 4 450 -152 -290 0 0 -1 0 1 0 1 0 0 3623.dat
1 4 450 -24 -290 0 0 -1 0 1 0 1 0 0 3623.dat
1 4 450 -24 -210 0 0 -1 0 1 0 1 0 0 3623.dat
1 4 450 -24 10 0 0 -1 0 1 0 1 0 0 3623.dat
1 4 450 -24 90 0 0 -1 0 1 0 1 0 0 3623.dat
1 4 450 -176 90 0 0 -1 0 1 0 1 0 0 3623.dat
1 4 450 -176 -290 0 0 -1 0 1 0 1 0 0 3623.dat
1 15 450 -200 10 0 0 -1 0 1 0 1 0 0 3622.dat
1 4 450 -176 10 0 0 -1 0 1 0 1 0 0 3623.dat
1 15 450 -224 10 0 0 -1 0 1 0 1 0 0 3622.dat
1 15 450 -200 -210 0 0 -1 0 1 0 1 0 0 3622.dat
1 15 450 -224 -210 0 0 -1 0 1 0 1 0 0 3622.dat
1 4 450 -176 -210 0 0 -1 0 1 0 1 0 0 3623.dat
1 308 450 -160 10 0 0 -1 0 1 0 1 0 0 3623.dat
1 308 450 -168 10 0 0 -1 0 1 0 1 0 0 3623.dat
1 308 450 -168 90 0 0 -1 0 1 0 1 0 0 3623.dat
1 308 450 -160 90 0 0 -1 0 1 0 1 0 0 3623.dat
1 308 450 -16 90 0 0 -1 0 1 0 1 0 0 3623.dat
1 308 450 -16 10 0 0 -1 0 1 0 1 0 0 3623.dat
1 308 450 -16 -210 0 0 -1 0 1 0 1 0 0 3623.dat
1 308 450 -16 -290 0 0 -1 0 1 0 1 0 0 3623.dat
1 308 450 -160 -290 0 0 -1 0 1 0 1 0 0 3623.dat
1 308 450 -160 -210 0 0 -1 0 1 0 1 0 0 3623.dat
1 308 450 -168 -210 0 0 -1 0 1 0 1 0 0 3623.dat
1 308 450 -168 -290 0 0 -1 0 1 0 1 0 0 3623.dat
1 308 240 -128 -330 1 0 0 0 1 0 0 0 1 2454b.dat
1 308 240 -176 -330 1 0 0 0 1 0 0 0 1 772.dat
1 308 240 -224 -330 1 0 0 0 1 0 0 0 1 772.dat
1 308 240 -128 150 1 0 0 0 1 0 0 0 1 2454b.dat
1 308 240 -176 150 1 0 0 0 1 0 0 0 1 772.dat
1 308 240 -224 150 1 0 0 0 1 0 0 0 1 772.dat
1 308 470 -224 150 0 0 1 0 1 0 -1 0 0 88292.dat
1 308 470 -224 130 0 0 1 0 1 0 -1 0 0 88292.dat
1 308 470 -224 -350 0 0 1 0 1 0 -1 0 0 88292.dat
1 308 470 -224 -330 0 0 1 0 1 0 -1 0 0 88292.dat
1 308 470 -224 -340 0 0 -1 0 1 0 1 0 0 3004.dat
1 308 470 -224 140 0 0 -1 0 1 0 1 0 0 3004.dat
1 4 -50 -176 -570 1 0 0 0 1 0 0 0 1 3623.dat
1 4 -130 -176 -570 1 0 0 0 1 0 0 0 1 3623.dat
1 4 -270 -176 -570 1 0 0 0 1 0 0 0 1 3623.dat
1 4 -350 -176 -570 1 0 0 0 1 0 0 0 1 3623.dat
1 4 -270 -232 -570 1 0 0 0 1 0 0 0 1 3623.dat
1 4 -130 -232 -570 1 0 0 0 1 0 0 0 1 3623.dat
1 15 -50 -200 -570 1 0 0 0 1 0 0 0 1 3622.dat
1 15 -130 -200 -570 1 0 0 0 1 0 0 0 1 3622.dat
1 15 -130 -224 -570 1 0 0 0 1 0 0 0 1 3622.dat
1 15 -50 -224 -570 1 0 0 0 1 0 0 0 1 3622.dat
1 15 -270 -200 -570 1 0 0 0 1 0 0 0 1 3622.dat
1 15 -350 -200 -570 1 0 0 0 1 0 0 0 1 3622.dat
1 15 -350 -224 -570 1 0 0 0 1 0 0 0 1 3622.dat
1 15 -270 -224 -570 1 0 0 0 1 0 0 0 1 3622.dat
1 4 -60 -232 -570 1 0 0 0 1 0 0 0 1 3023a.dat
1 4 -340 -232 -570 1 0 0 0 1 0 0 0 1 3023a.dat
1 308 -50 -160 -570 1 0 0 0 1 0 0 0 1 3623.dat
1 308 -50 -16 -570 1 0 0 0 1 0 0 0 1 3623.dat
1 308 -50 -168 -570 1 0 0 0 1 0 0 0 1 3623.dat
1 308 -130 -168 -570 1 0 0 0 1 0 0 0 1 3623.dat
1 308 -130 -160 -570 1 0 0 0 1 0 0 0 1 3623.dat
1 308 -130 -16 -570 1 0 0 0 1 0 0 0 1 3623.dat
1 308 -270 -16 -570 1 0 0 0 1 0 0 0 1 3623.dat
1 308 -270 -160 -570 1 0 0 0 1 0 0 0 1 3623.dat
1 308 -270 -168 -570 1 0 0 0 1 0 0 0 1 3623.dat
1 308 -350 -168 -570 1 0 0 0 1 0 0 0 1 3623.dat
1 308 -350 -160 -570 1 0 0 0 1 0 0 0 1 3623.dat
1 308 -350 -16 -570 1 0 0 0 1 0 0 0 1 3623.dat
1 308 -230 -128 -570 -1 0 0 0 1 0 0 0 -1 2453a.dat
1 308 -170 -200 -570 -1 0 0 0 1 0 0 0 -1 14716.dat
1 308 -230 -200 -570 -1 0 0 0 1 0 0 0 -1 14716.dat
1 308 -230 -224 -570 -1 0 0 0 1 0 0 0 -1 3005.dat
1 308 -170 -224 -570 -1 0 0 0 1 0 0 0 -1 3005.dat
1 308 0 -224 -580 1 0 0 0 1 0 0 0 1 3003.dat
1 308 -400 -224 -580 1 0 0 0 1 0 0 0 1 3003.dat
1 15 -270 -144 370 -1 0 0 0 1 0 0 0 -1 3755b.dat
1 4 -310 -128 370 1 0 0 0 1 0 0 0 1 2453b.dat
1 15 -350 -144 370 -1 0 0 0 1 0 0 0 -1 3755b.dat
1 15 -130 -144 370 -1 0 0 0 1 0 0 0 -1 3755b.dat
1 15 -50 -144 370 -1 0 0 0 1 0 0 0 -1 3755b.dat
1 4 -90 -128 370 1 0 0 0 1 0 0 0 1 2453b.dat
1 308 -170 -128 370 -1 0 0 0 1 0 0 0 -1 2453a.dat
1 308 0 -200 370 1 0 0 0 1 0 0 0 1 3245a.dat
1 308 0 -152 370 1 0 0 0 1 0 0 0 1 3245a.dat
1 308 0 -104 370 1 0 0 0 1 0 0 0 1 3245a.dat
1 308 0 -56 370 1 0 0 0 1 0 0 0 1 3245a.dat
1 308 -400 -200 370 1 0 0 0 1 0 0 0 1 3245a.dat
1 308 -400 -152 370 1 0 0 0 1 0 0 0 1 3245a.dat
1 308 -400 -104 370 1 0 0 0 1 0 0 0 1 3245a.dat
1 308 -400 -56 370 1 0 0 0 1 0 0 0 1 3245a.dat
1 4 -50 -24 370 1 0 0 0 1 0 0 0 1 3623.dat
1 4 -130 -24 370 1 0 0 0 1 0 0 0 1 3623.dat
1 4 -270 -24 370 1 0 0 0 1 0 0 0 1 3623.dat
1 4 -350 -24 370 1 0 0 0 1 0 0 0 1 3623.dat
1 4 -50 -152 370 1 0 0 0 1 0 0 0 1 3623.dat
1 4 -130 -152 370 1 0 0 0 1 0 0 0 1 3623.dat
1 4 -270 -152 370 1 0 0 0 1 0 0 0 1 3623.dat
1 4 -350 -152 370 1 0 0 0 1 0 0 0 1 3623.dat
1 4 -50 -176 370 1 0 0 0 1 0 0 0 1 3623.dat
1 4 -130 -176 370 1 0 0 0 1 0 0 0 1 3623.dat
1 4 -270 -176 370 1 0 0 0 1 0 0 0 1 3623.dat
1 4 -350 -176 370 1 0 0 0 1 0 0 0 1 3623.dat
1 4 -270 -232 370 1 0 0 0 1 0 0 0 1 3623.dat
1 4 -130 -232 370 1 0 0 0 1 0 0 0 1 3623.dat
1 15 -50 -200 370 1 0 0 0 1 0 0 0 1 3622.dat
1 15 -130 -200 370 1 0 0 0 1 0 0 0 1 3622.dat
1 15 -130 -224 370 1 0 0 0 1 0 0 0 1 3622.dat
1 15 -50 -224 370 1 0 0 0 1 0 0 0 1 3622.dat
1 15 -270 -200 370 1 0 0 0 1 0 0 0 1 3622.dat
1 15 -350 -200 370 1 0 0 0 1 0 0 0 1 3622.dat
1 15 -350 -224 370 1 0 0 0 1 0 0 0 1 3622.dat
1 15 -270 -224 370 1 0 0 0 1 0 0 0 1 3622.dat
1 4 -60 -232 370 1 0 0 0 1 0 0 0 1 3023a.dat
1 4 -340 -232 370 1 0 0 0 1 0 0 0 1 3023a.dat
1 308 -50 -160 370 1 0 0 0 1 0 0 0 1 3623.dat
1 308 -50 -16 370 1 0 0 0 1 0 0 0 1 3623.dat
1 308 -50 -168 370 1 0 0 0 1 0 0 0 1 3623.dat
1 308 -130 -168 370 1 0 0 0 1 0 0 0 1 3623.dat
1 308 -130 -160 370 1 0 0 0 1 0 0 0 1 3623.dat
1 308 -130 -16 370 1 0 0 0 1 0 0 0 1 3623.dat
1 308 -270 -16 370 1 0 0 0 1 0 0 0 1 3623.dat
1 308 -270 -160 370 1 0 0 0 1 0 0 0 1 3623.dat
1 308 -270 -168 370 1 0 0 0 1 0 0 0 1 3623.dat
1 308 -350 -168 370 1 0 0 0 1 0 0 0 1 3623.dat
1 308 -350 -160 370 1 0 0 0 1 0 0 0 1 3623.dat
1 308 -350 -16 370 1 0 0 0 1 0 0 0 1 3623.dat
1 308 -230 -128 370 -1 0 0 0 1 0 0 0 -1 2453a.dat
1 308 -170 -200 370 -1 0 0 0 1 0 0 0 -1 14716.dat
1 308 -230 -200 370 -1 0 0 0 1 0 0 0 -1 14716.dat
1 308 -230 -224 370 -1 0 0 0 1 0 0 0 -1 3005.dat
1 308 -170 -224 370 -1 0 0 0 1 0 0 0 -1 3005.dat
1 308 0 -224 380 1 0 0 0 1 0 0 0 1 3003.dat
1 308 -400 -224 380 1 0 0 0 1 0 0 0 1 3003.dat
1 308 -400 -200 390 1 0 0 0 1 0 0 0 1 3245a.dat
1 308 -400 -152 390 1 0 0 0 1 0 0 0 1 3245a.dat
1 308 -400 -104 390 1 0 0 0 1 0 0 0 1 3245a.dat
1 308 -400 -56 390 1 0 0 0 1 0 0 0 1 3245a.dat
1 308 0 -200 390 1 0 0 0 1 0 0 0 1 3245a.dat
1 308 0 -152 390 1 0 0 0 1 0 0 0 1 3245a.dat
1 308 0 -104 390 1 0 0 0 1 0 0 0 1 3245a.dat
1 308 0 -56 390 1 0 0 0 1 0 0 0 1 3245a.dat
1 308 30 -232 440 0 0 -1 0 1 0 1 0 0 3023a.dat
1 308 -430 -232 440 0 0 -1 0 1 0 1 0 0 3023a.dat
1 308 -430 -232 -640 0 0 -1 0 1 0 1 0 0 3023a.dat
1 308 30 -232 -640 0 0 -1 0 1 0 1 0 0 3023a.dat
1 308 -440 -128 -610 1 0 0 0 1 0 0 0 1 2454b.dat
1 308 40 -128 -610 1 0 0 0 1 0 0 0 1 2454b.dat
1 308 40 -176 -610 1 0 0 0 1 0 0 0 1 3245a.dat
1 308 -440 -176 -610 1 0 0 0 1 0 0 0 1 3245a.dat
1 308 40 -224 -610 1 0 0 0 1 0 0 0 1 3004.dat
1 308 -440 -224 -610 1 0 0 0 1 0 0 0 1 3004.dat
1 308 30 -224 -610 -1 0 0 0 1 0 0 0 -1 88292.dat
1 308 50 -224 -610 -1 0 0 0 1 0 0 0 -1 88292.dat
1 308 -450 -224 -610 -1 0 0 0 1 0 0 0 -1 88292.dat
1 308 -430 -224 -610 -1 0 0 0 1 0 0 0 -1 88292.dat
1 308 -440 -128 410 1 0 0 0 1 0 0 0 1 2454b.dat
1 308 40 -128 410 1 0 0 0 1 0 0 0 1 2454b.dat
1 308 40 -176 410 1 0 0 0 1 0 0 0 1 3245a.dat
1 308 -440 -176 410 1 0 0 0 1 0 0 0 1 3245a.dat
1 308 40 -224 410 1 0 0 0 1 0 0 0 1 3004.dat
1 308 -440 -224 410 1 0 0 0 1 0 0 0 1 3004.dat
1 308 -450 -224 410 1 0 0 0 1 0 0 0 1 88292.dat
1 308 -430 -224 410 1 0 0 0 1 0 0 0 1 88292.dat
1 308 30 -224 410 1 0 0 0 1 0 0 0 1 88292.dat
1 308 50 -224 410 1 0 0 0 1 0 0 0 1 88292.dat
1 4 -90 -200 -570 1 0 0 0 1 0 0 0 1 14716.dat
1 4 -310 -200 -570 1 0 0 0 1 0 0 0 1 14716.dat
1 4 -90 -224 -570 1 0 0 0 1 0 0 0 1 3005.dat
1 4 -310 -224 -570 1 0 0 0 1 0 0 0 1 3005.dat
1 308 -200 -232 -620 0 0 1 0 1 0 -1 0 0 3022.dat
1 308 -270 -232 -610 1 0 0 0 1 0 0 0 1 11212.dat
1 308 -130 -232 -610 1 0 0 0 1 0 0 0 1 11212.dat
1 308 -60 -232 -610 0 0 1 0 1 0 -1 0 0 3021.dat
1 308 -340 -232 -610 0 0 1 0 1 0 -1 0 0 3021.dat
1 308 -170 -232 -600 0 0 -1 0 1 0 1 0 0 3710.dat
1 308 -230 -232 -600 0 0 -1 0 1 0 1 0 0 3710.dat
1 4 -90 -232 -600 0 0 1 0 1 0 -1 0 0 3710.dat
1 4 -310 -232 -600 0 0 1 0 1 0 -1 0 0 3710.dat
1 4 -100 -240 -620 0 0 -1 0 1 0 1 0 0 3022.dat
1 4 -300 -240 -620 0 0 -1 0 1 0 1 0 0 3022.dat
1 4 -150 -240 -620 1 0 0 0 1 0 0 0 1 3021.dat
1 4 -250 -240 -620 1 0 0 0 1 0 0 0 1 3021.dat
1 15 -130 -264 -630 1 0 0 0 1 0 0 0 1 3622.dat
1 4 -90 -264 -630 1 0 0 0 1 0 0 0 1 3005.dat
1 4 -170 -264 -630 1 0 0 0 1 0 0 0 1 3005.dat
1 4 -230 -264 -630 1 0 0 0 1 0 0 0 1 3005.dat
1 4 -310 -264 -630 1 0 0 0 1 0 0 0 1 3005.dat
1 15 -270 -264 -630 1 0 0 0 1 0 0 0 1 3622.dat
1 4 -130 -272 -630 1 0 0 0 1 0 0 0 1 78329.dat
1 4 -270 -272 -630 1 0 0 0 1 0 0 0 1 78329.dat
1 308 -200 -240 -620 0 0 1 0 1 0 -1 0 0 3022.dat
1 308 -200 -248 -620 0 0 1 0 1 0 -1 0 0 3022.dat
1 308 -200 -320 -620 1 0 0 0 1 0 0 0 1 30145.dat
1 308 -200 -344 -620 1 0 0 0 1 0 0 0 1 u8101.dat
1 308 -60 -256 -630 -1 0 0 0 1 0 0 0 -1 3004.dat
1 308 -340 -256 -630 -1 0 0 0 1 0 0 0 -1 3004.dat
1 308 -250 -296 -630 1 0 0 0 1 0 0 0 1 3622.dat
1 308 -150 -296 -630 1 0 0 0 1 0 0 0 1 3622.dat
1 308 -160 -320 -630 1 0 0 0 1 0 0 0 1 3004.dat
1 308 -240 -320 -630 1 0 0 0 1 0 0 0 1 3004.dat
1 308 -230 -344 -630 1 0 0 0 1 0 0 0 1 3005.dat
1 308 -170 -344 -630 1 0 0 0 1 0 0 0 1 3005.dat
1 308 -110 -280 -630 1 0 0 0 1 0 0 0 1 3024.dat
1 308 -110 -288 -630 1 0 0 0 1 0 0 0 1 3024.dat
1 308 -290 -288 -630 1 0 0 0 1 0 0 0 1 3024.dat
1 308 -290 -280 -630 1 0 0 0 1 0 0 0 1 3024.dat
1 4 -100 -240 420 0 0 -1 0 1 0 1 0 0 3022.dat
1 4 -300 -240 420 0 0 -1 0 1 0 1 0 0 3022.dat
1 4 -150 -240 420 1 0 0 0 1 0 0 0 1 3021.dat
1 4 -250 -240 420 1 0 0 0 1 0 0 0 1 3021.dat
1 15 -130 -264 430 1 0 0 0 1 0 0 0 1 3622.dat
1 4 -90 -264 430 1 0 0 0 1 0 0 0 1 3005.dat
1 4 -170 -264 430 1 0 0 0 1 0 0 0 1 3005.dat
1 4 -230 -264 430 1 0 0 0 1 0 0 0 1 3005.dat
1 4 -310 -264 430 1 0 0 0 1 0 0 0 1 3005.dat
1 15 -270 -264 430 1 0 0 0 1 0 0 0 1 3622.dat
1 4 -130 -272 430 1 0 0 0 1 0 0 0 1 78329.dat
1 4 -270 -272 430 1 0 0 0 1 0 0 0 1 78329.dat
1 308 -200 -240 420 0 0 1 0 1 0 -1 0 0 3022.dat
1 308 -200 -248 420 0 0 1 0 1 0 -1 0 0 3022.dat
1 308 -200 -320 420 1 0 0 0 1 0 0 0 1 30145.dat
1 308 -200 -344 420 1 0 0 0 1 0 0 0 1 u8101.dat
1 308 -60 -256 430 -1 0 0 0 1 0 0 0 -1 3004.dat
1 308 -340 -256 430 -1 0 0 0 1 0 0 0 -1 3004.dat
1 308 -250 -296 430 1 0 0 0 1 0 0 0 1 3622.dat
1 308 -150 -296 430 1 0 0 0 1 0 0 0 1 3622.dat
1 308 -160 -320 430 1 0 0 0 1 0 0 0 1 3004.dat
1 308 -240 -320 430 1 0 0 0 1 0 0 0 1 3004.dat
1 308 -230 -344 430 1 0 0 0 1 0 0 0 1 3005.dat
1 308 -170 -344 430 1 0 0 0 1 0 0 0 1 3005.dat
1 308 -110 -280 430 1 0 0 0 1 0 0 0 1 3024.dat
1 308 -110 -288 430 1 0 0 0 1 0 0 0 1 3024.dat
1 308 -290 -288 430 1 0 0 0 1 0 0 0 1 3024.dat
1 308 -290 -280 430 1 0 0 0 1 0 0 0 1 3024.dat
1 4 -90 -232 400 0 0 1 0 1 0 -1 0 0 3710.dat
1 4 -310 -232 400 0 0 1 0 1 0 -1 0 0 3710.dat
1 4 -90 -200 370 1 0 0 0 1 0 0 0 1 14716.dat
1 4 -310 -200 370 1 0 0 0 1 0 0 0 1 14716.dat
1 4 -90 -224 370 1 0 0 0 1 0 0 0 1 3005.dat
1 4 -310 -224 370 1 0 0 0 1 0 0 0 1 3005.dat
1 308 -270 -232 410 1 0 0 0 1 0 0 0 1 11212.dat
1 308 -130 -232 410 1 0 0 0 1 0 0 0 1 11212.dat
1 308 -60 -232 410 0 0 1 0 1 0 -1 0 0 3021.dat
1 308 -340 -232 410 0 0 1 0 1 0 -1 0 0 3021.dat
1 308 -170 -232 400 0 0 -1 0 1 0 1 0 0 3710.dat
1 308 -230 -232 400 0 0 -1 0 1 0 1 0 0 3710.dat
1 308 -200 -232 420 0 0 1 0 1 0 -1 0 0 3022.dat
1 15 -430 -144 310 0 0 -1 0 1 0 1 0 0 3755b.dat
1 15 -430 -144 230 0 0 -1 0 1 0 1 0 0 3755b.dat
1 4 -430 -152 230 0 0 -1 0 1 0 1 0 0 3623.dat
1 4 -430 -152 310 0 0 -1 0 1 0 1 0 0 3623.dat
1 4 -430 -24 230 0 0 -1 0 1 0 1 0 0 3623.dat
1 4 -430 -24 310 0 0 -1 0 1 0 1 0 0 3623.dat
1 308 -430 -16 230 0 0 -1 0 1 0 1 0 0 3623.dat
1 308 -430 -16 310 0 0 -1 0 1 0 1 0 0 3623.dat
1 308 -430 -160 310 0 0 -1 0 1 0 1 0 0 3623.dat
1 308 -430 -160 230 0 0 -1 0 1 0 1 0 0 3623.dat
1 308 -430 -168 230 0 0 -1 0 1 0 1 0 0 3623.dat
1 308 -430 -168 310 0 0 -1 0 1 0 1 0 0 3623.dat
1 4 -430 -176 230 0 0 -1 0 1 0 1 0 0 3623.dat
1 4 -430 -176 310 0 0 -1 0 1 0 1 0 0 3623.dat
1 4 -430 -128 270 1 0 0 0 1 0 0 0 1 2453b.dat
1 4 -430 -200 270 1 0 0 0 1 0 0 0 1 14716.dat
1 4 -430 -224 270 1 0 0 0 1 0 0 0 1 3005.dat
1 15 -430 -200 230 0 0 1 0 1 0 -1 0 0 3622.dat
1 15 -430 -224 230 0 0 1 0 1 0 -1 0 0 3622.dat
1 15 -430 -224 310 0 0 1 0 1 0 -1 0 0 3622.dat
1 15 -430 -200 310 0 0 1 0 1 0 -1 0 0 3622.dat
1 4 -430 -128 190 1 0 0 0 1 0 0 0 1 2453b.dat
1 4 -430 -200 190 1 0 0 0 1 0 0 0 1 14716.dat
1 4 -430 -224 190 1 0 0 0 1 0 0 0 1 3005.dat
1 4 -430 -128 350 1 0 0 0 1 0 0 0 1 2453b.dat
1 4 -430 -200 350 1 0 0 0 1 0 0 0 1 14716.dat
1 4 -430 -224 350 1 0 0 0 1 0 0 0 1 3005.dat
1 308 -450 -232 -610 0 0 1 0 1 0 -1 0 0 78329.dat
1 4 -450 -232 -510 0 0 -1 0 1 0 1 0 0 78329.dat
1 4 -450 -232 -420 0 0 -1 0 1 0 1 0 0 3710.dat
1 308 -440 -232 -370 1 0 0 0 1 0 0 0 1 3023b.dat
1 308 -430 -128 -370 1 0 0 0 1 0 0 0 1 2453b.dat
1 308 -430 -200 -370 1 0 0 0 1 0 0 0 1 14716.dat
1 308 -430 -224 -370 1 0 0 0 1 0 0 0 1 3005.dat
1 15 -430 -144 -430 0 0 -1 0 1 0 1 0 0 3755b.dat
1 15 -430 -144 -510 0 0 -1 0 1 0 1 0 0 3755b.dat
1 4 -430 -152 -510 0 0 -1 0 1 0 1 0 0 3623.dat
1 4 -430 -152 -430 0 0 -1 0 1 0 1 0 0 3623.dat
1 4 -430 -24 -510 0 0 -1 0 1 0 1 0 0 3623.dat
1 4 -430 -24 -430 0 0 -1 0 1 0 1 0 0 3623.dat
1 308 -430 -16 -510 0 0 -1 0 1 0 1 0 0 3623.dat
1 308 -430 -16 -430 0 0 -1 0 1 0 1 0 0 3623.dat
1 308 -430 -160 -430 0 0 -1 0 1 0 1 0 0 3623.dat
1 308 -430 -160 -510 0 0 -1 0 1 0 1 0 0 3623.dat
1 308 -430 -168 -510 0 0 -1 0 1 0 1 0 0 3623.dat
1 308 -430 -168 -430 0 0 -1 0 1 0 1 0 0 3623.dat
1 4 -430 -176 -510 0 0 -1 0 1 0 1 0 0 3623.dat
1 4 -430 -176 -430 0 0 -1 0 1 0 1 0 0 3623.dat
1 4 -430 -128 -470 1 0 0 0 1 0 0 0 1 2453b.dat
1 4 -430 -200 -470 1 0 0 0 1 0 0 0 1 14716.dat
1 4 -430 -224 -470 1 0 0 0 1 0 0 0 1 3005.dat
1 15 -430 -200 -510 0 0 1 0 1 0 -1 0 0 3622.dat
1 15 -430 -224 -510 0 0 1 0 1 0 -1 0 0 3622.dat
1 15 -430 -224 -430 0 0 1 0 1 0 -1 0 0 3622.dat
1 15 -430 -200 -430 0 0 1 0 1 0 -1 0 0 3622.dat
1 4 -430 -128 -550 1 0 0 0 1 0 0 0 1 2453b.dat
1 4 -430 -200 -550 1 0 0 0 1 0 0 0 1 14716.dat
1 4 -430 -224 -550 1 0 0 0 1 0 0 0 1 3005.dat
1 4 -430 -128 -390 1 0 0 0 1 0 0 0 1 2453b.dat
1 4 -430 -200 -390 1 0 0 0 1 0 0 0 1 14716.dat
1 4 -430 -224 -390 1 0 0 0 1 0 0 0 1 3005.dat
1 308 -450 -232 410 0 0 1 0 1 0 -1 0 0 78329.dat
1 4 -450 -232 310 0 0 -1 0 1 0 1 0 0 78329.dat
1 4 -450 -232 220 0 0 -1 0 1 0 1 0 0 3710.dat
1 308 -440 -232 170 1 0 0 0 1 0 0 0 1 3023b.dat
1 308 -430 -128 170 1 0 0 0 1 0 0 0 1 2453b.dat
1 308 -430 -200 170 1 0 0 0 1 0 0 0 1 14716.dat
1 308 -430 -224 170 1 0 0 0 1 0 0 0 1 3005.dat
1 15 30 -144 310 0 0 -1 0 1 0 1 0 0 3755b.dat
1 15 30 -144 230 0 0 -1 0 1 0 1 0 0 3755b.dat
1 4 30 -152 230 0 0 -1 0 1 0 1 0 0 3623.dat
1 4 30 -152 310 0 0 -1 0 1 0 1 0 0 3623.dat
1 4 30 -24 230 0 0 -1 0 1 0 1 0 0 3623.dat
1 4 30 -24 310 0 0 -1 0 1 0 1 0 0 3623.dat
1 308 30 -16 230 0 0 -1 0 1 0 1 0 0 3623.dat
1 308 30 -16 310 0 0 -1 0 1 0 1 0 0 3623.dat
1 308 30 -160 310 0 0 -1 0 1 0 1 0 0 3623.dat
1 308 30 -160 230 0 0 -1 0 1 0 1 0 0 3623.dat
1 308 30 -168 230 0 0 -1 0 1 0 1 0 0 3623.dat
1 308 30 -168 310 0 0 -1 0 1 0 1 0 0 3623.dat
1 4 30 -176 230 0 0 -1 0 1 0 1 0 0 3623.dat
1 4 30 -176 310 0 0 -1 0 1 0 1 0 0 3623.dat
1 4 30 -128 270 1 0 0 0 1 0 0 0 1 2453b.dat
1 4 30 -200 270 1 0 0 0 1 0 0 0 1 14716.dat
1 4 30 -224 270 1 0 0 0 1 0 0 0 1 3005.dat
1 15 30 -200 230 0 0 1 0 1 0 -1 0 0 3622.dat
1 15 30 -224 230 0 0 1 0 1 0 -1 0 0 3622.dat
1 15 30 -224 310 0 0 1 0 1 0 -1 0 0 3622.dat
1 15 30 -200 310 0 0 1 0 1 0 -1 0 0 3622.dat
1 4 30 -128 190 1 0 0 0 1 0 0 0 1 2453b.dat
1 4 30 -200 190 1 0 0 0 1 0 0 0 1 14716.dat
1 4 30 -224 190 1 0 0 0 1 0 0 0 1 3005.dat
1 4 30 -128 350 1 0 0 0 1 0 0 0 1 2453b.dat
1 4 30 -200 350 1 0 0 0 1 0 0 0 1 14716.dat
1 4 30 -224 350 1 0 0 0 1 0 0 0 1 3005.dat
1 308 30 -128 170 1 0 0 0 1 0 0 0 1 2453b.dat
1 308 30 -200 170 1 0 0 0 1 0 0 0 1 14716.dat
1 308 30 -224 170 1 0 0 0 1 0 0 0 1 3005.dat
1 308 30 -128 -370 1 0 0 0 1 0 0 0 1 2453b.dat
1 308 30 -200 -370 1 0 0 0 1 0 0 0 1 14716.dat
1 308 30 -224 -370 1 0 0 0 1 0 0 0 1 3005.dat
1 15 30 -144 -430 0 0 -1 0 1 0 1 0 0 3755b.dat
1 15 30 -144 -510 0 0 -1 0 1 0 1 0 0 3755b.dat
1 4 30 -152 -510 0 0 -1 0 1 0 1 0 0 3623.dat
1 4 30 -152 -430 0 0 -1 0 1 0 1 0 0 3623.dat
1 4 30 -24 -510 0 0 -1 0 1 0 1 0 0 3623.dat
1 4 30 -24 -430 0 0 -1 0 1 0 1 0 0 3623.dat
1 308 30 -16 -510 0 0 -1 0 1 0 1 0 0 3623.dat
1 308 30 -16 -430 0 0 -1 0 1 0 1 0 0 3623.dat
1 308 30 -160 -430 0 0 -1 0 1 0 1 0 0 3623.dat
1 308 30 -160 -510 0 0 -1 0 1 0 1 0 0 3623.dat
1 308 30 -168 -510 0 0 -1 0 1 0 1 0 0 3623.dat
1 308 30 -168 -430 0 0 -1 0 1 0 1 0 0 3623.dat
1 4 30 -176 -510 0 0 -1 0 1 0 1 0 0 3623.dat
1 4 30 -176 -430 0 0 -1 0 1 0 1 0 0 3623.dat
1 4 30 -128 -470 1 0 0 0 1 0 0 0 1 2453b.dat
1 4 30 -200 -470 1 0 0 0 1 0 0 0 1 14716.dat
1 4 30 -224 -470 1 0 0 0 1 0 0 0 1 3005.dat
1 15 30 -200 -510 0 0 1 0 1 0 -1 0 0 3622.dat
1 15 30 -224 -510 0 0 1 0 1 0 -1 0 0 3622.dat
1 15 30 -224 -430 0 0 1 0 1 0 -1 0 0 3622.dat
1 15 30 -200 -430 0 0 1 0 1 0 -1 0 0 3622.dat
1 4 30 -128 -550 1 0 0 0 1 0 0 0 1 2453b.dat
1 4 30 -200 -550 1 0 0 0 1 0 0 0 1 14716.dat
1 4 30 -224 -550 1 0 0 0 1 0 0 0 1 3005.dat
1 4 30 -128 -390 1 0 0 0 1 0 0 0 1 2453b.dat
1 4 30 -200 -390 1 0 0 0 1 0 0 0 1 14716.dat
1 4 30 -224 -390 1 0 0 0 1 0 0 0 1 3005.dat
1 308 50 -232 -610 0 0 1 0 1 0 -1 0 0 78329.dat
1 4 50 -232 -510 0 0 -1 0 1 0 1 0 0 78329.dat
1 4 50 -232 -420 0 0 -1 0 1 0 1 0 0 3710.dat
1 308 40 -232 -370 1 0 0 0 1 0 0 0 1 3023b.dat
1 308 50 -232 410 0 0 1 0 1 0 -1 0 0 78329.dat
1 4 50 -232 310 0 0 -1 0 1 0 1 0 0 78329.dat
1 4 50 -232 220 0 0 -1 0 1 0 1 0 0 3710.dat
1 308 40 -232 170 1 0 0 0 1 0 0 0 1 3023b.dat
1 4 -60 -232 -330 1 0 0 0 1 0 0 0 1 3460.dat
1 4 -340 -232 -330 1 0 0 0 1 0 0 0 1 3460.dat
1 4 -200 -240 -330 1 0 0 0 1 0 0 0 1 3666.dat
1 4 -60 -232 130 1 0 0 0 1 0 0 0 1 3460.dat
1 4 -340 -232 130 1 0 0 0 1 0 0 0 1 3460.dat
1 4 -200 -240 130 1 0 0 0 1 0 0 0 1 3666.dat
1 308 -200 -264 130 1 0 0 0 1 0 0 0 1 3009.dat
1 308 -60 -256 130 1 0 0 0 1 0 0 0 1 3008.dat
1 308 -340 -256 130 1 0 0 0 1 0 0 0 1 3008.dat
1 308 -60 -264 130 1 0 0 0 1 0 0 0 1 3460.dat
1 308 -340 -264 130 1 0 0 0 1 0 0 0 1 3460.dat
1 308 -300 -328 130 1 0 0 0 1 0 0 0 1 3460.dat
1 308 -100 -328 130 1 0 0 0 1 0 0 0 1 3460.dat
1 308 -100 -320 130 1 0 0 0 1 0 0 0 1 3460.dat
1 308 -300 -320 130 1 0 0 0 1 0 0 0 1 3460.dat
1 308 -100 -288 130 1 0 0 0 1 0 0 0 1 3008.dat
1 308 -100 -312 130 1 0 0 0 1 0 0 0 1 3008.dat
1 308 -300 -312 130 1 0 0 0 1 0 0 0 1 3008.dat
1 308 -300 -288 130 1 0 0 0 1 0 0 0 1 3008.dat
1 308 -340 -256 -330 1 0 0 0 1 0 0 0 1 3008.dat
1 308 -60 -256 -330 1 0 0 0 1 0 0 0 1 3008.dat
1 308 -200 -264 -330 1 0 0 0 1 0 0 0 1 3009.dat
1 308 -340 -264 -330 1 0 0 0 1 0 0 0 1 3460.dat
1 308 -60 -264 -330 1 0 0 0 1 0 0 0 1 3460.dat
1 308 -100 -328 -330 1 0 0 0 1 0 0 0 1 3460.dat
1 308 -300 -328 -330 1 0 0 0 1 0 0 0 1 3460.dat
1 308 -300 -320 -330 1 0 0 0 1 0 0 0 1 3460.dat
1 308 -100 -320 -330 1 0 0 0 1 0 0 0 1 3460.dat
1 308 -100 -288 -330 1 0 0 0 1 0 0 0 1 3008.dat
1 308 -300 -288 -330 1 0 0 0 1 0 0 0 1 3008.dat
1 308 -300 -312 -330 1 0 0 0 1 0 0 0 1 3008.dat
1 308 -100 -312 -330 1 0 0 0 1 0 0 0 1 3008.dat
1 308 -140 -240 -460 0 0 1 0 1 0 -1 0 0 3033.dat
1 308 -260 -240 -460 0 0 1 0 1 0 -1 0 0 3033.dat
1 308 -340 -240 -460 0 0 1 0 1 0 -1 0 0 3832.dat
1 308 -60 -240 -460 0 0 1 0 1 0 -1 0 0 3832.dat
1 308 -140 -240 260 0 0 1 0 1 0 -1 0 0 3033.dat
1 308 -260 -240 260 0 0 1 0 1 0 -1 0 0 3033.dat
1 308 -340 -240 260 0 0 1 0 1 0 -1 0 0 3832.dat
1 308 -60 -240 260 0 0 1 0 1 0 -1 0 0 3832.dat
1 308 -120 -232 320 1 0 0 0 1 0 0 0 1 83496.dat
1 308 -120 -232 240 1 0 0 0 1 0 0 0 1 83496.dat
1 308 -280 -232 320 1 0 0 0 1 0 0 0 1 83496.dat
1 308 -280 -232 240 1 0 0 0 1 0 0 0 1 83496.dat
1 308 -80 -232 180 -1 0 0 0 1 0 0 0 -1 3395.dat
1 308 -160 -232 180 -1 0 0 0 1 0 0 0 -1 3395.dat
1 308 -240 -232 180 -1 0 0 0 1 0 0 0 -1 3395.dat
1 308 -320 -232 180 -1 0 0 0 1 0 0 0 -1 3395.dat
1 308 -280 -224 150 1 0 0 0 -1 0 0 0 -1 4162.dat
1 308 -120 -224 150 1 0 0 0 -1 0 0 0 -1 4162.dat
1 308 -120 -232 -440 1 0 0 0 1 0 0 0 1 83496.dat
1 308 -120 -232 -520 1 0 0 0 1 0 0 0 1 83496.dat
1 308 -280 -232 -440 1 0 0 0 1 0 0 0 1 83496.dat
1 308 -280 -232 -520 1 0 0 0 1 0 0 0 1 83496.dat
1 308 -80 -232 -380 -1 0 0 0 1 0 0 0 -1 3395.dat
1 308 -160 -232 -380 -1 0 0 0 1 0 0 0 -1 3395.dat
1 308 -240 -232 -380 -1 0 0 0 1 0 0 0 -1 3395.dat
1 308 -320 -232 -380 -1 0 0 0 1 0 0 0 -1 3395.dat
1 308 -280 -224 -350 1 0 0 0 -1 0 0 0 -1 4162.dat
1 308 -120 -224 -350 1 0 0 0 -1 0 0 0 -1 4162.dat
1 308 -140 -472 -100 0 0 -1 0 1 0 1 0 0 91405.dat
1 308 -360 -472 -100 0 0 -1 0 1 0 1 0 0 3027.dat
1 308 -60 -456 -100 0 0 1 0 -1 0 1 0 0 48288.dat
1 308 -220 -456 -100 0 0 1 0 -1 0 1 0 0 48288.dat
1 308 -360 -456 -200 0 0 1 0 -1 0 1 0 0 10202.dat
1 308 -360 -456 0 0 0 1 0 -1 0 1 0 0 10202.dat
1 308 -340 -456 -100 0 0 1 0 -1 0 1 0 0 1751.dat
1 308 -400 -464 -100 0 0 -1 0 1 0 1 0 0 3395.dat
1 15 -430 -144 -290 0 0 -1 0 1 0 1 0 0 3755b.dat
1 15 -430 -144 90 0 0 -1 0 1 0 1 0 0 3755b.dat
1 15 -430 -144 10 0 0 -1 0 1 0 1 0 0 3755b.dat
1 15 -430 -144 -210 0 0 -1 0 1 0 1 0 0 3755b.dat
1 4 -430 -128 -250 1 0 0 0 1 0 0 0 1 2453b.dat
1 4 -430 -248 -250 1 0 0 0 1 0 0 0 1 2453b.dat
1 4 -430 -368 -250 1 0 0 0 1 0 0 0 1 2453b.dat
1 4 -430 -128 50 1 0 0 0 1 0 0 0 1 2453b.dat
1 4 -430 -248 50 1 0 0 0 1 0 0 0 1 2453b.dat
1 4 -430 -368 50 1 0 0 0 1 0 0 0 1 2453b.dat
1 4 -430 -152 -290 0 0 -1 0 1 0 1 0 0 3623.dat
1 4 -430 -24 -290 0 0 -1 0 1 0 1 0 0 3623.dat
1 308 -430 -16 -290 0 0 -1 0 1 0 1 0 0 3623.dat
1 4 -430 -152 -210 0 0 -1 0 1 0 1 0 0 3623.dat
1 4 -430 -24 -210 0 0 -1 0 1 0 1 0 0 3623.dat
1 308 -430 -16 -210 0 0 -1 0 1 0 1 0 0 3623.dat
1 4 -430 -152 10 0 0 -1 0 1 0 1 0 0 3623.dat
1 4 -430 -24 10 0 0 -1 0 1 0 1 0 0 3623.dat
1 308 -430 -16 10 0 0 -1 0 1 0 1 0 0 3623.dat
1 4 -430 -152 90 0 0 -1 0 1 0 1 0 0 3623.dat
1 4 -430 -24 90 0 0 -1 0 1 0 1 0 0 3623.dat
1 308 -430 -16 90 0 0 -1 0 1 0 1 0 0 3623.dat
1 308 -430 -160 -210 0 0 -1 0 1 0 1 0 0 3623.dat
1 308 -430 -160 -290 0 0 -1 0 1 0 1 0 0 3623.dat
1 308 -430 -168 -290 0 0 -1 0 1 0 1 0 0 3623.dat
1 308 -430 -168 -210 0 0 -1 0 1 0 1 0 0 3623.dat
1 4 -430 -176 -290 0 0 -1 0 1 0 1 0 0 3623.dat
1 4 -430 -176 -210 0 0 -1 0 1 0 1 0 0 3623.dat
1 308 -430 -160 90 0 0 -1 0 1 0 1 0 0 3623.dat
1 308 -430 -160 10 0 0 -1 0 1 0 1 0 0 3623.dat
1 308 -430 -168 10 0 0 -1 0 1 0 1 0 0 3623.dat
1 308 -430 -168 90 0 0 -1 0 1 0 1 0 0 3623.dat
1 4 -430 -176 10 0 0 -1 0 1 0 1 0 0 3623.dat
1 4 -430 -176 90 0 0 -1 0 1 0 1 0 0 3623.dat
1 308 -430 -296 -290 0 0 -1 0 1 0 1 0 0 3755b.dat
1 308 -430 -296 90 0 0 -1 0 1 0 1 0 0 3755b.dat
1 308 -430 -296 10 0 0 -1 0 1 0 1 0 0 3755b.dat
1 308 -430 -296 -210 0 0 -1 0 1 0 1 0 0 3755b.dat
1 4 -430 -304 -290 0 0 -1 0 1 0 1 0 0 3623.dat
1 4 -430 -304 -210 0 0 -1 0 1 0 1 0 0 3623.dat
1 308 -430 -312 -210 0 0 -1 0 1 0 1 0 0 3623.dat
1 308 -430 -312 -290 0 0 -1 0 1 0 1 0 0 3623.dat
1 308 -430 -320 -290 0 0 -1 0 1 0 1 0 0 3623.dat
1 308 -430 -320 -210 0 0 -1 0 1 0 1 0 0 3623.dat
1 4 -430 -328 -290 0 0 -1 0 1 0 1 0 0 3623.dat
1 4 -430 -328 -210 0 0 -1 0 1 0 1 0 0 3623.dat
1 4 -430 -304 10 0 0 -1 0 1 0 1 0 0 3623.dat
1 4 -430 -304 90 0 0 -1 0 1 0 1 0 0 3623.dat
1 308 -430 -312 90 0 0 -1 0 1 0 1 0 0 3623.dat
1 308 -430 -312 10 0 0 -1 0 1 0 1 0 0 3623.dat
1 308 -430 -320 10 0 0 -1 0 1 0 1 0 0 3623.dat
1 308 -430 -320 90 0 0 -1 0 1 0 1 0 0 3623.dat
1 4 -430 -328 10 0 0 -1 0 1 0 1 0 0 3623.dat
1 4 -430 -328 90 0 0 -1 0 1 0 1 0 0 3623.dat
1 15 -430 -448 -290 0 0 -1 0 1 0 1 0 0 3755b.dat
1 15 -430 -448 90 0 0 -1 0 1 0 1 0 0 3755b.dat
1 15 -430 -448 10 0 0 -1 0 1 0 1 0 0 3755b.dat
1 15 -430 -448 -210 0 0 -1 0 1 0 1 0 0 3755b.dat
1 4 -430 -456 -290 0 0 -1 0 1 0 1 0 0 3623.dat
1 4 -430 -456 -210 0 0 -1 0 1 0 1 0 0 3623.dat
1 4 -430 -456 10 0 0 -1 0 1 0 1 0 0 3623.dat
1 4 -430 -456 90 0 0 -1 0 1 0 1 0 0 3623.dat
1 4 -430 -440 -250 1 0 0 0 1 0 0 0 1 14716.dat
1 4 -430 -440 50 1 0 0 0 1 0 0 0 1 14716.dat
1 4 -430 -448 -250 1 0 0 0 1 0 0 0 1 3024.dat
1 4 -430 -448 50 1 0 0 0 1 0 0 0 1 3024.dat
1 4 -430 -456 50 1 0 0 0 1 0 0 0 1 3024.dat
1 4 -430 -456 -250 1 0 0 0 1 0 0 0 1 3024.dat
1 308 -490 -576 -100 0 0 -1 0 1 0 1 0 0 3010.dat
1 308 -490 -552 -100 0 0 -1 0 1 0 1 0 0 3004.dat
1 308 -490 -504 -100 0 0 -1 0 1 0 1 0 0 3004.dat
1 308 -490 -528 -100 0 0 -1 0 1 0 1 0 0 3004.dat
1 308 -490 -472 -100 0 0 -1 0 1 0 1 0 0 3023b.dat
1 308 -490 -480 -100 0 0 -1 0 1 0 1 0 0 3023b.dat
1 4 -490 -472 -30 0 0 -1 0 1 0 1 0 0 78329.dat
1 4 -490 -472 -170 0 0 -1 0 1 0 1 0 0 78329.dat
1 4 -490 -472 -240 0 0 -1 0 1 0 1 0 0 3023b.dat
1 4 -490 -472 40 0 0 -1 0 1 0 1 0 0 3023b.dat
1 4 -490 -504 -30 0 0 -1 0 1 0 1 0 0 78329.dat
1 4 -490 -504 -170 0 0 -1 0 1 0 1 0 0 78329.dat
1 15 -490 -496 -20 0 0 -1 0 1 0 1 0 0 3010.dat
1 15 -490 -496 -180 0 0 -1 0 1 0 1 0 0 3010.dat
1 15 -490 -496 30 0 0 -1 0 1 0 1 0 0 3005.dat
1 15 -490 -496 -230 0 0 -1 0 1 0 1 0 0 3005.dat
1 4 -490 -496 -130 0 0 -1 0 1 0 1 0 0 3005.dat
1 4 -490 -496 -70 0 0 -1 0 1 0 1 0 0 3005.dat
1 15 -490 -496 -20 0 0 -1 0 1 0 1 0 0 3010.dat
1 308 -490 -528 -50 0 0 -1 0 1 0 1 0 0 3622.dat
1 308 -490 -528 -150 0 0 -1 0 1 0 1 0 0 3622.dat
1 308 -490 -552 -140 0 0 -1 0 1 0 1 0 0 3004.dat
1 308 -490 -552 -60 0 0 -1 0 1 0 1 0 0 3004.dat
1 4 -490 -480 -250 0 0 -1 0 1 0 1 0 0 3024.dat
1 4 -490 -480 50 0 0 -1 0 1 0 1 0 0 3024.dat
1 308 -490 -512 -10 0 0 -1 0 1 0 1 0 0 3024.dat
1 308 -490 -520 -10 0 0 -1 0 1 0 1 0 0 3024.dat
1 308 -490 -512 -190 0 0 -1 0 1 0 1 0 0 3024.dat
1 308 -490 -520 -190 0 0 -1 0 1 0 1 0 0 3024.dat
1 4 -470 -464 -250 1 0 0 0 1 0 0 0 1 3623.dat
1 4 -470 -464 50 1 0 0 0 1 0 0 0 1 3623.dat
1 308 -490 -464 -100 0 0 -1 0 1 0 1 0 0 4477.dat
1 308 -490 -464 -220 0 0 -1 0 1 0 1 0 0 3023b.dat
1 308 -490 -464 20 0 0 -1 0 1 0 1 0 0 3023b.dat
1 308 -490 -456 -70 0 0 1 0 1 0 -1 0 0 24201.dat
1 308 -490 -456 -90 0 0 1 0 1 0 -1 0 0 24201.dat
1 308 -490 -456 -110 0 0 1 0 1 0 -1 0 0 24201.dat
1 308 -490 -456 -130 0 0 1 0 1 0 -1 0 0 24201.dat
1 308 -490 -456 -150 0 0 1 0 1 0 -1 0 0 24201.dat
1 308 -490 -456 -170 0 0 1 0 1 0 -1 0 0 24201.dat
1 308 -490 -456 -50 0 0 1 0 1 0 -1 0 0 24201.dat
1 308 -490 -456 -30 0 0 1 0 1 0 -1 0 0 24201.dat
1 308 -470 -456 -100 0 0 1 0 1 0 -1 0 0 3460.dat
1 308 -470 -464 -100 0 0 -1 0 1 0 1 0 0 4477.dat
1 308 -470 -464 20 0 0 -1 0 1 0 1 0 0 3023b.dat
1 308 -470 -464 -220 0 0 -1 0 1 0 1 0 0 3023b.dat
1 308 -430 -80 -100 0 0 -1 0 1 0 1 0 0 49311.dat
1 308 -430 -152 -100 0 0 -1 0 1 0 1 0 0 49311.dat
1 308 -430 -224 -100 0 0 -1 0 1 0 1 0 0 49311.dat
1 308 -430 -296 -100 0 0 -1 0 1 0 1 0 0 49311.dat
1 308 -430 -368 -100 0 0 -1 0 1 0 1 0 0 49311.dat
1 308 -430 -440 -100 0 0 -1 0 1 0 1 0 0 49311.dat
1 308 -430 -464 -100 0 0 -1 0 1 0 1 0 0 3010.dat
1 308 -450 -440 -100 0 0 1 0 -1 0 1 0 0 2431.dat
1 308 -440 -464 -210 0 0 -1 0 1 0 1 0 0 3021.dat
1 308 -440 -464 10 0 0 -1 0 1 0 1 0 0 3021.dat
1 308 -280 -8 220 1 0 0 0 1 0 0 0 1 91405.dat
1 308 -280 -8 -100 1 0 0 0 1 0 0 0 1 91405.dat
1 308 -280 -8 -420 1 0 0 0 1 0 0 0 1 91405.dat
1 308 -40 -8 -420 0 0 1 0 1 0 -1 0 0 92438.dat
1 308 -40 -8 -100 0 0 1 0 1 0 -1 0 0 92438.dat
1 308 -40 -8 220 0 0 1 0 1 0 -1 0 0 92438.dat
1 308 200 -8 -100 1 0 0 0 1 0 0 0 1 91405.dat
1 308 140 -8 100 1 0 0 0 1 0 0 0 1 3030.dat
1 308 340 -8 100 1 0 0 0 1 0 0 0 1 3030.dat
1 308 140 -8 -300 1 0 0 0 1 0 0 0 1 3030.dat
1 308 340 -8 -300 1 0 0 0 1 0 0 0 1 3030.dat
1 308 400 -8 -20 0 0 1 0 1 0 -1 0 0 3035.dat
1 308 400 -8 -180 0 0 1 0 1 0 -1 0 0 3035.dat
1 308 450 -8 20 0 0 -1 0 1 0 1 0 0 60479.dat
1 308 450 -8 -220 0 0 -1 0 1 0 1 0 0 60479.dat
1 308 470 -8 150 -1 0 0 0 1 0 0 0 -1 2420.dat
1 308 470 -8 -350 0 0 -1 0 1 0 1 0 0 2420.dat
1 308 430 -8 150 1 0 0 0 1 0 0 0 1 3024.dat
1 308 50 -8 150 1 0 0 0 1 0 0 0 1 3024.dat
1 308 50 -8 -350 1 0 0 0 1 0 0 0 1 3024.dat
1 308 430 -8 -350 1 0 0 0 1 0 0 0 1 3024.dat
1 308 240 -8 -350 1 0 0 0 1 0 0 0 1 3023b.dat
1 308 240 -8 150 1 0 0 0 1 0 0 0 1 3023b.dat
1 308 40 -8 400 1 0 0 0 1 0 0 0 1 3022.dat
1 308 -440 -8 400 1 0 0 0 1 0 0 0 1 3022.dat
1 308 -440 -8 -600 1 0 0 0 1 0 0 0 1 3022.dat
1 308 40 -8 -600 1 0 0 0 1 0 0 0 1 3022.dat
1 308 0 -8 -590 1 0 0 0 1 0 0 0 1 3023b.dat
1 308 -200 -8 -590 1 0 0 0 1 0 0 0 1 3023b.dat
1 308 -400 -8 -590 1 0 0 0 1 0 0 0 1 3023b.dat
1 308 -450 -8 -340 0 0 1 0 1 0 -1 0 0 3023b.dat
1 308 -450 -8 -160 0 0 1 0 1 0 -1 0 0 3023b.dat
1 308 -450 -8 -40 0 0 1 0 1 0 -1 0 0 3023b.dat
1 308 -450 -8 140 0 0 1 0 1 0 -1 0 0 3023b.dat
1 308 -400 -8 390 1 0 0 0 1 0 0 0 1 3023b.dat
1 308 -200 -8 390 1 0 0 0 1 0 0 0 1 3023b.dat
1 308 0 -8 390 1 0 0 0 1 0 0 0 1 3023b.dat
1 308 50 -8 370 1 0 0 0 1 0 0 0 1 3024.dat
1 308 -450 -8 370 1 0 0 0 1 0 0 0 1 3024.dat
1 308 -450 -8 -570 1 0 0 0 1 0 0 0 1 3024.dat
1 308 50 -8 -570 1 0 0 0 1 0 0 0 1 3024.dat
1 4 470 -8 -40 0 0 1 0 1 0 -1 0 0 3023b.dat
1 4 470 -8 -160 0 0 1 0 1 0 -1 0 0 3023b.dat
