# Model exported from LeoCAD
#

mtllib Dynamite.mtl

v -0.78 -4.08 40.00
v -2.22 -4.67 40.00
v -3.33 -5.78 40.00
v -3.92 -7.22 40.00
v -3.92 -8.78 40.00
v -3.33 -10.22 40.00
v -2.22 -11.33 40.00
v -0.78 -11.92 40.00
v 0.78 -11.92 40.00
v -2.22 -4.67 2.00
v -0.78 -4.08 2.00
v -3.33 -5.78 2.00
v -3.92 -7.22 2.00
v -3.92 -8.78 2.00
v -3.33 -10.22 2.00
v -2.22 -11.33 2.00
v -0.78 -11.92 2.00
v 0.78 -11.92 2.00
v 2.22 -11.33 40.00
v 2.22 -11.33 2.00
v 3.33 -10.22 40.00
v 3.33 -10.22 2.00
v 3.92 -8.78 40.00
v 3.92 -8.78 2.00
v 3.92 -7.22 40.00
v 3.92 -7.22 2.00
v 3.33 -5.78 40.00
v 3.33 -5.78 2.00
v 2.22 -4.67 40.00
v 2.22 -4.67 2.00
v 0.78 -4.08 40.00
v 0.78 -4.08 2.00
v 0.00 -8.00 40.00
v -0.78 -4.08 40.00
v -2.22 -4.67 40.00
v -3.33 -5.78 40.00
v -3.92 -7.22 40.00
v -3.92 -8.78 40.00
v -3.33 -10.22 40.00
v -2.22 -11.33 40.00
v -0.78 -11.92 40.00
v 0.78 -11.92 40.00
v 2.22 -4.67 40.00
v 0.78 -4.08 40.00
v 2.22 -11.33 40.00
v 3.33 -10.22 40.00
v 3.33 -5.78 40.00
v 3.92 -8.78 40.00
v 3.92 -7.22 40.00
v -3.14 2.71 40.00
v -2.94 4.26 40.00
v -3.34 5.77 40.00
v -4.29 7.01 40.00
v -5.64 7.79 40.00
v -7.19 7.99 40.00
v -8.70 7.59 40.00
v -9.94 6.64 40.00
v -10.72 5.29 40.00
v -10.92 3.74 40.00
v -10.52 2.23 40.00
v -9.57 0.99 40.00
v -8.21 0.21 40.00
v -6.67 0.01 40.00
v -5.16 0.41 40.00
v -3.92 1.36 40.00
v -2.94 4.26 2.00
v -3.14 2.71 2.00
v -3.34 5.77 2.00
v -4.29 7.01 2.00
v -5.64 7.79 2.00
v -7.19 7.99 2.00
v -8.70 7.59 2.00
v -9.94 6.64 2.00
v -10.72 5.29 2.00
v -10.92 3.74 2.00
v -10.52 2.23 2.00
v -9.57 0.99 2.00
v -8.21 0.21 2.00
v -6.67 0.01 2.00
v -5.16 0.41 2.00
v -3.92 1.36 2.00
v -6.93 4.00 40.00
v -3.14 2.71 40.00
v -2.94 4.26 40.00
v -3.34 5.77 40.00
v -4.29 7.01 40.00
v -5.64 7.79 40.00
v -7.19 7.99 40.00
v -8.70 7.59 40.00
v -9.94 6.64 40.00
v -10.72 5.29 40.00
v -5.16 0.41 40.00
v -3.92 1.36 40.00
v -10.92 3.74 40.00
v -10.52 2.23 40.00
v -6.67 0.01 40.00
v -9.57 0.99 40.00
v -8.21 0.21 40.00
v 3.92 1.36 40.00
v 5.16 0.41 40.00
v 6.67 0.01 40.00
v 8.21 0.21 40.00
v 9.57 0.99 40.00
v 10.52 2.23 40.00
v 10.92 3.74 40.00
v 10.72 5.29 40.00
v 9.93 6.64 40.00
v 8.70 7.59 40.00
v 7.19 7.99 40.00
v 5.64 7.79 40.00
v 4.29 7.01 40.00
v 3.34 5.77 40.00
v 2.94 4.26 40.00
v 3.14 2.71 40.00
v 5.16 0.41 2.00
v 3.92 1.36 2.00
v 6.67 0.01 2.00
v 8.21 0.21 2.00
v 9.57 0.99 2.00
v 10.52 2.23 2.00
v 10.92 3.74 2.00
v 10.72 5.29 2.00
v 9.93 6.64 2.00
v 8.70 7.59 2.00
v 7.19 7.99 2.00
v 5.64 7.79 2.00
v 4.29 7.01 2.00
v 3.34 5.77 2.00
v 2.94 4.26 2.00
v 3.14 2.71 2.00
v 6.93 4.00 40.00
v 3.92 1.36 40.00
v 5.16 0.41 40.00
v 6.67 0.01 40.00
v 8.21 0.21 40.00
v 9.57 0.99 40.00
v 10.52 2.23 40.00
v 10.92 3.74 40.00
v 10.72 5.29 40.00
v 9.93 6.64 40.00
v 2.94 4.26 40.00
v 3.14 2.71 40.00
v 8.70 7.59 40.00
v 7.19 7.99 40.00
v 3.34 5.77 40.00
v 5.64 7.79 40.00
v 4.29 7.01 40.00
v 0.00 -8.00 2.00
v 0.78 -4.08 2.00
v 2.22 -4.67 2.00
v 3.33 -5.78 2.00
v 3.92 -7.22 2.00
v 3.92 -8.78 2.00
v 3.33 -10.22 2.00
v 2.22 -11.33 2.00
v 0.78 -11.92 2.00
v -0.78 -11.92 2.00
v -2.22 -4.67 2.00
v -0.78 -4.08 2.00
v -2.22 -11.33 2.00
v -3.33 -10.22 2.00
v -3.33 -5.78 2.00
v -3.92 -8.78 2.00
v -3.92 -7.22 2.00
v 6.93 4.00 2.00
v 3.14 2.71 2.00
v 2.94 4.26 2.00
v 3.34 5.77 2.00
v 4.29 7.01 2.00
v 5.64 7.79 2.00
v 7.19 7.99 2.00
v 8.70 7.59 2.00
v 9.94 6.64 2.00
v 10.72 5.29 2.00
v 5.16 0.41 2.00
v 3.92 1.36 2.00
v 10.92 3.74 2.00
v 10.52 2.23 2.00
v 6.67 0.01 2.00
v 9.57 0.99 2.00
v 8.21 0.21 2.00
v -6.93 4.00 2.00
v -3.92 1.36 2.00
v -5.16 0.41 2.00
v -6.67 0.01 2.00
v -8.21 0.21 2.00
v -9.57 0.99 2.00
v -10.52 2.23 2.00
v -10.92 3.74 2.00
v -10.72 5.29 2.00
v -9.93 6.64 2.00
v -2.94 4.26 2.00
v -3.14 2.71 2.00
v -8.70 7.59 2.00
v -7.19 7.99 2.00
v -3.34 5.77 2.00
v -5.64 7.79 2.00
v -4.29 7.01 2.00
v 1.70 3.71 40.00
v 0.00 4.06 40.00
v -1.70 3.71 40.00
v 1.70 3.71 2.00
v 0.00 4.06 2.00
v -1.70 3.71 2.00
v 3.14 2.71 2.00
v 1.70 3.71 2.00
v 1.70 3.71 40.00
v 3.14 2.71 40.00
v 0.00 4.06 2.00
v 0.00 4.06 40.00
v -1.70 3.71 2.00
v -1.70 3.71 40.00
v -3.14 2.71 2.00
v -3.14 2.71 40.00
v 2.36 -3.33 40.00
v 3.52 -2.03 40.00
v 4.06 -0.38 40.00
v 2.36 -3.33 2.00
v 3.52 -2.03 2.00
v 4.06 -0.38 2.00
v 0.78 -4.08 2.00
v 2.36 -3.33 2.00
v 2.36 -3.33 40.00
v 0.78 -4.08 40.00
v 3.52 -2.03 2.00
v 3.52 -2.03 40.00
v 4.06 -0.38 2.00
v 4.06 -0.38 40.00
v 3.92 1.36 2.00
v 3.92 1.36 40.00
v -4.06 -0.38 40.00
v -3.52 -2.03 40.00
v -2.36 -3.33 40.00
v -4.06 -0.38 2.00
v -3.52 -2.03 2.00
v -2.36 -3.33 2.00
v -3.92 1.36 2.00
v -4.06 -0.38 2.00
v -4.06 -0.38 40.00
v -3.92 1.36 40.00
v -3.52 -2.03 2.00
v -3.52 -2.03 40.00
v -2.36 -3.33 2.00
v -2.36 -3.33 40.00
v -0.78 -4.08 2.00
v -0.78 -4.08 40.00
v 1.00 0.00 61.00
v 0.92 0.38 61.00
v 0.71 0.71 61.00
v 0.38 0.92 61.00
v 0.00 1.00 61.00
v -0.38 0.92 61.00
v -0.71 0.71 61.00
v -0.92 0.38 61.00
v -1.00 0.00 61.00
v -0.92 -0.38 61.00
v -0.71 -0.71 61.00
v -0.38 -0.92 61.00
v 0.00 -1.00 61.00
v 0.38 -0.92 61.00
v 0.71 -0.71 61.00
v 0.92 -0.38 61.00
v 1.00 0.00 40.00
v 0.92 0.38 40.00
v 0.71 0.71 40.00
v 0.38 0.92 40.00
v 0.00 1.00 40.00
v -0.38 0.92 40.00
v -0.71 0.71 40.00
v -0.92 0.38 40.00
v -1.00 0.00 40.00
v -0.92 -0.38 40.00
v -0.71 -0.71 40.00
v -0.38 -0.92 40.00
v 0.00 -1.00 40.00
v 0.38 -0.92 40.00
v 0.71 -0.71 40.00
v 0.92 -0.38 40.00
v 0.00 0.00 61.00
v 0.92 0.38 61.00
v 1.00 0.00 61.00
v 0.71 0.71 61.00
v 0.38 0.92 61.00
v 0.00 1.00 61.00
v -0.38 0.92 61.00
v -0.71 0.71 61.00
v -0.92 0.38 61.00
v -1.00 0.00 61.00
v -0.92 -0.38 61.00
v -0.71 -0.71 61.00
v -0.38 -0.92 61.00
v 0.00 -1.00 61.00
v 0.38 -0.92 61.00
v 0.71 -0.71 61.00
v 0.92 -0.38 61.00
v -3.92 -8.78 24.00
v -3.33 -10.22 24.00
v -2.22 -11.33 24.00
v -0.78 -11.92 24.00
v 0.78 -11.92 24.00
v 2.22 -11.33 24.00
v 3.33 -10.22 24.00
v 3.92 -8.78 24.00
v -5.89 -9.17 24.00
v -4.99 -11.33 24.00
v -3.33 -12.99 24.00
v -1.17 -13.89 24.00
v 1.17 -13.89 24.00
v 3.33 -12.99 24.00
v 4.99 -11.33 24.00
v 5.89 -9.17 24.00
v -3.92 -8.78 20.00
v -3.33 -10.22 20.00
v -2.22 -11.33 20.00
v -0.78 -11.92 20.00
v 0.78 -11.92 20.00
v 2.22 -11.33 20.00
v 3.33 -10.22 20.00
v 3.92 -8.78 20.00
v -4.99 -11.33 20.00
v -3.33 -12.99 20.00
v -1.17 -13.88 20.00
v 1.17 -13.88 20.00
v 3.33 -12.99 20.00
v 4.99 -11.33 20.00
v -4.99 -11.33 24.00
v -3.33 -12.99 24.00
v -1.17 -13.88 24.00
v 1.17 -13.88 24.00
v 3.33 -12.99 24.00
v 4.99 -11.33 24.00
v -9.57 0.99 24.00
v -3.92 -8.78 24.00
v -9.57 0.99 20.00
v -12.31 1.35 20.00
v -12.31 1.35 24.00
v -9.56 0.99 24.00
v -12.31 1.35 24.00
v -3.92 -8.78 20.00
v -5.89 -9.17 20.00
v -4.99 -11.33 20.00
v -3.33 -12.99 20.00
v -1.17 -13.89 20.00
v 1.17 -13.89 20.00
v 3.33 -12.99 20.00
v 4.99 -11.33 20.00
v 5.89 -9.17 20.00
v -12.31 1.35 20.00
v -9.56 0.99 20.00
v -5.64 7.79 24.00
v -7.19 7.99 24.00
v -8.70 7.59 24.00
v -9.94 6.64 24.00
v -10.72 5.29 24.00
v -10.92 3.74 24.00
v -10.52 2.23 24.00
v -5.00 9.68 24.00
v -7.32 9.99 24.00
v -9.58 9.38 24.00
v -11.44 7.96 24.00
v -12.61 5.93 24.00
v -12.92 3.61 24.00
v -10.89 -0.51 24.00
v -5.64 7.79 20.00
v -7.19 7.99 20.00
v -8.70 7.59 20.00
v -9.94 6.64 20.00
v -10.72 5.29 20.00
v -10.92 3.74 20.00
v -10.52 2.23 20.00
v -7.32 9.99 20.00
v -9.58 9.38 20.00
v -11.44 7.96 20.00
v -12.61 5.93 20.00
v -12.91 3.61 20.00
v -7.32 9.99 24.00
v -9.58 9.38 24.00
v -11.44 7.96 24.00
v -12.61 5.93 24.00
v -12.91 3.61 24.00
v 5.64 7.79 24.00
v -5.64 7.79 24.00
v 5.64 7.79 20.00
v 7.32 9.99 20.00
v 7.32 9.99 24.00
v 5.64 7.79 24.00
v 7.32 9.99 24.00
v -5.64 7.79 20.00
v -5.00 9.68 20.00
v -7.32 9.99 20.00
v -9.58 9.38 20.00
v -11.44 7.96 20.00
v -12.61 5.93 20.00
v -12.92 3.61 20.00
v -10.89 -0.51 20.00
v 7.32 9.99 20.00
v 5.64 7.79 20.00
v 9.57 0.99 24.00
v 10.52 2.23 24.00
v 10.92 3.74 24.00
v 10.72 5.29 24.00
v 9.93 6.64 24.00
v 8.70 7.59 24.00
v 7.19 7.99 24.00
v 10.89 -0.51 24.00
v 12.31 1.35 24.00
v 12.92 3.61 24.00
v 12.61 5.93 24.00
v 11.44 7.96 24.00
v 9.58 9.38 24.00
v 5.00 9.68 24.00
v 9.57 0.99 20.00
v 10.52 2.23 20.00
v 10.92 3.74 20.00
v 10.72 5.29 20.00
v 9.93 6.64 20.00
v 8.70 7.59 20.00
v 7.19 7.99 20.00
v 12.31 1.35 20.00
v 12.92 3.61 20.00
v 12.61 5.93 20.00
v 11.44 7.96 20.00
v 9.58 9.38 20.00
v 12.31 1.35 24.00
v 12.92 3.61 24.00
v 12.61 5.93 24.00
v 11.44 7.96 24.00
v 9.58 9.38 24.00
v 3.92 -8.78 24.00
v 9.57 0.99 24.00
v 3.92 -8.78 20.00
v 9.57 0.99 20.00
v 10.89 -0.51 20.00
v 12.31 1.35 20.00
v 12.92 3.61 20.00
v 12.61 5.93 20.00
v 11.44 7.96 20.00
v 9.58 9.38 20.00
v 5.00 9.68 20.00
#

vn -0.38 0.92 0.00
vn -0.59 0.80 0.00
vn -0.85 0.51 0.00
vn -0.98 0.15 0.00
vn -0.97 -0.24 0.00
vn -0.80 -0.59 0.00
vn -0.51 -0.85 0.00
vn -0.15 -0.98 0.00
vn 0.19 -0.98 0.00
vn -0.53 0.84 0.00
vn -0.38 0.92 0.00
vn -0.81 0.58 0.00
vn -0.97 0.22 0.00
vn -0.98 -0.16 0.00
vn -0.84 -0.53 0.00
vn -0.58 -0.81 0.00
vn -0.22 -0.97 0.00
vn 0.26 -0.96 0.00
vn 0.56 -0.82 0.00
vn 0.59 -0.80 0.00
vn 0.83 -0.54 0.00
vn 0.85 -0.51 0.00
vn 0.98 -0.18 0.00
vn 0.98 -0.15 0.00
vn 0.98 0.20 0.00
vn 0.97 0.24 0.00
vn 0.82 0.56 0.00
vn 0.80 0.59 0.00
vn 0.54 0.83 0.00
vn 0.51 0.85 0.00
vn 0.38 0.92 0.00
vn 0.38 0.92 0.00
vn 0.00 0.00 1.00
vn 0.00 0.00 1.00
vn 0.00 0.00 1.00
vn 0.00 0.00 1.00
vn 0.00 0.00 1.00
vn 0.00 0.00 1.00
vn 0.00 0.00 1.00
vn 0.00 0.00 1.00
vn 0.00 0.00 1.00
vn 0.00 0.00 0.99
vn 0.00 0.00 1.00
vn 0.00 0.00 0.99
vn 0.00 0.00 1.00
vn 0.00 0.00 1.00
vn 0.00 0.00 1.00
vn 0.00 0.00 1.00
vn 0.00 0.00 1.00
vn 0.98 -0.13 0.00
vn 0.99 0.10 0.00
vn 0.87 0.48 0.00
vn 0.62 0.78 0.00
vn 0.28 0.95 0.00
vn -0.10 0.99 0.00
vn -0.48 0.87 0.00
vn -0.78 0.62 0.00
vn -0.94 0.31 0.00
vn -0.99 -0.08 0.00
vn -0.89 -0.45 0.00
vn -0.65 -0.76 0.00
vn -0.31 -0.94 0.00
vn 0.08 -0.99 0.00
vn 0.45 -0.89 0.00
vn 0.61 -0.79 0.00
vn 0.99 0.03 0.00
vn 0.98 -0.13 0.00
vn 0.91 0.41 0.00
vn 0.68 0.72 0.00
vn 0.35 0.93 0.00
vn -0.03 0.99 0.00
vn -0.41 0.91 0.00
vn -0.72 0.68 0.00
vn -0.96 0.24 0.00
vn -0.99 -0.10 0.00
vn -0.87 -0.48 0.00
vn -0.62 -0.77 0.00
vn -0.28 -0.95 0.00
vn 0.10 -0.99 0.00
vn 0.48 -0.87 0.00
vn 0.61 -0.79 0.00
vn 0.00 0.00 1.00
vn 0.00 0.00 0.99
vn 0.00 0.00 1.00
vn 0.00 0.00 1.00
vn 0.00 0.00 1.00
vn 0.00 0.00 1.00
vn 0.00 0.00 1.00
vn 0.00 0.00 1.00
vn 0.00 0.00 1.00
vn 0.00 0.00 1.00
vn 0.00 0.00 1.00
vn 0.00 0.00 0.99
vn 0.00 0.00 1.00
vn 0.00 0.00 1.00
vn 0.00 0.00 1.00
vn 0.00 0.00 1.00
vn 0.00 0.00 1.00
vn -0.61 -0.79 0.00
vn -0.40 -0.91 0.00
vn -0.02 -0.99 0.00
vn 0.36 -0.93 0.00
vn 0.69 -0.72 0.00
vn 0.91 -0.40 0.00
vn 0.99 -0.02 0.00
vn 0.93 0.36 0.00
vn 0.75 0.65 0.00
vn 0.43 0.90 0.00
vn 0.05 0.99 0.00
vn -0.33 0.94 0.00
vn -0.67 0.74 0.00
vn -0.90 0.43 0.00
vn -0.99 0.05 0.00
vn -0.98 -0.13 0.00
vn -0.46 -0.87 0.00
vn -0.61 -0.79 0.00
vn -0.09 -0.99 0.00
vn 0.28 -0.95 0.00
vn 0.63 -0.77 0.00
vn 0.87 -0.46 0.00
vn 0.99 -0.09 0.00
vn 0.95 0.28 0.00
vn 0.69 0.71 0.00
vn 0.40 0.91 0.00
vn 0.02 0.99 0.00
vn -0.35 0.93 0.00
vn -0.69 0.72 0.00
vn -0.91 0.40 0.00
vn -0.99 0.02 0.00
vn -0.98 -0.13 0.00
vn 0.00 0.00 1.00
vn 0.00 0.00 1.00
vn 0.00 0.00 1.00
vn 0.00 0.00 1.00
vn 0.00 0.00 1.00
vn 0.00 0.00 1.00
vn 0.00 0.00 1.00
vn 0.00 0.00 1.00
vn 0.00 0.00 1.00
vn 0.00 0.00 1.00
vn 0.00 0.00 1.00
vn 0.00 0.00 1.00
vn 0.00 0.00 1.00
vn 0.00 0.00 1.00
vn 0.00 0.00 1.00
vn 0.00 0.00 1.00
vn 0.00 0.00 1.00
vn 0.00 0.00 -1.00
vn 0.00 0.00 -1.00
vn 0.00 0.00 -1.00
vn 0.00 0.00 -1.00
vn 0.00 0.00 -1.00
vn 0.00 0.00 -1.00
vn 0.00 0.00 -1.00
vn 0.00 0.00 -1.00
vn 0.00 0.00 -1.00
vn 0.00 0.00 -0.99
vn 0.00 0.00 -1.00
vn 0.00 0.00 -1.00
vn 0.00 0.00 -1.00
vn 0.00 0.00 -1.00
vn 0.00 0.00 -1.00
vn 0.00 0.00 -1.00
vn 0.00 0.00 -1.00
vn 0.00 0.00 -1.00
vn 0.00 0.00 -1.00
vn 0.00 0.00 -1.00
vn 0.00 0.00 -1.00
vn 0.00 0.00 -1.00
vn 0.00 0.00 -1.00
vn 0.00 0.00 -1.00
vn 0.00 0.00 -1.00
vn 0.00 0.00 -1.00
vn 0.00 0.00 -1.00
vn 0.00 0.00 -1.00
vn 0.00 0.00 -1.00
vn 0.00 0.00 -1.00
vn 0.00 0.00 -1.00
vn 0.00 0.00 -1.00
vn 0.00 0.00 -1.00
vn 0.00 0.00 -1.00
vn 0.00 0.00 -1.00
vn 0.00 0.00 -1.00
vn 0.00 0.00 -1.00
vn 0.00 0.00 -1.00
vn 0.00 0.00 -1.00
vn 0.00 0.00 -1.00
vn 0.00 0.00 -1.00
vn 0.00 0.00 -1.00
vn 0.00 0.00 -1.00
vn 0.00 0.00 -1.00
vn 0.00 0.00 -1.00
vn 0.00 0.00 -1.00
vn 0.00 0.00 -1.00
vn 0.00 0.00 -1.00
vn 0.00 0.00 -1.00
vn 0.00 0.00 -1.00
vn 0.00 0.00 -1.00
vn 0.00 0.00 1.00
vn 0.00 0.00 1.00
vn 0.00 0.00 1.00
vn 0.00 0.00 -1.00
vn 0.00 0.00 -1.00
vn 0.00 0.00 -1.00
vn 0.57 0.82 0.00
vn 0.35 0.93 0.00
vn 0.43 0.90 0.00
vn 0.57 0.82 0.00
vn -0.04 0.99 0.00
vn 0.03 0.99 0.00
vn -0.43 0.90 0.00
vn -0.36 0.93 0.00
vn -0.57 0.82 0.00
vn -0.57 0.82 0.00
vn 0.00 0.00 1.00
vn 0.00 0.00 1.00
vn 0.00 0.00 1.00
vn 0.00 0.00 -1.00
vn 0.00 0.00 -1.00
vn 0.00 0.00 -1.00
vn 0.43 -0.90 0.00
vn 0.63 -0.77 0.00
vn 0.57 -0.82 0.00
vn 0.43 -0.90 0.00
vn 0.88 -0.46 0.00
vn 0.84 -0.53 0.00
vn 0.99 -0.07 0.00
vn 0.98 -0.15 0.00
vn 0.99 0.08 0.00
vn 0.99 0.08 0.00
vn 0.00 0.00 1.00
vn 0.00 0.00 1.00
vn 0.00 0.00 1.00
vn 0.00 0.00 -1.00
vn 0.00 0.00 -1.00
vn 0.00 0.00 -1.00
vn -0.99 0.08 0.00
vn -0.98 -0.16 0.00
vn -0.99 -0.08 0.00
vn -0.99 0.08 0.00
vn -0.84 -0.54 0.00
vn -0.88 -0.46 0.00
vn -0.56 -0.83 0.00
vn -0.62 -0.78 0.00
vn -0.43 -0.90 0.00
vn -0.43 -0.90 0.00
vn 0.00 0.00 1.00
vn 0.00 0.00 1.00
vn 0.00 0.00 1.00
vn 0.00 0.00 1.00
vn 0.00 0.00 1.00
vn 0.00 0.00 1.00
vn 0.00 0.00 1.00
vn 0.00 0.00 1.00
vn 0.00 0.00 1.00
vn 0.00 0.00 1.00
vn 0.00 0.00 1.00
vn 0.00 0.00 1.00
vn 0.00 0.00 1.00
vn 0.00 0.00 1.00
vn 0.00 0.00 1.00
vn 0.00 0.00 1.00
vn 0.99 -0.01 0.00
vn 0.91 0.42 0.00
vn 0.67 0.73 0.00
vn 0.34 0.94 0.00
vn -0.04 0.99 0.00
vn -0.42 0.91 0.00
vn -0.73 0.67 0.00
vn -0.94 0.34 0.00
vn -0.99 -0.04 0.00
vn -0.91 -0.42 0.00
vn -0.67 -0.73 0.00
vn -0.34 -0.94 0.00
vn 0.04 -0.99 0.00
vn 0.42 -0.91 0.00
vn 0.73 -0.67 0.00
vn 0.94 -0.34 0.00
vn 0.00 0.00 1.00
vn 0.93 0.35 0.00
vn 0.99 -0.04 0.00
vn 0.72 0.68 0.00
vn 0.41 0.91 0.00
vn 0.03 0.99 0.00
vn -0.35 0.93 0.00
vn -0.68 0.72 0.00
vn -0.91 0.41 0.00
vn -0.99 0.03 0.00
vn -0.93 -0.35 0.00
vn -0.72 -0.68 0.00
vn -0.41 -0.91 0.00
vn -0.03 -0.99 0.00
vn 0.35 -0.93 0.00
vn 0.68 -0.72 0.00
vn 0.91 -0.41 0.00
vn 0.00 0.00 1.00
vn 0.00 0.00 1.00
vn 0.00 0.00 1.00
vn 0.00 0.00 1.00
vn 0.00 0.00 1.00
vn 0.00 0.00 1.00
vn 0.00 0.00 1.00
vn 0.00 0.00 1.00
vn 0.00 0.00 1.00
vn 0.00 0.00 0.99
vn 0.00 0.00 1.00
vn 0.00 0.00 1.00
vn 0.00 0.00 1.00
vn 0.00 0.00 1.00
vn 0.00 0.00 1.00
vn 0.00 0.00 1.00
vn 0.86 0.50 0.00
vn 0.00 0.00 -1.00
vn 0.00 0.00 -1.00
vn 0.00 0.00 -1.00
vn 0.00 0.00 -1.00
vn 0.00 0.00 -1.00
vn 0.00 0.00 -1.00
vn 0.00 0.00 -1.00
vn -0.80 -0.58 0.00
vn -0.54 -0.83 0.00
vn -0.18 -0.98 0.00
vn 0.20 -0.98 0.00
vn 0.56 -0.82 0.00
vn 0.80 -0.60 0.00
vn -0.80 -0.58 0.00
vn -0.51 -0.85 0.00
vn -0.15 -0.98 0.00
vn 0.24 -0.97 0.00
vn 0.59 -0.80 0.00
vn 0.80 -0.58 0.00
vn 0.86 0.50 0.00
vn 0.86 0.50 0.00
vn 0.86 0.50 0.00
vn -0.93 -0.36 0.00
vn -0.92 -0.38 0.00
vn 0.00 0.00 1.00
vn 0.00 0.00 1.00
vn 0.00 0.00 -1.00
vn 0.00 0.00 -1.00
vn 0.00 0.00 -1.00
vn 0.00 0.00 -1.00
vn 0.00 0.00 -1.00
vn 0.00 0.00 -1.00
vn 0.00 0.00 -1.00
vn 0.00 0.00 -0.99
vn 0.00 0.00 -1.00
vn 0.00 0.00 -1.00
vn 0.00 0.00 -1.00
vn 0.00 0.00 1.00
vn 0.00 0.00 1.00
vn 0.00 0.00 1.00
vn 0.00 0.00 1.00
vn 0.00 0.00 1.00
vn 0.00 0.00 1.00
vn 0.00 0.00 1.00
vn 0.00 0.00 1.00
vn 0.00 0.00 1.00
vn 0.00 0.00 1.00
vn 0.00 0.00 1.00
vn 0.00 0.00 1.00
vn 0.00 0.00 1.00
vn 0.00 0.00 1.00
vn 0.00 -1.00 0.00
vn 0.00 0.00 -1.00
vn 0.00 0.00 -1.00
vn 0.00 0.00 -1.00
vn 0.00 0.00 -1.00
vn 0.00 0.00 -1.00
vn 0.00 0.00 -1.00
vn -0.09 0.99 0.00
vn -0.45 0.89 0.00
vn -0.76 0.65 0.00
vn -0.94 0.31 0.00
vn -0.99 -0.07 0.00
vn -0.09 0.99 0.00
vn -0.48 0.87 0.00
vn -0.77 0.62 0.00
vn -0.95 0.28 0.00
vn -0.99 -0.10 0.00
vn 0.00 -1.00 0.00
vn 0.00 -1.00 0.00
vn 0.00 -1.00 0.00
vn 0.15 0.98 0.00
vn 0.13 0.98 0.00
vn 0.00 0.00 1.00
vn 0.00 0.00 1.00
vn 0.00 0.00 -1.00
vn 0.00 0.00 -1.00
vn 0.00 0.00 -1.00
vn 0.00 0.00 -1.00
vn 0.00 0.00 -1.00
vn 0.00 0.00 -1.00
vn 0.00 0.00 -1.00
vn 0.00 0.00 -1.00
vn 0.00 0.00 -1.00
vn 0.00 0.00 -1.00
vn 0.00 0.00 1.00
vn 0.00 0.00 1.00
vn 0.00 0.00 1.00
vn 0.00 0.00 1.00
vn 0.00 0.00 1.00
vn 0.00 0.00 1.00
vn 0.00 0.00 1.00
vn 0.00 0.00 1.00
vn 0.00 0.00 1.00
vn 0.00 0.00 1.00
vn 0.00 0.00 1.00
vn 0.00 0.00 1.00
vn 0.00 0.00 1.00
vn 0.00 0.00 1.00
vn -0.86 0.50 0.00
vn 0.00 0.00 -1.00
vn 0.00 0.00 -1.00
vn 0.00 0.00 -1.00
vn 0.00 0.00 -1.00
vn 0.00 0.00 -1.00
vn 0.00 0.00 -1.00
vn 0.91 -0.41 0.00
vn 0.99 -0.05 0.00
vn 0.94 0.33 0.00
vn 0.74 0.67 0.00
vn 0.43 0.90 0.00
vn 0.91 -0.41 0.00
vn 0.99 -0.02 0.00
vn 0.93 0.35 0.00
vn 0.72 0.69 0.00
vn 0.40 0.91 0.00
vn -0.86 0.50 0.00
vn -0.86 0.50 0.00
vn -0.86 0.50 0.00
vn 0.00 0.00 -1.00
vn 0.00 0.00 -1.00
vn 0.00 0.00 -1.00
vn 0.00 0.00 -1.00
vn 0.00 0.00 -1.00
vn 0.00 0.00 -1.00
vn 0.00 0.00 -1.00
vn 0.00 0.00 -1.00
#

g Piece000
usemtl Red
f 10//10 2//2 1//1
f 1//1 11//11 10//10
f 12//12 3//3 2//2
f 2//2 10//10 12//12
f 13//13 4//4 3//3
f 3//3 12//12 13//13
f 14//14 5//5 4//4
f 4//4 13//13 14//14
f 15//15 6//6 5//5
f 5//5 14//14 15//15
f 16//16 7//7 6//6
f 6//6 15//15 16//16
f 17//17 8//8 7//7
f 7//7 16//16 17//17
f 18//18 9//9 8//8
f 8//8 17//17 18//18
f 19//19 9//9 18//18
f 18//18 20//20 19//19
f 21//21 19//19 20//20
f 20//20 22//22 21//21
f 23//23 21//21 22//22
f 22//22 24//24 23//23
f 25//25 23//23 24//24
f 24//24 26//26 25//25
f 27//27 25//25 26//26
f 26//26 28//28 27//27
f 29//29 27//27 28//28
f 28//28 30//30 29//29
f 31//31 29//29 30//30
f 30//30 32//32 31//31
f 33//33 34//34 35//35
f 33//33 35//35 36//36
f 33//33 36//36 37//37
f 33//33 37//37 38//38
f 33//33 38//38 39//39
f 33//33 39//39 40//40
f 33//33 40//40 41//41
f 33//33 41//41 42//42
f 43//43 44//44 42//42
f 42//42 45//45 43//43
f 43//43 45//45 46//46
f 46//46 47//47 43//43
f 47//47 46//46 48//48
f 48//48 49//49 47//47
f 44//44 34//34 42//42
f 66//66 51//51 50//50
f 50//50 67//67 66//66
f 68//68 52//52 51//51
f 51//51 66//66 68//68
f 69//69 53//53 52//52
f 52//52 68//68 69//69
f 70//70 54//54 53//53
f 53//53 69//69 70//70
f 71//71 55//55 54//54
f 54//54 70//70 71//71
f 72//72 56//56 55//55
f 55//55 71//71 72//72
f 73//73 57//57 56//56
f 56//56 72//72 73//73
f 74//74 58//58 57//57
f 57//57 73//73 74//74
f 59//59 58//58 74//74
f 74//74 75//75 59//59
f 60//60 59//59 75//75
f 75//75 76//76 60//60
f 61//61 60//60 76//76
f 76//76 77//77 61//61
f 62//62 61//61 77//77
f 77//77 78//78 62//62
f 63//63 62//62 78//78
f 78//78 79//79 63//63
f 64//64 63//63 79//79
f 79//79 80//80 64//64
f 65//65 64//64 80//80
f 80//80 81//81 65//65
f 82//82 83//83 84//84
f 82//82 84//84 85//85
f 82//82 85//85 86//86
f 82//82 86//86 87//87
f 82//82 87//87 88//88
f 82//82 88//88 89//89
f 82//82 89//89 90//90
f 82//82 90//90 91//91
f 92//92 93//93 91//91
f 91//91 94//94 92//92
f 92//92 94//94 95//95
f 95//95 96//96 92//92
f 96//96 95//95 97//97
f 97//97 98//98 96//96
f 93//93 83//83 91//91
f 115//115 100//100 99//99
f 99//99 116//116 115//115
f 117//117 101//101 100//100
f 100//100 115//115 117//117
f 118//118 102//102 101//101
f 101//101 117//117 118//118
f 119//119 103//103 102//102
f 102//102 118//118 119//119
f 120//120 104//104 103//103
f 103//103 119//119 120//120
f 121//121 105//105 104//104
f 104//104 120//120 121//121
f 122//122 106//106 105//105
f 105//105 121//121 122//122
f 123//123 107//107 106//106
f 106//106 122//122 123//123
f 108//108 107//107 123//123
f 123//123 124//124 108//108
f 109//109 108//108 124//124
f 124//124 125//125 109//109
f 110//110 109//109 125//125
f 125//125 126//126 110//110
f 111//111 110//110 126//126
f 126//126 127//127 111//111
f 112//112 111//111 127//127
f 127//127 128//128 112//112
f 113//113 112//112 128//128
f 128//128 129//129 113//113
f 114//114 113//113 129//129
f 129//129 130//130 114//114
f 131//131 132//132 133//133
f 131//131 133//133 134//134
f 131//131 134//134 135//135
f 131//131 135//135 136//136
f 131//131 136//136 137//137
f 131//131 137//137 138//138
f 131//131 138//138 139//139
f 131//131 139//139 140//140
f 141//141 142//142 140//140
f 140//140 143//143 141//141
f 141//141 143//143 144//144
f 144//144 145//145 141//141
f 145//145 144//144 146//146
f 146//146 147//147 145//145
f 142//142 132//132 140//140
f 148//148 149//149 150//150
f 148//148 150//150 151//151
f 148//148 151//151 152//152
f 148//148 152//152 153//153
f 148//148 153//153 154//154
f 148//148 154//154 155//155
f 148//148 155//155 156//156
f 148//148 156//156 157//157
f 158//158 159//159 157//157
f 157//157 160//160 158//158
f 158//158 160//160 161//161
f 161//161 162//162 158//158
f 162//162 161//161 163//163
f 163//163 164//164 162//162
f 159//159 149//149 157//157
f 165//165 166//166 167//167
f 165//165 167//167 168//168
f 165//165 168//168 169//169
f 165//165 169//169 170//170
f 165//165 170//170 171//171
f 165//165 171//171 172//172
f 165//165 172//172 173//173
f 165//165 173//173 174//174
f 175//175 176//176 174//174
f 174//174 177//177 175//175
f 175//175 177//177 178//178
f 178//178 179//179 175//175
f 179//179 178//178 180//180
f 180//180 181//181 179//179
f 176//176 166//166 174//174
f 182//182 183//183 184//184
f 182//182 184//184 185//185
f 182//182 185//185 186//186
f 182//182 186//186 187//187
f 182//182 187//187 188//188
f 182//182 188//188 189//189
f 182//182 189//189 190//190
f 182//182 190//190 191//191
f 192//192 193//193 191//191
f 191//191 194//194 192//192
f 192//192 194//194 195//195
f 195//195 196//196 192//192
f 196//196 195//195 197//197
f 197//197 198//198 196//196
f 193//193 183//183 191//191
f 83//83 93//93 132//132
f 132//132 142//142 83//83
f 44//44 132//132 93//93
f 93//93 34//34 44//44
f 166//166 176//176 183//183
f 183//183 193//193 166//166
f 159//159 183//183 176//176
f 176//176 149//149 159//159
f 199//199 201//201 83//83
f 83//83 142//142 199//199
f 200//200 201//201 199//199
f 193//193 204//204 202//202
f 202//202 166//166 193//193
f 202//202 204//204 203//203
f 205//205 206//206 207//207
f 207//207 208//208 205//205
f 206//206 209//209 210//210
f 210//210 207//207 206//206
f 209//209 211//211 212//212
f 212//212 210//210 209//209
f 211//211 213//213 214//214
f 214//214 212//212 211//211
f 215//215 217//217 132//132
f 132//132 44//44 215//215
f 216//216 217//217 215//215
f 176//176 220//220 218//218
f 218//218 149//149 176//176
f 218//218 220//220 219//219
f 221//221 222//222 223//223
f 223//223 224//224 221//221
f 222//222 225//225 226//226
f 226//226 223//223 222//222
f 225//225 227//227 228//228
f 228//228 226//226 225//225
f 227//227 229//229 230//230
f 230//230 228//228 227//227
f 231//231 233//233 34//34
f 34//34 93//93 231//231
f 232//232 233//233 231//231
f 159//159 236//236 234//234
f 234//234 183//183 159//159
f 234//234 236//236 235//235
f 237//237 238//238 239//239
f 239//239 240//240 237//237
f 238//238 241//241 242//242
f 242//242 239//239 238//238
f 241//241 243//243 244//244
f 244//244 242//242 241//241
f 243//243 245//245 246//246
f 246//246 244//244 243//243
f 279//279 247//247 248//248
f 279//279 248//248 249//249
f 279//279 249//249 250//250
f 279//279 250//250 251//251
f 279//279 251//251 252//252
f 279//279 252//252 253//253
f 279//279 253//253 254//254
f 279//279 254//254 255//255
f 279//279 255//255 256//256
f 279//279 256//256 257//257
f 279//279 257//257 258//258
f 279//279 258//258 259//259
f 279//279 259//259 260//260
f 279//279 260//260 261//261
f 279//279 261//261 262//262
f 279//279 262//262 247//247
f 263//263 264//264 280//280
f 280//280 281//281 263//263
f 264//264 265//265 282//282
f 282//282 280//280 264//264
f 265//265 266//266 283//283
f 283//283 282//282 265//265
f 266//266 267//267 284//284
f 284//284 283//283 266//266
f 267//267 268//268 285//285
f 285//285 284//284 267//267
f 268//268 269//269 286//286
f 286//286 285//285 268//268
f 269//269 270//270 287//287
f 287//287 286//286 269//269
f 270//270 271//271 288//288
f 288//288 287//287 270//270
f 271//271 272//272 289//289
f 289//289 288//288 271//271
f 272//272 273//273 290//290
f 290//290 289//289 272//272
f 273//273 274//274 291//291
f 291//291 290//290 273//273
f 274//274 275//275 292//292
f 292//292 291//291 274//274
f 275//275 276//276 293//293
f 293//293 292//292 275//275
f 276//276 277//277 294//294
f 294//294 293//293 276//276
f 277//277 278//278 295//295
f 295//295 294//294 277//277
f 278//278 263//263 281//281
f 281//281 295//295 278//278
f 296//296 304//304 305//305
f 305//305 297//297 296//296
f 297//297 305//305 306//306
f 306//306 298//298 297//297
f 298//298 306//306 307//307
f 307//307 299//299 298//298
f 307//307 308//308 300//300
f 300//300 299//299 307//307
f 308//308 309//309 301//301
f 301//301 300//300 308//308
f 309//309 310//310 302//302
f 302//302 301//301 309//309
f 310//310 311//311 303//303
f 303//303 302//302 310//310
f 326//326 320//320 321//321
f 321//321 327//327 326//326
f 327//327 321//321 322//322
f 322//322 328//328 327//327
f 328//328 322//322 323//323
f 323//323 329//329 328//328
f 329//329 323//323 324//324
f 324//324 330//330 329//329
f 330//330 324//324 325//325
f 325//325 331//331 330//330
f 333//333 312//312 334//334
f 334//334 332//332 333//333
f 320//320 326//326 336//336
f 336//336 335//335 320//320
f 337//337 338//338 305//305
f 305//305 296//296 337//337
f 341//341 340//340 339//339
f 339//339 313//313 341//341
f 342//342 341//341 313//313
f 313//313 314//314 342//342
f 343//343 342//342 314//314
f 314//314 315//315 343//343
f 316//316 344//344 343//343
f 343//343 315//315 316//316
f 317//317 345//345 344//344
f 344//344 316//316 317//317
f 318//318 346//346 345//345
f 345//345 317//317 318//318
f 319//319 347//347 346//346
f 346//346 318//318 319//319
f 339//339 341//341 348//348
f 348//348 349//349 339//339
f 350//350 357//357 358//358
f 358//358 351//351 350//350
f 351//351 358//358 359//359
f 359//359 352//352 351//351
f 352//352 359//359 360//360
f 360//360 353//353 352//352
f 360//360 361//361 354//354
f 354//354 353//353 360//360
f 361//361 362//362 355//355
f 355//355 354//354 361//361
f 362//362 338//338 356//356
f 356//356 355//355 362//362
f 338//338 363//363 337//337
f 337//337 356//356 338//338
f 376//376 371//371 372//372
f 372//372 377//377 376//376
f 377//377 372//372 373//373
f 373//373 378//378 377//377
f 378//378 373//373 374//374
f 374//374 379//379 378//378
f 379//379 374//374 375//375
f 375//375 380//380 379//379
f 380//380 375//375 335//335
f 335//335 336//336 380//380
f 382//382 364//364 383//383
f 383//383 381//381 382//382
f 371//371 376//376 385//385
f 385//385 384//384 371//371
f 386//386 387//387 358//358
f 358//358 350//350 386//386
f 390//390 389//389 388//388
f 388//388 365//365 390//390
f 391//391 390//390 365//365
f 365//365 366//366 391//391
f 392//392 391//391 366//366
f 366//366 367//367 392//392
f 368//368 393//393 392//392
f 392//392 367//367 368//368
f 369//369 394//394 393//393
f 393//393 368//368 369//369
f 370//370 348//348 394//394
f 394//394 369//369 370//370
f 349//349 395//395 348//348
f 348//348 370//370 349//349
f 388//388 390//390 396//396
f 396//396 397//397 388//388
f 398//398 405//405 406//406
f 406//406 399//399 398//398
f 399//399 406//406 407//407
f 407//407 400//400 399//399
f 400//400 407//407 408//408
f 408//408 401//401 400//400
f 408//408 409//409 402//402
f 402//402 401//401 408//408
f 409//409 410//410 403//403
f 403//403 402//402 409//409
f 410//410 387//387 404//404
f 404//404 403//403 410//410
f 387//387 411//411 386//386
f 386//386 404//404 387//387
f 424//424 419//419 420//420
f 420//420 425//425 424//424
f 425//425 420//420 421//421
f 421//421 426//426 425//425
f 426//426 421//421 422//422
f 422//422 427//427 426//426
f 427//427 422//422 423//423
f 423//423 428//428 427//427
f 428//428 423//423 384//384
f 384//384 385//385 428//428
f 430//430 412//412 431//431
f 431//431 429//429 430//430
f 419//419 424//424 331//331
f 331//331 325//325 419//419
f 303//303 310//310 406//406
f 406//406 398//398 303//303
f 434//434 433//433 432//432
f 432//432 413//413 434//434
f 435//435 434//434 413//413
f 413//413 414//414 435//435
f 436//436 435//435 414//414
f 414//414 415//415 436//436
f 416//416 437//437 436//436
f 436//436 415//415 416//416
f 417//417 438//438 437//437
f 437//437 416//416 417//417
f 418//418 396//396 438//438
f 438//438 417//417 418//418
f 397//397 439//439 396//396
f 396//396 418//418 397//397
f 432//432 434//434 346//346
f 346//346 319//319 432//432

