0 
0 Name: New Model.ldr
0 Author: 
1 19 0 -8 0 1 0 0 0 1 0 0 0 1 18674.dat
1 308 0 -16 0 -1 0 0 0 -1 0 0 0 1 4589.dat
1 308 0 -40 0 -1 0 0 0 -1 0 0 0 1 4589.dat
1 308 0 -64 0 -1 0 0 0 -1 0 0 0 1 4589.dat
1 308 0 -88 0 -1 0 0 0 -0.996195 -0.087156 0 -0.087156 0.996195 4589.dat
1 308 0 -111.9087 -2.0917 -1 0 0 0 -0.984808 -0.173648 0 -0.173648 0.984808 4589.dat
1 308 0 -135.5441 -6.2593 -1 0 0 0 -0.965926 -0.258819 0 -0.258819 0.965926 4589.dat
1 308 0 -158.7263 -12.471 -1 0 0 0 -0.965926 -0.258819 0 -0.258819 0.965926 4589.dat
1 423 0 -259.1825 -39.3882 -1 0 0 0 -0.965926 -0.258819 0 -0.258819 0.965926 6064b.dat
1 27 14.1039 -257.6888 -103.7428 1 0 0 0 0.642788 -0.766044 0 0.766044 0.642788 30239.dat
1 288 17.9042 -296.2784 -49.328 0 -1 0 0.965926 0 -0.258819 0.258819 0 0.965926 30340.dat
1 423 0 -297.8196 -49.7409 -1 0 0 0 -0.965926 -0.258819 0 -0.258819 0.965926 63965a.dat
1 423 0 -305.547 -51.8115 1 0 0 0 0.965926 -0.258819 0 0.258819 0.965926 4733.dat
1 288 -18.1259 -296.2784 -49.328 0 1 0 0.965926 0 0.258819 0.258819 0 -0.965926 30340.dat
1 288 -0.133 -300.4917 -31.8871 0 0 -1 0.965926 0.258819 0 0.258819 -0.965926 0 30340.dat
1 288 -0.133 -291.0085 -67.2791 0 0 1 0.965926 -0.258819 0 0.258819 0.965926 0 30340.dat
1 27 -61.876 -272.1265 -53.8798 -0.043058 0.640263 0.766948 0.373408 0.722339 -0.582059 -0.926668 0.261322 -0.270182 30239.dat
1 27 61.8156 -280.9993 -25.6777 -0.099183 -0.502496 -0.858871 -0.360939 0.822512 -0.439542 0.9273 0.266405 -0.26295 30239.dat
1 27 -19.5631 -271.7091 5.491 -0.981729 0.027244 0.188322 -0.079529 0.840362 -0.53616 -0.172866 -0.541341 -0.822841 30239.dat
1 288 -18.8297 -304.3034 16.3209 -0.981729 -0.070567 0.176714 -0.079529 0.995854 -0.044148 -0.172866 -0.057395 -0.983272 30239.dat
1 288 0 -317.1381 -54.9173 1 0 0 0 0.965926 -0.258819 0 0.258819 0.965926 32607.dat
1 288 -17.3019 -335.9047 3.6439 -0.981729 -0.159164 0.10428 -0.079529 0.841079 0.535035 -0.172866 0.516966 -0.83837 30239.dat
1 288 -11.9081 -349.7988 -33.8797 -0.994229 -0.096248 -0.047378 -0.060365 0.136859 0.98875 -0.088681 0.985904 -0.141879 30239.dat
1 288 65.0786 -313.6854 -38.0822 -0.050414 0.257123 -0.965063 -0.281938 0.923326 0.260731 0.958107 0.285233 0.025944 30239.dat
1 288 50.6878 -338.2929 -42.6641 -0.134333 0.637477 -0.758669 -0.258141 0.716662 0.647888 0.956723 0.282876 0.068287 30239.dat
1 288 14.5616 -287.5563 -116.5002 0.998117 -0.061052 -0.005903 0.059759 0.989619 -0.130702 0.013821 0.130103 0.991404 30239.dat
1 288 14.7078 -315.2083 -111.224 0.998117 -0.055351 -0.026427 0.059759 0.97464 0.21565 0.013821 -0.216823 0.976113 30239.dat
1 288 -64.8281 -312.2296 -68.4236 -0.037038 -0.189865 0.981111 0.28002 0.940481 0.192574 -0.95928 0.281863 0.018332 30239.dat
1 423 0 -259.1825 -39.3882 -1 0 0 0 -0.965926 -0.258819 0 -0.258819 0.965926 6143.dat
