0 
0 Name: New Model.ldr
0 Author: 
1 308 50 -361.9103 30.7017 1 0 0 0 1 0 0 0 1 4733.dat
1 308 50 -385.9103 30.7017 1 0 0 0 1 0 0 0 1 4733.dat
1 288 23.9747 -351.9934 30.7017 0 1 0 -1 0 0 0 0 1 24855.dat
1 288 12.0023 -351.9934 30.7017 0 1 0 -0.707107 0 -0.707107 -0.707107 0 0.707107 24855.dat
1 288 -0.2131 -351.9934 30.7017 0 1 0 0 0 -1 -1 0 0 24855.dat
1 288 76.259 -351.9934 30.8506 0 -1 0 -1 0 0 0 0 -1 24855.dat
1 288 88.2341 -351.9934 30.8506 0 -1 0 -0.707107 0 -0.707107 0.707107 0 -0.707107 24855.dat
1 288 100.6242 -351.9934 30.8506 0 -1 0 0 0 -1 1 0 0 24855.dat
1 288 50.0619 -351.9934 4.5597 0 0 -1 -1 0 0 0 1 0 24855.dat
1 288 50.0619 -351.9934 -7.473 0.707107 0 -0.707107 -0.707107 0 -0.707107 0 1 0 24855.dat
1 288 50.0619 -351.9934 -19.5695 1 0 0 0 0 -1 0 1 0 24855.dat
1 288 50.0619 -351.9934 56.9195 0 0 1 -1 0 0 0 -1 0 24855.dat
1 288 50.0619 -351.9934 69.1933 -0.707107 0 0.707107 -0.707107 0 -0.707107 0 -1 0 24855.dat
1 288 50.0619 -376.382 56.9195 -1 0 0 0 0 -1 0 -1 0 24855.dat
1 288 50.0619 -376.382 68.8017 -0.707107 0 -0.707107 0.707107 0 -0.707107 0 -1 0 24855.dat
1 288 50.0619 -351.9934 81.0403 -1 0 0 0 0 -1 0 -1 0 24855.dat
1 288 50.0619 -376.382 4.2709 1 0 0 0 0 -1 0 1 0 24855.dat
1 288 50.0619 -376.382 -7.6113 0.707107 0 0.707107 0.707107 0 -0.707107 0 1 0 24855.dat
1 288 76.3303 -376.382 31.0174 0 -1 0 0 0 -1 1 0 0 24855.dat
1 288 88.2125 -376.382 31.0174 0 -1 0 0.707107 0 -0.707107 0.707107 0 0.707107 24855.dat
1 288 24.2184 -376.382 31.0174 0 1 0 0 0 -1 -1 0 0 24855.dat
1 288 12.3361 -376.382 31.0174 0 1 0 0.707107 0 -0.707107 -0.707107 0 -0.707107 24855.dat
1 288 50 -402.6138 30.7017 1 0 0 0 1 0 0 0 1 24855.dat
1 288 50 -415.325 30.7017 0.707107 0 -0.707107 0 1 0 0.707107 0 0.707107 24855.dat
1 308 50 -158 30 0 1 0 -1 0 0 0 0 1 50451.dat
1 308 50 -338 30 1 0 0 0 1 0 0 0 1 98100.dat
1 308 49.9267 -308.968 29.5428 1 0 0 0 1 0 0 0 1 15535.dat
1 308 25.9267 -304.6882 29.5428 0 -1 0 1 0 0 0 0 1 15712.dat
1 308 73.9267 -304.6882 29.5428 0 1 0 1 0 0 0 0 -1 15712.dat
1 308 49.9267 -304.6882 5.543 0 0 -1 1 0 0 0 -1 0 15712.dat
1 308 49.9267 -304.6882 53.5428 0 0 1 1 0 0 0 1 0 15712.dat
1 308 32.5982 -304.6882 46.9705 0 -0.707107 0.707107 1 0 0 0 0.707107 0.707107 15712.dat
1 308 66.5393 -304.6882 13.0295 0 0.707107 -0.707107 1 0 0 0 -0.707107 -0.707107 15712.dat
1 308 32.5982 -304.6882 13.0295 0 -0.707107 -0.707107 1 0 0 0 -0.707107 0.707107 15712.dat
1 308 66.5393 -304.6882 46.9704 0 0.707107 0.707107 1 0 0 0 0.707107 -0.707107 15712.dat
1 0 49.9267 -304.6882 -2.4572 0 0 -1 1 0 0 0 -1 0 85861.dat
1 0 26.9413 -304.6882 7.3726 0 -0.707107 -0.707107 1 0 0 0 -0.707107 0.707107 85861.dat
1 0 17.9267 -304.6882 29.5428 0 -1 0 1 0 0 0 0 1 85861.dat
1 0 72.1962 -304.6882 7.3726 0 0.707107 -0.707107 1 0 0 0 -0.707107 -0.707107 85861.dat
1 0 81.9267 -304.6882 29.5428 0 1 0 1 0 0 0 0 -1 85861.dat
1 0 72.1962 -304.6882 52.6274 0 0.707107 0.707107 1 0 0 0 0.707107 -0.707107 85861.dat
1 0 49.9267 -304.6882 61.5428 0 0 1 1 0 0 0 1 0 85861.dat
1 0 26.9413 -304.6882 52.6275 0 -0.707107 0.707107 1 0 0 0 0.707107 0.707107 85861.dat
1 288 15.6276 -304.6882 -3.941 0 0.707107 0.707107 1 0 0 0 0.707107 -0.707107 24855.dat
1 288 7.1514 -304.6882 -12.4173 0.5 0.707107 0.5 0.707107 0 -0.707107 -0.5 0.707107 -0.5 24855.dat
1 288 49.9267 -304.6882 -21.9409 0 0 1 1 0 0 0 1 0 24855.dat
1 288 49.9267 -304.6882 -34.3139 0.707107 0 0.707107 0.707107 0 -0.707107 0 1 0 24855.dat
1 288 83.5099 -304.6882 -3.9409 0 -0.707107 0.707107 1 0 0 0 0.707107 0.707107 24855.dat
1 288 91.9921 -304.6882 -12.4233 -0.5 -0.707107 0.5 0.707107 0 0.707107 -0.5 0.707107 0.5 24855.dat
1 288 97.9267 -304.6882 29.5428 0 -1 0 1 0 0 0 0 1 24855.dat
1 288 110.0747 -304.6882 29.5428 0 -1 0 0.707107 0 0.707107 -0.707107 0 0.707107 24855.dat
1 288 83.5099 -304.6882 63.9411 0 -0.707107 -0.707107 1 0 0 0 -0.707107 0.707107 24855.dat
1 288 91.9073 -304.6882 72.3384 0.5 -0.707107 -0.5 0.707107 0 0.707107 -0.5 -0.707107 0.5 24855.dat
1 288 49.9267 -304.6882 77.5428 0 0 -1 1 0 0 0 -1 0 24855.dat
1 288 49.9267 -304.6882 89.5363 -0.707107 0 -0.707107 0.707107 0 -0.707107 0 -1 0 24855.dat
1 288 15.6276 -304.6882 63.9411 0 0.707107 -0.707107 1 0 0 0 -0.707107 -0.707107 24855.dat
1 288 7.0244 -304.6882 72.5442 -0.5 0.707107 -0.5 0.707107 0 -0.707107 -0.5 -0.707107 -0.5 24855.dat
1 288 1.9267 -304.6882 29.5428 0 1 0 1 0 0 0 0 -1 24855.dat
1 288 -10.4269 -304.6882 29.5428 0 1 0 0.707107 0 0.707107 0.707107 0 -0.707107 24855.dat
1 308 50 -294 30 1 0 0 0 1 0 0 0 1 6143.dat
1 308 49.3856 -265.7661 30.5333 0.965926 0 -0.258819 0 1 0 0.258819 0 0.965926 15535.dat
1 308 26.2034 -261.4862 24.3217 0 -0.965926 -0.258819 1 0 0 0 -0.258819 0.965926 15712.dat
1 308 72.5679 -261.4862 36.7449 0 0.965926 0.258819 1 0 0 0 0.258819 -0.965926 15712.dat
1 308 55.5973 -261.4862 7.3513 0 0.258819 -0.965926 1 0 0 0 -0.965926 -0.258819 15712.dat
1 308 43.174 -261.4862 53.7155 0 -0.258819 0.965926 1 0 0 0 0.965926 0.258819 15712.dat
1 308 28.1369 -261.4862 42.8823 0 -0.866025 0.5 1 0 0 0 0.5 0.866025 15712.dat
1 308 69.7062 -261.4862 18.8822 0 0.866025 -0.5 1 0 0 0 -0.5 -0.866025 15712.dat
1 308 36.9215 -261.4862 10.0976 0 -0.5 -0.866025 1 0 0 0 -0.866025 0.5 15712.dat
1 308 60.9216 -261.4862 51.6667 0 0.5 0.866025 1 0 0 0 0.866025 -0.5 15712.dat
1 0 57.6678 -261.4862 -0.3764 0 0.258819 -0.965926 1 0 0 0 -0.965926 -0.258819 85861.dat
1 0 32.9215 -261.4862 3.1695 0 -0.5 -0.866025 1 0 0 0 -0.866025 0.5 85861.dat
1 0 18.476 -261.4862 22.251 0 -0.965926 -0.258819 1 0 0 0 -0.258819 0.965926 85861.dat
1 0 76.6344 -261.4862 14.8824 0 0.866025 -0.5 1 0 0 0 -0.5 -0.866025 85861.dat
1 0 80.2953 -261.4862 38.8155 0 0.965926 0.258819 1 0 0 0 0.258819 -0.965926 85861.dat
1 0 64.9216 -261.4862 58.5951 0 0.5 0.866025 1 0 0 0 0.866025 -0.5 85861.dat
1 0 41.1034 -261.4862 61.4428 0 -0.258819 0.965926 1 0 0 0 0.965926 0.258819 85861.dat
1 0 21.2087 -261.4862 46.8824 0 -0.866025 0.5 1 0 0 0 0.5 0.866025 85861.dat
1 288 24.9215 -261.4862 -10.6869 0 0.5 0.866025 1 0 0 0 0.866025 -0.5 24855.dat
1 288 18.9279 -261.4862 -21.0683 0.612372 0.5 0.612373 0.707107 0 -0.707107 -0.353553 0.866025 -0.353553 24855.dat
1 288 62.7106 -261.4862 -19.1961 0 -0.258819 0.965926 1 0 0 0 0.965926 0.258819 24855.dat
1 288 65.913 -261.4862 -31.1476 0.683013 -0.258819 0.683013 0.707107 0 -0.707107 0.183013 0.965926 0.183013 24855.dat
1 288 90.4908 -261.4862 6.8824 0 -0.866025 0.5 1 0 0 0 0.5 0.866025 24855.dat
1 288 100.8794 -261.4862 0.8843 -0.353553 -0.866025 0.353553 0.707107 0 0.707107 -0.612372 0.5 0.612373 24855.dat
1 288 95.7501 -261.4862 42.9567 0 -0.965926 -0.258819 1 0 0 0 -0.258819 0.965926 24855.dat
1 288 107.4841 -261.4862 46.1008 0.183013 -0.965926 -0.183013 0.707107 0 0.707107 -0.683013 -0.258819 0.683013 24855.dat
1 288 72.9216 -261.4862 72.4514 0 -0.5 -0.866025 1 0 0 0 -0.866025 0.5 24855.dat
1 288 78.8595 -261.4862 82.736 0.612372 -0.5 -0.612373 0.707107 0 0.707107 -0.353553 -0.866025 0.353553 24855.dat
1 288 36.9623 -261.4862 76.8977 0 0.258819 -0.965926 1 0 0 0 -0.965926 -0.258819 24855.dat
1 288 33.8194 -261.4862 88.6274 -0.683013 0.258819 -0.683013 0.707107 0 -0.707107 -0.183013 -0.965926 -0.183013 24855.dat
1 288 7.3523 -261.4862 54.8822 0 0.866025 -0.5 1 0 0 0 -0.5 -0.866025 24855.dat
1 288 -3.1844 -261.4862 60.9655 -0.353553 0.866025 -0.353553 0.707107 0 -0.707107 -0.612372 -0.5 -0.612373 24855.dat
1 288 3.0212 -261.4862 18.11 0 0.965926 0.258819 1 0 0 0 0.258819 -0.965926 24855.dat
1 288 -8.9115 -261.4862 14.9127 -0.183013 0.965926 0.183013 0.707107 0 0.707107 0.683013 0.258819 -0.683013 24855.dat
1 288 12.885 -261.4862 -31.5349 0 0.5 0.866025 1 0 0 0 0.866025 -0.5 24855.dat
1 288 69.0772 -261.4862 -42.9568 0.965926 -0.258819 0 0 0 -1 0.258819 0.965926 0 24855.dat
1 288 111.3507 -261.4862 -5.1611 0 -0.866025 0.5 1 0 0 0 0.5 0.866025 24855.dat
1 288 119.1147 -261.4862 49.2172 0 -0.965926 -0.258819 1 0 0 0 -0.258819 0.965926 24855.dat
1 288 84.9492 -261.4862 93.2833 -0.866025 -0.5 0 0 0 -1 0.5 -0.866025 0 24855.dat
1 288 30.7086 -261.4862 100.237 -0.965926 0.258819 0 0 0 -1 -0.258819 -0.965926 0 24855.dat
1 288 -13.6213 -261.4862 66.9911 -0.5 0.866025 0 0 0 -1 -0.866025 -0.5 0 24855.dat
1 288 -20.3922 -261.4862 11.8364 0 0.965926 0.258819 1 0 0 0 0.258819 -0.965926 24855.dat
1 308 50 -254 30 1 0 0 0 1 0 0 0 1 6143.dat
1 308 49.7784 -224.9858 29.7783 -0.965926 0 -0.258819 0 1 0 0.258819 0 -0.965926 15535.dat
1 308 72.9606 -220.7059 23.5666 0 0.965926 -0.258819 1 0 0 0 -0.258819 -0.965926 15712.dat
1 308 26.5962 -220.7059 35.9899 0 -0.965926 0.258819 1 0 0 0 0.258819 0.965926 15712.dat
1 308 55.99 -220.7059 52.9604 0 0.258819 0.965926 1 0 0 0 0.965926 -0.258819 15712.dat
1 308 43.5667 -220.7059 6.596 0 -0.258819 -0.965926 1 0 0 0 -0.965926 0.258819 15712.dat
1 308 62.0058 -220.7059 8.4594 0 0.5 -0.866025 1 0 0 0 -0.866025 -0.5 15712.dat
1 308 38.0058 -220.7059 50.0285 0 -0.5 0.866025 1 0 0 0 0.866025 0.5 15712.dat
1 308 70.7904 -220.7059 41.2439 0 0.866025 0.5 1 0 0 0 0.5 -0.866025 15712.dat
1 308 29.2212 -220.7059 17.2443 0 -0.866025 -0.5 1 0 0 0 -0.5 0.866025 15712.dat
1 0 58.0606 -220.7059 60.6877 0 0.258819 0.965926 1 0 0 0 0.965926 -0.258819 85861.dat
1 0 77.7186 -220.7059 45.2439 0 0.866025 0.5 1 0 0 0 0.5 -0.866025 85861.dat
1 0 80.688 -220.7059 21.4961 0 0.965926 -0.258819 1 0 0 0 -0.258819 -0.965926 85861.dat
1 0 34.0057 -220.7059 56.9566 0 -0.5 0.866025 1 0 0 0 0.866025 0.5 85861.dat
1 0 18.8687 -220.7059 38.0605 0 -0.965926 0.258819 1 0 0 0 0.258819 0.965926 85861.dat
1 0 22.293 -220.7059 13.244 0 -0.866025 -0.5 1 0 0 0 -0.5 0.866025 85861.dat
1 0 41.4962 -220.7059 -1.1314 0 -0.258819 -0.965926 1 0 0 0 -0.965926 0.258819 85861.dat
1 0 66.0059 -220.7059 1.5311 0 0.5 -0.866025 1 0 0 0 -0.866025 -0.5 85861.dat
1 288 91.5751 -220.7059 53.244 0 -0.866025 -0.5 1 0 0 0 -0.5 0.866025 24855.dat
1 288 101.9563 -220.7059 59.2375 -0.353553 -0.866025 -0.353554 0.707107 0 -0.707107 0.612372 -0.5 0.612373 24855.dat
1 288 63.1034 -220.7059 79.5075 0 -0.258819 -0.965926 1 0 0 0 -0.965926 0.258819 24855.dat
1 288 66.3057 -220.7059 91.4591 -0.683013 -0.258819 -0.683013 0.707107 0 -0.707107 0.183013 -0.965926 0.183013 24855.dat
1 288 26.0057 -220.7059 70.8129 0 0.5 -0.866025 1 0 0 0 -0.866025 -0.5 24855.dat
1 288 20.0079 -220.7059 81.2017 0.612372 0.5 -0.612373 0.707107 0 0.707107 0.353553 -0.866025 -0.353554 24855.dat
1 288 3.4139 -220.7059 42.2016 0 0.965926 -0.258819 1 0 0 0 -0.258819 -0.965926 24855.dat
1 288 -8.3202 -220.7059 45.3457 0.183013 0.965926 -0.183013 0.707107 0 0.707107 0.683013 -0.258819 -0.683013 24855.dat
1 288 8.4365 -220.7059 5.2441 0 0.866025 0.5 1 0 0 0 0.5 -0.866025 24855.dat
1 288 -1.8481 -220.7059 -0.6937 -0.353553 0.866025 0.353554 0.707107 0 0.707107 0.612372 0.5 -0.612373 24855.dat
1 288 37.3551 -220.7059 -16.5863 0 0.258819 0.965926 1 0 0 0 0.965926 -0.258819 24855.dat
1 288 34.2122 -220.7059 -28.3159 0.683013 0.258819 0.683013 0.707107 0 -0.707107 -0.183013 0.965926 -0.183013 24855.dat
1 288 74.0059 -220.7059 -12.3252 0 -0.5 0.866025 1 0 0 0 0.866025 0.5 24855.dat
1 288 80.0893 -220.7059 -22.8619 0.612372 -0.5 0.612373 0.707107 0 -0.707107 0.353553 0.866025 0.353554 24855.dat
1 288 96.1429 -220.7059 17.3549 0 -0.965926 0.258819 1 0 0 0 0.258819 0.965926 24855.dat
1 288 108.0755 -220.7059 14.1576 -0.183013 -0.965926 0.183013 0.707107 0 0.707107 -0.683013 0.258819 0.683013 24855.dat
1 288 112.423 -220.7059 65.2802 0 -0.866025 -0.5 1 0 0 0 -0.5 0.866025 24855.dat
1 288 69.4699 -220.7059 103.268 -0.965926 -0.258819 0 0 0 -1 0.258819 -0.965926 0 24855.dat
1 288 13.9623 -220.7059 91.6729 0 0.5 -0.866025 1 0 0 0 -0.866025 -0.5 24855.dat
1 288 -19.9507 -220.7059 48.4621 0 0.965926 -0.258819 1 0 0 0 -0.258819 -0.965926 24855.dat
1 288 -12.3956 -220.7059 -6.7832 0.5 0.866025 0 0 0 -1 -0.866025 0.5 0 24855.dat
1 288 31.1013 -220.7059 -39.9257 0.965926 0.258819 0 0 0 -1 -0.258819 0.965926 0 24855.dat
1 288 86.1152 -220.7059 -33.2987 0.866025 -0.5 0 0 0 -1 0.5 0.866025 0 24855.dat
1 288 119.5563 -220.7059 11.0813 0 -0.965926 0.258819 1 0 0 0 0.258819 0.965926 24855.dat
1 288 92.1569 -220.7059 -43.763 0.612372 -0.5 -0.612373 -0.707107 0 -0.707107 0.353553 0.866025 -0.353554 24855.dat
1 288 131.2512 -220.7059 7.9477 0.183013 -0.965926 0.183013 0.707107 0 -0.707107 0.683013 0.258819 0.683013 24855.dat
1 288 122.8991 -220.7059 71.3287 -0.353553 -0.866025 -0.353554 0.707107 0 -0.707107 0.612372 -0.5 0.612373 24855.dat
1 288 72.552 -220.7059 114.7703 -0.683013 -0.258819 -0.683013 0.707107 0 -0.707107 0.183013 -0.965926 0.183013 24855.dat
1 288 7.9485 -220.7059 102.0889 -0.612372 0.5 -0.612373 0.707107 0 -0.707107 -0.353553 -0.866025 -0.353554 24855.dat
1 288 -31.562 -220.7059 51.5734 -0.183013 0.965926 -0.183013 0.707107 0 -0.707107 -0.683013 -0.258819 -0.683013 24855.dat
1 288 -22.8316 -220.7059 -12.8083 0.353553 0.866025 0.353554 0.707107 0 -0.707107 -0.612372 0.5 -0.612373 24855.dat
1 288 28.0006 -220.7059 -51.4975 0.683013 0.258819 -0.683013 -0.707107 0 -0.707107 -0.183013 0.965926 0.183013 24855.dat
1 308 50 -211.693 30 1 0 0 0 1 0 0 0 1 6143.dat
1 308 50 -24 30 1 0 0 0 1 0 0 0 1 6143.dat
1 308 50 -48 30 1 0 0 0 1 0 0 0 1 6143.dat
1 308 49.0933 -184 29.6034 -0.5 0 0.866025 0 1 0 -0.866025 0 -0.5 15535.dat
1 308 61.0934 -179.7201 50.3881 0 0.5 0.866025 1 0 0 0 0.866025 -0.5 15712.dat
1 308 37.0933 -179.7201 8.8186 0 -0.5 -0.866025 1 0 0 0 -0.866025 0.5 15712.dat
1 308 28.3087 -179.7201 41.6034 0 -0.866025 0.5 1 0 0 0 0.5 0.866025 15712.dat
1 308 69.878 -179.7201 17.6032 0 0.866025 -0.5 1 0 0 0 -0.5 -0.866025 15712.dat
1 308 72.8506 -179.7201 35.8964 0 0.965926 0.258819 1 0 0 0 0.258819 -0.965926 15712.dat
1 308 26.486 -179.7201 23.473 0 -0.965926 -0.258819 1 0 0 0 -0.258819 0.965926 15712.dat
1 308 43.4566 -179.7201 52.867 0 -0.258819 0.965926 1 0 0 0 0.965926 0.258819 15712.dat
1 308 55.8798 -179.7201 6.5025 0 0.258819 -0.965926 1 0 0 0 -0.965926 -0.258819 15712.dat
1 0 21.3804 -179.7201 45.6034 0 -0.866025 0.5 1 0 0 0 0.5 0.866025 85861.dat
1 0 41.3861 -179.7201 60.5945 0 -0.258819 0.965926 1 0 0 0 0.965926 0.258819 85861.dat
1 0 65.0934 -179.7201 57.3162 0 0.5 0.866025 1 0 0 0 0.866025 -0.5 85861.dat
1 0 18.7586 -179.7201 21.4024 0 -0.965926 -0.258819 1 0 0 0 -0.258819 0.965926 85861.dat
1 0 33.0933 -179.7201 1.8905 0 -0.5 -0.866025 1 0 0 0 -0.866025 0.5 85861.dat
1 0 57.9505 -179.7201 -1.225 0 0.258819 -0.965926 1 0 0 0 -0.965926 -0.258819 85861.dat
1 0 76.8063 -179.7201 13.6032 0 0.866025 -0.5 1 0 0 0 -0.5 -0.866025 85861.dat
1 0 80.578 -179.7201 37.9669 0 0.965926 0.258819 1 0 0 0 0.258819 -0.965926 85861.dat
1 288 37.2449 -179.7201 76.0493 0 0.258819 -0.965926 1 0 0 0 -0.965926 -0.258819 24855.dat
1 288 34.1423 -179.7201 87.6281 -0.683012 0.258819 -0.683013 0.707107 -0 -0.707106 -0.183012 -0.965926 -0.183013 24855.dat
1 288 4.507 -179.7201 55.3453 0 0.866025 -0.5 1 0 0 0 -0.5 -0.866025 24855.dat
1 288 -6.2084 -179.7201 61.5318 -0.353553 0.866026 -0.353553 0.707107 0 -0.707106 -0.612372 -0.5 -0.612373 24855.dat
1 288 3.3039 -179.7201 17.2613 0 0.965926 0.258819 1 0 0 0 0.258819 -0.965926 24855.dat
1 288 -8.2834 -179.7201 14.1567 -0.183012 0.965926 0.183013 0.707107 0 0.707106 0.683012 0.258819 -0.683013 24855.dat
1 288 25.0932 -179.7201 -11.966 0 0.5 0.866025 1 0 0 0 0.866025 -0.5 24855.dat
1 288 19.0193 -179.7201 -22.4865 -0.612372 0.5 0.612373 0.707107 -0 0.707106 0.353553 0.866026 -0.353553 24855.dat
1 288 62.0915 -179.7201 -16.6799 0 -0.258819 0.965926 1 0 0 0 0.965926 0.258819 24855.dat
1 288 65.1651 -179.7201 -28.1509 -0.683012 -0.258819 0.683013 0.707107 0 0.707106 -0.183012 0.965926 0.183013 24855.dat
1 288 90.6629 -179.7201 5.6031 0 -0.866025 0.5 1 0 0 0 0.5 0.866025 24855.dat
1 288 101.1793 -179.7201 -0.4684 0.353553 -0.866026 0.353553 0.707107 0 -0.707106 0.612372 0.5 0.612373 24855.dat
1 288 96.0328 -179.7201 42.1082 0 -0.965926 -0.258819 1 0 0 0 -0.258819 0.965926 24855.dat
1 288 107.7849 -179.7201 45.2571 -0.183012 -0.965926 -0.183013 0.707107 -0 -0.707106 0.683012 -0.258819 0.683013 24855.dat
1 288 73.0934 -179.7201 71.1726 0 -0.5 -0.866025 1 0 0 0 -0.866025 0.5 24855.dat
1 288 79.2702 -179.7201 81.8712 0.612372 -0.5 -0.612373 0.707107 -0 0.707106 -0.353553 -0.866026 0.353553 24855.dat
1 288 31.0144 -179.7201 99.3021 0 0.258819 -0.965926 1 0 0 0 -0.965926 -0.258819 24855.dat
1 288 -16.7962 -179.7201 67.6447 -0.5 0.866025 0 0 0 -1 -0.866025 -0.5 0 24855.dat
1 288 -19.9625 -179.7201 11.0272 0 0.965926 0.258819 1 0 0 0 0.258819 -0.965926 24855.dat
1 288 12.9988 -179.7201 -32.9142 0 0.5 0.866025 1 0 0 0 0.866025 -0.5 24855.dat
1 288 68.3172 -179.7201 -39.915 0.965926 -0.258819 0 0 0 -1 0.258819 0.965926 0 24855.dat
1 288 111.5882 -179.7201 -6.4781 0.5 -0.866025 0 0 0 -1 0.866025 0.5 0 24855.dat
1 288 119.4257 -179.7201 48.3764 -0.258819 -0.965926 0 0 0 -1 0.965926 -0.258819 0 24855.dat
1 288 85.2132 -179.7201 92.1646 0 -0.5 -0.866025 1 0 0 0 -0.866025 0.5 24855.dat
1 288 131.0971 -179.7201 51.5038 -0.183012 -0.965926 0.183013 -0.707107 0 -0.707106 0.683012 -0.258819 -0.683013 24855.dat
1 288 91.2668 -179.7201 102.6499 -0.612372 -0.5 -0.612373 0.707107 0 -0.707106 0.353553 -0.866026 0.353553 24855.dat
1 288 27.8836 -179.7201 110.9867 -0.683012 0.258819 -0.683013 0.707107 -0 -0.707106 -0.183012 -0.965926 -0.183013 24855.dat
1 288 -27.1087 -179.7201 73.5986 -0.353553 0.866026 -0.353553 0.707107 0 -0.707106 -0.612372 -0.5 -0.612373 24855.dat
1 288 -31.58 -179.7201 7.9142 0.183012 0.965926 0.183013 0.707107 -0 -0.707106 -0.683012 0.258819 -0.683013 24855.dat
1 288 6.9885 -179.7201 -43.3246 0.612372 0.5 0.612373 0.707107 0 -0.707106 -0.353553 0.866026 -0.353553 24855.dat
1 288 71.4359 -179.7201 -51.5549 0.683012 -0.258819 0.683013 0.707107 -0 -0.707106 0.183012 0.965926 0.183013 24855.dat
1 288 121.9632 -179.7201 -12.4681 0.353553 -0.866026 -0.353553 -0.707107 -0 -0.707106 0.612372 0.5 -0.612373 24855.dat
1 288 142.9125 -179.7201 54.67 -0.258819 -0.965926 0 -0.000001 0 -1 0.965926 -0.258819 -0.000001 24855.dat
1 288 97.2925 -179.7201 113.0869 0 -0.5 -0.866025 1 0 0 0 -0.866025 0.5 24855.dat
1 288 24.7039 -179.7201 122.8541 -0.965926 0.258819 0 0 0 -1 -0.258819 -0.965926 0 24855.dat
1 288 -37.5501 -179.7201 79.627 -0.5 0.866025 0 0 0 -1 -0.866025 -0.5 0 24855.dat
1 288 -43.0987 -179.7201 4.8276 0.258819 0.965926 0 0 0 -1 -0.965926 0.258819 0 24855.dat
1 288 0.8883 -179.7201 -53.8901 0.866025 0.5 0 0 0 -1 -0.5 0.866025 0 24855.dat
1 288 74.5797 -179.7201 -63.2877 0.965926 -0.258819 0 0 0 -1 0.258819 0.965926 0 24855.dat
1 288 132.4065 -179.7201 -18.4976 0 -0.866025 -0.5 -1 0 0 0 0.5 -0.866025 24855.dat
1 308 50 -171.693 30 1 0 0 0 1 0 0 0 1 6143.dat
1 308 49.3263 -144 29.7494 0.707107 0 0.707107 0 1 0 -0.707107 0 0.707107 15535.dat
1 308 32.3558 -139.7201 46.72 0 -0.707107 0.707107 1 0 0 0 0.707107 0.707107 15712.dat
1 308 66.2969 -139.7201 12.7788 0 0.707107 -0.707107 1 0 0 0 -0.707107 -0.707107 15712.dat
1 308 32.3558 -139.7201 12.7789 0 -0.707107 -0.707107 1 0 0 0 -0.707107 0.707107 15712.dat
1 308 66.2969 -139.7201 46.72 0 0.707107 0.707107 1 0 0 0 0.707107 -0.707107 15712.dat
1 308 49.3965 -139.7201 54.3258 0 0 1 1 0 0 0 1 -0 15712.dat
1 308 49.3965 -139.7201 6.3258 0 -0 -1 1 0 0 0 -1 0 15712.dat
1 308 25.3965 -139.7201 30.3258 0 -1 0 1 0 0 0 0 1 15712.dat
1 308 73.3964 -139.7201 30.3257 0 1 -0 1 0 0 0 -0 -1 15712.dat
1 0 26.6989 -139.7201 7.122 0 -0.707107 -0.707107 1 0 0 0 -0.707107 0.707107 85861.dat
1 0 17.3965 -139.7201 30.3259 0 -1 0 1 0 0 0 0 1 85861.dat
1 0 26.6989 -139.7201 52.3768 0 -0.707107 0.707107 1 0 0 0 0.707107 0.707107 85861.dat
1 0 49.3966 -139.7201 -1.6742 0 -0 -1 1 0 0 0 -1 0 85861.dat
1 0 71.9538 -139.7201 7.122 0 0.707107 -0.707107 1 0 0 0 -0.707107 -0.707107 85861.dat
1 0 81.3965 -139.7201 30.3257 0 1 -0 1 0 0 0 -0 -1 85861.dat
1 0 71.9538 -139.7201 52.3768 0 0.707107 0.707107 1 0 0 0 0.707107 -0.707107 85861.dat
1 0 49.3965 -139.7201 62.3259 0 0 1 1 0 0 0 1 -0 85861.dat
1 288 1.3964 -139.7201 30.3258 0 1 -0 1 0 0 0 -0 -1 24855.dat
1 288 -10.5908 -139.7201 30.3257 0 1 0 0.707107 -0 -0.707107 -0.707107 0 -0.707107 24855.dat
1 288 12.9219 -139.7201 -6.655 0 0.707107 0.707107 1 0 0 0 0.707107 -0.707107 24855.dat
1 288 4.1727 -139.7201 -15.4042 0.5 0.707107 0.5 0.707107 -0 -0.707107 -0.5 0.707107 -0.5 24855.dat
1 288 49.3967 -139.7201 -17.6741 0 0 1 1 0 0 0 1 -0 24855.dat
1 288 49.3964 -139.7201 -29.67 -0.707107 -0 0.707107 0.707107 0 0.707107 -0 1 0 24855.dat
1 288 83.2675 -139.7201 -4.1917 0 -0.707107 0.707107 1 0 0 0 0.707107 0.707107 24855.dat
1 288 91.8574 -139.7201 -12.7817 -0.5 -0.707107 0.5 0.707107 0 0.707107 -0.5 0.707107 0.5 24855.dat
1 288 97.3965 -139.7201 30.3257 0 -1 0 1 0 0 0 0 1 24855.dat
1 288 109.2722 -139.7201 30.3257 0 -1 0 0.707107 0 0.707107 -0.707107 -0 0.707107 24855.dat
1 288 83.2675 -139.7201 63.6906 0 -0.707107 -0.707107 1 0 0 0 -0.707107 0.707107 24855.dat
1 288 91.8542 -139.7201 72.2773 -0.5 -0.707107 -0.5 0.707107 -0 -0.707107 0.5 -0.707107 0.5 24855.dat
1 288 49.3965 -139.7201 78.3258 0 -0 -1 1 0 0 0 -1 0 24855.dat
1 288 49.3964 -139.7201 90.4925 -0.707107 0 -0.707107 0.707107 -0 -0.707107 -0 -1 0 24855.dat
1 288 15.3852 -139.7201 63.6905 0 0.707107 -0.707107 1 0 0 0 -0.707107 -0.707107 24855.dat
1 288 6.6499 -139.7201 72.4259 0.5 0.707107 -0.5 0.707107 0 0.707107 0.5 -0.707107 -0.5 24855.dat
1 288 -22.6766 -139.7201 30.3259 0 1 -0 1 0 0 0 -0 -1 24855.dat
1 288 -4.4721 -139.7201 -24.0489 0.707107 0.707107 0 0 0 -1 -0.707107 0.707107 0 24855.dat
1 288 49.3966 -139.7201 -41.761 0 0 1 1 0 0 0 1 -0 24855.dat
1 288 100.3715 -139.7201 -21.2958 0 -0.707107 0.707107 1 0 0 0 0.707107 0.707107 24855.dat
1 288 121.4513 -139.7201 30.3255 0 -1 0 0 0 -1 1 0 0 24855.dat
1 288 100.3531 -139.7201 80.7762 -0.707107 -0.707107 0 0 0 -1 0.707107 -0.707107 0 24855.dat
1 288 49.3963 -139.7201 102.5439 -1 -0 0 0 0 -1 0 -1 0 24855.dat
1 288 -1.7546 -139.7201 80.8303 0 0.707107 -0.707107 1 0 0 0 -0.707107 -0.707107 24855.dat
1 288 49.3961 -139.7201 114.6271 -0.707107 0 0.707107 -0.707107 0 -0.707107 -0 -1 0 24855.dat
1 288 -10.3158 -139.7201 89.3915 -0.5 0.707107 -0.5 0.707107 -0 -0.707107 -0.5 -0.707107 -0.5 24855.dat
1 288 -34.7734 -139.7201 30.3259 0 1 0 0.707107 -0 -0.707107 -0.707107 0 -0.707107 24855.dat
1 288 -12.8922 -139.7201 -32.4691 0.5 0.707107 0.5 0.707107 -0 -0.707107 -0.5 0.707107 -0.5 24855.dat
1 288 49.3966 -139.7201 -53.7885 0.707107 -0 0.707107 0.707107 -0 -0.707107 0 1 0 24855.dat
1 288 108.8716 -139.7201 -29.7958 0.5 -0.707107 0.5 0.707107 -0 -0.707107 0.5 0.707107 0.5 24855.dat
1 288 133.5016 -139.7201 30.3254 -0 -1 0 0.707107 -0 -0.707107 0.707107 -0 0.707107 24855.dat
1 288 108.8242 -139.7201 89.2473 -0.5 -0.707107 0.5 -0.707107 0 -0.707107 0.5 -0.707107 -0.5 24855.dat
1 288 49.396 -139.7201 126.8592 -1 -0 0.000001 -0.000001 0 -1 0 -1 -0 24855.dat
1 288 -18.8373 -139.7201 97.9131 0 0.707107 -0.707107 1 0 0 0 -0.707107 -0.707107 24855.dat
1 288 -47.0592 -139.7201 30.3261 -0 1 0 0 0 -1 -1 -0 0 24855.dat
1 288 -21.4174 -139.7201 -40.9943 0.707107 0.707107 0 0 0 -1 -0.707107 0.707107 0 24855.dat
1 288 49.3967 -139.7201 -65.7135 1 0 0 0 0 -1 -0 1 0 24855.dat
1 288 117.4981 -139.7201 -38.4224 0.707107 -0.707107 0 0 0 -1 0.707107 0.707107 0 24855.dat
1 288 145.6483 -139.7201 30.3253 0 -1 0 0 0 -1 1 0 0 24855.dat
1 288 117.351 -139.7201 97.7741 0 -0.707107 0.707107 -1 0 0 0 -0.707107 -0.707107 24855.dat
1 288 49.3958 -139.7201 138.8017 0.000001 -0 1 -1 -0 0.000001 -0 -1 -0 24855.dat
1 288 -27.3 -139.7201 106.3757 -0.5 0.707107 -0.5 0.707107 -0 -0.707107 -0.5 -0.707107 -0.5 24855.dat
1 288 -59.2212 -139.7201 30.3262 0 1 0 -0.707107 0 -0.707107 -0.707107 0 0.707107 24855.dat
1 288 -29.9021 -139.7201 -49.479 0.5 0.707107 -0.5 -0.707107 0 -0.707107 -0.5 0.707107 0.5 24855.dat
1 288 49.397 -139.7201 -77.7898 0.707107 -0 -0.707107 -0.707107 0 -0.707107 0 1 0 24855.dat
1 288 126.1261 -139.7201 -47.0504 0.5 -0.707107 -0.5 -0.707107 0 -0.707107 0.5 0.707107 -0.5 24855.dat
1 288 157.679 -139.7201 30.3252 -0 -1 0 -0.707107 0 -0.707107 0.707107 -0 -0.707107 24855.dat
1 288 126.1772 -139.7201 106.6003 -0.5 -0.707107 0.5 -0.707107 0 -0.707107 0.5 -0.707107 -0.5 24855.dat
1 308 50 -131.693 30 1 0 0 0 1 0 0 0 1 6143.dat
1 308 50.0306 -103.0941 30.0089 0.866025 0 -0.5 0 1 0 0.5 0 0.866025 15535.dat
1 308 29.246 -98.8142 18.0089 0 -0.866025 -0.5 1 0 0 0 -0.5 0.866025 15712.dat
1 308 70.8152 -98.8142 42.0089 0 0.866025 0.5 1 0 0 0 0.5 -0.866025 15712.dat
1 308 62.0306 -98.8142 9.2244 0 0.5 -0.866025 1 0 0 0 -0.866025 -0.5 15712.dat
1 308 38.0306 -98.8142 50.7935 0 -0.5 0.866025 1 0 0 0 0.866025 0.5 15712.dat
1 308 26.3098 -98.8142 36.4376 0 -0.965926 0.258819 1 0 0 0 0.258819 0.965926 15712.dat
1 308 72.6742 -98.8142 24.0143 0 0.965926 -0.258819 1 0 0 0 -0.258819 -0.965926 15712.dat
1 308 43.2803 -98.8142 7.0437 0 -0.258819 -0.965926 1 0 0 0 -0.965926 0.258819 15712.dat
1 308 55.7038 -98.8142 53.408 0 0.258819 0.965926 1 0 0 0 0.965926 -0.258819 15712.dat
1 0 66.0306 -98.8142 2.2961 0 0.5 -0.866025 1 0 0 0 -0.866025 -0.5 85861.dat
1 0 41.2097 -98.8142 -0.6837 0 -0.258819 -0.965926 1 0 0 0 -0.965926 0.258819 85861.dat
1 0 22.3178 -98.8142 14.0089 0 -0.866025 -0.5 1 0 0 0 -0.5 0.866025 85861.dat
1 0 80.4016 -98.8142 21.9438 0 0.965926 -0.258819 1 0 0 0 -0.258819 -0.965926 85861.dat
1 0 77.7434 -98.8142 46.009 0 0.866025 0.5 1 0 0 0 0.5 -0.866025 85861.dat
1 0 57.7743 -98.8142 61.1356 0 0.258819 0.965926 1 0 0 0 0.965926 -0.258819 85861.dat
1 0 34.0306 -98.8142 57.7218 0 -0.5 0.866025 1 0 0 0 0.866025 0.5 85861.dat
1 0 18.5823 -98.8142 38.5081 0 -0.965926 0.258819 1 0 0 0 0.258819 0.965926 85861.dat
1 288 37.0687 -98.8142 -16.1385 0 0.258819 0.965926 1 0 0 0 0.965926 -0.258819 24855.dat
1 288 33.9662 -98.8142 -27.7173 0.683013 0.258819 0.683013 0.707107 0 -0.707107 -0.183013 0.965926 -0.183013 24855.dat
1 288 75.7725 -98.8142 -14.5773 0 -0.5 0.866025 1 0 0 0 0.866025 0.5 24855.dat
1 288 81.959 -98.8142 -25.2927 0.612372 -0.5 0.612372 0.707107 0 -0.707107 0.353553 0.866025 0.353553 24855.dat
1 288 95.8564 -98.8142 17.8028 0 -0.965926 0.258819 1 0 0 0 0.258819 0.965926 24855.dat
1 288 107.4435 -98.8142 14.6978 -0.183013 -0.965926 0.183013 0.707107 -0 0.707107 -0.683013 0.258819 0.683013 24855.dat
1 288 91.5999 -98.8142 54.0089 0 -0.866025 -0.5 1 0 0 0 -0.5 0.866025 24855.dat
1 288 102.1203 -98.8142 60.0829 0.353553 -0.866025 -0.353553 0.707107 -0 0.707107 -0.612372 -0.5 0.612372 24855.dat
1 288 61.9154 -98.8142 76.5903 0 -0.258819 -0.965926 1 0 0 0 -0.965926 0.258819 24855.dat
1 288 64.9891 -98.8142 88.0613 0.683013 -0.258819 -0.683013 0.707107 -0 0.707107 -0.183013 -0.965926 0.183013 24855.dat
1 288 26.0306 -98.8142 71.5782 0 0.5 -0.866025 1 0 0 0 -0.866025 -0.5 24855.dat
1 288 19.9589 -98.8142 82.0947 -0.612372 0.5 -0.612372 0.707107 0 -0.707107 -0.353553 -0.866025 -0.353553 24855.dat
1 288 3.1276 -98.8142 42.6491 0 0.965926 -0.258819 1 0 0 0 -0.258819 -0.965926 24855.dat
1 288 -8.6246 -98.8142 45.7981 -0.183013 0.965926 -0.183013 0.707107 0 -0.707107 -0.683013 -0.258819 -0.683013 24855.dat
1 288 8.4614 -98.8142 6.0089 0 0.866025 0.5 1 0 0 0 0.5 -0.866025 24855.dat
1 288 -2.2371 -98.8142 -0.1679 -0.353553 0.866025 0.353553 0.707107 -0 0.707107 0.612372 0.5 -0.612372 24855.dat
1 288 30.8381 -98.8142 -39.3913 0 0.258819 0.965926 1 0 0 0 0.965926 -0.258819 24855.dat
1 288 88.0718 -98.8142 -35.8804 0.866025 -0.5 0 0 0 -1 0.5 0.866025 0 24855.dat
1 288 119.1226 -98.8142 11.5685 0 -0.965926 0.258819 1 0 0 0 0.258819 0.965926 24855.dat
1 288 112.548 -98.8142 66.1033 0 -0.866025 -0.5 1 0 0 0 -0.5 0.866025 24855.dat
1 288 68.1414 -98.8142 99.8254 -0.965926 -0.258819 0 0 0 -1 0.258819 -0.965926 0 24855.dat
1 288 13.9493 -98.8142 92.5037 -0.866025 0.5 0 0 0 -1 -0.5 -0.866025 0 24855.dat
1 288 -20.2654 -98.8142 48.9171 -0.258819 0.965926 0 0 0 -1 -0.965926 -0.258819 0 24855.dat
1 288 -12.5305 -98.8142 -6.1107 0 0.866025 0.5 1 0 0 0 0.5 -0.866025 24855.dat
1 288 -31.9368 -98.8142 52.0443 -0.183013 0.965926 0.183013 -0.707107 -0 -0.707107 -0.683013 -0.258819 0.683013 24855.dat
1 288 -23.0158 -98.8142 -12.1644 0.353553 0.866025 0.353553 0.707107 0 -0.707107 -0.612372 0.5 -0.612372 24855.dat
1 288 27.7071 -98.8142 -51.0759 0.683013 0.258819 0.683013 0.707107 0 -0.707107 -0.183013 0.965926 -0.183013 24855.dat
1 288 94.0258 -98.8142 -46.1929 0.612372 -0.5 0.612372 0.707107 0 -0.707107 0.353553 0.866025 0.353553 24855.dat
1 288 130.7402 -98.8142 8.4557 0.183013 -0.965926 0.183013 0.707107 0 -0.707107 0.683013 0.258819 0.683013 24855.dat
1 288 122.9584 -98.8142 72.1138 -0.353553 -0.866025 -0.353553 0.707107 0 -0.707107 0.612372 -0.5 0.612372 24855.dat
1 288 71.2604 -98.8142 111.4651 -0.683013 -0.258819 -0.683013 0.707107 0 -0.707107 0.183013 -0.965926 0.183013 24855.dat
1 288 7.9593 -98.8142 102.8787 -0.612372 0.5 0.612372 -0.707107 -0 -0.707107 -0.353553 -0.866025 0.353553 24855.dat
1 288 -43.7522 -98.8142 55.2101 -0.258819 0.965926 0 -0.000001 0 -1 -0.965926 -0.258819 0.000001 24855.dat
1 288 -33.4525 -98.8142 -18.1901 0 0.866025 0.5 1 0 0 0 0.5 -0.866025 24855.dat
1 288 24.5272 -98.8142 -62.9431 0.965926 0.258819 0 0 0 -1 -0.258819 0.965926 0 24855.dat
1 288 100.054 -98.8142 -56.6341 0.866025 -0.5 0 0 0 -1 0.5 0.866025 0 24855.dat
1 288 142.259 -98.8142 5.3693 0.258819 -0.965926 0 0 0 -1 0.965926 0.258819 0 24855.dat
1 288 133.5237 -98.8142 78.2137 -0.5 -0.866025 0 0 0 -1 0.866025 -0.5 0 24855.dat
1 288 74.4043 -98.8142 123.1978 -0.965926 -0.258819 0 0 0 -1 0.258819 -0.965926 0 24855.dat
1 288 1.9299 -98.8142 113.3218 0 0.5 0.866025 -1 0 0 0 -0.866025 0.5 24855.dat
1 288 -55.2878 -98.8142 58.3009 0 0.965926 0.258819 -1 0 0.000001 0.000001 -0.258819 0.965926 24855.dat
1 288 -43.817 -98.8142 -24.174 0.353553 0.866025 0.353553 0.707107 0 -0.707107 -0.612372 0.5 -0.612372 24855.dat
1 288 21.3793 -98.8142 -74.6906 0.683013 0.258819 -0.683013 -0.707107 -0 -0.707107 -0.183013 0.965926 0.183013 24855.dat
1 288 106.0536 -98.8142 -67.0257 0.612372 -0.5 -0.612372 -0.707107 -0 -0.707107 0.353553 0.866025 -0.353553 24855.dat
1 288 153.9238 -98.8142 2.244 0.183013 -0.965926 -0.183013 -0.707107 -0 -0.707107 0.683013 0.258819 -0.683013 24855.dat
1 288 144.0908 -98.8142 84.3146 -0.353553 -0.866025 0.353553 -0.707107 -0 -0.707107 0.612372 -0.5 -0.612372 24855.dat
1 288 77.5182 -98.8142 134.8186 -0.683013 -0.258819 0.683013 -0.707107 -0 -0.707107 0.183013 -0.965926 -0.183013 24855.dat
1 288 -4.3112 -98.8142 124.1317 -0.612372 0.5 0.612372 -0.707107 -0 -0.707107 -0.353553 -0.866025 0.353553 24855.dat
1 288 -66.9239 -98.8142 61.4186 0.183013 0.965926 0.183012 -0.707106 0 0.707108 0.683014 -0.258819 0.683012 24855.dat
1 288 -54.1718 -98.8142 -30.1524 0.5 0.866025 0 0 0 -1 -0.866025 0.5 0 24855.dat
1 288 18.2175 -98.8142 -86.49 0 0.258819 -0.965926 -1 0 0 0 0.965926 0.258819 24855.dat
1 288 112.0451 -98.8142 -77.4033 0 -0.5 -0.866025 -1 0 0 0 0.866025 -0.5 24855.dat
1 288 165.4416 -98.8142 -0.8421 0 -0.965926 -0.258819 -1 0 0 0 0.258819 -0.965926 24855.dat
1 288 154.5601 -98.8142 90.359 -0.5 -0.866025 0 0 0 -1 0.866025 -0.5 0 24855.dat
1 288 80.6669 -98.8142 146.5694 0 -0.258819 0.965926 -1 0 0 0 -0.965926 -0.258819 24855.dat
1 288 -10.3817 -98.8142 134.6462 0 0.5 0.866025 -1 0 0 0 -0.866025 0.5 24855.dat
1 308 50 -89.4304 30 1 0 0 0 1 0 0 0 1 6143.dat
1 308 50.0867 -60.6154 30.0496 1 0 0 0 1 0 0 0 1 15535.dat
1 308 26.0867 -56.3355 30.0496 0 -1 0 1 0 0 0 0 1 15712.dat
1 308 74.0867 -56.3355 30.0496 0 1 0 1 0 0 0 0 -1 15712.dat
1 308 50.0867 -56.3355 6.0497 0 0 -1 1 0 0 0 -1 0 15712.dat
1 308 50.0867 -56.3355 54.0496 0 0 1 1 0 0 0 1 0 15712.dat
1 308 32.7582 -56.3355 47.4774 0 -0.707107 0.707107 1 0 0 0 0.707107 0.707107 15712.dat
1 308 66.6993 -56.3355 13.5363 0 0.707107 -0.707107 1 0 0 0 -0.707107 -0.707107 15712.dat
1 308 32.7582 -56.3355 13.5363 0 -0.707107 -0.707107 1 0 0 0 -0.707107 0.707107 15712.dat
1 308 66.6993 -56.3355 47.4772 0 0.707107 0.707107 1 0 0 0 0.707107 -0.707107 15712.dat
1 0 50.0867 -56.3355 -1.9504 0 0 -1 1 0 0 0 -1 0 85861.dat
1 0 27.1013 -56.3355 7.8795 0 -0.707107 -0.707107 1 0 0 0 -0.707107 0.707107 85861.dat
1 0 18.0867 -56.3355 30.0496 0 -1 0 1 0 0 0 0 1 85861.dat
1 0 72.3562 -56.3355 7.8795 0 0.707107 -0.707107 1 0 0 0 -0.707107 -0.707107 85861.dat
1 0 82.0867 -56.3355 30.0496 0 1 0 1 0 0 0 0 -1 85861.dat
1 0 72.3562 -56.3355 53.1342 0 0.707107 0.707107 1 0 0 0 0.707107 -0.707107 85861.dat
1 0 50.0867 -56.3355 62.0496 0 0 1 1 0 0 0 1 0 85861.dat
1 0 27.1013 -56.3355 53.1343 0 -0.707107 0.707107 1 0 0 0 0.707107 0.707107 85861.dat
1 288 15.7876 -56.3355 -3.4343 0 0.707107 0.707107 1 0 0 0 0.707107 -0.707107 24855.dat
1 288 7.3114 -56.3355 -11.9105 0.5 0.707107 0.5 0.707107 0 -0.707107 -0.5 0.707107 -0.5 24855.dat
1 288 50.0867 -56.3355 -21.4341 0 0 1 1 0 0 0 1 0 24855.dat
1 288 50.0867 -56.3355 -33.8071 0.707107 0 0.707107 0.707107 0 -0.707107 0 1 0 24855.dat
1 288 83.6699 -56.3355 -3.4341 0 -0.707107 0.707107 1 0 0 0 0.707107 0.707107 24855.dat
1 288 92.1521 -56.3355 -11.9166 -0.5 -0.707107 0.5 0.707107 0 0.707107 -0.5 0.707107 0.5 24855.dat
1 288 98.0867 -56.3355 30.0496 0 -1 0 1 0 0 0 0 1 24855.dat
1 288 110.2347 -56.3355 30.0496 0 -1 0 0.707107 0 0.707107 -0.707107 0 0.707107 24855.dat
1 288 83.6699 -56.3355 64.4479 0 -0.707107 -0.707107 1 0 0 0 -0.707107 0.707107 24855.dat
1 288 92.0673 -56.3355 72.8452 0.5 -0.707107 -0.5 0.707107 0 0.707107 -0.5 -0.707107 0.5 24855.dat
1 288 50.0867 -56.3355 78.0497 0 0 -1 1 0 0 0 -1 0 24855.dat
1 288 50.0867 -56.3355 90.1931 -0.707107 0 -0.707107 0.707107 0 -0.707107 0 -1 0 24855.dat
1 288 15.7876 -56.3355 64.4479 0 0.707107 -0.707107 1 0 0 0 -0.707107 -0.707107 24855.dat
1 288 7.1844 -56.3355 73.051 -0.5 0.707107 -0.5 0.707107 0 -0.707107 -0.5 -0.707107 -0.5 24855.dat
1 288 2.0867 -56.3355 30.0496 0 1 0 1 0 0 0 0 -1 24855.dat
1 288 -10.2669 -56.3355 30.0496 0 1 0 0.707107 0 0.707107 0.707107 0 -0.707107 24855.dat
1 288 -1.2346 -56.3355 -20.4564 0 0.707107 0.707107 1 0 0 0 0.707107 -0.707107 24855.dat
1 288 50.0867 -56.3355 -46.0328 1 0 0 0 0 -1 0 1 0 24855.dat
1 288 100.7019 -56.3355 -20.4662 0 -0.707107 0.707107 1 0 0 0 0.707107 0.707107 24855.dat
1 288 122.2755 -56.3355 30.0496 0 -1 0 1 0 0 0 0 1 24855.dat
1 288 100.6793 -56.3355 81.457 -0.707107 -0.707107 0 0 0 -1 0.707107 -0.707107 0 24855.dat
1 288 50.0867 -56.3355 102.2123 -1 0 0 0 0 -1 0 -1 0 24855.dat
1 288 -1.3373 -56.3355 81.5725 -0.707107 0.707107 0 0 0 -1 -0.707107 -0.707107 0 24855.dat
1 288 -22.1526 -56.3355 30.0496 0 1 0 1 0 0 0 0 -1 24855.dat
1 288 -9.8815 -56.3355 90.1165 -0.5 0.707107 0.5 -0.707107 0 -0.707107 -0.5 -0.707107 0.5 24855.dat
1 288 -34.26 -56.3355 30.0496 0 1 0 0.707107 0 -0.707107 -0.707107 0 -0.707107 24855.dat
1 288 -9.7884 -56.3355 -29.0101 0.5 0.707107 0.5 0.707107 0 -0.707107 -0.5 0.707107 -0.5 24855.dat
1 288 50.0867 -56.3355 -57.9407 0.707107 0 0.707107 0.707107 0 -0.707107 0 1 0 24855.dat
1 288 109.2066 -56.3355 -28.9708 0.5 -0.707107 0.5 0.707107 0 -0.707107 0.5 0.707107 0.5 24855.dat
1 288 134.2964 -56.3355 30.0496 0 -1 0 0.707107 0 -0.707107 0.707107 0 0.707107 24855.dat
1 288 109.2003 -56.3355 89.9778 -0.5 -0.707107 -0.5 0.707107 0 -0.707107 0.5 -0.707107 0.5 24855.dat
1 288 50.0867 -56.3355 114.1923 -0.707107 0 0.707107 -0.707107 0 -0.707107 0 -1 0 24855.dat
1 288 -18.531 -56.3355 98.7658 -0.707107 0.707107 0 -0.000001 0 -1 -0.707107 -0.707107 0 24855.dat
1 288 -46.3113 -56.3355 30.0496 0 1 0 1 0 0 0 0 -1 24855.dat
1 288 -18.4759 -56.3355 -37.6974 0.707107 0.707107 0 0 0 -1 -0.707107 0.707107 0 24855.dat
1 288 50.0867 -56.3355 -69.9971 1 0 0 0 0 -1 0 1 0 24855.dat
1 288 117.6389 -56.3355 -37.403 0.707107 -0.707107 0 0 0 -1 0.707107 0.707107 0 24855.dat
1 288 146.4962 -56.3355 30.0496 0 -1 0 0 0 -1 1 0 0 24855.dat
1 288 117.7893 -56.3355 98.5667 -0.707107 -0.707107 0 0 0 -1 0.707107 -0.707107 0 24855.dat
1 288 50.0867 -56.3355 126.251 0 0 1 -1 0 0 0 -1 0 24855.dat
1 288 -26.9757 -56.3355 107.2104 0.000001 0.707107 0.707107 -1 0 0.000001 0.000001 -0.707107 0.707107 24855.dat
1 288 -58.2792 -56.3355 30.0496 0 1 0 0.707107 0 -0.707107 -0.707107 0 -0.707107 24855.dat
1 288 -27.0758 -56.3355 -46.2972 0.5 0.707107 -0.5 -0.707107 0 -0.707107 -0.5 0.707107 0.5 24855.dat
1 288 50.0867 -56.3355 -81.9963 0.707107 0 -0.707107 -0.707107 0 -0.707107 0 1 0 24855.dat
1 288 126.1783 -56.3355 -45.9421 0.5 -0.707107 -0.5 -0.707107 0 -0.707107 0.5 0.707107 -0.5 24855.dat
1 288 158.6981 -56.3355 30.0496 0 -1 0 -0.707107 0 -0.707107 0.707107 0 -0.707107 24855.dat
1 288 126.2964 -56.3355 107.0736 -0.5 -0.707107 0.5 -0.707107 0 -0.707107 0.5 -0.707107 -0.5 24855.dat
1 288 50.0867 -56.3355 138.7332 -0.707107 0 0.707107 -0.707107 0 -0.707107 0 -1 0 24855.dat
1 288 -35.494 -56.3355 115.7284 0.500001 0.707107 0.499999 -0.707106 0 0.707108 0.500001 -0.707107 0.499999 24855.dat
1 288 -70.2359 -56.3355 30.0496 0 1 0 0 0 -1 -1 0 0 24855.dat
1 288 -35.7137 -56.3355 -54.9349 0 0.707107 -0.707107 -1 0 0 0 0.707107 0.707107 24855.dat
1 288 50.0867 -56.3355 -93.9793 0 0 -1 -1 0 0 0 1 0 24855.dat
1 288 134.61 -56.3355 -54.3736 0 -0.707107 -0.707107 -1 0 0 0 0.707107 -0.707107 24855.dat
1 288 170.787 -56.3355 30.0496 0 -1 0 0 0 -1 1 0 0 24855.dat
1 288 134.8987 -56.3355 115.6757 0 -0.707107 0.707107 -1 0 0 0 -0.707107 -0.707107 24855.dat
1 288 50.0867 -56.3355 150.8744 0 0 1 -1 0 0 0 -1 0 24855.dat
1 288 -43.9419 -56.3355 124.1761 0.707107 0.707107 -0.000001 0.000001 0 1 0.707107 -0.707107 -0.000001 24855.dat
1 288 -81.9949 -56.3355 30.0496 0 1 0 0.707107 0 -0.707107 -0.707107 0 -0.707107 24855.dat
1 288 -44.083 -56.3355 -63.304 -0.5 0.707107 -0.5 -0.707107 0 0.707107 0.5 0.707107 0.5 24855.dat
1 288 50.0867 -56.3355 -106.2379 -0.707107 0 -0.707107 -0.707107 0 0.707107 0 1 0 24855.dat
1 288 143.1587 -56.3355 -62.9222 -0.5 -0.707107 -0.5 -0.707107 0 0.707107 -0.5 0.707107 -0.5 24855.dat
1 288 182.8444 -56.3355 30.0496 0 -1 0 0.707107 0 -0.707107 0.707107 0 0.707107 24855.dat
1 288 143.3311 -56.3355 124.1079 0.5 -0.707107 0.5 -0.707107 0 0.707107 -0.5 -0.707107 -0.5 24855.dat
1 288 50.0867 -56.3355 162.85 -0.707107 0 0.707107 -0.707107 0 -0.707107 0 -1 0 24855.dat
