0 
0 Name: New Model.ldr
0 Author: 
1 8 60 -144 -120 1 0 0 0 1 0 0 0 1 6082.dat
1 8 60 -144 -40 -1 0 0 0 1 0 0 0 -1 6082.dat
1 8 80 -168 -70 -1 0 0 0 1 0 0 0 -1 3297.dat
1 8 50 -168 -90 1 0 0 0 1 0 0 0 1 4161.dat
1 8 90 -168 -110 1 0 0 0 1 0 0 0 1 3040b.dat
1 8 10 -168 -90 -1 0 0 0 1 0 0 0 -1 60477.dat
1 8 10 -168 -110 1 0 0 0 1 0 0 0 1 3040b.dat
1 8 110 -168 -90 1 0 0 0 1 0 0 0 1 4286.dat
1 8 30 -168 -70 -1 0 0 0 1 0 0 0 -1 4286.dat
1 8 90 -168 -90 1 0 0 0 1 0 0 0 1 3005.dat
1 8 150 -24 -90 0 0 1 0 1 0 -1 0 0 3622.dat
1 8 -30 -24 -80 0 0 1 0 1 0 -1 0 0 3066.dat
1 8 150 -24 -50 0 0 -1 0 1 0 1 0 0 3040b.dat
1 8 40 -72 -150 1 0 0 0 1 0 0 0 1 3048b.dat
1 8 130 -168 -100 1 0 0 0 1 0 0 0 1 3044b.dat
1 8 130 -168 -70 -1 0 0 0 1 0 0 0 -1 3040b.dat
1 8 -10 -168 -50 1 0 0 0 1 0 0 0 1 60477.dat
1 8 -30 -120 -100 0 0 1 0 1 0 -1 0 0 85984.dat
1 8 -30 -120 -60 0 0 1 0 1 0 -1 0 0 85984.dat
1 8 -30 -48 -30 -1 0 0 0 1 0 0 0 -1 54200.dat
1 8 -30 -24 -10 -1 0 0 0 1 0 0 0 -1 54200.dat
1 8 -10 -96 -10 0 0 -1 0 1 0 1 0 0 54200.dat
1 8 -10 -120 -30 0 0 1 0 1 0 -1 0 0 54200.dat
1 8 -10 -120 -130 1 0 0 0 1 0 0 0 1 54200.dat
1 8 -30 -48 -130 0 0 1 0 1 0 -1 0 0 54200.dat
1 8 -30 -24 -150 0 0 1 0 1 0 -1 0 0 54200.dat
1 8 -10 -48 -150 0 0 -1 0 1 0 1 0 0 3040b.dat
1 8 150 -144 -110 -1 0 0 0 1 0 0 0 -1 60477.dat
1 8 80 -72 -10 -1 0 0 0 1 0 0 0 -1 3039.dat
1 8 50 -152 -10 0 0 1 0 1 0 -1 0 0 28192.dat
1 8 120 -48 -10 0 0 -1 0 1 0 1 0 0 3044b.dat
1 8 130 -144 -30 0 0 -1 0 1 0 1 0 0 3040b.dat
1 8 150 -24 -10 -1 0 0 0 1 0 0 0 -1 54200.dat
1 8 150 -56 -130 1 0 0 0 1 0 0 0 1 28192.dat
1 8 130 -120 -130 1 0 0 0 1 0 0 0 1 54200.dat
1 8 70 -152 -150 0 0 -1 0 1 0 1 0 0 28192.dat
1 8 130 -96 -150 0 0 -1 0 1 0 1 0 0 54200.dat
1 8 30 -120 -10 -1 0 0 0 1 0 0 0 -1 3005.dat
1 8 90 -120 -150 1 0 0 0 1 0 0 0 1 3005.dat
1 8 150 -120 -30 -1 0 0 0 1 0 0 0 -1 14716.dat
1 8 30 -128 -10 -1 0 0 0 1 0 0 0 -1 3024.dat
1 8 90 -128 -150 1 0 0 0 1 0 0 0 1 3024.dat
1 8 150 -32 -150 1 0 0 0 1 0 0 0 1 3024.dat
1 8 80 -48 10 -1 0 0 0 1 0 0 0 -1 3245a.dat
