0 
0 Name: New Model.ldr
0 Author: 
1 8 50 -168 -90 1 0 0 0 1 0 0 0 1 6083.dat
1 8 50 -168 -30 -1 0 0 0 1 0 0 0 -1 6083.dat
1 8 60 -192 -70 -1 0 0 0 1 0 0 0 -1 3040b.dat
1 8 50 -168 -30 -1 0 0 0 1 0 0 0 -1 3048a.dat
1 8 40 -192 -60 -1 0 0 0 1 0 0 0 -1 3044a.dat
1 8 100 -120 -30 1 0 0 0 1 0 0 0 1 3046.dat
1 8 20 -168 -60 0 0 1 0 1 0 -1 0 0 3039.dat
1 8 40 -144 -90 1 0 0 0 1 0 0 0 1 54200.dat
1 8 20 -120 -90 1 0 0 0 1 0 0 0 1 54200.dat
1 8 70 -144 -90 1 0 0 0 1 0 0 0 1 85984.dat
1 8 80 -120 -110 0 0 1 0 1 0 -1 0 0 60477.dat
1 8 0 -72 -110 1 0 0 0 1 0 0 0 1 54200.dat
1 8 -20 -72 -40 0 0 1 0 1 0 -1 0 0 3039.dat
1 8 -20 -48 -80 0 0 1 0 1 0 -1 0 0 85984.dat
1 8 0 -96 -90 0 0 1 0 1 0 -1 0 0 54200.dat
1 8 0 -96 -30 0 0 1 0 1 0 -1 0 0 54200.dat
1 8 20 -120 -30 0 0 1 0 1 0 -1 0 0 54200.dat
1 8 80 -120 -30 -1 0 0 0 1 0 0 0 -1 54200.dat
1 8 -20 -24 -110 0 0 1 0 1 0 -1 0 0 54200.dat
1 8 60 -96 -110 1 0 0 0 1 0 0 0 1 3005.dat
1 8 120 -96 -40 0 0 -1 0 1 0 1 0 0 3245a.dat
1 8 0 -144 -60 0 0 1 0 1 0 -1 0 0 3245a.dat
1 8 80 -144 -90 0 0 1 0 1 0 -1 0 0 3005.dat
1 8 40 -96 -110 1 0 0 0 1 0 0 0 1 14716.dat
1 8 -40 -48 -40 0 0 1 0 1 0 -1 0 0 3245a.dat
1 8 -20 -24 -60 0 0 1 0 1 0 -1 0 0 3010.dat
1 8 120 -24 -60 0 0 -1 0 1 0 1 0 0 3010.dat
1 8 100 -72 -110 0 0 -1 0 1 0 1 0 0 54200.dat
1 8 120 -24 -110 0 0 -1 0 1 0 1 0 0 54200.dat
1 8 120 -24 -10 0 0 -1 0 1 0 1 0 0 54200.dat
1 8 80 -120 -10 0 0 -1 0 1 0 1 0 0 3040b.dat
1 8 60 -24 -10 -1 0 0 0 1 0 0 0 -1 54200.dat
1 8 40 -72 -10 0 0 -1 0 1 0 1 0 0 54200.dat
1 8 0 -72 -10 0 0 1 0 1 0 -1 0 0 54200.dat
1 8 20 -96 -10 -1 0 0 0 1 0 0 0 -1 54200.dat
1 8 -20 -24 -10 0 0 1 0 1 0 -1 0 0 54200.dat
1 8 80 -168 -60 1 0 0 0 1 0 0 0 1 3044b.dat
1 8 100 -96 -80 0 0 -1 0 1 0 1 0 0 85984.dat
1 8 120 -48 -80 0 0 -1 0 1 0 1 0 0 85984.dat
1 8 100 -96 -10 0 0 -1 0 1 0 1 0 0 3005.dat
