0 
0 Name: New Model.ldr
0 Author: 
1 423 30.1598 -136.0762 -118.0811 -1 0 0 0 0.669131 -0.743145 0 -0.743145 -0.669131 43892.dat
1 423 30 -16 -82 1 0 0 0 0 -1 0 1 0 40378.dat
1 423 18.7578 -174.0763 -88.1739 0.5 0.643582 -0.579484 0 -0.669131 -0.743145 -0.866025 0.371572 -0.334565 43892.dat
1 423 49.9251 -54 -69.9949 0.5 0.866025 0 0 0 -1 -0.866025 0.5 0 40378.dat
1 423 49.9356 -33.9966 -70 0 -1 0 1 0 0 0 0 1 75535.dat
1 423 25.9356 -33.9966 -60 0 -1 0 1 0 0 0 0 1 75535.dat
1 423 25.9356 -73.9966 -60 0 -1 0 1 0 0 0 0 1 75535.dat
1 423 -5.5836 -213.9353 -41.9585 0.5 -0.643582 -0.579484 0 0.669131 -0.743145 0.866025 0.371572 0.334565 43892.dat
1 423 25.7434 -93.859 -59.8607 -0.5 0.866025 0 0 0 -1 -0.866025 -0.5 0 40378.dat
1 423 30.4946 -149.7624 -215.0206 0.258819 0 -0.965926 -0.620885 0.766044 -0.166366 0.739942 0.642788 0.198267 4733.dat
1 423 16.5293 -144.5296 -205.7449 0 -0.258819 -0.965926 0.766044 0.620885 -0.166366 0.642788 -0.739942 0.198267 43892.dat
1 423 27.4033 -133.2532 -218.9682 0 0.965926 -0.258819 0.766044 0.166366 0.620885 0.642788 -0.198267 -0.739942 43892.dat
1 423 43.9978 -139.713 -211.4364 0 0.258819 0.965926 0.766044 -0.620885 0.166366 0.642788 0.739942 -0.198267 43892.dat
1 15 136.0056 -180.2921 -191.3168 0.707107 0 -0.707107 -0.454519 0.766044 -0.45452 0.541675 0.642788 0.541675 2423.dat
1 13 178.4321 -159.1494 -228.9596 0.707107 0 -0.707107 -0.454519 0.766044 -0.45452 0.541675 0.642788 0.541675 6141.dat
1 13 164.2899 -186.4206 -196.459 0.707107 0 -0.707107 -0.454519 0.766044 -0.45452 0.541675 0.642788 0.541675 6141.dat
1 13 136.0054 -168.2398 -218.126 0.707107 0 -0.707107 -0.454519 0.766044 -0.45452 0.541675 0.642788 0.541675 6141.dat
1 15 116.8285 -183.7697 -186.9863 0.707107 0 0.707107 0.45452 0.766044 -0.454519 -0.541676 0.642788 0.541675 2423.dat
1 13 88.5442 -189.8981 -192.1286 0.707107 0 0.707107 0.45452 0.766044 -0.454519 -0.541676 0.642788 0.541675 6141.dat
1 10022 74.4017 -162.6268 -224.6294 1 0 0 0 0.766044 -0.642788 0 0.642788 0.766044 33291.dat
1 423 145.8732 -165.0303 -181.5402 -0.258819 -0.965926 0 0.620885 -0.166366 0.766044 -0.739942 0.198267 0.642788 32952.dat
1 423 107.2361 -171.6849 -173.6096 -0.258819 -0.965926 0 0.620885 -0.166366 0.766044 -0.739942 0.198267 0.642788 6141.dat
1 15 126.3795 -188.9704 -194.6909 -0.965926 0 -0.258819 -0.166366 0.766044 0.620885 0.198267 0.642788 -0.739942 3023b.dat
1 10022 135.9325 -193.4602 -201.9846 0.866025 0 -0.5 -0.321394 0.766044 -0.55667 0.383022 0.642788 0.663414 33291.dat
1 15 30.4947 -158.955 -222.734 -0.785857 0 0.618408 0.397505 0.766045 0.505139 -0.473728 0.642788 -0.602002 2423.dat
1 15 30.4946 -165.1454 -227.9284 -0.965926 0 -0.258819 -0.166366 0.766044 0.620885 0.198267 0.642788 -0.739942 2423.dat
1 13 -6.6102 -195.7145 -192.0268 -0.785857 0 0.618408 0.397505 0.766045 0.505139 -0.473728 0.642788 -0.602002 6141.dat
1 13 16.1229 -187.2786 -214.8354 -0.965926 0 -0.258819 -0.166366 0.766044 0.620885 0.198267 0.642788 -0.739942 6141.dat
1 13 46.0571 -208.9872 -188.898 -0.965926 0 -0.258819 -0.166366 0.766044 0.620885 0.198267 0.642788 -0.739942 6141.dat
1 10022 30.4947 -171.2701 -233.0677 -0.707107 0 0.707107 0.454519 0.766044 0.45452 -0.541675 0.642788 -0.541675 33291.dat
1 423 70.2067 -76.8652 -286.6595 -0.965926 0.258819 0 -0.166366 -0.620885 0.766044 0.198267 0.739942 0.642788 87087.dat
1 15 72.9726 -96.7344 -290.8851 -0.965926 0 -0.258819 -0.166366 0.766044 0.620885 0.198267 0.642788 -0.739942 2417.dat
1 13 72.9726 -102.8627 -296.0275 -0.965926 0 -0.258819 -0.166366 0.766044 0.620885 0.198267 0.642788 -0.739942 6141.dat
1 13 88.5018 -140.1161 -251.6306 -0.965926 0 -0.258819 -0.166366 0.766044 0.620885 0.198267 0.642788 -0.739942 6141.dat
1 13 101.357 -71.2613 -333.6887 -0.866025 0 0.5 0.321394 0.766044 0.55667 -0.383022 0.642788 -0.663414 6141.dat
1 13 34.2047 -109.54 -288.0699 -0.965926 0 -0.258819 -0.166366 0.766044 0.620885 0.198267 0.642788 -0.739942 6141.dat
1 10022 23.9856 -84.4923 -317.613 -0.965926 0 -0.258819 -0.166366 0.766044 0.620885 0.198267 0.642788 -0.739942 33291.dat
1 10022 111.5826 -96.2027 -303.9441 -0.422618 0 -0.906308 -0.582563 0.766044 0.271654 0.694272 0.642788 -0.323744 33291.dat
1 423 76.4394 -91.8169 -268.8406 -0.965926 0.258819 0 -0.166366 -0.620885 0.766044 0.198267 0.739942 0.642788 6141.dat
1 423 -71.4163 -117.0277 -238.6757 0.258819 0.965926 0 -0.620885 0.166365 0.766045 0.739942 -0.198266 0.642788 87087.dat
1 15 -61.8815 -128.9902 -252.3242 0.258819 0 -0.965926 -0.620885 0.766045 -0.166365 0.739942 0.642788 0.198266 2417.dat
1 13 -61.8815 -135.1186 -257.4667 0.258819 0 -0.965926 -0.620885 0.766045 -0.166365 0.739942 0.642788 0.198266 6141.dat
1 13 -3.925 -125.1365 -269.3628 0.258819 0 -0.965926 -0.620885 0.766045 -0.166365 0.739942 0.642788 0.198266 6141.dat
1 13 -111.0448 -116.8732 -279.2106 -0.5 0 -0.866025 -0.55667 0.766045 0.321394 0.663414 0.642788 -0.383022 6141.dat
1 13 -51.4936 -160.0383 -227.7685 0.258819 0 -0.965926 -0.620885 0.766045 -0.166365 0.739942 0.642788 0.198266 6141.dat
1 10022 -90.2251 -166.4554 -219.8134 0.258819 0 -0.965926 -0.620885 0.766045 -0.166365 0.739942 0.642788 0.198266 33291.dat
1 10022 -72.227 -110.2904 -287.0352 0.906307 0 -0.422619 -0.271654 0.766045 -0.582563 0.323745 0.642788 0.694272 33291.dat
1 423 -48.1554 -113.0214 -243.4504 0.258819 0.965926 0 -0.620885 0.166365 0.766045 0.739942 -0.198266 0.642788 6141.dat
1 423 -90.5742 -226.7697 8.0234 0.147763 0.582563 0.799241 -0.53688 0.725929 -0.429869 -0.830618 -0.365577 0.420032 4733.dat
1 423 -73.2102 -225.7465 10.4509 0.582563 -0.147763 0.799241 0.725929 0.536879 -0.429869 -0.365577 0.830618 0.420032 43892.dat
1 423 -87.1834 -211.6964 15.7044 0.582563 -0.799241 -0.147763 0.725929 0.429869 0.536879 -0.365577 -0.420032 0.830618 43892.dat
1 423 -95.9538 -213.439 -1.4387 0.582563 0.147763 -0.799241 0.725929 -0.536879 0.429869 -0.365577 -0.830618 -0.420032 43892.dat
1 15 -159.5342 -227.3346 -80.6937 -0.271654 0.582563 0.766044 -0.250017 0.725929 -0.640717 -0.929352 -0.365577 -0.051551 2423.dat
1 13 -210.1574 -194.699 -74.676 -0.271654 0.582563 0.766044 -0.250017 0.725929 -0.640717 -0.929352 -0.365577 -0.051551 6141.dat
1 13 -184.9486 -225.3282 -95.325 -0.271654 0.582563 0.766044 -0.250017 0.725929 -0.640717 -0.929352 -0.365577 -0.051551 6141.dat
1 13 -174.0823 -215.3274 -58.1509 -0.271654 0.582563 0.766044 -0.250017 0.725929 -0.640717 -0.929352 -0.365577 -0.051551 6141.dat
1 15 -143.452 -236.0428 -72.6853 -0.766044 0.582563 -0.271654 0.640717 0.725929 -0.250017 0.051551 -0.365577 -0.929352 2423.dat
1 13 -127.3586 -249.6643 -52.2046 -0.766044 0.582563 -0.271654 0.640717 0.725929 -0.250017 0.051551 -0.365577 -0.929352 6141.dat
1 10022 -131.8134 -226.8492 -13.9992 -0.733764 0.582563 0.349587 0.276267 0.725929 -0.629844 -0.6207 -0.365577 -0.693603 33291.dat
1 423 -157.114 -210.0976 -91.78 -0.147763 0.799241 0.582563 0.53688 -0.429869 0.725929 0.830618 0.420032 -0.365577 32952.dat
1 423 -125.1446 -227.2923 -74.9787 -0.147763 0.799241 0.582563 0.53688 -0.429869 0.725929 0.830618 0.420032 -0.365577 6141.dat
1 15 -156.5608 -238.2796 -73.5717 0.799241 0.582563 -0.147763 -0.429869 0.725929 0.53688 0.420032 -0.365577 0.830618 3023b.dat
1 10022 -169.2495 -239.8392 -74.6561 -0.460664 0.582563 0.669633 -0.075668 0.725929 -0.683594 -0.884343 -0.365577 -0.290328 33291.dat
1 15 -97.5649 -235.481 12.4103 0.360446 0.582563 -0.728491 0.172394 0.725929 0.665813 0.916711 -0.365577 0.161228 2423.dat
1 15 -102.2727 -241.3471 15.3645 0.799241 0.582563 -0.147763 -0.429869 0.725929 0.53688 0.420032 -0.365577 0.830618 2423.dat
1 13 -58.7609 -281.5434 5.8152 0.360446 0.582563 -0.728491 0.172394 0.725929 0.665813 0.916711 -0.365577 0.161228 6141.dat
1 13 -88.2219 -266.7943 10.5821 0.799241 0.582563 -0.147763 -0.429869 0.725929 0.53688 0.420032 -0.365577 0.830618 6141.dat
1 13 -98.3375 -279.7971 -31.4737 0.799241 0.582563 -0.147763 -0.429869 0.725929 0.53688 0.420032 -0.365577 0.830618 6141.dat
1 10022 -106.9305 -247.1511 18.2873 0.271654 0.582563 -0.766044 0.250017 0.725929 0.640717 0.929352 -0.365577 0.051551 33291.dat
1 423 -149.5735 -144.6109 50.3584 0.799241 0.147763 0.582563 -0.429869 -0.536879 0.725929 0.420032 -0.830618 -0.365577 87087.dat
1 15 -158.719 -162.8734 48.5856 0.799241 0.582563 -0.147763 -0.429869 0.725929 0.53688 0.420032 -0.365577 0.830618 2417.dat
1 13 -163.3796 -168.6808 51.5102 0.799241 0.582563 -0.147763 -0.429869 0.725929 0.53688 0.420032 -0.365577 0.830618 6141.dat
1 13 -154.5139 -200.8938 1.6726 0.799241 0.582563 -0.147763 -0.429869 0.725929 0.53688 0.420032 -0.365577 0.830618 6141.dat
1 13 -201.394 -129.8739 67.9918 0.460664 0.582563 -0.669633 0.075668 0.725929 0.683594 0.884343 -0.365577 0.290328 6141.dat
1 13 -131.3018 -185.9336 68.3683 0.799241 0.582563 -0.147763 -0.429869 0.725929 0.53688 0.420032 -0.365577 0.830618 6141.dat
1 10022 -137.2284 -164.2184 101.5036 0.799241 0.582563 -0.147763 -0.429869 0.725929 0.53688 0.420032 -0.365577 0.830618 33291.dat
1 10022 -195.3191 -151.4885 34.7158 0.626936 0.582563 0.517274 -0.687588 0.725929 0.015801 -0.366299 -0.365577 0.855674 33291.dat
1 423 -146.0151 -157.5398 30.3558 0.799241 0.147763 0.582563 -0.429869 -0.536879 0.725929 0.420032 -0.830618 -0.365577 6141.dat
1 423 -23.7354 -223.0926 94.8342 0.147764 -0.799241 0.582563 -0.53688 0.429869 0.725929 -0.830618 -0.420033 -0.365577 87087.dat
1 15 -42.1484 -231.7372 97.3915 0.147764 0.582563 0.799241 -0.53688 0.725929 -0.429868 -0.830618 -0.365577 0.420032 2417.dat
1 13 -46.809 -237.5447 100.3161 0.147764 0.582563 0.799241 -0.53688 0.725929 -0.429868 -0.830618 -0.365577 0.420032 6141.dat
1 13 -94.7642 -211.7521 75.1139 0.147764 0.582563 0.799241 -0.53688 0.725929 -0.429868 -0.830618 -0.365577 0.420032 6141.dat
1 13 -20.6577 -233.2489 150.5196 0.669633 0.582563 0.460664 -0.683594 0.725929 0.075668 -0.290328 -0.365577 0.884343 6141.dat
1 13 -40.8784 -259.0926 66.9788 0.147764 0.582563 0.799241 -0.53688 0.725929 -0.429868 -0.830618 -0.365577 0.420032 6141.dat
1 10022 -8.7708 -276.0858 83.8595 0.147764 0.582563 0.799241 -0.53688 0.725929 -0.429868 -0.830618 -0.365577 0.420032 33291.dat
1 10022 -52.7077 -216.0746 133.5131 -0.517273 0.582563 0.626936 -0.015801 0.725929 -0.687588 -0.855674 -0.365577 -0.366298 33291.dat
1 423 -42.9825 -212.7405 84.7192 0.147764 -0.799241 0.582563 -0.53688 0.429869 0.725929 -0.830618 -0.420033 -0.365577 6141.dat
1 423 30.7262 -274.8062 -89.6524 0.432418 0.214456 -0.875799 -0.500001 0.865318 -0.034982 0.750342 0.453027 0.481407 4733.dat
1 423 20.2023 -266.6841 -78.1747 0.214461 -0.432413 -0.8758 0.865317 0.500003 -0.034975 0.453026 -0.750344 0.481406 43892.dat
1 423 27.3286 -259.0536 -95.8177 0.214461 0.875798 -0.432418 0.865317 0.034978 0.500003 0.453026 -0.48141 -0.750341 43892.dat
1 423 45.097 -265.6151 -91.9323 0.214461 0.432413 0.8758 0.865317 -0.500003 0.034975 0.453026 0.750344 -0.481406 43892.dat
1 15 137.2648 -310.539 -89.8253 0.812383 0.214457 -0.542257 -0.415524 0.865318 -0.280294 0.409114 0.453027 0.792081 2423.dat
1 13 168.0856 -300.6439 -140.976 0.812383 0.214457 -0.542257 -0.415524 0.865318 -0.280294 0.409114 0.453027 0.792081 6141.dat
1 13 162.6428 -320.1668 -101.1091 0.812383 0.214457 -0.542257 -0.415524 0.865318 -0.280294 0.409114 0.453027 0.792081 6141.dat
1 13 130.146 -303.5451 -117.4745 0.812383 0.214457 -0.542257 -0.415524 0.865318 -0.280294 0.409114 0.453027 0.792081 6141.dat
1 15 119.9818 -311.3335 -79.8613 0.542256 0.214457 0.812383 0.280294 0.865318 -0.415524 -0.792081 0.453027 0.409113 2423.dat
1 13 91.1717 -315.5517 -75.8264 0.542256 0.214457 0.812383 0.280294 0.865318 -0.415524 -0.792081 0.453027 0.409113 6141.dat
1 10022 69.5207 -293.3243 -108.0342 0.957875 0.214457 0.191006 -0.095623 0.865318 -0.492018 -0.270798 0.453027 0.849373 33291.dat
1 423 150.1292 -294.7859 -86.3256 -0.432418 -0.875798 0.214461 0.500001 -0.034977 0.865318 -0.750342 0.48141 0.453025 32952.dat
1 423 115.096 -296.185 -67.0688 -0.432418 -0.875798 0.214461 0.500001 -0.034977 0.865318 -0.750342 0.48141 0.453025 6141.dat
1 15 126.7254 -318.7217 -88.6701 -0.875801 0.214455 -0.432414 -0.03498 0.865318 0.500001 0.481404 0.453027 -0.750345 3023b.dat
1 10022 133.6165 -325.339 -97.2341 0.925048 0.214456 -0.313522 -0.32882 0.865318 -0.378289 0.190169 0.453027 0.870977 33291.dat
1 15 28.1527 -285.1906 -95.0889 -0.870873 0.214455 0.442254 0.379413 0.865318 0.327523 -0.312451 0.453028 -0.834949 2423.dat
1 15 26.4196 -292.1833 -98.7501 -0.875801 0.214455 -0.432414 -0.03498 0.865318 0.500001 0.481404 0.453027 -0.750345 2423.dat
1 13 -0.1897 -312.1304 -48.805 -0.870873 0.214455 0.442254 0.379413 0.865318 0.327523 -0.312451 0.453028 -0.834949 6141.dat
1 13 15.455 -310.1331 -78.1231 -0.875801 0.214455 -0.432414 -0.03498 0.865318 0.500001 0.481404 0.453027 -0.750345 6141.dat
1 13 50.5992 -329.6019 -57.4808 -0.875801 0.214455 -0.432414 -0.03498 0.865318 0.500001 0.481404 0.453027 -0.750345 6141.dat
1 10022 24.7048 -299.1021 -102.3721 -0.812383 0.214457 0.542257 0.415524 0.865318 0.280294 -0.409114 0.453027 -0.792081 33291.dat
1 423 51.4338 -220.0713 -182.3843 -0.875801 0.432414 0.214457 -0.03498 -0.500003 0.865317 0.481404 0.750343 0.453029 87087.dat
1 15 52.0576 -240.5488 -183.1608 -0.875801 0.214455 -0.432414 -0.03498 0.865318 0.500001 0.481404 0.453027 -0.750345 2417.dat
1 13 50.3416 -247.4715 -186.7848 -0.875801 0.214455 -0.432414 -0.03498 0.865318 0.500001 0.481404 0.453027 -0.750345 6141.dat
1 13 76.288 -277.4731 -141.7623 -0.875801 0.214455 -0.432414 -0.03498 0.865318 0.500001 0.481404 0.453027 -0.750345 6141.dat
1 13 68.1408 -225.9954 -236.2314 -0.925048 0.214456 0.313522 0.32882 0.865318 0.378289 -0.190169 0.453027 -0.870977 6141.dat
1 13 15.1904 -248.8754 -167.4633 -0.875801 0.214455 -0.432414 -0.03498 0.865318 0.500001 0.481404 0.453027 -0.750345 6141.dat
1 10022 -1.9553 -228.6696 -197.505 -0.875801 0.214455 -0.432414 -0.03498 0.865318 0.500001 0.481404 0.453027 -0.750345 33291.dat
1 10022 85.3534 -246.0619 -206.0224 -0.231703 0.214456 -0.948853 -0.405509 0.865318 0.294598 0.884238 0.453027 -0.113533 33291.dat
1 423 61.8474 -232.1125 -164.3142 -0.875801 0.432414 0.214457 -0.03498 -0.500003 0.865317 0.481404 0.750343 0.453029 6141.dat
1 423 -72.2589 -237.2504 -90.8469 0.432416 0.875798 0.214461 -0.500002 0.034976 0.865318 0.750343 -0.481408 0.453025 87087.dat
1 15 -67.5007 -252.3224 -103.9045 0.432416 0.214457 -0.875799 -0.500002 0.865318 -0.03498 0.750343 0.453027 0.481406 2417.dat
1 13 -69.2162 -259.2453 -107.5289 0.432416 0.214457 -0.875799 -0.500002 0.865318 -0.03498 0.750343 0.453027 0.481406 6141.dat
1 13 -16.6657 -257.1467 -136.4147 0.432416 0.214457 -0.875799 -0.500002 0.865318 -0.03498 0.750343 0.453027 0.481406 6141.dat
1 13 -121.7324 -240.5777 -118.3257 -0.313519 0.214456 -0.925048 -0.378289 0.865318 0.328819 0.870978 0.453027 -0.190167 6141.dat
1 13 -51.8604 -279.3138 -77.4125 0.432416 0.214457 -0.875799 -0.500002 0.865318 -0.03498 0.750343 0.453027 0.481406 6141.dat
1 10022 -86.9677 -280.4668 -58.1542 0.432416 0.214457 -0.875799 -0.500002 0.865318 -0.03498 0.750343 0.453027 0.481406 33291.dat
1 10022 -86.4982 -239.2475 -137.517 0.948852 0.214457 -0.231707 -0.2946 0.865318 -0.405508 0.113536 0.453028 0.884237 33291.dat
1 423 -51.1673 -236.408 -102.4404 0.432416 0.875798 0.214461 -0.500002 0.034976 0.865318 0.750343 -0.481408 0.453025 6141.dat
1 423 30.4946 -130.894 -199.1882 0.258819 0 -0.965926 -0.620885 0.766044 -0.166366 0.739942 0.642788 0.198267 6141.dat
1 423 -76.7682 -209.5661 -0.6403 0.147763 0.582563 0.799241 -0.53688 0.725929 -0.429869 -0.830618 -0.365577 0.420032 6141.dat
1 423 35.9661 -253.6644 -78.5839 0.432418 0.214456 -0.875799 -0.500001 0.865318 -0.034982 0.750342 0.453027 0.481407 6141.dat
1 423 19.9903 -5.7016 -87.9483 1 -0 0 -0 -0 1 -0 -1 -0 11458.dat
1 423 10.0246 -5.7016 -63.7505 1 -0 0 -0 -0 1 -0 -1 -0 3005.dat
1 423 30.1352 -5.7016 -39.6402 1 -0 0 -0 -0 1 -0 -1 -0 3622.dat
1 423 50.1522 -5.7016 -63.5256 1 0 0 0 0 1 0 -1 0 3005.dat
1 423 49.9903 -5.7016 -87.9483 1 -0 0 -0 -0 1 -0 -1 -0 3024.dat
